<?xml version="1.0" ?>
<svg xmlns="http://www.w3.org/2000/svg" version="1.1" width="600" height="600">
  <defs/>
  <g>
    <path d="M 410.7052001953125 460.4805908203125 C 413.83941650390625 671.61279296875 383.8074951171875 655.4650268554688 298.3335266113281 622.1956176757812 C 230.00486755371094 592.4181518554688 214.6471710205078 591.5396118164062 100.9346694946289 503.8096008300781 C 92.29644012451172 432.215576171875 104.95569610595703 417.79547119140625 306.2301025390625 371.4321594238281 C 365.80218505859375 393.5904541015625 342.8865966796875 429.22772216796875 410.7052001953125 460.4805908203125" stroke-width="0.0" fill="rgb(241, 253, 244)" opacity="0.41405848"/>
    <path d="M 163.1183624267578 215.4635467529297 C 74.59390258789062 352.89373779296875 72.64698791503906 371.3992919921875 32.045413970947266 448.37249755859375 C -45.540687561035156 417.0625 -54.67572021484375 408.07745361328125 -44.459632873535156 291.8944396972656 C -94.30252838134766 187.47463989257812 -111.0185546875 186.74241638183594 103.00145721435547 214.43724060058594 C 191.37408447265625 178.54750061035156 192.87014770507812 178.15875244140625 163.1183624267578 215.4635467529297" stroke-width="0.0" fill="rgb(254, 235, 124)" opacity="0.6807159"/>
    <path d="M 605.7100219726562 426.5325012207031 C 591.3592529296875 462.2909851074219 611.0090942382812 491.3070068359375 543.642578125 500.0182800292969 C 451.7237243652344 494.07696533203125 383.24200439453125 531.76708984375 268.12750244140625 323.2497253417969 C 282.699951171875 172.57676696777344 314.2220764160156 202.6358184814453 462.6470031738281 183.86642456054688 C 632.779052734375 312.62506103515625 622.0633544921875 362.43109130859375 605.7100219726562 426.5325012207031" stroke-width="0.0" fill="rgb(242, 255, 224)" opacity="0.3920933"/>
    <path d="M 20.797386169433594 0.05130498483777046 C 18.11789321899414 10.051304817199707 10.79738712310791 17.37181282043457 0.7973870038986206 20.051305770874023 C -9.20261287689209 17.37181282043457 -16.523120880126953 10.051304817199707 -19.202613830566406 0.05130498483777046 C -16.523120880126953 -9.948695182800293 -9.20261287689209 -17.269201278686523 0.7973870038986206 -19.948694229125977 C 10.79738712310791 -17.269201278686523 18.11789321899414 -9.948695182800293 20.797386169433594 0.05130498483777046" stroke-width="0.0" fill="rgb(14, 147, 155)" opacity="1.0"/>
    <path d="M 601.3649291992188 50.30782699584961 C 593.3951416015625 119.35273742675781 596.3185424804688 140.9771270751953 522.301513671875 193.0209197998047 C 448.59674072265625 192.93426513671875 416.22918701171875 204.5811767578125 386.09356689453125 72.97946166992188 C 378.8946838378906 -67.65190887451172 391.0134582519531 -69.77458190917969 475.32989501953125 -56.295982360839844 C 637.2888793945312 -11.753861427307129 632.7407836914062 8.996719360351562 601.3649291992188 50.30782699584961" stroke-width="0.0" fill="rgb(253, 236, 94)" opacity="0.78253025"/>
    <path d="M 200.43484497070312 562.2409057617188 C 200.63844299316406 635.0936279296875 186.91184997558594 640.2133178710938 108.32311248779297 643.4586791992188 C 6.397343158721924 639.0068969726562 -12.301692008972168 644.5240478515625 -59.5295295715332 484.8065490722656 C -43.42458724975586 426.18145751953125 -15.013882637023926 438.19390869140625 86.78156280517578 416.8404541015625 C 205.14942932128906 435.3561706542969 201.37010192871094 466.3346252441406 200.43484497070312 562.2409057617188" stroke-width="0.0" fill="rgb(247, 224, 120)" opacity="0.77300483"/>
    <path d="M 440.6733093261719 171.38880920410156 C 450.0352783203125 203.43479919433594 427.7038879394531 245.8003387451172 258.7826232910156 274.05548095703125 C 101.77775573730469 226.02915954589844 107.15861511230469 199.73883056640625 153.9874267578125 187.65284729003906 C 262.87451171875 49.48537826538086 250.544921875 21.398557662963867 221.6721954345703 33.65717315673828 C 260.1314697265625 61.02760314941406 304.0581970214844 40.02750015258789 440.6733093261719 171.38880920410156" stroke-width="0.0" fill="rgb(254, 255, 243)" opacity="0.9017324"/>
    <path d="M 20.088083267211914 0.3533188998699188 C 17.40859031677246 10.35331916809082 10.088082313537598 17.673826217651367 0.0880826860666275 20.35331916809082 C -9.911917686462402 17.673826217651367 -17.232423782348633 10.35331916809082 -19.911916732788086 0.3533188998699188 C -17.232423782348633 -9.64668083190918 -9.911917686462402 -16.967187881469727 0.0880826860666275 -19.64668083190918 C 10.088082313537598 -16.967187881469727 17.40859031677246 -9.64668083190918 20.088083267211914 0.3533188998699188" stroke-width="0.0" fill="rgb(139, 232, 234)" opacity="1.0"/>
    <path d="M 652.0062255859375 523.0948486328125 C 611.07861328125 632.465087890625 595.1468505859375 632.2534790039062 477.6850891113281 644.2626342773438 C 405.1239318847656 641.9323120117188 446.68988037109375 601.5601196289062 392.11431884765625 453.68231201171875 C 280.7200012207031 407.47100830078125 317.50238037109375 326.5548095703125 350.9799499511719 340.87060546875 C 599.59716796875 449.97344970703125 634.783447265625 434.77911376953125 652.0062255859375 523.0948486328125" stroke-width="0.0" fill="rgb(239, 233, 216)" opacity="0.84319144"/>
    <path d="M 211.4008331298828 130.22239685058594 C 187.8680419921875 199.44876098632812 134.60081481933594 201.10885620117188 79.8800277709961 229.51060485839844 C -45.409725189208984 202.54544067382812 -27.446136474609375 163.41845703125 -22.256385803222656 90.8121109008789 C -35.33819580078125 23.195781707763672 -54.31723403930664 -13.959774017333984 54.978694915771484 -8.118948936462402 C 111.44053649902344 1.647524356842041 116.61468505859375 14.278996467590332 211.4008331298828 130.22239685058594" stroke-width="0.0" fill="rgb(255, 233, 171)" opacity="0.7991157"/>
    <path d="M 443.94873046875 76.22838592529297 C 363.79656982421875 122.16118621826172 383.81182861328125 155.52294921875 370.172607421875 160.04823303222656 C 238.44805908203125 98.57293701171875 203.71066284179688 105.38311767578125 178.2413787841797 62.47499084472656 C 234.07867431640625 -34.412498474121094 241.9171905517578 -43.96714401245117 305.92364501953125 -36.481285095214844 C 379.08575439453125 -53.400577545166016 435.614013671875 -77.45724487304688 443.94873046875 76.22838592529297" stroke-width="0.0" fill="rgb(255, 235, 131)" opacity="0.9410906"/>
    <path d="M 287.9629821777344 296.45880126953125 C 271.71710205078125 550.6735229492188 236.2167205810547 504.7652587890625 158.19131469726562 475.2530212402344 C -31.862380981445312 442.6391906738281 -30.76024055480957 433.181884765625 44.99433898925781 473.3028259277344 C 97.21641540527344 374.6554260253906 33.229923248291016 284.6947326660156 161.28651428222656 177.79901123046875 C 214.3135986328125 136.75799560546875 257.5000915527344 127.52339935302734 287.9629821777344 296.45880126953125" stroke-width="0.0" fill="rgb(250, 253, 241)" opacity="0.99752444"/>
    <path d="M 615.7705688476562 203.1502227783203 C 642.552978515625 242.70956420898438 654.3304443359375 269.1790466308594 585.4124145507812 283.7950744628906 C 547.9317626953125 245.1827850341797 503.51019287109375 249.09059143066406 511.8915710449219 208.65618896484375 C 480.6221618652344 124.16675567626953 495.7393798828125 132.17388916015625 537.3751220703125 159.8784637451172 C 594.0794677734375 166.49156188964844 605.2135009765625 178.64292907714844 615.7705688476562 203.1502227783203" stroke-width="0.0" fill="rgb(92, 77, 92)" opacity="0.628245"/>
    <path d="M 283.6374816894531 25.899614334106445 C 312.70111083984375 104.89231872558594 330.54083251953125 154.9040069580078 212.6746063232422 144.97720336914062 C 184.17381286621094 57.73002624511719 159.28271484375 56.5579833984375 95.04827117919922 45.21200180053711 C 85.38468170166016 -79.23832702636719 117.52326202392578 -62.83554458618164 161.90118408203125 -64.7701644897461 C 254.09005737304688 -38.62404251098633 282.9986572265625 -46.20534896850586 283.6374816894531 25.899614334106445" stroke-width="0.0" fill="rgb(255, 233, 142)" opacity="0.99786425"/>
    <path d="M 313.516845703125 387.4970703125 C 264.4577941894531 603.6039428710938 257.73101806640625 626.2387084960938 221.94822692871094 628.45947265625 C 172.70315551757812 570.1154174804688 191.3739013671875 536.3217163085938 101.42890930175781 480.95465087890625 C 80.87244415283203 452.4686584472656 135.3243408203125 481.8091735839844 331.93829345703125 422.7489013671875 C 349.0659484863281 288.7688293457031 336.5213623046875 305.17236328125 313.516845703125 387.4970703125" stroke-width="0.0" fill="rgb(0, 0, 14)" opacity="0.9994025"/>
    <path d="M 649.2646484375 411.2197570800781 C 635.6719360351562 487.0045166015625 645.9099731445312 514.45361328125 626.9225463867188 483.563720703125 C 552.7588500976562 461.4164123535156 531.4698486328125 452.6210021972656 525.1744995117188 416.4580383300781 C 554.0742797851562 377.5776672363281 532.591796875 331.9366455078125 567.2537841796875 276.5032043457031 C 657.6315307617188 329.1808776855469 649.1869506835938 358.2259521484375 649.2646484375 411.2197570800781" stroke-width="0.0" fill="rgb(248, 214, 113)" opacity="1.0"/>
    <path d="M 112.26062774658203 68.33515167236328 C 110.0200424194336 181.275146484375 125.04875946044922 263.1005554199219 73.1803207397461 342.4940185546875 C 80.87085723876953 244.68284606933594 92.41045379638672 294.960693359375 95.13375854492188 232.4397430419922 C 96.9086685180664 90.3430404663086 95.24087524414062 7.647917747497559 121.6619644165039 55.43323516845703 C 121.88935089111328 88.59212493896484 101.27250671386719 147.5585174560547 112.26062774658203 68.33515167236328" stroke-width="0.0" fill="rgb(0, 4, 16)" opacity="0.9955482"/>
    <path d="M 617.7813720703125 184.47735595703125 C 617.5563354492188 214.89353942871094 586.2723999023438 209.5289764404297 578.385986328125 226.68617248535156 C 540.343994140625 211.413818359375 518.8109741210938 213.24136352539062 463.7916259765625 158.3463134765625 C 483.6895751953125 112.21941375732422 503.0193176269531 120.57927703857422 524.8345336914062 136.6210479736328 C 599.9686889648438 141.0501251220703 610.7054443359375 144.61917114257812 617.7813720703125 184.47735595703125" stroke-width="0.0" fill="rgb(177, 188, 252)" opacity="0.68538976"/>
    <path d="M 260.0409240722656 441.40423583984375 C 224.99388122558594 310.357421875 266.6382141113281 391.6231384277344 195.7028045654297 378.30767822265625 C 113.07527160644531 342.5045471191406 110.6877670288086 263.93963623046875 192.8716278076172 316.82061767578125 C 200.28741455078125 414.7251892089844 246.76510620117188 322.173583984375 203.38421630859375 320.0090637207031 C 260.1805114746094 314.4602355957031 282.2980651855469 386.6239318847656 260.0409240722656 441.40423583984375" stroke-width="0.0" fill="rgb(0, 0, 17)" opacity="1.0"/>
    <path d="M 688.011962890625 74.82971954345703 C 639.947998046875 197.81417846679688 638.764892578125 213.6947784423828 597.626708984375 228.14671325683594 C 552.8590698242188 185.82980346679688 533.4473876953125 182.79307556152344 520.9140625 108.52118682861328 C 505.0301513671875 55.18410110473633 498.4570617675781 56.73564910888672 571.7030639648438 57.580352783203125 C 662.343505859375 61.135643005371094 679.145263671875 57.8311767578125 688.011962890625 74.82971954345703" stroke-width="0.0" fill="rgb(252, 241, 129)" opacity="0.9825621"/>
    <path d="M 329.3510437011719 444.5800476074219 C 317.6927185058594 451.73248291015625 233.6526336669922 476.8840637207031 416.68109130859375 556.0452880859375 C 210.1597137451172 501.9922790527344 282.521240234375 453.6567077636719 228.63465881347656 478.2118225097656 C 227.09104919433594 290.222900390625 233.7507781982422 417.6141357421875 300.4833068847656 392.45294189453125 C 362.5668640136719 223.71932983398438 349.2391357421875 360.1732482910156 329.3510437011719 444.5800476074219" stroke-width="0.0" fill="rgb(0, 0, 14)" opacity="1.0"/>
    <path d="M 663.3738403320312 219.29702758789062 C 656.7542114257812 321.6893615722656 657.519775390625 346.1101379394531 548.439208984375 347.0199890136719 C 515.2380981445312 269.8109436035156 539.850830078125 243.41053771972656 517.6121826171875 192.78741455078125 C 505.44720458984375 151.75839233398438 499.9124450683594 139.00991821289062 514.0400390625 121.88604736328125 C 592.5167236328125 157.79415893554688 616.5484619140625 152.9542999267578 663.3738403320312 219.29702758789062" stroke-width="0.0" fill="rgb(252, 244, 131)" opacity="1.0"/>
    <path d="M 253.57363891601562 349.0673522949219 C 202.26962280273438 319.637939453125 137.24407958984375 333.8971862792969 132.50762939453125 323.18609619140625 C 131.00961303710938 321.0712585449219 121.24109649658203 299.43280029296875 143.54425048828125 302.8759765625 C 114.10900115966797 311.435791015625 185.0251007080078 299.3924560546875 152.19216918945312 312.0911865234375 C 135.34532165527344 307.4697570800781 225.5397491455078 294.5072021484375 253.57363891601562 349.0673522949219" stroke-width="0.0" fill="rgb(0, 0, 13)" opacity="1.0"/>
    <path d="M 406.46246337890625 643.2752075195312 C 370.8516845703125 640.3908081054688 328.3354187011719 615.1492919921875 231.16590881347656 676.2073974609375 C 178.2813262939453 698.9808959960938 108.38016510009766 747.860595703125 43.750431060791016 575.1762084960938 C 144.50381469726562 439.19305419921875 192.0189208984375 535.2560424804688 258.3952941894531 587.1897583007812 C 284.11932373046875 570.0515747070312 327.8712158203125 561.8069458007812 406.46246337890625 643.2752075195312" stroke-width="0.0" fill="rgb(255, 235, 145)" opacity="0.99101555"/>
    <path d="M 524.7347412109375 107.80338287353516 C 528.6804809570312 193.06820678710938 531.4720458984375 252.55955505371094 506.3878479003906 214.11753845214844 C 499.00347900390625 47.213401794433594 536.1860961914062 47.75587844848633 420.2399597167969 121.56428527832031 C 327.1526184082031 215.2616729736328 287.6639099121094 149.83908081054688 468.458740234375 59.981292724609375 C 536.155517578125 33.450950622558594 518.656005859375 53.10372543334961 524.7347412109375 107.80338287353516" stroke-width="0.0" fill="rgb(0, 0, 15)" opacity="1.0"/>
    <path d="M 557.0670776367188 351.2510986328125 C 563.9664306640625 330.1209411621094 553.5917358398438 467.257080078125 460.1578369140625 487.76678466796875 C 550.844482421875 404.7843017578125 545.1069946289062 370.44744873046875 540.5707397460938 334.3841552734375 C 531.9901123046875 272.0013122558594 496.7575988769531 200.24310302734375 520.2960815429688 148.2564239501953 C 540.5839233398438 295.11700439453125 553.3866577148438 301.751953125 557.0670776367188 351.2510986328125" stroke-width="0.0" fill="rgb(0, 2, 18)" opacity="1.0"/>
    <path d="M 446.609130859375 324.52947998046875 C 455.0340576171875 386.0876770019531 399.7925720214844 377.14312744140625 407.9112548828125 382.98193359375 C 398.404052734375 381.3016662597656 341.4503479003906 369.8185729980469 324.5896301269531 320.96466064453125 C 361.9530029296875 340.2184753417969 351.7411193847656 324.2569274902344 393.209228515625 325.5276794433594 C 409.81353759765625 354.8981018066406 415.7577209472656 382.0054626464844 446.609130859375 324.52947998046875" stroke-width="0.0" fill="rgb(0, 0, 17)" opacity="1.0"/>
    <path d="M 494.1725158691406 473.94586181640625 C 483.0107116699219 482.2103271484375 476.813232421875 502.3185119628906 282.7301330566406 602.042236328125 C 170.9203643798828 482.9654541015625 299.95916748046875 600.4688110351562 415.3595886230469 515.44482421875 C 469.45086669921875 473.04241943359375 466.6045837402344 493.9611511230469 356.3916931152344 468.23028564453125 C 353.9971618652344 445.2962341308594 454.2279052734375 485.4228820800781 494.1725158691406 473.94586181640625" stroke-width="0.0" fill="rgb(0, 0, 14)" opacity="1.0"/>
    <path d="M 192.50833129882812 82.38678741455078 C 241.9927978515625 134.04454040527344 205.2213897705078 140.60302734375 165.23594665527344 101.98056030273438 C 126.21097564697266 71.25965118408203 104.81645202636719 46.791221618652344 104.31709289550781 80.27056121826172 C 91.7385025024414 32.55253219604492 95.75578308105469 -3.384608268737793 123.5386962890625 25.440046310424805 C 152.7805938720703 43.6284065246582 168.8937530517578 53.98166275024414 192.50833129882812 82.38678741455078" stroke-width="0.0" fill="rgb(0, 0, 16)" opacity="1.0"/>
    <path d="M 416.1358947753906 153.0704803466797 C 125.768798828125 133.74964904785156 288.0877990722656 134.196044921875 239.1467742919922 186.26739501953125 C 222.64920043945312 167.4208221435547 175.43460083007812 116.4879379272461 130.93345642089844 76.91053009033203 C 144.09133911132812 37.532962799072266 171.37661743164062 60.903045654296875 237.2406768798828 126.6122817993164 C 260.1044921875 146.78530883789062 306.4189758300781 100.90276336669922 416.1358947753906 153.0704803466797" stroke-width="0.0" fill="rgb(0, 0, 10)" opacity="1.0"/>
    <path d="M 462.96075439453125 327.93701171875 C 462.3607482910156 337.3681335449219 448.7437438964844 358.44189453125 426.84490966796875 369.8608093261719 C 387.954345703125 394.2521057128906 421.50408935546875 355.4976806640625 433.73626708984375 326.6778564453125 C 422.56024169921875 351.9598693847656 435.1580505371094 322.9078369140625 441.3108825683594 324.3382263183594 C 438.34759521484375 324.24688720703125 444.7621765136719 318.0475769042969 462.96075439453125 327.93701171875" stroke-width="0.0" fill="rgb(0, 4, 16)" opacity="1.0"/>
    <path d="M 437.3374938964844 540.8238525390625 C 441.1352844238281 649.3002319335938 373.4981994628906 622.3344116210938 322.1201171875 635.8748779296875 C 270.10595703125 630.799072265625 172.43238830566406 652.1168212890625 156.871826171875 496.9795227050781 C 217.30624389648438 536.661376953125 228.43084716796875 551.57421875 310.5279541015625 564.8363647460938 C 421.61737060546875 551.904541015625 425.0143737792969 501.921875 437.3374938964844 540.8238525390625" stroke-width="0.0" fill="rgb(252, 225, 148)" opacity="1.0"/>
    <path d="M 123.39022827148438 378.66259765625 C 126.1556167602539 373.6952819824219 137.51768493652344 401.94390869140625 104.06661224365234 406.71942138671875 C 85.96278381347656 406.469482421875 79.2861099243164 393.8459167480469 77.36347961425781 382.8398742675781 C 61.108863830566406 359.52984619140625 43.41558074951172 295.4961853027344 78.62651824951172 294.3483581542969 C 70.53697967529297 353.3392028808594 122.3157730102539 370.5644226074219 123.39022827148438 378.66259765625" stroke-width="0.0" fill="rgb(98, 96, 34)" opacity="0.45788"/>
    <path d="M 20.222129821777344 0.5061748623847961 C 17.54263687133789 10.50617504119873 10.22213077545166 17.82668113708496 0.22213061153888702 20.506174087524414 C -9.77786922454834 17.82668113708496 -17.098377227783203 10.50617504119873 -19.777870178222656 0.5061748623847961 C -17.098377227783203 -9.49382495880127 -9.77786922454834 -16.814332962036133 0.22213061153888702 -19.493825912475586 C 10.22213077545166 -16.814332962036133 17.54263687133789 -9.49382495880127 20.222129821777344 0.5061748623847961" stroke-width="0.0" fill="rgb(91, 91, 133)" opacity="1.0"/>
    <path d="M 20.26624298095703 0.24178950488567352 C 17.586750030517578 10.241789817810059 10.266242980957031 17.56229591369629 0.26624318957328796 20.241788864135742 C -9.733757019042969 17.56229591369629 -17.054264068603516 10.241789817810059 -19.73375701904297 0.24178950488567352 C -17.054264068603516 -9.758210182189941 -9.733757019042969 -17.078718185424805 0.26624318957328796 -19.758211135864258 C 10.266242980957031 -17.078718185424805 17.586750030517578 -9.758210182189941 20.26624298095703 0.24178950488567352" stroke-width="0.0" fill="rgb(2, 150, 7)" opacity="1.0"/>
    <path d="M 185.5046844482422 472.46820068359375 C 164.03004455566406 489.4081726074219 143.8284912109375 498.42230224609375 122.94053649902344 521.2249755859375 C 70.53485870361328 506.3834533691406 65.13841247558594 489.1215515136719 88.18065643310547 469.2899475097656 C 51.75217819213867 489.4022521972656 68.79010009765625 478.4762878417969 128.21859741210938 479.4770202636719 C 152.65869140625 467.0398864746094 170.76983642578125 472.9132995605469 185.5046844482422 472.46820068359375" stroke-width="0.0" fill="rgb(229, 235, 106)" opacity="0.9717896"/>
    <path d="M 230.7098846435547 467.2179260253906 C 99.62956237792969 455.411376953125 71.64754486083984 444.4613952636719 93.76927947998047 459.6983337402344 C 107.90375518798828 491.5257263183594 107.74681091308594 481.572265625 129.11041259765625 467.8028564453125 C 197.2124786376953 471.8216552734375 203.8105010986328 431.5124206542969 183.52462768554688 474.7096252441406 C 146.72569274902344 474.8349914550781 191.74176025390625 459.44927978515625 230.7098846435547 467.2179260253906" stroke-width="0.0" fill="rgb(0, 12, 26)" opacity="0.36681396"/>
    <path d="M 131.28785705566406 482.045654296875 C 159.51271057128906 473.9146728515625 124.23538208007812 477.5463562011719 130.43247985839844 495.2718505859375 C 97.45037841796875 549.331787109375 10.643270492553711 594.5093383789062 -98.64362335205078 434.7181701660156 C 15.587645530700684 346.8771667480469 96.50521087646484 377.1526184082031 101.19283294677734 412.3562316894531 C 95.04083251953125 482.9580383300781 89.79228210449219 484.9851989746094 131.28785705566406 482.045654296875" stroke-width="0.0" fill="rgb(242, 220, 130)" opacity="1.0"/>
    <path d="M 20.829689025878906 0.24005623161792755 C 18.150196075439453 10.240056037902832 10.829689025878906 17.560564041137695 0.8296893835067749 20.24005699157715 C -9.170310974121094 17.560564041137695 -16.49081802368164 10.240056037902832 -19.170310974121094 0.24005623161792755 C -16.49081802368164 -9.759943962097168 -9.170310974121094 -17.0804500579834 0.8296893835067749 -19.75994300842285 C 10.829689025878906 -17.0804500579834 18.150196075439453 -9.759943962097168 20.829689025878906 0.24005623161792755" stroke-width="0.0" fill="rgb(163, 46, 81)" opacity="1.0"/>
    <path d="M 20.928569793701172 0.6244943737983704 C 18.24907684326172 10.624494552612305 10.928569793701172 17.94500160217285 0.9285695552825928 20.624494552612305 C -9.071430206298828 17.94500160217285 -16.391937255859375 10.624494552612305 -19.071430206298828 0.6244943737983704 C -16.391937255859375 -9.375505447387695 -9.071430206298828 -16.696012496948242 0.9285695552825928 -19.375505447387695 C 10.928569793701172 -16.696012496948242 18.24907684326172 -9.375505447387695 20.928569793701172 0.6244943737983704" stroke-width="0.0" fill="rgb(10, 5, 167)" opacity="1.0"/>
    <path d="M 244.9849090576172 478.84832763671875 C 229.3334503173828 508.0212707519531 190.7335662841797 503.8531799316406 207.50863647460938 468.2851257324219 C 198.28660583496094 483.56884765625 224.24049377441406 458.3338928222656 246.58639526367188 483.77117919921875 C 137.62979125976562 496.22479248046875 132.34097290039062 483.08343505859375 255.8804168701172 459.48236083984375 C 178.8196563720703 495.8714599609375 170.06788635253906 493.658447265625 244.9849090576172 478.84832763671875" stroke-width="0.0" fill="rgb(0, 14, 121)" opacity="0.070426196"/>
    <path d="M 183.13380432128906 506.98828125 C 205.84120178222656 498.49041748046875 199.43048095703125 499.97100830078125 168.3678741455078 471.63238525390625 C 166.67250061035156 491.96807861328125 149.14776611328125 508.3792724609375 136.129150390625 455.1484680175781 C 148.48329162597656 453.79095458984375 148.0035400390625 519.6918334960938 201.6643524169922 494.581298828125 C 284.3224792480469 444.1220397949219 281.72430419921875 503.2806701660156 183.13380432128906 506.98828125" stroke-width="0.0" fill="rgb(1, 7, 23)" opacity="0.38271946"/>
    <path d="M 152.39321899414062 505.2915344238281 C 164.24244689941406 483.57318115234375 127.97216796875 484.47698974609375 131.81602478027344 466.1493835449219 C 166.44024658203125 482.2605285644531 178.51515197753906 489.8315734863281 173.14161682128906 495.3740539550781 C 98.55634307861328 538.8760375976562 100.60151672363281 512.477294921875 140.05838012695312 500.8000793457031 C 192.65383911132812 483.1547546386719 151.1035614013672 483.16473388671875 152.39321899414062 505.2915344238281" stroke-width="0.0" fill="rgb(0, 4, 0)" opacity="0.99801767"/>
    <path d="M 255.92864990234375 483.4610595703125 C 269.7055969238281 501.45697021484375 295.8278503417969 504.90679931640625 240.95672607421875 525.5166015625 C 186.77752685546875 505.9642639160156 183.98568725585938 496.5797119140625 254.8347930908203 459.8107604980469 C 248.64398193359375 472.74053955078125 208.3248748779297 504.8967590332031 240.18194580078125 475.36553955078125 C 223.42984008789062 467.8257751464844 233.3946990966797 470.4178771972656 255.92864990234375 483.4610595703125" stroke-width="0.0" fill="rgb(224, 255, 241)" opacity="0.9932164"/>
    <path d="M 261.43658447265625 438.0882568359375 C 259.3249816894531 506.4678039550781 251.974365234375 542.6412353515625 178.07464599609375 494.22576904296875 C 276.2142639160156 463.67230224609375 262.6041259765625 449.6581115722656 153.44207763671875 473.2677001953125 C 228.21578979492188 486.6232604980469 272.5924072265625 435.2354736328125 142.0469207763672 453.70257568359375 C 293.548828125 302.4782409667969 235.0852508544922 376.0956726074219 261.43658447265625 438.0882568359375" stroke-width="0.0" fill="rgb(241, 252, 246)" opacity="0.9926422"/>
    <path d="M 20.70433807373047 0.5489933490753174 C 18.024845123291016 10.548993110656738 10.704339027404785 17.8695011138916 0.7043387293815613 20.548994064331055 C -9.295660972595215 17.8695011138916 -16.616168975830078 10.548993110656738 -19.29566192626953 0.5489933490753174 C -16.616168975830078 -9.451006889343262 -9.295660972595215 -16.771512985229492 0.7043387293815613 -19.451005935668945 C 10.704339027404785 -16.771512985229492 18.024845123291016 -9.451006889343262 20.70433807373047 0.5489933490753174" stroke-width="0.0" fill="rgb(238, 151, 133)" opacity="1.0"/>
    <path d="M 288.9638366699219 470.4411315917969 C 289.10430908203125 482.51080322265625 269.8065185546875 494.1497802734375 217.83023071289062 484.21209716796875 C 223.97817993164062 441.2099304199219 254.5753173828125 456.8611755371094 221.04168701171875 482.2000427246094 C 207.25588989257812 458.1007385253906 229.35702514648438 472.1109313964844 251.42025756835938 420.83929443359375 C 269.0003356933594 459.4921875 287.8597106933594 455.7810974121094 288.9638366699219 470.4411315917969" stroke-width="0.0" fill="rgb(233, 252, 246)" opacity="0.9813658"/>
    <path d="M 364.8488464355469 530.8997802734375 C 285.2547607421875 557.0219116210938 234.133056640625 533.5371704101562 218.52565002441406 512.8331298828125 C 236.7309112548828 500.464111328125 248.94305419921875 510.5577087402344 246.8062744140625 522.3988037109375 C 219.2032470703125 505.6792907714844 231.7788848876953 485.818359375 259.2283935546875 500.1708068847656 C 298.1296691894531 502.3676452636719 258.76824951171875 469.2105407714844 364.8488464355469 530.8997802734375" stroke-width="0.0" fill="rgb(230, 252, 237)" opacity="0.9990946"/>
    <path d="M 331.3335266113281 403.5048522949219 C 340.2607727050781 437.4056396484375 293.19659423828125 466.9933166503906 313.67974853515625 433.52960205078125 C 310.8215637207031 388.9176330566406 296.6120300292969 411.23486328125 288.2403564453125 378.6429443359375 C 254.01046752929688 382.9041748046875 254.4076690673828 370.7413635253906 256.855712890625 387.54754638671875 C 296.890625 395.08258056640625 335.29046630859375 377.2699279785156 331.3335266113281 403.5048522949219" stroke-width="0.0" fill="rgb(0, 0, 22)" opacity="0.34017786"/>
    <path d="M 20.069116592407227 0.6779128909111023 C 17.389623641967773 10.677912712097168 10.06911563873291 17.99842071533203 0.06911605596542358 20.677913665771484 C -9.93088436126709 17.99842071533203 -17.25139045715332 10.677912712097168 -19.930883407592773 0.6779128909111023 C -17.25139045715332 -9.322087287902832 -9.93088436126709 -16.642593383789062 0.06911605596542358 -19.322086334228516 C 10.06911563873291 -16.642593383789062 17.389623641967773 -9.322087287902832 20.069116592407227 0.6779128909111023" stroke-width="0.0" fill="rgb(239, 160, 143)" opacity="1.0"/>
    <path d="M 20.476123809814453 0.48762986063957214 C 17.796630859375 10.487629890441895 10.476122856140137 17.808135986328125 0.47612306475639343 20.487628936767578 C -9.523877143859863 17.808135986328125 -16.844383239746094 10.487629890441895 -19.523876190185547 0.48762986063957214 C -16.844383239746094 -9.512370109558105 -9.523877143859863 -16.83287811279297 0.47612306475639343 -19.512371063232422 C 10.476122856140137 -16.83287811279297 17.796630859375 -9.512370109558105 20.476123809814453 0.48762986063957214" stroke-width="0.0" fill="rgb(136, 186, 187)" opacity="1.0"/>
    <path d="M 20.196495056152344 0.8237950801849365 C 17.51700210571289 10.823795318603516 10.196495056152344 18.144302368164062 0.19649538397789001 20.823795318603516 C -9.803504943847656 18.144302368164062 -17.124011993408203 10.823795318603516 -19.803504943847656 0.8237950801849365 C -17.124011993408203 -9.176204681396484 -9.803504943847656 -16.49671173095703 0.19649538397789001 -19.176204681396484 C 10.196495056152344 -16.49671173095703 17.51700210571289 -9.176204681396484 20.196495056152344 0.8237950801849365" stroke-width="0.0" fill="rgb(227, 97, 116)" opacity="1.0"/>
    <path d="M 319.22930908203125 417.6474609375 C 322.49755859375 418.8792724609375 259.37933349609375 414.1676025390625 273.1736145019531 413.2370910644531 C 267.32867431640625 359.5404968261719 290.87493896484375 360.3955078125 272.0846252441406 399.41265869140625 C 272.77294921875 395.6650390625 259.9705810546875 364.69927978515625 278.8684997558594 295.63983154296875 C 410.4326171875 327.3416442871094 326.321044921875 289.03564453125 319.22930908203125 417.6474609375" stroke-width="0.0" fill="rgb(253, 255, 235)" opacity="1.0"/>
    <path d="M 20.241119384765625 0.3395395278930664 C 17.561626434326172 10.339539527893066 10.241118431091309 17.660045623779297 0.2411186248064041 20.33953857421875 C -9.758881568908691 17.660045623779297 -17.079387664794922 10.339539527893066 -19.758880615234375 0.3395395278930664 C -17.079387664794922 -9.660460472106934 -9.758881568908691 -16.980968475341797 0.2411186248064041 -19.66046142578125 C 10.241118431091309 -16.980968475341797 17.561626434326172 -9.660460472106934 20.241119384765625 0.3395395278930664" stroke-width="0.0" fill="rgb(224, 98, 50)" opacity="1.0"/>
    <path d="M 20.612300872802734 391.4249267578125 C 21.892539978027344 421.7034606933594 14.284557342529297 443.1376953125 -8.427084922790527 443.38690185546875 C -25.79604721069336 427.4412536621094 -33.56081008911133 421.1294860839844 -36.63728332519531 401.1690368652344 C -41.506561279296875 369.4871520996094 -47.015602111816406 358.17218017578125 3.450373411178589 358.4453125 C 24.665119171142578 386.4698181152344 49.34477996826172 387.59588623046875 20.612300872802734 391.4249267578125" stroke-width="0.0" fill="rgb(246, 212, 145)" opacity="0.008141146"/>
    <path d="M 20.5404052734375 0.021105436608195305 C 17.860912322998047 10.021105766296387 10.5404052734375 17.341611862182617 0.5404050946235657 20.02110481262207 C -9.4595947265625 17.341611862182617 -16.780101776123047 10.021105766296387 -19.4595947265625 0.021105436608195305 C -16.780101776123047 -9.978894233703613 -9.4595947265625 -17.299402236938477 0.5404050946235657 -19.97889518737793 C 10.5404052734375 -17.299402236938477 17.860912322998047 -9.978894233703613 20.5404052734375 0.021105436608195305" stroke-width="0.0" fill="rgb(92, 76, 248)" opacity="1.0"/>
    <path d="M 20.51034927368164 0.25325506925582886 C 17.830856323242188 10.253254890441895 10.51034927368164 17.573762893676758 0.5103492736816406 20.25325584411621 C -9.48965072631836 17.573762893676758 -16.810157775878906 10.253254890441895 -19.48965072631836 0.25325506925582886 C -16.810157775878906 -9.746745109558105 -9.48965072631836 -17.067251205444336 0.5103492736816406 -19.74674415588379 C 10.51034927368164 -17.067251205444336 17.830856323242188 -9.746745109558105 20.51034927368164 0.25325506925582886" stroke-width="0.0" fill="rgb(47, 42, 16)" opacity="1.0"/>
    <path d="M 20.924131393432617 0.1438807100057602 C 18.244638442993164 10.143880844116211 10.924132347106934 17.464387893676758 0.9241321682929993 20.14388084411621 C -9.075867652893066 17.464387893676758 -16.39637565612793 10.143880844116211 -19.075868606567383 0.1438807100057602 C -16.39637565612793 -9.856119155883789 -9.075867652893066 -17.176626205444336 0.9241321682929993 -19.85611915588379 C 10.924132347106934 -17.176626205444336 18.244638442993164 -9.856119155883789 20.924131393432617 0.1438807100057602" stroke-width="0.0" fill="rgb(171, 254, 249)" opacity="1.0"/>
    <path d="M 20.47813606262207 0.13813447952270508 C 17.798643112182617 10.138134002685547 10.478135108947754 17.458641052246094 0.47813543677330017 20.138134002685547 C -9.521864891052246 17.458641052246094 -16.842370986938477 10.138134002685547 -19.52186393737793 0.13813447952270508 C -16.842370986938477 -9.861865997314453 -9.521864891052246 -17.182373046875 0.47813543677330017 -19.861865997314453 C 10.478135108947754 -17.182373046875 17.798643112182617 -9.861865997314453 20.47813606262207 0.13813447952270508" stroke-width="0.0" fill="rgb(33, 90, 133)" opacity="1.0"/>
    <path d="M 20.503211975097656 0.6226860284805298 C 17.823719024658203 10.622686386108398 10.503211975097656 17.943193435668945 0.5032117366790771 20.6226863861084 C -9.496788024902344 17.943193435668945 -16.81729507446289 10.622686386108398 -19.496788024902344 0.6226860284805298 C -16.81729507446289 -9.377313613891602 -9.496788024902344 -16.69782066345215 0.5032117366790771 -19.3773136138916 C 10.503211975097656 -16.69782066345215 17.823719024658203 -9.377313613891602 20.503211975097656 0.6226860284805298" stroke-width="0.0" fill="rgb(238, 83, 219)" opacity="1.0"/>
    <path d="M 297.3918151855469 436.3685607910156 C 303.3979797363281 454.12908935546875 281.7533874511719 458.4656982421875 293.0821533203125 427.1481628417969 C 303.8052062988281 429.7899475097656 267.687744140625 415.02386474609375 272.23370361328125 435.20849609375 C 315.67877197265625 429.9417724609375 275.2406005859375 434.2042236328125 290.51885986328125 436.1013488769531 C 279.3143615722656 416.60015869140625 341.9696044921875 433.8116760253906 297.3918151855469 436.3685607910156" stroke-width="0.0" fill="rgb(253, 0, 243)" opacity="0.9993793"/>
    <path d="M 502.8648986816406 226.67066955566406 C 500.9228820800781 226.22103881835938 482.0838623046875 214.5584716796875 496.4205017089844 224.35581970214844 C 484.3423767089844 221.0157928466797 475.87860107421875 201.08177185058594 382.55059814453125 152.3185272216797 C 405.82440185546875 146.71202087402344 429.39990234375 94.4958724975586 505.6195068359375 68.12151336669922 C 512.9757690429688 203.37197875976562 509.9142761230469 235.5131072998047 502.8648986816406 226.67066955566406" stroke-width="0.0" fill="rgb(226, 102, 255)" opacity="1.0"/>
    <path d="M 348.20892333984375 260.36688232421875 C 365.7547607421875 333.4516906738281 352.9971923828125 321.7402648925781 265.0016784667969 326.5010986328125 C 246.17266845703125 291.2732238769531 253.62599182128906 267.5646057128906 238.06613159179688 249.76040649414062 C 245.40550231933594 173.71585083007812 254.60926818847656 165.12562561035156 281.90399169921875 223.37933349609375 C 292.483154296875 221.04103088378906 289.15985107421875 233.87245178222656 348.20892333984375 260.36688232421875" stroke-width="0.0" fill="rgb(254, 255, 237)" opacity="0.3608302"/>
    <path d="M 275.09307861328125 185.5877227783203 C 290.95343017578125 272.6457824707031 307.1418151855469 280.74462890625 282.982666015625 295.6058654785156 C 249.16204833984375 253.10504150390625 262.9875183105469 225.67193603515625 243.7800750732422 237.70545959472656 C 218.64463806152344 199.59727478027344 214.1921844482422 182.6529541015625 255.92758178710938 179.1123504638672 C 280.2963562011719 191.685791015625 276.8030090332031 201.4722442626953 275.09307861328125 185.5877227783203" stroke-width="0.0" fill="rgb(253, 254, 239)" opacity="0.35889333"/>
    <path d="M 85.75920104980469 569.9866943359375 C 85.70683288574219 569.6161499023438 63.82861328125 554.0865478515625 84.439208984375 595.7099609375 C 29.126726150512695 601.1229858398438 -0.9265993237495422 601.0856323242188 -3.8239471912384033 570.2711791992188 C -26.66902732849121 511.7350769042969 -20.26654052734375 520.8946533203125 -11.088475227355957 520.7323608398438 C 57.54978942871094 521.9149780273438 78.606201171875 529.2545776367188 85.75920104980469 569.9866943359375" stroke-width="0.0" fill="rgb(247, 228, 170)" opacity="0.31846443"/>
    <path d="M 89.37071990966797 599.9238891601562 C 102.77366638183594 601.0576782226562 76.03138732910156 601.2233276367188 60.61366271972656 598.27001953125 C 47.580963134765625 615.7767944335938 38.90092849731445 599.6015014648438 39.40620803833008 569.7597045898438 C 44.79094696044922 583.6871337890625 44.93318176269531 555.5060424804688 35.734100341796875 533.2002563476562 C 79.1858901977539 542.0177001953125 86.00438690185547 550.8973388671875 89.37071990966797 599.9238891601562" stroke-width="0.0" fill="rgb(250, 247, 159)" opacity="0.07571183"/>
    <path d="M 508.8358154296875 548.8080444335938 C 389.7699279785156 493.1973571777344 419.5332336425781 506.21929931640625 362.80609130859375 469.0267639160156 C 397.6639099121094 442.00433349609375 374.8765563964844 464.75738525390625 377.0171203613281 458.6178283691406 C 341.73480224609375 454.80987548828125 375.44183349609375 463.880859375 370.3919677734375 451.8266906738281 C 382.1207275390625 489.87860107421875 442.1692199707031 483.1606140136719 508.8358154296875 548.8080444335938" stroke-width="0.0" fill="rgb(0, 3, 11)" opacity="1.0"/>
    <path d="M 332.7953186035156 127.19943237304688 C 374.72576904296875 144.39968872070312 383.0583801269531 156.67184448242188 409.13836669921875 128.06898498535156 C 356.0672912597656 126.34075164794922 325.673828125 128.91574096679688 283.9820861816406 131.02029418945312 C 281.27996826171875 151.77696228027344 299.1453857421875 136.0328369140625 297.5050048828125 131.503662109375 C 311.5444030761719 121.23881530761719 264.2228088378906 145.1620330810547 332.7953186035156 127.19943237304688" stroke-width="0.0" fill="rgb(0, 1, 4)" opacity="0.39747542"/>
    <path d="M 20.405651092529297 0.22509105503559113 C 17.726158142089844 10.225090980529785 10.405651092529297 17.54559898376465 0.40565142035484314 20.2250919342041 C -9.594348907470703 17.54559898376465 -16.91485595703125 10.225090980529785 -19.594348907470703 0.22509105503559113 C -16.91485595703125 -9.774909019470215 -9.594348907470703 -17.095415115356445 0.40565142035484314 -19.7749080657959 C 10.405651092529297 -17.095415115356445 17.726158142089844 -9.774909019470215 20.405651092529297 0.22509105503559113" stroke-width="0.0" fill="rgb(228, 129, 162)" opacity="1.0"/>
    <path d="M 20.74289894104004 0.03212674334645271 C 18.063405990600586 10.032126426696777 10.742898941040039 17.35263442993164 0.7428991198539734 20.032127380371094 C -9.257101058959961 17.35263442993164 -16.577608108520508 10.032126426696777 -19.25710105895996 0.03212674334645271 C -16.577608108520508 -9.967873573303223 -9.257101058959961 -17.288379669189453 0.7428991198539734 -19.967872619628906 C 10.742898941040039 -17.288379669189453 18.063405990600586 -9.967873573303223 20.74289894104004 0.03212674334645271" stroke-width="0.0" fill="rgb(194, 96, 0)" opacity="1.0"/>
    <path d="M 171.93251037597656 476.4305114746094 C 148.87423706054688 473.6021423339844 148.72708129882812 467.1611328125 173.5064239501953 484.3001403808594 C 256.7376403808594 461.730712890625 225.13844299316406 463.07513427734375 183.25103759765625 465.064208984375 C 157.8057098388672 466.7350158691406 162.19349670410156 474.16650390625 196.36798095703125 469.43914794921875 C 152.8339080810547 468.00933837890625 151.196044921875 476.7435302734375 171.93251037597656 476.4305114746094" stroke-width="0.0" fill="rgb(252, 254, 224)" opacity="0.97055113"/>
    <path d="M 20.248945236206055 0.22523510456085205 C 17.5694522857666 10.225234985351562 10.248946189880371 17.54574203491211 0.24894604086875916 20.225234985351562 C -9.751053810119629 17.54574203491211 -17.071561813354492 10.225234985351562 -19.751054763793945 0.22523510456085205 C -17.071561813354492 -9.774765014648438 -9.751053810119629 -17.095272064208984 0.24894604086875916 -19.774765014648438 C 10.248946189880371 -17.095272064208984 17.5694522857666 -9.774765014648438 20.248945236206055 0.22523510456085205" stroke-width="0.0" fill="rgb(53, 46, 67)" opacity="1.0"/>
    <path d="M 20.74360466003418 0.27006393671035767 C 18.064111709594727 10.270064353942871 10.74360466003418 17.5905704498291 0.7436044216156006 20.270063400268555 C -9.25639533996582 17.5905704498291 -16.576902389526367 10.270064353942871 -19.25639533996582 0.27006393671035767 C -16.576902389526367 -9.729935646057129 -9.25639533996582 -17.050443649291992 0.7436044216156006 -19.729936599731445 C 10.74360466003418 -17.050443649291992 18.064111709594727 -9.729935646057129 20.74360466003418 0.27006393671035767" stroke-width="0.0" fill="rgb(238, 52, 95)" opacity="1.0"/>
    <path d="M 20.71711540222168 0.05206483229994774 C 18.037622451782227 10.052064895629883 10.71711540222168 17.37257194519043 0.7171149253845215 20.052064895629883 C -9.28288459777832 17.37257194519043 -16.603391647338867 10.052064895629883 -19.28288459777832 0.05206483229994774 C -16.603391647338867 -9.947935104370117 -9.28288459777832 -17.268442153930664 0.7171149253845215 -19.947935104370117 C 10.71711540222168 -17.268442153930664 18.037622451782227 -9.947935104370117 20.71711540222168 0.05206483229994774" stroke-width="0.0" fill="rgb(18, 47, 14)" opacity="1.0"/>
    <path d="M 20.83612823486328 0.2751805782318115 C 18.156635284423828 10.27518081665039 10.836127281188965 17.595687866210938 0.836127519607544 20.27518081665039 C -9.163872718811035 17.595687866210938 -16.484378814697266 10.27518081665039 -19.16387176513672 0.2751805782318115 C -16.484378814697266 -9.72481918334961 -9.163872718811035 -17.045326232910156 0.836127519607544 -19.72481918334961 C 10.836127281188965 -17.045326232910156 18.156635284423828 -9.72481918334961 20.83612823486328 0.2751805782318115" stroke-width="0.0" fill="rgb(237, 171, 172)" opacity="1.0"/>
    <path d="M 20.574382781982422 0.281595379114151 C 17.89488983154297 10.281595230102539 10.574382781982422 17.602102279663086 0.574382483959198 20.28159523010254 C -9.425617218017578 17.602102279663086 -16.746124267578125 10.281595230102539 -19.425617218017578 0.281595379114151 C -16.746124267578125 -9.718404769897461 -9.425617218017578 -17.038911819458008 0.574382483959198 -19.71840476989746 C 10.574382781982422 -17.038911819458008 17.89488983154297 -9.718404769897461 20.574382781982422 0.281595379114151" stroke-width="0.0" fill="rgb(47, 119, 103)" opacity="1.0"/>
    <path d="M 20.040874481201172 0.39274683594703674 C 17.36138153076172 10.392746925354004 10.040875434875488 17.713253021240234 0.04087517037987709 20.392745971679688 C -9.959124565124512 17.713253021240234 -17.279632568359375 10.392746925354004 -19.959125518798828 0.39274683594703674 C -17.279632568359375 -9.607253074645996 -9.959124565124512 -16.92776107788086 0.04087517037987709 -19.607254028320312 C 10.040875434875488 -16.92776107788086 17.36138153076172 -9.607253074645996 20.040874481201172 0.39274683594703674" stroke-width="0.0" fill="rgb(218, 229, 237)" opacity="1.0"/>
    <path d="M 20.638608932495117 0.5246112942695618 C 17.959115982055664 10.524611473083496 10.638609886169434 17.845117568969727 0.6386095285415649 20.52461051940918 C -9.361390113830566 17.845117568969727 -16.68189811706543 10.524611473083496 -19.361391067504883 0.5246112942695618 C -16.68189811706543 -9.475388526916504 -9.361390113830566 -16.795896530151367 0.6386095285415649 -19.47538948059082 C 10.638609886169434 -16.795896530151367 17.959115982055664 -9.475388526916504 20.638608932495117 0.5246112942695618" stroke-width="0.0" fill="rgb(61, 140, 240)" opacity="1.0"/>
    <path d="M 249.8302764892578 129.5652618408203 C 252.71453857421875 135.40817260742188 235.88279724121094 131.69761657714844 227.29371643066406 124.48411560058594 C 216.43954467773438 117.88799285888672 210.2743682861328 79.40056610107422 235.43426513671875 152.64859008789062 C 245.79754638671875 151.53533935546875 276.05938720703125 143.52064514160156 334.77386474609375 141.56419372558594 C 247.70291137695312 110.88108825683594 260.8918762207031 142.0115966796875 249.8302764892578 129.5652618408203" stroke-width="0.0" fill="rgb(3, 8, 16)" opacity="0.9848807"/>
    <path d="M 20.501218795776367 0.8166486620903015 C 17.821725845336914 10.816648483276367 10.501218795776367 18.137155532836914 0.5012192726135254 20.816648483276367 C -9.498781204223633 18.137155532836914 -16.81928825378418 10.816648483276367 -19.498781204223633 0.8166486620903015 C -16.81928825378418 -9.183351516723633 -9.498781204223633 -16.50385856628418 0.5012192726135254 -19.183351516723633 C 10.501218795776367 -16.50385856628418 17.821725845336914 -9.183351516723633 20.501218795776367 0.8166486620903015" stroke-width="0.0" fill="rgb(222, 218, 6)" opacity="1.0"/>
    <path d="M 419.183837890625 500.7004699707031 C 425.2005310058594 491.8677062988281 466.0816650390625 505.7319641113281 465.8399963378906 517.8771362304688 C 438.5815734863281 499.0036315917969 417.3248291015625 486.3518371582031 387.94024658203125 485.15045166015625 C 409.7698059082031 496.2582702636719 438.2843322753906 509.7359924316406 457.00775146484375 487.5343017578125 C 447.09967041015625 488.3816223144531 451.7499084472656 493.6513366699219 419.183837890625 500.7004699707031" stroke-width="0.0" fill="rgb(0, 0, 5)" opacity="0.4649407"/>
    <path d="M 20.940048217773438 0.050338152796030045 C 18.260555267333984 10.050337791442871 10.940048217773438 17.370845794677734 0.9400486946105957 20.050338745117188 C -9.059951782226562 17.370845794677734 -16.38045883178711 10.050337791442871 -19.059951782226562 0.050338152796030045 C -16.38045883178711 -9.949662208557129 -9.059951782226562 -17.27016830444336 0.9400486946105957 -19.949661254882812 C 10.940048217773438 -17.27016830444336 18.260555267333984 -9.949662208557129 20.940048217773438 0.050338152796030045" stroke-width="0.0" fill="rgb(89, 185, 128)" opacity="1.0"/>
    <path d="M 20.10102653503418 0.16096308827400208 C 17.421533584594727 10.16096305847168 10.10102653503418 17.481470108032227 0.10102609544992447 20.16096305847168 C -9.89897346496582 17.481470108032227 -17.219480514526367 10.16096305847168 -19.89897346496582 0.16096308827400208 C -17.219480514526367 -9.83903694152832 -9.89897346496582 -17.159543991088867 0.10102609544992447 -19.83903694152832 C 10.10102653503418 -17.159543991088867 17.421533584594727 -9.83903694152832 20.10102653503418 0.16096308827400208" stroke-width="0.0" fill="rgb(125, 53, 242)" opacity="1.0"/>
    <path d="M 122.7059326171875 482.1583251953125 C 133.73287963867188 471.8602294921875 153.9986114501953 473.71826171875 171.01560974121094 479.4110412597656 C 134.99378967285156 476.00872802734375 131.2670135498047 486.9769592285156 131.51417541503906 498.4794616699219 C 111.41293334960938 492.1988830566406 121.12520599365234 470.0548400878906 147.73500061035156 483.8710632324219 C 155.14776611328125 488.3902587890625 125.87511444091797 496.78173828125 122.7059326171875 482.1583251953125" stroke-width="0.0" fill="rgb(203, 230, 81)" opacity="0.1624157"/>
    <path d="M 20.823448181152344 0.3060721755027771 C 18.14395523071289 10.306072235107422 10.823447227478027 17.62657928466797 0.8234473466873169 20.306072235107422 C -9.176552772521973 17.62657928466797 -16.497058868408203 10.306072235107422 -19.176551818847656 0.3060721755027771 C -16.497058868408203 -9.693927764892578 -9.176552772521973 -17.014434814453125 0.8234473466873169 -19.693927764892578 C 10.823447227478027 -17.014434814453125 18.14395523071289 -9.693927764892578 20.823448181152344 0.3060721755027771" stroke-width="0.0" fill="rgb(250, 197, 212)" opacity="1.0"/>
    <path d="M 20.646013259887695 0.036826133728027344 C 17.966520309448242 10.036826133728027 10.646013259887695 17.35733413696289 0.6460127830505371 20.036827087402344 C -9.353986740112305 17.35733413696289 -16.67449378967285 10.036826133728027 -19.353986740112305 0.036826133728027344 C -16.67449378967285 -9.963173866271973 -9.353986740112305 -17.283679962158203 0.6460127830505371 -19.963172912597656 C 10.646013259887695 -17.283679962158203 17.966520309448242 -9.963173866271973 20.646013259887695 0.036826133728027344" stroke-width="0.0" fill="rgb(220, 2, 131)" opacity="1.0"/>
    <path d="M 20.552650451660156 0.3021373450756073 C 17.873157501220703 10.30213737487793 10.552650451660156 17.622644424438477 0.5526500940322876 20.30213737487793 C -9.447349548339844 17.622644424438477 -16.76785659790039 10.30213737487793 -19.447349548339844 0.3021373450756073 C -16.76785659790039 -9.69786262512207 -9.447349548339844 -17.018369674682617 0.5526500940322876 -19.69786262512207 C 10.552650451660156 -17.018369674682617 17.873157501220703 -9.69786262512207 20.552650451660156 0.3021373450756073" stroke-width="0.0" fill="rgb(35, 70, 202)" opacity="1.0"/>
    <path d="M 20.001108169555664 0.8823235034942627 C 17.32161521911621 10.882323265075684 10.001107215881348 18.202831268310547 0.0011075829388573766 20.88232421875 C -9.998892784118652 18.202831268310547 -17.319398880004883 10.882323265075684 -19.998891830444336 0.8823235034942627 C -17.319398880004883 -9.117676734924316 -9.998892784118652 -16.438182830810547 0.0011075829388573766 -19.11767578125 C 10.001107215881348 -16.438182830810547 17.32161521911621 -9.117676734924316 20.001108169555664 0.8823235034942627" stroke-width="0.0" fill="rgb(239, 79, 25)" opacity="1.0"/>
    <path d="M 20.272560119628906 0.0576048269867897 C 17.593067169189453 10.057604789733887 10.272560119628906 17.37811279296875 0.27256035804748535 20.057605743408203 C -9.727439880371094 17.37811279296875 -17.04794692993164 10.057604789733887 -19.727439880371094 0.0576048269867897 C -17.04794692993164 -9.942395210266113 -9.727439880371094 -17.262901306152344 0.27256035804748535 -19.942394256591797 C 10.272560119628906 -17.262901306152344 17.593067169189453 -9.942395210266113 20.272560119628906 0.0576048269867897" stroke-width="0.0" fill="rgb(158, 123, 193)" opacity="1.0"/>
    <path d="M 20.850194931030273 0.31328490376472473 C 18.17070198059082 10.313284873962402 10.850194931030273 17.633792877197266 0.8501948118209839 20.31328582763672 C -9.149805068969727 17.633792877197266 -16.470312118530273 10.313284873962402 -19.149805068969727 0.31328490376472473 C -16.470312118530273 -9.686715126037598 -9.149805068969727 -17.007221221923828 0.8501948118209839 -19.68671417236328 C 10.850194931030273 -17.007221221923828 18.17070198059082 -9.686715126037598 20.850194931030273 0.31328490376472473" stroke-width="0.0" fill="rgb(253, 223, 166)" opacity="1.0"/>
    <path d="M 20.726160049438477 0.4308740198612213 C 18.046667098999023 10.43087387084961 10.726161003112793 17.751380920410156 0.7261605858802795 20.43087387084961 C -9.273838996887207 17.751380920410156 -16.59434700012207 10.43087387084961 -19.273839950561523 0.4308740198612213 C -16.59434700012207 -9.56912612915039 -9.273838996887207 -16.889633178710938 0.7261605858802795 -19.56912612915039 C 10.726161003112793 -16.889633178710938 18.046667098999023 -9.56912612915039 20.726160049438477 0.4308740198612213" stroke-width="0.0" fill="rgb(20, 120, 10)" opacity="1.0"/>
    <path d="M 20.05929183959961 0.664051353931427 C 17.379798889160156 10.664051055908203 10.059292793273926 17.98455810546875 0.05929239094257355 20.664051055908203 C -9.940707206726074 17.98455810546875 -17.261215209960938 10.664051055908203 -19.94070816040039 0.664051353931427 C -17.261215209960938 -9.335948944091797 -9.940707206726074 -16.656455993652344 0.05929239094257355 -19.335948944091797 C 10.059292793273926 -16.656455993652344 17.379798889160156 -9.335948944091797 20.05929183959961 0.664051353931427" stroke-width="0.0" fill="rgb(210, 2, 47)" opacity="1.0"/>
    <path d="M 20.392263412475586 0.935149610042572 C 17.712770462036133 10.935149192810059 10.392263412475586 18.255657196044922 0.39226293563842773 20.935150146484375 C -9.607736587524414 18.255657196044922 -16.92824363708496 10.935149192810059 -19.607736587524414 0.935149610042572 C -16.92824363708496 -9.064850807189941 -9.607736587524414 -16.385356903076172 0.39226293563842773 -19.064849853515625 C 10.392263412475586 -16.385356903076172 17.712770462036133 -9.064850807189941 20.392263412475586 0.935149610042572" stroke-width="0.0" fill="rgb(242, 181, 170)" opacity="1.0"/>
    <path d="M 20.18108558654785 0.3241000473499298 C 17.5015926361084 10.324100494384766 10.181084632873535 17.644607543945312 0.18108505010604858 20.324100494384766 C -9.818915367126465 17.644607543945312 -17.139421463012695 10.324100494384766 -19.81891441345215 0.3241000473499298 C -17.139421463012695 -9.675899505615234 -9.818915367126465 -16.99640655517578 0.18108505010604858 -19.675899505615234 C 10.181084632873535 -16.99640655517578 17.5015926361084 -9.675899505615234 20.18108558654785 0.3241000473499298" stroke-width="0.0" fill="rgb(153, 237, 201)" opacity="1.0"/>
    <path d="M 20.017147064208984 0.19108673930168152 C 17.33765411376953 10.191086769104004 10.017146110534668 17.511592864990234 0.017146140336990356 20.191085815429688 C -9.982853889465332 17.511592864990234 -17.303359985351562 10.191086769104004 -19.982852935791016 0.19108673930168152 C -17.303359985351562 -9.808913230895996 -9.982853889465332 -17.12942123413086 0.017146140336990356 -19.808914184570312 C 10.017146110534668 -17.12942123413086 17.33765411376953 -9.808913230895996 20.017147064208984 0.19108673930168152" stroke-width="0.0" fill="rgb(105, 225, 79)" opacity="1.0"/>
    <path d="M 20.667348861694336 0.9401909112930298 C 17.987855911254883 10.940191268920898 10.66734790802002 18.260698318481445 0.6673480868339539 20.9401912689209 C -9.33265209197998 18.260698318481445 -16.65315818786621 10.940191268920898 -19.332651138305664 0.9401909112930298 C -16.65315818786621 -9.059808731079102 -9.33265209197998 -16.38031578063965 0.6673480868339539 -19.0598087310791 C 10.66734790802002 -16.38031578063965 17.987855911254883 -9.059808731079102 20.667348861694336 0.9401909112930298" stroke-width="0.0" fill="rgb(56, 20, 223)" opacity="1.0"/>
    <path d="M 122.6688232421875 448.02740478515625 C 103.09156036376953 490.6393737792969 66.93568420410156 492.71435546875 75.64104461669922 449.78216552734375 C 111.04959106445312 444.9364318847656 111.2856674194336 439.8182678222656 87.9199447631836 460.16436767578125 C 77.43083953857422 461.6573791503906 64.09246826171875 453.6230163574219 73.80711364746094 432.47216796875 C 111.41850280761719 407.59027099609375 115.89437103271484 419.4913330078125 122.6688232421875 448.02740478515625" stroke-width="0.0" fill="rgb(176, 134, 74)" opacity="0.93783045"/>
    <path d="M 337.9998474121094 173.03842163085938 C 337.37237548828125 157.0736541748047 348.2491455078125 139.522216796875 379.65234375 138.19512939453125 C 370.9072570800781 165.02587890625 336.9895324707031 141.07823181152344 350.7821960449219 129.8724365234375 C 352.3144226074219 127.62588500976562 381.71527099609375 125.11656951904297 386.3746643066406 150.27906799316406 C 366.3363952636719 158.78353881835938 352.4910888671875 198.47897338867188 337.9998474121094 173.03842163085938" stroke-width="0.0" fill="rgb(0, 0, 9)" opacity="1.0"/>
    <path d="M 20.197290420532227 0.7877051830291748 C 17.517797470092773 10.787705421447754 10.197290420532227 18.108211517333984 0.19729068875312805 20.787704467773438 C -9.802709579467773 18.108211517333984 -17.12321662902832 10.787705421447754 -19.802709579467773 0.7877051830291748 C -17.12321662902832 -9.212294578552246 -9.802709579467773 -16.53280258178711 0.19729068875312805 -19.212295532226562 C 10.197290420532227 -16.53280258178711 17.517797470092773 -9.212294578552246 20.197290420532227 0.7877051830291748" stroke-width="0.0" fill="rgb(226, 211, 39)" opacity="1.0"/>
    <path d="M 20.767061233520508 0.7487475275993347 C 18.087568283081055 10.748747825622559 10.767061233520508 18.06925392150879 0.7670612335205078 20.748746871948242 C -9.232938766479492 18.06925392150879 -16.55344581604004 10.748747825622559 -19.232938766479492 0.7487475275993347 C -16.55344581604004 -9.251252174377441 -9.232938766479492 -16.571760177612305 0.7670612335205078 -19.251253128051758 C 10.767061233520508 -16.571760177612305 18.087568283081055 -9.251252174377441 20.767061233520508 0.7487475275993347" stroke-width="0.0" fill="rgb(68, 31, 48)" opacity="1.0"/>
    <path d="M 20.814546585083008 0.2868783473968506 C 18.135053634643555 10.28687858581543 10.814546585083008 17.607385635375977 0.8145467042922974 20.28687858581543 C -9.185453414916992 17.607385635375977 -16.50596046447754 10.28687858581543 -19.185453414916992 0.2868783473968506 C -16.50596046447754 -9.71312141418457 -9.185453414916992 -17.033628463745117 0.8145467042922974 -19.71312141418457 C 10.814546585083008 -17.033628463745117 18.135053634643555 -9.71312141418457 20.814546585083008 0.2868783473968506" stroke-width="0.0" fill="rgb(198, 217, 241)" opacity="1.0"/>
    <path d="M 20.525487899780273 0.23958604037761688 C 17.84599494934082 10.239585876464844 10.525487899780273 17.56009292602539 0.52548748254776 20.239585876464844 C -9.474512100219727 17.56009292602539 -16.795019149780273 10.239585876464844 -19.474512100219727 0.23958604037761688 C -16.795019149780273 -9.760414123535156 -9.474512100219727 -17.080921173095703 0.52548748254776 -19.760414123535156 C 10.525487899780273 -17.080921173095703 17.84599494934082 -9.760414123535156 20.525487899780273 0.23958604037761688" stroke-width="0.0" fill="rgb(150, 152, 67)" opacity="1.0"/>
    <path d="M 20.72211265563965 0.408340722322464 C 18.042619705200195 10.408340454101562 10.722112655639648 17.72884750366211 0.7221127152442932 20.408340454101562 C -9.277887344360352 17.72884750366211 -16.5983943939209 10.408340454101562 -19.27788734436035 0.408340722322464 C -16.5983943939209 -9.591659545898438 -9.277887344360352 -16.912166595458984 0.7221127152442932 -19.591659545898438 C 10.722112655639648 -16.912166595458984 18.042619705200195 -9.591659545898438 20.72211265563965 0.408340722322464" stroke-width="0.0" fill="rgb(38, 45, 173)" opacity="1.0"/>
    <path d="M 20.4307861328125 0.393583208322525 C 17.751293182373047 10.393583297729492 10.430787086486816 17.71409034729004 0.43078693747520447 20.393583297729492 C -9.569212913513184 17.71409034729004 -16.889720916748047 10.393583297729492 -19.5692138671875 0.393583208322525 C -16.889720916748047 -9.606416702270508 -9.569212913513184 -16.926923751831055 0.43078693747520447 -19.606416702270508 C 10.430787086486816 -16.926923751831055 17.751293182373047 -9.606416702270508 20.4307861328125 0.393583208322525" stroke-width="0.0" fill="rgb(26, 139, 204)" opacity="1.0"/>
    <path d="M 20.298906326293945 0.7355937361717224 C 17.619413375854492 10.735593795776367 10.298906326293945 18.056100845336914 0.2989058494567871 20.735593795776367 C -9.701093673706055 18.056100845336914 -17.0216007232666 10.735593795776367 -19.701093673706055 0.7355937361717224 C -17.0216007232666 -9.264406204223633 -9.701093673706055 -16.58491325378418 0.2989058494567871 -19.264406204223633 C 10.298906326293945 -16.58491325378418 17.619413375854492 -9.264406204223633 20.298906326293945 0.7355937361717224" stroke-width="0.0" fill="rgb(147, 5, 178)" opacity="1.0"/>
    <path d="M 20.484567642211914 0.5265722870826721 C 17.80507469177246 10.526572227478027 10.48456859588623 17.84708023071289 0.4845685064792633 20.526573181152344 C -9.51543140411377 17.84708023071289 -16.835939407348633 10.526572227478027 -19.515432357788086 0.5265722870826721 C -16.835939407348633 -9.473427772521973 -9.51543140411377 -16.793933868408203 0.4845685064792633 -19.473426818847656 C 10.48456859588623 -16.793933868408203 17.80507469177246 -9.473427772521973 20.484567642211914 0.5265722870826721" stroke-width="0.0" fill="rgb(93, 133, 105)" opacity="1.0"/>
    <path d="M 20.146970748901367 0.6221730709075928 C 17.467477798461914 10.622173309326172 10.146970748901367 17.94268035888672 0.146971195936203 20.622173309326172 C -9.853029251098633 17.94268035888672 -17.17353630065918 10.622173309326172 -19.853029251098633 0.6221730709075928 C -17.17353630065918 -9.377826690673828 -9.853029251098633 -16.698333740234375 0.146971195936203 -19.377826690673828 C 10.146970748901367 -16.698333740234375 17.467477798461914 -9.377826690673828 20.146970748901367 0.6221730709075928" stroke-width="0.0" fill="rgb(30, 111, 135)" opacity="1.0"/>
    <path d="M 20.733041763305664 0.16509433090686798 C 18.05354881286621 10.165094375610352 10.733041763305664 17.4856014251709 0.7330420017242432 20.16509437561035 C -9.266958236694336 17.4856014251709 -16.587465286254883 10.165094375610352 -19.266958236694336 0.16509433090686798 C -16.587465286254883 -9.834905624389648 -9.266958236694336 -17.155412673950195 0.7330420017242432 -19.83490562438965 C 10.733041763305664 -17.155412673950195 18.05354881286621 -9.834905624389648 20.733041763305664 0.16509433090686798" stroke-width="0.0" fill="rgb(145, 169, 111)" opacity="1.0"/>
    <path d="M 20.340484619140625 0.3746830224990845 C 17.660991668701172 10.374683380126953 10.340484619140625 17.6951904296875 0.3404845595359802 20.374683380126953 C -9.659515380859375 17.6951904296875 -16.980022430419922 10.374683380126953 -19.659515380859375 0.3746830224990845 C -16.980022430419922 -9.625316619873047 -9.659515380859375 -16.945823669433594 0.3404845595359802 -19.625316619873047 C 10.340484619140625 -16.945823669433594 17.660991668701172 -9.625316619873047 20.340484619140625 0.3746830224990845" stroke-width="0.0" fill="rgb(104, 35, 174)" opacity="1.0"/>
    <path d="M 20.63243865966797 0.5365560054779053 C 17.952945709228516 10.536556243896484 10.632438659667969 17.85706329345703 0.6324384808540344 20.536556243896484 C -9.367561340332031 17.85706329345703 -16.688068389892578 10.536556243896484 -19.36756134033203 0.5365560054779053 C -16.688068389892578 -9.463443756103516 -9.367561340332031 -16.783950805664062 0.6324384808540344 -19.463443756103516 C 10.632438659667969 -16.783950805664062 17.952945709228516 -9.463443756103516 20.63243865966797 0.5365560054779053" stroke-width="0.0" fill="rgb(163, 221, 3)" opacity="1.0"/>
    <path d="M 20.307987213134766 0.8778207898139954 C 17.628494262695312 10.87782096862793 10.307988166809082 18.198328018188477 0.3079877197742462 20.87782096862793 C -9.692011833190918 18.198328018188477 -17.01251983642578 10.87782096862793 -19.692012786865234 0.8778207898139954 C -17.01251983642578 -9.12217903137207 -9.692011833190918 -16.442686080932617 0.3079877197742462 -19.12217903137207 C 10.307988166809082 -16.442686080932617 17.628494262695312 -9.12217903137207 20.307987213134766 0.8778207898139954" stroke-width="0.0" fill="rgb(254, 164, 87)" opacity="1.0"/>
    <path d="M 20.645986557006836 0.2604620158672333 C 17.966493606567383 10.260461807250977 10.645987510681152 17.580968856811523 0.6459874510765076 20.260461807250977 C -9.354012489318848 17.580968856811523 -16.67452049255371 10.260461807250977 -19.354013442993164 0.2604620158672333 C -16.67452049255371 -9.739538192749023 -9.354012489318848 -17.06004524230957 0.6459874510765076 -19.739538192749023 C 10.645987510681152 -17.06004524230957 17.966493606567383 -9.739538192749023 20.645986557006836 0.2604620158672333" stroke-width="0.0" fill="rgb(212, 123, 8)" opacity="1.0"/>
    <path d="M 20.402095794677734 0.44214367866516113 C 17.72260284423828 10.442143440246582 10.402094841003418 17.762651443481445 0.4020949900150299 20.4421443939209 C -9.597905158996582 17.762651443481445 -16.918411254882812 10.442143440246582 -19.597904205322266 0.44214367866516113 C -16.918411254882812 -9.557856559753418 -9.597905158996582 -16.87836265563965 0.4020949900150299 -19.5578556060791 C 10.402094841003418 -16.87836265563965 17.72260284423828 -9.557856559753418 20.402095794677734 0.44214367866516113" stroke-width="0.0" fill="rgb(151, 90, 221)" opacity="1.0"/>
    <path d="M 20.773204803466797 0.900900661945343 C 18.093711853027344 10.900900840759277 10.77320384979248 18.221406936645508 0.7732042670249939 20.90089988708496 C -9.22679615020752 18.221406936645508 -16.54730224609375 10.900900840759277 -19.226795196533203 0.900900661945343 C -16.54730224609375 -9.099099159240723 -9.22679615020752 -16.419607162475586 0.7732042670249939 -19.09910011291504 C 10.77320384979248 -16.419607162475586 18.093711853027344 -9.099099159240723 20.773204803466797 0.900900661945343" stroke-width="0.0" fill="rgb(175, 206, 186)" opacity="1.0"/>
    <path d="M 20.079387664794922 0.0626436248421669 C 17.39989471435547 10.062644004821777 10.079388618469238 17.383150100708008 0.07938843220472336 20.06264305114746 C -9.920611381530762 17.383150100708008 -17.241119384765625 10.062644004821777 -19.920612335205078 0.0626436248421669 C -17.241119384765625 -9.937355995178223 -9.920611381530762 -17.257863998413086 0.07938843220472336 -19.93735694885254 C 10.079388618469238 -17.257863998413086 17.39989471435547 -9.937355995178223 20.079387664794922 0.0626436248421669" stroke-width="0.0" fill="rgb(138, 37, 158)" opacity="1.0"/>
    <path d="M 20.973041534423828 0.06866791844367981 C 18.293548583984375 10.068668365478516 10.973041534423828 17.389175415039062 0.9730414748191833 20.068668365478516 C -9.026958465576172 17.389175415039062 -16.34746551513672 10.068668365478516 -19.026958465576172 0.06866791844367981 C -16.34746551513672 -9.931331634521484 -9.026958465576172 -17.25183868408203 0.9730414748191833 -19.931331634521484 C 10.973041534423828 -17.25183868408203 18.293548583984375 -9.931331634521484 20.973041534423828 0.06866791844367981" stroke-width="0.0" fill="rgb(181, 209, 54)" opacity="1.0"/>
    <path d="M 20.25130271911621 0.03014780953526497 C 17.571809768676758 10.030147552490234 10.251302719116211 17.35065460205078 0.25130248069763184 20.030147552490234 C -9.748697280883789 17.35065460205078 -17.069204330444336 10.030147552490234 -19.74869728088379 0.03014780953526497 C -17.069204330444336 -9.969852447509766 -9.748697280883789 -17.290359497070312 0.25130248069763184 -19.969852447509766 C 10.251302719116211 -17.290359497070312 17.571809768676758 -9.969852447509766 20.25130271911621 0.03014780953526497" stroke-width="0.0" fill="rgb(140, 5, 175)" opacity="1.0"/>
    <path d="M 20.38427734375 0.4469323456287384 C 17.704784393310547 10.446932792663574 10.38427734375 17.767438888549805 0.3842776417732239 20.446931838989258 C -9.61572265625 17.767438888549805 -16.936229705810547 10.446932792663574 -19.61572265625 0.4469323456287384 C -16.936229705810547 -9.553067207336426 -9.61572265625 -16.87357521057129 0.3842776417732239 -19.553068161010742 C 10.38427734375 -16.87357521057129 17.704784393310547 -9.553067207336426 20.38427734375 0.4469323456287384" stroke-width="0.0" fill="rgb(242, 51, 162)" opacity="1.0"/>
    <path d="M 20.860164642333984 0.5044735670089722 C 18.18067169189453 10.504473686218262 10.860164642333984 17.824979782104492 0.8601649403572083 20.504472732543945 C -9.139835357666016 17.824979782104492 -16.460342407226562 10.504473686218262 -19.139835357666016 0.5044735670089722 C -16.460342407226562 -9.495526313781738 -9.139835357666016 -16.8160343170166 0.8601649403572083 -19.495527267456055 C 10.860164642333984 -16.8160343170166 18.18067169189453 -9.495526313781738 20.860164642333984 0.5044735670089722" stroke-width="0.0" fill="rgb(249, 233, 55)" opacity="1.0"/>
    <path d="M 20.277538299560547 0.6983115077018738 C 17.598045349121094 10.698311805725098 10.277538299560547 18.018817901611328 0.277538537979126 20.69831085205078 C -9.722461700439453 18.018817901611328 -17.04296875 10.698311805725098 -19.722461700439453 0.6983115077018738 C -17.04296875 -9.301688194274902 -9.722461700439453 -16.622196197509766 0.277538537979126 -19.30168914794922 C 10.277538299560547 -16.622196197509766 17.598045349121094 -9.301688194274902 20.277538299560547 0.6983115077018738" stroke-width="0.0" fill="rgb(56, 202, 67)" opacity="1.0"/>
    <path d="M 20.68667984008789 0.8286058306694031 C 18.007186889648438 10.828605651855469 10.68667984008789 18.149112701416016 0.6866797208786011 20.82860565185547 C -9.31332015991211 18.149112701416016 -16.633827209472656 10.828605651855469 -19.31332015991211 0.8286058306694031 C -16.633827209472656 -9.171394348144531 -9.31332015991211 -16.491901397705078 0.6866797208786011 -19.17139434814453 C 10.68667984008789 -16.491901397705078 18.007186889648438 -9.171394348144531 20.68667984008789 0.8286058306694031" stroke-width="0.0" fill="rgb(31, 62, 181)" opacity="1.0"/>
    <path d="M 418.1376037597656 129.33145141601562 C 394.0989990234375 138.135498046875 401.5607604980469 142.09568786621094 406.2738952636719 159.78160095214844 C 374.2835693359375 154.61976623535156 390.26190185546875 148.91163635253906 377.3289489746094 153.2270050048828 C 393.50927734375 155.16622924804688 399.2892150878906 141.0870361328125 421.52294921875 127.7601089477539 C 451.0970153808594 100.36177825927734 433.2747497558594 106.91527557373047 418.1376037597656 129.33145141601562" stroke-width="0.0" fill="rgb(254, 115, 188)" opacity="0.4085982"/>
    <path d="M 20.617664337158203 0.9228792786598206 C 17.93817138671875 10.922879219055176 10.617664337158203 18.24338722229004 0.6176643371582031 20.922880172729492 C -9.382335662841797 18.24338722229004 -16.702842712402344 10.922879219055176 -19.382335662841797 0.9228792786598206 C -16.702842712402344 -9.077120780944824 -9.382335662841797 -16.397626876831055 0.6176643371582031 -19.077119827270508 C 10.617664337158203 -16.397626876831055 17.93817138671875 -9.077120780944824 20.617664337158203 0.9228792786598206" stroke-width="0.0" fill="rgb(172, 100, 70)" opacity="1.0"/>
    <path d="M 20.972400665283203 0.0415937565267086 C 18.29290771484375 10.041593551635742 10.972399711608887 17.36210060119629 0.9724000692367554 20.041593551635742 C -9.027600288391113 17.36210060119629 -16.348106384277344 10.041593551635742 -19.027599334716797 0.0415937565267086 C -16.348106384277344 -9.958406448364258 -9.027600288391113 -17.278913497924805 0.9724000692367554 -19.958406448364258 C 10.972399711608887 -17.278913497924805 18.29290771484375 -9.958406448364258 20.972400665283203 0.0415937565267086" stroke-width="0.0" fill="rgb(6, 67, 235)" opacity="1.0"/>
    <path d="M 20.68499755859375 0.05655110254883766 C 18.005504608154297 10.056550979614258 10.684998512268066 17.377058029174805 0.684998095035553 20.056550979614258 C -9.315001487731934 17.377058029174805 -16.635509490966797 10.056550979614258 -19.31500244140625 0.05655110254883766 C -16.635509490966797 -9.943449020385742 -9.315001487731934 -17.26395606994629 0.684998095035553 -19.943449020385742 C 10.684998512268066 -17.26395606994629 18.005504608154297 -9.943449020385742 20.68499755859375 0.05655110254883766" stroke-width="0.0" fill="rgb(87, 195, 168)" opacity="1.0"/>
    <path d="M 20.965126037597656 0.6874821186065674 C 18.285633087158203 10.687481880187988 10.965126037597656 18.00798988342285 0.9651256203651428 20.687482833862305 C -9.034873962402344 18.00798988342285 -16.35538101196289 10.687481880187988 -19.034873962402344 0.6874821186065674 C -16.35538101196289 -9.312518119812012 -9.034873962402344 -16.633024215698242 0.9651256203651428 -19.312517166137695 C 10.965126037597656 -16.633024215698242 18.285633087158203 -9.312518119812012 20.965126037597656 0.6874821186065674" stroke-width="0.0" fill="rgb(12, 77, 59)" opacity="1.0"/>
    <path d="M 20.032238006591797 0.02157209999859333 C 17.352745056152344 10.02157211303711 10.032238006591797 17.342079162597656 0.03223773464560509 20.02157211303711 C -9.967761993408203 17.342079162597656 -17.28826904296875 10.02157211303711 -19.967761993408203 0.02157209999859333 C -17.28826904296875 -9.97842788696289 -9.967761993408203 -17.298934936523438 0.03223773464560509 -19.97842788696289 C 10.032238006591797 -17.298934936523438 17.352745056152344 -9.97842788696289 20.032238006591797 0.02157209999859333" stroke-width="0.0" fill="rgb(83, 10, 241)" opacity="1.0"/>
    <path d="M 20.495092391967773 0.9970294237136841 C 17.81559944152832 10.997029304504395 10.495091438293457 18.317537307739258 0.49509158730506897 20.99703025817871 C -9.504908561706543 18.317537307739258 -16.825414657592773 10.997029304504395 -19.504907608032227 0.9970294237136841 C -16.825414657592773 -9.002970695495605 -9.504908561706543 -16.323476791381836 0.49509158730506897 -19.00296974182129 C 10.495091438293457 -16.323476791381836 17.81559944152832 -9.002970695495605 20.495092391967773 0.9970294237136841" stroke-width="0.0" fill="rgb(175, 40, 251)" opacity="1.0"/>
  </g>
</svg>
