<?xml version="1.0" ?>
<svg xmlns="http://www.w3.org/2000/svg" version="1.1" width="600" height="600">
  <defs/>
  <g>
    <path d="M 681.8284912109375 393.7351989746094 C 712.9183349609375 491.36669921875 726.429443359375 516.5371704101562 417.64422607421875 537.3494873046875 C 355.93597412109375 166.85533142089844 378.030029296875 178.72039794921875 333.3243408203125 179.2968292236328 C 344.5874328613281 98.1168212890625 389.71856689453125 119.79357147216797 405.53936767578125 101.41773223876953 C 415.18365478515625 97.1970443725586 450.88641357421875 84.52906036376953 681.8284912109375 393.7351989746094" stroke-width="0.0" fill="rgb(26, 23, 145)" opacity="1.0"/>
    <path d="M 656.005126953125 555.5474243164062 C 581.9686279296875 701.72705078125 526.0421752929688 666.2076416015625 63.51688003540039 682.4728393554688 C 78.42483520507812 641.4127807617188 174.03147888183594 490.9444580078125 98.49342346191406 637.1884765625 C -51.70895767211914 631.26953125 -60.28181838989258 576.8938598632812 -29.609891891479492 288.27105712890625 C 453.73773193359375 227.748291015625 599.764404296875 197.3060302734375 656.005126953125 555.5474243164062" stroke-width="0.0" fill="rgb(24, 27, 146)" opacity="0.9994346"/>
    <path d="M 637.279296875 204.69664001464844 C 620.0000610351562 287.3839111328125 618.0845947265625 304.9001159667969 616.2215576171875 321.3136291503906 C 427.8737487792969 105.15750122070312 426.1141052246094 82.7597885131836 350.89154052734375 -26.701435089111328 C 315.91363525390625 -17.08970832824707 322.1894226074219 -25.71872901916504 417.0299987792969 -78.85321044921875 C 523.2149047851562 -7.770582675933838 549.6898193359375 -5.630417346954346 637.279296875 204.69664001464844" stroke-width="0.0" fill="rgb(11, 100, 202)" opacity="1.0"/>
    <path d="M 572.2786254882812 28.464374542236328 C 550.4780883789062 78.15544128417969 573.0911865234375 112.44599151611328 580.4423828125 50.628662109375 C 494.6124572753906 14.53528118133545 496.1203918457031 -13.04382038116455 462.560546875 -29.92473602294922 C 447.85052490234375 -14.396825790405273 464.54266357421875 -12.670134544372559 481.4891662597656 -12.915160179138184 C 518.5855102539062 -23.943328857421875 546.48193359375 -38.965484619140625 572.2786254882812 28.464374542236328" stroke-width="0.0" fill="rgb(58, 174, 145)" opacity="0.4211889"/>
    <path d="M 25.558555603027344 -16.755172729492188 C -0.6523410081863403 18.1219425201416 -11.209933280944824 24.29806900024414 -3.6528537273406982 54.41242218017578 C -15.033719062805176 49.24934387207031 -23.932735443115234 43.54071807861328 -28.924394607543945 34.20699691772461 C -15.139198303222656 10.534671783447266 -16.722476959228516 -6.0523200035095215 25.08076286315918 -20.76381492614746 C 43.63608932495117 -21.477094650268555 47.92634963989258 -17.633657455444336 25.558555603027344 -16.755172729492188" stroke-width="0.0" fill="rgb(112, 141, 111)" opacity="0.8839097"/>
    <path d="M 582.5416259765625 63.31698989868164 C 598.8973388671875 132.5184783935547 604.8994750976562 146.6375732421875 515.9798583984375 111.658447265625 C 400.93658447265625 84.08941650390625 344.3447570800781 110.90018463134766 300.5523986816406 38.17295837402344 C 342.1116943359375 -62.582786560058594 363.3193359375 -51.61665344238281 456.0427551269531 -69.28209686279297 C 526.9923095703125 -56.58256530761719 532.97705078125 -45.26113510131836 582.5416259765625 63.31698989868164" stroke-width="0.0" fill="rgb(0, 104, 182)" opacity="0.41035718"/>
    <path d="M 20.667348861694336 0.9401909112930298 C 17.987855911254883 10.940191268920898 10.66734790802002 18.260698318481445 0.6673480868339539 20.9401912689209 C -9.33265209197998 18.260698318481445 -16.65315818786621 10.940191268920898 -19.332651138305664 0.9401909112930298 C -16.65315818786621 -9.059808731079102 -9.33265209197998 -16.38031578063965 0.6673480868339539 -19.0598087310791 C 10.66734790802002 -16.38031578063965 17.987855911254883 -9.059808731079102 20.667348861694336 0.9401909112930298" stroke-width="0.0" fill="rgb(56, 20, 223)" opacity="1.0"/>
    <path d="M 112.0830078125 40.369651794433594 C 121.05670166015625 158.01512145996094 145.3677520751953 154.10101318359375 43.61459732055664 162.89356994628906 C -40.76884460449219 115.562744140625 -8.681278228759766 78.90078735351562 -7.82470178604126 33.83123016357422 C -14.446451187133789 23.9486141204834 -4.450677871704102 13.74116325378418 45.8350715637207 -44.934478759765625 C 106.77001190185547 -67.15575408935547 115.16194152832031 -73.57914733886719 112.0830078125 40.369651794433594" stroke-width="0.0" fill="rgb(3, 97, 180)" opacity="1.0"/>
    <path d="M 627.5039672851562 77.1915054321289 C 673.8567504882812 174.97413635253906 737.6846313476562 246.7500457763672 588.166259765625 270.0841064453125 C 487.2716369628906 200.03103637695312 496.4051208496094 144.2502899169922 482.98883056640625 88.65030670166016 C 486.547119140625 -41.669647216796875 498.59661865234375 -41.27303695678711 529.4130249023438 -32.659996032714844 C 638.7005615234375 -14.406779289245605 629.5272827148438 4.425583839416504 627.5039672851562 77.1915054321289" stroke-width="0.0" fill="rgb(0, 104, 187)" opacity="1.0"/>
    <path d="M 374.37469482421875 96.21971130371094 C 363.7968444824219 259.810791015625 384.5099792480469 217.96206665039062 348.1187438964844 185.6835174560547 C 215.1684112548828 118.65412902832031 165.0514373779297 146.76768493652344 193.0054473876953 41.92068862915039 C 185.92623901367188 -52.01561737060547 165.06356811523438 -57.20557403564453 296.75762939453125 -21.524898529052734 C 345.8914794921875 -13.781386375427246 359.7707824707031 -4.661933422088623 374.37469482421875 96.21971130371094" stroke-width="0.0" fill="rgb(0, 92, 195)" opacity="0.98635894"/>
    <path d="M 235.6220703125 37.473934173583984 C 226.5256805419922 135.75697326660156 189.7859649658203 131.2456817626953 188.81057739257812 146.10189819335938 C 86.4759521484375 189.6313934326172 56.79547119140625 198.41807556152344 45.24122619628906 53.437583923339844 C 39.394954681396484 -15.67110824584961 45.48932647705078 -30.627721786499023 93.73088073730469 -45.819366455078125 C 248.54129028320312 -62.077308654785156 235.3601837158203 -56.7215576171875 235.6220703125 37.473934173583984" stroke-width="0.0" fill="rgb(13, 98, 185)" opacity="0.9680942"/>
    <path d="M 324.2889404296875 243.9613800048828 C 285.5241394042969 246.14288330078125 261.11627197265625 247.58673095703125 251.91122436523438 307.4330749511719 C 125.3143081665039 266.91021728515625 141.76748657226562 251.71974182128906 152.617919921875 217.0318603515625 C 160.1983642578125 110.95728302001953 161.5310821533203 100.70720672607422 204.6554718017578 105.35861206054688 C 241.7931671142578 137.86167907714844 283.8377990722656 160.27439880371094 324.2889404296875 243.9613800048828" stroke-width="0.0" fill="rgb(225, 158, 24)" opacity="0.9370706"/>
    <path d="M 173.38153076171875 138.18423461914062 C 163.42481994628906 210.9925537109375 201.02027893066406 309.26959228515625 20.715118408203125 337.79046630859375 C -29.424949645996094 297.22998046875 -25.774829864501953 273.25860595703125 -68.68319702148438 151.14427185058594 C -61.484012603759766 48.75053787231445 -36.709320068359375 57.45197677612305 55.70247268676758 53.81855392456055 C 194.230224609375 58.78546142578125 200.6328125 65.49029541015625 173.38153076171875 138.18423461914062" stroke-width="0.0" fill="rgb(7, 101, 194)" opacity="0.9728247"/>
    <path d="M 205.95599365234375 205.01943969726562 C 256.99420166015625 337.74652099609375 321.0208740234375 439.5327453613281 20.623281478881836 436.3753356933594 C -75.64751434326172 404.6595153808594 -13.362932205200195 342.5317077636719 -30.175737380981445 257.0661926269531 C 76.76175689697266 113.43270874023438 96.8540267944336 109.11201477050781 151.3298797607422 92.1975326538086 C 156.4279022216797 101.06350708007812 133.1044464111328 150.24331665039062 205.95599365234375 205.01943969726562" stroke-width="0.0" fill="rgb(3, 93, 185)" opacity="0.9866291"/>
    <path d="M 350.0870666503906 279.4953308105469 C 367.4505615234375 295.4013977050781 368.6334228515625 325.8408508300781 278.5455017089844 318.28460693359375 C 230.86990356445312 307.010986328125 308.1549987792969 277.26904296875 292.8120422363281 254.0758514404297 C 301.2237854003906 253.93495178222656 279.4617614746094 166.40774536132812 308.8736877441406 200.4696807861328 C 320.3729248046875 217.39842224121094 316.8604736328125 260.9238586425781 350.0870666503906 279.4953308105469" stroke-width="0.0" fill="rgb(0, 0, 12)" opacity="1.0"/>
    <path d="M 430.02801513671875 122.55402374267578 C 391.779296875 104.92342376708984 373.2545471191406 110.00152587890625 374.6722106933594 145.98828125 C 302.49578857421875 178.63829040527344 290.3603515625 204.24082946777344 300.5978698730469 89.59591674804688 C 308.5480651855469 -13.184223175048828 284.998779296875 -49.079105377197266 349.037353515625 -46.833858489990234 C 439.5816650390625 40.77288055419922 427.9365234375 83.53866577148438 430.02801513671875 122.55402374267578" stroke-width="0.0" fill="rgb(0, 97, 181)" opacity="1.0"/>
    <path d="M 262.2231750488281 447.6223449707031 C 269.89410400390625 509.37030029296875 270.8388671875 567.435546875 236.63754272460938 551.3505859375 C 253.58392333984375 463.0326232910156 221.5813751220703 466.42645263671875 229.11903381347656 429.63934326171875 C 213.54629516601562 414.27996826171875 211.0832977294922 344.93792724609375 252.8169708251953 335.82275390625 C 254.01171875 428.33551025390625 304.45135498046875 410.9230041503906 262.2231750488281 447.6223449707031" stroke-width="0.0" fill="rgb(255, 242, 140)" opacity="0.9822716"/>
    <path d="M 20.196495056152344 0.8237950801849365 C 17.51700210571289 10.823795318603516 10.196495056152344 18.144302368164062 0.19649538397789001 20.823795318603516 C -9.803504943847656 18.144302368164062 -17.124011993408203 10.823795318603516 -19.803504943847656 0.8237950801849365 C -17.124011993408203 -9.176204681396484 -9.803504943847656 -16.49671173095703 0.19649538397789001 -19.176204681396484 C 10.196495056152344 -16.49671173095703 17.51700210571289 -9.176204681396484 20.196495056152344 0.8237950801849365" stroke-width="0.0" fill="rgb(227, 97, 116)" opacity="1.0"/>
    <path d="M 316.7464294433594 355.3464660644531 C 291.5047912597656 400.2106628417969 284.338623046875 450.146484375 187.58602905273438 422.9440612792969 C 144.83657836914062 410.0760192871094 132.02857971191406 455.6587829589844 135.29188537597656 328.5083312988281 C 194.40269470214844 320.9304504394531 222.9633026123047 339.7087097167969 264.7534484863281 348.4282531738281 C 261.35498046875 327.19879150390625 318.4385070800781 318.9054870605469 316.7464294433594 355.3464660644531" stroke-width="0.0" fill="rgb(216, 14, 241)" opacity="0.8848885"/>
    <path d="M 20.079387664794922 0.0626436248421669 C 17.39989471435547 10.062644004821777 10.079388618469238 17.383150100708008 0.07938843220472336 20.06264305114746 C -9.920611381530762 17.383150100708008 -17.241119384765625 10.062644004821777 -19.920612335205078 0.0626436248421669 C -17.241119384765625 -9.937355995178223 -9.920611381530762 -17.257863998413086 0.07938843220472336 -19.93735694885254 C 10.079388618469238 -17.257863998413086 17.39989471435547 -9.937355995178223 20.079387664794922 0.0626436248421669" stroke-width="0.0" fill="rgb(138, 37, 158)" opacity="1.0"/>
    <path d="M 438.8398132324219 159.75924682617188 C 421.8229064941406 218.32681274414062 406.7742919921875 224.73814392089844 389.5962829589844 223.36572265625 C 390.4687194824219 219.6736602783203 374.51312255859375 195.17144775390625 378.9241027832031 213.05709838867188 C 349.3778076171875 183.23526000976562 348.16021728515625 136.1749267578125 413.4799499511719 98.5412826538086 C 444.98651123046875 82.42591857910156 445.5052795410156 111.71136474609375 438.8398132324219 159.75924682617188" stroke-width="0.0" fill="rgb(247, 125, 32)" opacity="0.9638742"/>
    <path d="M 313.8008728027344 447.5903625488281 C 331.0685729980469 479.7772521972656 352.55047607421875 488.1673583984375 326.4809265136719 508.8519287109375 C 286.43731689453125 469.87506103515625 301.930419921875 435.4612121582031 272.6950988769531 430.56329345703125 C 295.3233642578125 404.0576171875 210.98033142089844 457.5527038574219 246.82069396972656 417.4945983886719 C 364.6337585449219 443.9615478515625 379.219970703125 443.2901306152344 313.8008728027344 447.5903625488281" stroke-width="0.0" fill="rgb(255, 248, 116)" opacity="0.98603827"/>
    <path d="M 419.01800537109375 195.68797302246094 C 424.9916076660156 231.1916046142578 394.7452392578125 218.252685546875 350.4382019042969 251.2776641845703 C 349.0627136230469 284.4172668457031 321.14642333984375 258.22601318359375 262.51708984375 216.69017028808594 C 282.0415344238281 137.82183837890625 340.69317626953125 151.88804626464844 420.0222473144531 157.11973571777344 C 413.38494873046875 141.99441528320312 415.9169006347656 152.5923309326172 419.01800537109375 195.68797302246094" stroke-width="0.0" fill="rgb(243, 163, 53)" opacity="0.9996178"/>
    <path d="M 250.51397705078125 134.47694396972656 C 232.18002319335938 173.6165771484375 208.2648162841797 181.47608947753906 172.50283813476562 185.6511688232422 C 166.5932159423828 128.15963745117188 169.57284545898438 124.1545181274414 155.1547088623047 94.15774536132812 C 124.60538482666016 43.3815803527832 126.7474365234375 26.53240966796875 176.69252014160156 48.62120056152344 C 226.2221221923828 82.97554016113281 235.7115020751953 90.38544464111328 250.51397705078125 134.47694396972656" stroke-width="0.0" fill="rgb(254, 120, 135)" opacity="0.99401057"/>
    <path d="M 469.2936096191406 118.15035247802734 C 442.07177734375 208.3075714111328 394.49993896484375 195.95040893554688 359.4050598144531 183.8959197998047 C 291.92730712890625 172.59568786621094 225.87742614746094 174.1217498779297 299.08306884765625 138.02952575683594 C 407.8793640136719 143.56097412109375 333.2810974121094 181.28787231445312 381.4744567871094 106.18798828125 C 412.4751892089844 72.41394805908203 512.8387451171875 46.64678192138672 469.2936096191406 118.15035247802734" stroke-width="0.0" fill="rgb(251, 147, 72)" opacity="1.0"/>
    <path d="M 169.1643829345703 149.1603546142578 C 185.02479553222656 168.33396911621094 180.41275024414062 154.9055938720703 184.778076171875 147.20135498046875 C 181.97146606445312 166.3380584716797 165.4235382080078 154.7421112060547 152.00340270996094 135.60748291015625 C 140.62020874023438 66.80731201171875 115.74942779541016 13.415888786315918 177.890625 52.13437271118164 C 233.72836303710938 74.60981750488281 211.0657958984375 87.84569549560547 169.1643829345703 149.1603546142578" stroke-width="0.0" fill="rgb(254, 159, 12)" opacity="0.98350513"/>
    <path d="M 246.11280822753906 117.48701477050781 C 262.470458984375 150.89495849609375 244.06138610839844 163.1891632080078 190.16429138183594 157.17811584472656 C 158.93211364746094 167.9924774169922 149.43785095214844 156.04310607910156 157.98524475097656 81.15739440917969 C 162.36676025390625 67.21066284179688 147.76849365234375 80.96006774902344 208.13601684570312 72.45025634765625 C 223.7553253173828 83.12957763671875 234.14585876464844 91.74701690673828 246.11280822753906 117.48701477050781" stroke-width="0.0" fill="rgb(250, 130, 77)" opacity="0.8285445"/>
    <path d="M 194.53646850585938 97.09297180175781 C 233.289306640625 93.59154510498047 236.09483337402344 137.71194458007812 226.8245391845703 161.9984130859375 C 173.56640625 165.84205627441406 186.40255737304688 136.4850311279297 181.2973175048828 85.66502380371094 C 216.47496032714844 91.9845199584961 194.02304077148438 95.97088623046875 212.19964599609375 93.64344024658203 C 230.23971557617188 116.46538543701172 207.7163543701172 148.00607299804688 194.53646850585938 97.09297180175781" stroke-width="0.0" fill="rgb(245, 88, 224)" opacity="0.28654256"/>
    <path d="M 20.298906326293945 0.7355937361717224 C 17.619413375854492 10.735593795776367 10.298906326293945 18.056100845336914 0.2989058494567871 20.735593795776367 C -9.701093673706055 18.056100845336914 -17.0216007232666 10.735593795776367 -19.701093673706055 0.7355937361717224 C -17.0216007232666 -9.264406204223633 -9.701093673706055 -16.58491325378418 0.2989058494567871 -19.264406204223633 C 10.298906326293945 -16.58491325378418 17.619413375854492 -9.264406204223633 20.298906326293945 0.7355937361717224" stroke-width="0.0" fill="rgb(147, 5, 178)" opacity="1.0"/>
    <path d="M 301.0258483886719 233.01292419433594 C 289.7141418457031 292.0020751953125 231.5384063720703 279.864990234375 260.0498046875 251.24127197265625 C 283.5039978027344 280.68402099609375 247.9827880859375 282.5027770996094 245.1732940673828 270.07647705078125 C 233.56466674804688 246.78634643554688 195.7508087158203 252.7675323486328 256.2221984863281 224.87586975097656 C 312.2149963378906 220.5554962158203 303.2492370605469 248.22027587890625 301.0258483886719 233.01292419433594" stroke-width="0.0" fill="rgb(245, 120, 42)" opacity="0.61272633"/>
    <path d="M 232.6834716796875 475.1692199707031 C 234.85830688476562 425.4734802246094 299.4596252441406 446.7403564453125 257.8210754394531 493.8417663574219 C 246.78578186035156 523.1443481445312 246.2500762939453 512.7909545898438 240.11009216308594 499.9761962890625 C 241.73719787597656 489.1770324707031 243.82630920410156 462.3783264160156 231.96266174316406 435.93182373046875 C 299.3507995605469 402.8928527832031 251.15573120117188 391.9306945800781 232.6834716796875 475.1692199707031" stroke-width="0.0" fill="rgb(254, 247, 190)" opacity="0.0721546"/>
    <path d="M 405.82928466796875 223.55007934570312 C 393.8515319824219 222.86273193359375 396.1676025390625 235.55654907226562 392.48553466796875 259.3869323730469 C 388.7304382324219 270.85198974609375 362.52117919921875 292.3335876464844 352.1526184082031 214.0762481689453 C 354.0205383300781 112.24169158935547 361.989013671875 152.73324584960938 405.3543701171875 197.2047882080078 C 440.7939758300781 165.94561767578125 435.218017578125 215.0914764404297 405.82928466796875 223.55007934570312" stroke-width="0.0" fill="rgb(236, 173, 32)" opacity="0.9403963"/>
    <path d="M 371.3363037109375 280.5137634277344 C 326.3766174316406 408.90008544921875 395.7037353515625 344.5322570800781 333.5550537109375 373.79034423828125 C 255.9457244873047 355.8509521484375 254.5968017578125 366.9154968261719 244.0015106201172 308.63922119140625 C 208.48280334472656 220.56076049804688 290.46820068359375 270.94525146484375 278.97119140625 314.3395080566406 C 388.142333984375 347.98052978515625 290.2978210449219 253.27159118652344 371.3363037109375 280.5137634277344" stroke-width="0.0" fill="rgb(255, 250, 167)" opacity="0.9852583"/>
    <path d="M 435.31988525390625 430.041015625 C 400.94879150390625 452.02838134765625 394.5848083496094 457.6341247558594 346.0364074707031 465.7146301269531 C 326.9187927246094 413.1728210449219 286.1956481933594 438.85015869140625 271.0104675292969 401.11541748046875 C 257.9007873535156 368.81072998046875 304.2237548828125 370.218994140625 378.6336669921875 317.0102844238281 C 466.62646484375 280.9085388183594 455.3682556152344 278.7860412597656 435.31988525390625 430.041015625" stroke-width="0.0" fill="rgb(221, 2, 246)" opacity="0.8975313"/>
    <path d="M 20.552650451660156 0.3021373450756073 C 17.873157501220703 10.30213737487793 10.552650451660156 17.622644424438477 0.5526500940322876 20.30213737487793 C -9.447349548339844 17.622644424438477 -16.76785659790039 10.30213737487793 -19.447349548339844 0.3021373450756073 C -16.76785659790039 -9.69786262512207 -9.447349548339844 -17.018369674682617 0.5526500940322876 -19.69786262512207 C 10.552650451660156 -17.018369674682617 17.873157501220703 -9.69786262512207 20.552650451660156 0.3021373450756073" stroke-width="0.0" fill="rgb(35, 70, 202)" opacity="1.0"/>
    <path d="M 289.85455322265625 444.7505798339844 C 270.7273254394531 434.86126708984375 262.6898193359375 463.3235168457031 258.3645324707031 487.3433532714844 C 256.6956787109375 477.5785217285156 249.3411102294922 475.229736328125 239.46060180664062 468.0062255859375 C 231.3841552734375 462.99365234375 205.99298095703125 446.01446533203125 207.89927673339844 396.1044921875 C 320.4189147949219 411.6529235839844 301.46331787109375 437.77996826171875 289.85455322265625 444.7505798339844" stroke-width="0.0" fill="rgb(255, 109, 82)" opacity="0.99661666"/>
    <path d="M 20.525487899780273 0.23958604037761688 C 17.84599494934082 10.239585876464844 10.525487899780273 17.56009292602539 0.52548748254776 20.239585876464844 C -9.474512100219727 17.56009292602539 -16.795019149780273 10.239585876464844 -19.474512100219727 0.23958604037761688 C -16.795019149780273 -9.760414123535156 -9.474512100219727 -17.080921173095703 0.52548748254776 -19.760414123535156 C 10.525487899780273 -17.080921173095703 17.84599494934082 -9.760414123535156 20.525487899780273 0.23958604037761688" stroke-width="0.0" fill="rgb(150, 152, 67)" opacity="1.0"/>
    <path d="M 345.59979248046875 444.8512268066406 C 358.45037841796875 418.8706359863281 349.22088623046875 419.8125915527344 355.5747985839844 424.8993225097656 C 340.4830322265625 449.3869323730469 321.1978454589844 438.92779541015625 344.4098205566406 432.3470458984375 C 335.9503479003906 425.966796875 324.2145080566406 418.521240234375 327.54486083984375 443.20208740234375 C 358.1968994140625 427.5774841308594 369.5398864746094 443.144775390625 345.59979248046875 444.8512268066406" stroke-width="0.0" fill="rgb(255, 23, 39)" opacity="0.5981654"/>
    <path d="M 367.616943359375 252.10360717773438 C 389.01251220703125 216.6803741455078 300.75439453125 267.4285888671875 391.3486328125 253.70196533203125 C 370.83740234375 327.3458251953125 314.76190185546875 253.421142578125 346.5653076171875 242.61965942382812 C 364.36700439453125 232.01882934570312 337.7651672363281 243.95921325683594 353.3447265625 268.661865234375 C 344.72198486328125 248.8633575439453 322.0845031738281 254.7694854736328 367.616943359375 252.10360717773438" stroke-width="0.0" fill="rgb(255, 163, 0)" opacity="1.0"/>
    <path d="M 368.8003234863281 461.656982421875 C 377.0829162597656 474.86053466796875 313.4924011230469 463.1023254394531 293.23333740234375 473.28289794921875 C 237.03610229492188 473.9376525878906 282.81304931640625 468.2415771484375 250.20375061035156 428.5423889160156 C 239.1268310546875 374.9252014160156 315.0180358886719 431.5087585449219 293.9064636230469 450.8341979980469 C 296.7576904296875 404.8121337890625 333.7658996582031 423.5508728027344 368.8003234863281 461.656982421875" stroke-width="0.0" fill="rgb(255, 30, 191)" opacity="0.92118347"/>
    <path d="M 20.773204803466797 0.900900661945343 C 18.093711853027344 10.900900840759277 10.77320384979248 18.221406936645508 0.7732042670249939 20.90089988708496 C -9.22679615020752 18.221406936645508 -16.54730224609375 10.900900840759277 -19.226795196533203 0.900900661945343 C -16.54730224609375 -9.099099159240723 -9.22679615020752 -16.419607162475586 0.7732042670249939 -19.09910011291504 C 10.77320384979248 -16.419607162475586 18.093711853027344 -9.099099159240723 20.773204803466797 0.900900661945343" stroke-width="0.0" fill="rgb(175, 206, 186)" opacity="1.0"/>
    <path d="M 20.965126037597656 0.6874821186065674 C 18.285633087158203 10.687481880187988 10.965126037597656 18.00798988342285 0.9651256203651428 20.687482833862305 C -9.034873962402344 18.00798988342285 -16.35538101196289 10.687481880187988 -19.034873962402344 0.6874821186065674 C -16.35538101196289 -9.312518119812012 -9.034873962402344 -16.633024215698242 0.9651256203651428 -19.312517166137695 C 10.965126037597656 -16.633024215698242 18.285633087158203 -9.312518119812012 20.965126037597656 0.6874821186065674" stroke-width="0.0" fill="rgb(12, 77, 59)" opacity="1.0"/>
    <path d="M 470.8998718261719 427.3564147949219 C 467.5825500488281 528.7582397460938 505.5868225097656 520.2243041992188 380.8714599609375 466.9757385253906 C 375.44586181640625 427.4119567871094 407.10467529296875 390.36376953125 385.4914245605469 384.2062072753906 C 355.7043151855469 385.0216979980469 360.0639953613281 387.077880859375 352.4111633300781 388.33001708984375 C 356.6607971191406 392.7248840332031 405.90618896484375 366.9855651855469 470.8998718261719 427.3564147949219" stroke-width="0.0" fill="rgb(42, 28, 176)" opacity="0.0"/>
    <path d="M 20.495092391967773 0.9970294237136841 C 17.81559944152832 10.997029304504395 10.495091438293457 18.317537307739258 0.49509158730506897 20.99703025817871 C -9.504908561706543 18.317537307739258 -16.825414657592773 10.997029304504395 -19.504907608032227 0.9970294237136841 C -16.825414657592773 -9.002970695495605 -9.504908561706543 -16.323476791381836 0.49509158730506897 -19.00296974182129 C 10.495091438293457 -16.323476791381836 17.81559944152832 -9.002970695495605 20.495092391967773 0.9970294237136841" stroke-width="0.0" fill="rgb(175, 40, 251)" opacity="1.0"/>
    <path d="M 471.7475280761719 340.5832214355469 C 455.4172668457031 433.86212158203125 418.2676086425781 429.13427734375 379.8820495605469 451.17633056640625 C 292.63824462890625 439.2383728027344 301.1329040527344 390.9556579589844 323.32373046875 374.2262268066406 C 344.83148193359375 332.0462951660156 361.9308776855469 332.9403381347656 378.3843078613281 332.3483581542969 C 405.37274169921875 330.85284423828125 412.7286682128906 322.8455505371094 471.7475280761719 340.5832214355469" stroke-width="0.0" fill="rgb(255, 1, 239)" opacity="0.94067407"/>
    <path d="M 20.197290420532227 0.7877051830291748 C 17.517797470092773 10.787705421447754 10.197290420532227 18.108211517333984 0.19729068875312805 20.787704467773438 C -9.802709579467773 18.108211517333984 -17.12321662902832 10.787705421447754 -19.802709579467773 0.7877051830291748 C -17.12321662902832 -9.212294578552246 -9.802709579467773 -16.53280258178711 0.19729068875312805 -19.212295532226562 C 10.197290420532227 -16.53280258178711 17.517797470092773 -9.212294578552246 20.197290420532227 0.7877051830291748" stroke-width="0.0" fill="rgb(226, 211, 39)" opacity="1.0"/>
    <path d="M 358.8455505371094 439.52520751953125 C 387.8580627441406 427.48223876953125 376.6053466796875 463.02716064453125 386.68072509765625 502.0762023925781 C 318.7226867675781 475.3116455078125 349.4681396484375 429.91241455078125 334.9040222167969 434.0588684082031 C 330.8255310058594 429.73944091796875 367.5813293457031 423.6085205078125 368.9766540527344 428.2078857421875 C 370.7960510253906 431.92755126953125 367.8072814941406 422.9501037597656 358.8455505371094 439.52520751953125" stroke-width="0.0" fill="rgb(255, 185, 89)" opacity="0.98397"/>
    <path d="M 20.222129821777344 0.5061748623847961 C 17.54263687133789 10.50617504119873 10.22213077545166 17.82668113708496 0.22213061153888702 20.506174087524414 C -9.77786922454834 17.82668113708496 -17.098377227783203 10.50617504119873 -19.777870178222656 0.5061748623847961 C -17.098377227783203 -9.49382495880127 -9.77786922454834 -16.814332962036133 0.22213061153888702 -19.493825912475586 C 10.22213077545166 -16.814332962036133 17.54263687133789 -9.49382495880127 20.222129821777344 0.5061748623847961" stroke-width="0.0" fill="rgb(91, 91, 133)" opacity="1.0"/>
    <path d="M 271.2461853027344 208.05523681640625 C 227.80125427246094 256.1432800292969 223.53529357910156 289.15203857421875 214.7446746826172 233.7665252685547 C 203.9837188720703 208.7304229736328 205.2067413330078 202.94927978515625 186.686279296875 197.7362518310547 C 163.23060607910156 192.01956176757812 171.64898681640625 163.88616943359375 169.08242797851562 152.45762634277344 C 219.14271545410156 205.7666015625 258.78619384765625 197.20553588867188 271.2461853027344 208.05523681640625" stroke-width="0.0" fill="rgb(240, 163, 50)" opacity="0.94553953"/>
    <path d="M 275.3069763183594 386.5461120605469 C 250.59500122070312 380.66473388671875 294.84619140625 390.0611572265625 304.9721374511719 412.2651672363281 C 271.2745361328125 441.3900451660156 249.90802001953125 422.4465026855469 223.79354858398438 417.8167724609375 C 201.13845825195312 383.6876525878906 226.9916229248047 371.14190673828125 256.9996643066406 384.2418212890625 C 288.4302978515625 374.23114013671875 288.6563720703125 393.88739013671875 275.3069763183594 386.5461120605469" stroke-width="0.0" fill="rgb(255, 9, 255)" opacity="1.0"/>
    <path d="M 20.973041534423828 0.06866791844367981 C 18.293548583984375 10.068668365478516 10.973041534423828 17.389175415039062 0.9730414748191833 20.068668365478516 C -9.026958465576172 17.389175415039062 -16.34746551513672 10.068668365478516 -19.026958465576172 0.06866791844367981 C -16.34746551513672 -9.931331634521484 -9.026958465576172 -17.25183868408203 0.9730414748191833 -19.931331634521484 C 10.973041534423828 -17.25183868408203 18.293548583984375 -9.931331634521484 20.973041534423828 0.06866791844367981" stroke-width="0.0" fill="rgb(181, 209, 54)" opacity="1.0"/>
    <path d="M 20.68499755859375 0.05655110254883766 C 18.005504608154297 10.056550979614258 10.684998512268066 17.377058029174805 0.684998095035553 20.056550979614258 C -9.315001487731934 17.377058029174805 -16.635509490966797 10.056550979614258 -19.31500244140625 0.05655110254883766 C -16.635509490966797 -9.943449020385742 -9.315001487731934 -17.26395606994629 0.684998095035553 -19.943449020385742 C 10.684998512268066 -17.26395606994629 18.005504608154297 -9.943449020385742 20.68499755859375 0.05655110254883766" stroke-width="0.0" fill="rgb(87, 195, 168)" opacity="1.0"/>
    <path d="M 347.7574462890625 253.89918518066406 C 333.9945373535156 302.5492248535156 319.9223327636719 313.9271240234375 291.5075378417969 282.0926513671875 C 271.6138916015625 266.6461181640625 285.54180908203125 294.5815124511719 241.74122619628906 318.8050537109375 C 234.9294891357422 311.6553039550781 298.47540283203125 320.1085205078125 314.7949523925781 303.9956970214844 C 331.64111328125 315.7304382324219 377.6469421386719 330.1879577636719 347.7574462890625 253.89918518066406" stroke-width="0.0" fill="rgb(254, 254, 233)" opacity="0.9956603"/>
    <path d="M 20.405651092529297 0.22509105503559113 C 17.726158142089844 10.225090980529785 10.405651092529297 17.54559898376465 0.40565142035484314 20.2250919342041 C -9.594348907470703 17.54559898376465 -16.91485595703125 10.225090980529785 -19.594348907470703 0.22509105503559113 C -16.91485595703125 -9.774909019470215 -9.594348907470703 -17.095415115356445 0.40565142035484314 -19.7749080657959 C 10.405651092529297 -17.095415115356445 17.726158142089844 -9.774909019470215 20.405651092529297 0.22509105503559113" stroke-width="0.0" fill="rgb(228, 129, 162)" opacity="1.0"/>
    <path d="M 20.25130271911621 0.03014780953526497 C 17.571809768676758 10.030147552490234 10.251302719116211 17.35065460205078 0.25130248069763184 20.030147552490234 C -9.748697280883789 17.35065460205078 -17.069204330444336 10.030147552490234 -19.74869728088379 0.03014780953526497 C -17.069204330444336 -9.969852447509766 -9.748697280883789 -17.290359497070312 0.25130248069763184 -19.969852447509766 C 10.251302719116211 -17.290359497070312 17.571809768676758 -9.969852447509766 20.25130271911621 0.03014780953526497" stroke-width="0.0" fill="rgb(140, 5, 175)" opacity="1.0"/>
    <path d="M 20.05929183959961 0.664051353931427 C 17.379798889160156 10.664051055908203 10.059292793273926 17.98455810546875 0.05929239094257355 20.664051055908203 C -9.940707206726074 17.98455810546875 -17.261215209960938 10.664051055908203 -19.94070816040039 0.664051353931427 C -17.261215209960938 -9.335948944091797 -9.940707206726074 -16.656455993652344 0.05929239094257355 -19.335948944091797 C 10.059292793273926 -16.656455993652344 17.379798889160156 -9.335948944091797 20.05929183959961 0.664051353931427" stroke-width="0.0" fill="rgb(210, 2, 47)" opacity="1.0"/>
    <path d="M 314.8626708984375 239.1141815185547 C 360.6047668457031 263.7736511230469 341.3861999511719 279.4176330566406 330.63702392578125 264.51025390625 C 304.0797119140625 234.00196838378906 317.5965270996094 206.03392028808594 322.08551025390625 237.24984741210938 C 319.0111083984375 191.26898193359375 357.4399719238281 121.32041931152344 275.0758056640625 140.2296600341797 C 215.98292541503906 149.92811584472656 277.4842529296875 158.32337951660156 314.8626708984375 239.1141815185547" stroke-width="0.0" fill="rgb(255, 192, 98)" opacity="1.0"/>
    <path d="M 20.71711540222168 0.05206483229994774 C 18.037622451782227 10.052064895629883 10.71711540222168 17.37257194519043 0.7171149253845215 20.052064895629883 C -9.28288459777832 17.37257194519043 -16.603391647338867 10.052064895629883 -19.28288459777832 0.05206483229994774 C -16.603391647338867 -9.947935104370117 -9.28288459777832 -17.268442153930664 0.7171149253845215 -19.947935104370117 C 10.71711540222168 -17.268442153930664 18.037622451782227 -9.947935104370117 20.71711540222168 0.05206483229994774" stroke-width="0.0" fill="rgb(18, 47, 14)" opacity="1.0"/>
    <path d="M 20.088083267211914 0.3533188998699188 C 17.40859031677246 10.35331916809082 10.088082313537598 17.673826217651367 0.0880826860666275 20.35331916809082 C -9.911917686462402 17.673826217651367 -17.232423782348633 10.35331916809082 -19.911916732788086 0.3533188998699188 C -17.232423782348633 -9.64668083190918 -9.911917686462402 -16.967187881469727 0.0880826860666275 -19.64668083190918 C 10.088082313537598 -16.967187881469727 17.40859031677246 -9.64668083190918 20.088083267211914 0.3533188998699188" stroke-width="0.0" fill="rgb(139, 232, 234)" opacity="1.0"/>
    <path d="M 326.44610595703125 218.16127014160156 C 309.275146484375 252.88819885253906 410.2940673828125 284.57080078125 348.5550537109375 292.2947082519531 C 296.3354187011719 187.5354766845703 238.28366088867188 392.3819885253906 280.2203674316406 241.21878051757812 C 295.5291748046875 258.6148986816406 300.6485290527344 248.53713989257812 308.7554016113281 165.7209014892578 C 347.0937194824219 182.3877716064453 323.2870788574219 219.54380798339844 326.44610595703125 218.16127014160156" stroke-width="0.0" fill="rgb(255, 255, 229)" opacity="1.0"/>
    <path d="M 301.46319580078125 329.8620910644531 C 267.4853515625 327.04022216796875 257.6384582519531 309.2135925292969 255.84530639648438 330.150634765625 C 232.8128662109375 319.42864990234375 246.9278106689453 305.0971984863281 247.83615112304688 279.20458984375 C 248.08421325683594 293.5720520019531 272.9434814453125 276.8666687011719 280.0492248535156 295.8697814941406 C 275.29754638671875 334.8990783691406 278.4854431152344 327.1737976074219 301.46319580078125 329.8620910644531" stroke-width="0.0" fill="rgb(255, 250, 100)" opacity="0.5361567"/>
    <path d="M 305.8589172363281 396.7047119140625 C 308.8727722167969 420.5479431152344 326.0357360839844 408.3076171875 329.25592041015625 447.4549560546875 C 231.56637573242188 459.5155944824219 222.12216186523438 452.8799743652344 234.35231018066406 436.5288391113281 C 239.86827087402344 377.35162353515625 249.92337036132812 387.08441162109375 282.3284606933594 384.78826904296875 C 291.10003662109375 433.2434997558594 300.3722229003906 414.8817138671875 305.8589172363281 396.7047119140625" stroke-width="0.0" fill="rgb(255, 7, 234)" opacity="0.87886846"/>
    <path d="M 20.484567642211914 0.5265722870826721 C 17.80507469177246 10.526572227478027 10.48456859588623 17.84708023071289 0.4845685064792633 20.526573181152344 C -9.51543140411377 17.84708023071289 -16.835939407348633 10.526572227478027 -19.515432357788086 0.5265722870826721 C -16.835939407348633 -9.473427772521973 -9.51543140411377 -16.793933868408203 0.4845685064792633 -19.473426818847656 C 10.48456859588623 -16.793933868408203 17.80507469177246 -9.473427772521973 20.484567642211914 0.5265722870826721" stroke-width="0.0" fill="rgb(93, 133, 105)" opacity="1.0"/>
    <path d="M 246.1037139892578 436.6904296875 C 243.3496551513672 420.1697082519531 242.90953063964844 421.53961181640625 245.88278198242188 419.2938232421875 C 285.9807434082031 426.9542236328125 274.5428161621094 379.91375732421875 275.7033996582031 419.8320617675781 C 269.5005187988281 413.5628662109375 284.8086853027344 414.22955322265625 271.614013671875 430.7061462402344 C 257.0829162597656 416.7171936035156 287.6048278808594 433.3896484375 246.1037139892578 436.6904296875" stroke-width="0.0" fill="rgb(255, 29, 115)" opacity="0.37370515"/>
    <path d="M 184.3523712158203 496.70001220703125 C 166.05606079101562 564.7092895507812 182.9932403564453 602.7366943359375 154.03269958496094 635.8333740234375 C -0.9524328708648682 590.9282836914062 -34.27138137817383 608.5394287109375 -101.1266860961914 468.77593994140625 C -15.381022453308105 396.1629638671875 49.62068176269531 423.40234375 162.9812774658203 424.6357116699219 C 180.73739624023438 403.8914794921875 183.6761474609375 404.05487060546875 184.3523712158203 496.70001220703125" stroke-width="0.0" fill="rgb(2, 98, 197)" opacity="0.97740173"/>
    <path d="M 239.3726348876953 602.0366821289062 C 211.1622772216797 629.4739990234375 206.0782928466797 639.8112182617188 156.5073699951172 616.6060791015625 C 163.1926727294922 597.9979858398438 139.20248413085938 597.1646118164062 143.7350311279297 636.415283203125 C 162.7044219970703 591.9226684570312 149.171630859375 550.7484130859375 183.11505126953125 459.1802062988281 C 241.5446319580078 497.4632568359375 239.71066284179688 527.5829467773438 239.3726348876953 602.0366821289062" stroke-width="0.0" fill="rgb(0, 99, 197)" opacity="1.0"/>
    <path d="M 436.87103271484375 567.2748413085938 C 435.3974914550781 666.607666015625 419.068603515625 668.5985717773438 349.2929382324219 641.3983764648438 C 297.57757568359375 620.9605712890625 284.6514892578125 614.5323486328125 251.43899536132812 562.88525390625 C 265.8339538574219 511.8326721191406 302.23272705078125 512.0487670898438 383.1510314941406 494.46002197265625 C 421.9182434082031 506.2152404785156 419.20574951171875 482.1192321777344 436.87103271484375 567.2748413085938" stroke-width="0.0" fill="rgb(37, 13, 162)" opacity="0.1724759"/>
    <path d="M 380.42730712890625 434.9085693359375 C 349.69140625 451.3650207519531 333.9079284667969 451.8921203613281 269.3191223144531 448.457763671875 C 202.62022399902344 456.0343322753906 197.71142578125 462.2289123535156 154.59796142578125 420.973388671875 C 132.0945587158203 321.94915771484375 177.6599884033203 324.7182922363281 265.603515625 348.83441162109375 C 298.5447692871094 362.4586486816406 338.4532470703125 353.1231689453125 380.42730712890625 434.9085693359375" stroke-width="0.0" fill="rgb(255, 5, 239)" opacity="0.9765121"/>
    <path d="M 285.78924560546875 595.6409301757812 C 280.2821350097656 657.6910400390625 265.7494201660156 663.8095703125 220.11099243164062 664.427001953125 C 167.73114013671875 618.0852661132812 166.21829223632812 607.0457153320312 164.4375762939453 646.0387573242188 C 170.72779846191406 611.2373046875 161.63870239257812 549.3878173828125 160.96568298339844 534.1388549804688 C 243.319580078125 551.004638671875 256.09393310546875 545.6535034179688 285.78924560546875 595.6409301757812" stroke-width="0.0" fill="rgb(1, 105, 181)" opacity="0.5257155"/>
    <path d="M 20.63243865966797 0.5365560054779053 C 17.952945709228516 10.536556243896484 10.632438659667969 17.85706329345703 0.6324384808540344 20.536556243896484 C -9.367561340332031 17.85706329345703 -16.688068389892578 10.536556243896484 -19.36756134033203 0.5365560054779053 C -16.688068389892578 -9.463443756103516 -9.367561340332031 -16.783950805664062 0.6324384808540344 -19.463443756103516 C 10.632438659667969 -16.783950805664062 17.952945709228516 -9.463443756103516 20.63243865966797 0.5365560054779053" stroke-width="0.0" fill="rgb(163, 221, 3)" opacity="1.0"/>
    <path d="M 20.814546585083008 0.2868783473968506 C 18.135053634643555 10.28687858581543 10.814546585083008 17.607385635375977 0.8145467042922974 20.28687858581543 C -9.185453414916992 17.607385635375977 -16.50596046447754 10.28687858581543 -19.185453414916992 0.2868783473968506 C -16.50596046447754 -9.71312141418457 -9.185453414916992 -17.033628463745117 0.8145467042922974 -19.71312141418457 C 10.814546585083008 -17.033628463745117 18.135053634643555 -9.71312141418457 20.814546585083008 0.2868783473968506" stroke-width="0.0" fill="rgb(198, 217, 241)" opacity="1.0"/>
    <path d="M 20.829689025878906 0.24005623161792755 C 18.150196075439453 10.240056037902832 10.829689025878906 17.560564041137695 0.8296893835067749 20.24005699157715 C -9.170310974121094 17.560564041137695 -16.49081802368164 10.240056037902832 -19.170310974121094 0.24005623161792755 C -16.49081802368164 -9.759943962097168 -9.170310974121094 -17.0804500579834 0.8296893835067749 -19.75994300842285 C 10.829689025878906 -17.0804500579834 18.150196075439453 -9.759943962097168 20.829689025878906 0.24005623161792755" stroke-width="0.0" fill="rgb(163, 46, 81)" opacity="1.0"/>
    <path d="M 20.767061233520508 0.7487475275993347 C 18.087568283081055 10.748747825622559 10.767061233520508 18.06925392150879 0.7670612335205078 20.748746871948242 C -9.232938766479492 18.06925392150879 -16.55344581604004 10.748747825622559 -19.232938766479492 0.7487475275993347 C -16.55344581604004 -9.251252174377441 -9.232938766479492 -16.571760177612305 0.7670612335205078 -19.251253128051758 C 10.767061233520508 -16.571760177612305 18.087568283081055 -9.251252174377441 20.767061233520508 0.7487475275993347" stroke-width="0.0" fill="rgb(68, 31, 48)" opacity="1.0"/>
    <path d="M 20.277538299560547 0.6983115077018738 C 17.598045349121094 10.698311805725098 10.277538299560547 18.018817901611328 0.277538537979126 20.69831085205078 C -9.722461700439453 18.018817901611328 -17.04296875 10.698311805725098 -19.722461700439453 0.6983115077018738 C -17.04296875 -9.301688194274902 -9.722461700439453 -16.622196197509766 0.277538537979126 -19.30168914794922 C 10.277538299560547 -16.622196197509766 17.598045349121094 -9.301688194274902 20.277538299560547 0.6983115077018738" stroke-width="0.0" fill="rgb(56, 202, 67)" opacity="1.0"/>
    <path d="M 678.0960693359375 576.2487182617188 C 589.529296875 634.5328979492188 560.4114379882812 623.446044921875 511.4319763183594 637.075927734375 C 458.6738586425781 641.8416748046875 431.3724670410156 659.3091430664062 437.69000244140625 562.2645263671875 C 437.21875 475.2139892578125 438.6146240234375 483.419189453125 534.337158203125 477.4212646484375 C 631.1437377929688 485.9327392578125 646.2724609375 486.221923828125 678.0960693359375 576.2487182617188" stroke-width="0.0" fill="rgb(25, 32, 138)" opacity="0.19167678"/>
    <path d="M 20.47813606262207 0.13813447952270508 C 17.798643112182617 10.138134002685547 10.478135108947754 17.458641052246094 0.47813543677330017 20.138134002685547 C -9.521864891052246 17.458641052246094 -16.842370986938477 10.138134002685547 -19.52186393737793 0.13813447952270508 C -16.842370986938477 -9.861865997314453 -9.521864891052246 -17.182373046875 0.47813543677330017 -19.861865997314453 C 10.478135108947754 -17.182373046875 17.798643112182617 -9.861865997314453 20.47813606262207 0.13813447952270508" stroke-width="0.0" fill="rgb(33, 90, 133)" opacity="1.0"/>
    <path d="M 248.31146240234375 255.97271728515625 C 257.0402526855469 272.83673095703125 272.8175354003906 304.60296630859375 266.77032470703125 281.9927978515625 C 274.17657470703125 233.05914306640625 272.7372741699219 254.81292724609375 224.7930145263672 253.85313415527344 C 276.9999084472656 306.019775390625 316.9102478027344 215.815673828125 257.0663757324219 214.45709228515625 C 287.1546936035156 252.10501098632812 262.1876525878906 240.8739013671875 248.31146240234375 255.97271728515625" stroke-width="0.0" fill="rgb(228, 41, 26)" opacity="0.9985158"/>
    <path d="M 380.9890441894531 259.3419189453125 C 370.6295166015625 287.1567077636719 313.220947265625 251.31568908691406 351.2757568359375 218.5706329345703 C 382.53057861328125 213.81039428710938 340.842529296875 270.0394592285156 368.2803039550781 274.9566345214844 C 351.3536682128906 258.95806884765625 344.7728576660156 214.77359008789062 376.44573974609375 247.56350708007812 C 370.72137451171875 249.19448852539062 394.5813903808594 247.4403533935547 380.9890441894531 259.3419189453125" stroke-width="0.0" fill="rgb(243, 27, 5)" opacity="0.9085608"/>
    <path d="M 20.797386169433594 0.05130498483777046 C 18.11789321899414 10.051304817199707 10.79738712310791 17.37181282043457 0.7973870038986206 20.051305770874023 C -9.20261287689209 17.37181282043457 -16.523120880126953 10.051304817199707 -19.202613830566406 0.05130498483777046 C -16.523120880126953 -9.948695182800293 -9.20261287689209 -17.269201278686523 0.7973870038986206 -19.948694229125977 C 10.79738712310791 -17.269201278686523 18.11789321899414 -9.948695182800293 20.797386169433594 0.05130498483777046" stroke-width="0.0" fill="rgb(14, 147, 155)" opacity="1.0"/>
    <path d="M 185.24400329589844 418.8283386230469 C 187.02464294433594 473.3398742675781 206.59420776367188 522.3885498046875 199.6368408203125 518.2212524414062 C 145.53968811035156 523.0014038085938 151.90650939941406 499.0780334472656 134.2853240966797 414.8523254394531 C 131.021240234375 411.361328125 159.9132537841797 410.2940673828125 186.7567138671875 420.8143615722656 C 184.2481689453125 412.8379821777344 190.3774871826172 416.958984375 185.24400329589844 418.8283386230469" stroke-width="0.0" fill="rgb(10, 88, 207)" opacity="0.27577165"/>
    <path d="M 20.146970748901367 0.6221730709075928 C 17.467477798461914 10.622173309326172 10.146970748901367 17.94268035888672 0.146971195936203 20.622173309326172 C -9.853029251098633 17.94268035888672 -17.17353630065918 10.622173309326172 -19.853029251098633 0.6221730709075928 C -17.17353630065918 -9.377826690673828 -9.853029251098633 -16.698333740234375 0.146971195936203 -19.377826690673828 C 10.146970748901367 -16.698333740234375 17.467477798461914 -9.377826690673828 20.146970748901367 0.6221730709075928" stroke-width="0.0" fill="rgb(30, 111, 135)" opacity="1.0"/>
    <path d="M 248.97471618652344 342.91729736328125 C 285.7457275390625 311.13079833984375 287.79754638671875 302.8145751953125 280.9639892578125 272.3695983886719 C 237.84561157226562 264.84576416015625 248.18606567382812 262.5412292480469 219.6404266357422 237.8904266357422 C 235.01820373535156 304.89642333984375 254.0220184326172 311.3591003417969 258.4709167480469 279.057373046875 C 223.07032775878906 267.2672119140625 235.51455688476562 285.9679260253906 248.97471618652344 342.91729736328125" stroke-width="0.0" fill="rgb(255, 238, 100)" opacity="0.9829923"/>
    <path d="M 20.001108169555664 0.8823235034942627 C 17.32161521911621 10.882323265075684 10.001107215881348 18.202831268310547 0.0011075829388573766 20.88232421875 C -9.998892784118652 18.202831268310547 -17.319398880004883 10.882323265075684 -19.998891830444336 0.8823235034942627 C -17.319398880004883 -9.117676734924316 -9.998892784118652 -16.438182830810547 0.0011075829388573766 -19.11767578125 C 10.001107215881348 -16.438182830810547 17.32161521911621 -9.117676734924316 20.001108169555664 0.8823235034942627" stroke-width="0.0" fill="rgb(239, 79, 25)" opacity="1.0"/>
    <path d="M 292.2918701171875 332.4923400878906 C 286.6603088378906 346.9406433105469 270.46270751953125 361.73907470703125 249.63934326171875 363.1490783691406 C 252.1237030029297 317.27783203125 245.78042602539062 299.51654052734375 254.2599639892578 327.5345764160156 C 247.22396850585938 361.5845947265625 235.83888244628906 339.6451110839844 243.68515014648438 326.8575744628906 C 266.06231689453125 299.3226013183594 265.56793212890625 319.74365234375 292.2918701171875 332.4923400878906" stroke-width="0.0" fill="rgb(255, 255, 255)" opacity="1.0"/>
    <path d="M 20.726160049438477 0.4308740198612213 C 18.046667098999023 10.43087387084961 10.726161003112793 17.751380920410156 0.7261605858802795 20.43087387084961 C -9.273838996887207 17.751380920410156 -16.59434700012207 10.43087387084961 -19.273839950561523 0.4308740198612213 C -16.59434700012207 -9.56912612915039 -9.273838996887207 -16.889633178710938 0.7261605858802795 -19.56912612915039 C 10.726161003112793 -16.889633178710938 18.046667098999023 -9.56912612915039 20.726160049438477 0.4308740198612213" stroke-width="0.0" fill="rgb(20, 120, 10)" opacity="1.0"/>
    <path d="M 20.4307861328125 0.393583208322525 C 17.751293182373047 10.393583297729492 10.430787086486816 17.71409034729004 0.43078693747520447 20.393583297729492 C -9.569212913513184 17.71409034729004 -16.889720916748047 10.393583297729492 -19.5692138671875 0.393583208322525 C -16.889720916748047 -9.606416702270508 -9.569212913513184 -16.926923751831055 0.43078693747520447 -19.606416702270508 C 10.430787086486816 -16.926923751831055 17.751293182373047 -9.606416702270508 20.4307861328125 0.393583208322525" stroke-width="0.0" fill="rgb(26, 139, 204)" opacity="1.0"/>
    <path d="M 291.0150146484375 257.206298828125 C 256.7280578613281 264.7207946777344 238.46142578125 282.7321472167969 270.0885925292969 317.06109619140625 C 233.326904296875 292.2497253417969 227.40530395507812 300.4416198730469 278.15997314453125 358.401611328125 C 276.28314208984375 355.2103271484375 259.7146911621094 330.7187805175781 257.74896240234375 299.97283935546875 C 250.2804718017578 303.0453796386719 305.95550537109375 350.6069030761719 291.0150146484375 257.206298828125" stroke-width="0.0" fill="rgb(255, 245, 231)" opacity="1.0"/>
    <path d="M 20.501218795776367 0.8166486620903015 C 17.821725845336914 10.816648483276367 10.501218795776367 18.137155532836914 0.5012192726135254 20.816648483276367 C -9.498781204223633 18.137155532836914 -16.81928825378418 10.816648483276367 -19.498781204223633 0.8166486620903015 C -16.81928825378418 -9.183351516723633 -9.498781204223633 -16.50385856628418 0.5012192726135254 -19.183351516723633 C 10.501218795776367 -16.50385856628418 17.821725845336914 -9.183351516723633 20.501218795776367 0.8166486620903015" stroke-width="0.0" fill="rgb(222, 218, 6)" opacity="1.0"/>
    <path d="M 20.26624298095703 0.24178950488567352 C 17.586750030517578 10.241789817810059 10.266242980957031 17.56229591369629 0.26624318957328796 20.241788864135742 C -9.733757019042969 17.56229591369629 -17.054264068603516 10.241789817810059 -19.73375701904297 0.24178950488567352 C -17.054264068603516 -9.758210182189941 -9.733757019042969 -17.078718185424805 0.26624318957328796 -19.758211135864258 C 10.266242980957031 -17.078718185424805 17.586750030517578 -9.758210182189941 20.26624298095703 0.24178950488567352" stroke-width="0.0" fill="rgb(2, 150, 7)" opacity="1.0"/>
    <path d="M 20.340484619140625 0.3746830224990845 C 17.660991668701172 10.374683380126953 10.340484619140625 17.6951904296875 0.3404845595359802 20.374683380126953 C -9.659515380859375 17.6951904296875 -16.980022430419922 10.374683380126953 -19.659515380859375 0.3746830224990845 C -16.980022430419922 -9.625316619873047 -9.659515380859375 -16.945823669433594 0.3404845595359802 -19.625316619873047 C 10.340484619140625 -16.945823669433594 17.660991668701172 -9.625316619873047 20.340484619140625 0.3746830224990845" stroke-width="0.0" fill="rgb(104, 35, 174)" opacity="1.0"/>
    <path d="M 385.9561767578125 527.2874145507812 C 400.4126281738281 503.60101318359375 377.08953857421875 496.51953125 377.65594482421875 496.0005187988281 C 377.5054931640625 480.59765625 366.068115234375 475.49267578125 371.9118347167969 485.6795654296875 C 369.9955139160156 502.25836181640625 356.20465087890625 485.4345703125 378.59637451171875 510.8203125 C 361.93707275390625 527.553955078125 396.5307922363281 518.987548828125 385.9561767578125 527.2874145507812" stroke-width="0.0" fill="rgb(211, 137, 128)" opacity="0.27252397"/>
    <path d="M 20.940048217773438 0.050338152796030045 C 18.260555267333984 10.050337791442871 10.940048217773438 17.370845794677734 0.9400486946105957 20.050338745117188 C -9.059951782226562 17.370845794677734 -16.38045883178711 10.050337791442871 -19.059951782226562 0.050338152796030045 C -16.38045883178711 -9.949662208557129 -9.059951782226562 -17.27016830444336 0.9400486946105957 -19.949661254882812 C 10.940048217773438 -17.27016830444336 18.260555267333984 -9.949662208557129 20.940048217773438 0.050338152796030045" stroke-width="0.0" fill="rgb(89, 185, 128)" opacity="1.0"/>
    <path d="M 20.68667984008789 0.8286058306694031 C 18.007186889648438 10.828605651855469 10.68667984008789 18.149112701416016 0.6866797208786011 20.82860565185547 C -9.31332015991211 18.149112701416016 -16.633827209472656 10.828605651855469 -19.31332015991211 0.8286058306694031 C -16.633827209472656 -9.171394348144531 -9.31332015991211 -16.491901397705078 0.6866797208786011 -19.17139434814453 C 10.68667984008789 -16.491901397705078 18.007186889648438 -9.171394348144531 20.68667984008789 0.8286058306694031" stroke-width="0.0" fill="rgb(31, 62, 181)" opacity="1.0"/>
    <path d="M 317.6112365722656 326.019287109375 C 389.6294860839844 310.7650451660156 379.2998046875 377.67352294921875 283.2073059082031 374.6475524902344 C 210.92562866210938 357.1771240234375 238.69631958007812 368.0343017578125 232.99072265625 291.4189147949219 C 227.91748046875 261.4947509765625 234.66407775878906 286.4149169921875 259.98675537109375 310.4762268066406 C 263.3564758300781 312.36767578125 281.6840515136719 323.81085205078125 317.6112365722656 326.019287109375" stroke-width="0.0" fill="rgb(255, 255, 255)" opacity="0.99930423"/>
    <path d="M 345.6432189941406 428.4302062988281 C 377.2761535644531 423.42279052734375 391.2338562011719 449.7940979003906 353.16729736328125 454.5306091308594 C 304.37701416015625 464.1795959472656 291.8180847167969 435.5755310058594 314.7977294921875 433.061767578125 C 408.4125671386719 436.49066162109375 409.82958984375 433.2820739746094 367.4852294921875 421.1938171386719 C 324.8672180175781 413.4751281738281 340.3199768066406 422.4405822753906 345.6432189941406 428.4302062988281" stroke-width="0.0" fill="rgb(255, 5, 247)" opacity="0.6942663"/>
    <path d="M 393.0499267578125 512.9978637695312 C 427.70355224609375 554.1137084960938 380.5841979980469 565.4861450195312 366.351806640625 506.5160217285156 C 346.3450927734375 470.510009765625 345.6288146972656 451.67529296875 372.6316833496094 453.01885986328125 C 373.4730224609375 494.6962585449219 374.0248718261719 508.7396240234375 355.9393005371094 480.7288513183594 C 369.4358825683594 437.0205383300781 362.8081970214844 478.9508361816406 393.0499267578125 512.9978637695312" stroke-width="0.0" fill="rgb(255, 247, 197)" opacity="1.0"/>
    <path d="M 20.503211975097656 0.6226860284805298 C 17.823719024658203 10.622686386108398 10.503211975097656 17.943193435668945 0.5032117366790771 20.6226863861084 C -9.496788024902344 17.943193435668945 -16.81729507446289 10.622686386108398 -19.496788024902344 0.6226860284805298 C -16.81729507446289 -9.377313613891602 -9.496788024902344 -16.69782066345215 0.5032117366790771 -19.3773136138916 C 10.503211975097656 -16.69782066345215 17.823719024658203 -9.377313613891602 20.503211975097656 0.6226860284805298" stroke-width="0.0" fill="rgb(238, 83, 219)" opacity="1.0"/>
    <path d="M 20.476123809814453 0.48762986063957214 C 17.796630859375 10.487629890441895 10.476122856140137 17.808135986328125 0.47612306475639343 20.487628936767578 C -9.523877143859863 17.808135986328125 -16.844383239746094 10.487629890441895 -19.523876190185547 0.48762986063957214 C -16.844383239746094 -9.512370109558105 -9.523877143859863 -16.83287811279297 0.47612306475639343 -19.512371063232422 C 10.476122856140137 -16.83287811279297 17.796630859375 -9.512370109558105 20.476123809814453 0.48762986063957214" stroke-width="0.0" fill="rgb(136, 186, 187)" opacity="1.0"/>
    <path d="M 20.74289894104004 0.03212674334645271 C 18.063405990600586 10.032126426696777 10.742898941040039 17.35263442993164 0.7428991198539734 20.032127380371094 C -9.257101058959961 17.35263442993164 -16.577608108520508 10.032126426696777 -19.25710105895996 0.03212674334645271 C -16.577608108520508 -9.967873573303223 -9.257101058959961 -17.288379669189453 0.7428991198539734 -19.967872619628906 C 10.742898941040039 -17.288379669189453 18.063405990600586 -9.967873573303223 20.74289894104004 0.03212674334645271" stroke-width="0.0" fill="rgb(194, 96, 0)" opacity="1.0"/>
    <path d="M 20.307987213134766 0.8778207898139954 C 17.628494262695312 10.87782096862793 10.307988166809082 18.198328018188477 0.3079877197742462 20.87782096862793 C -9.692011833190918 18.198328018188477 -17.01251983642578 10.87782096862793 -19.692012786865234 0.8778207898139954 C -17.01251983642578 -9.12217903137207 -9.692011833190918 -16.442686080932617 0.3079877197742462 -19.12217903137207 C 10.307988166809082 -16.442686080932617 17.628494262695312 -9.12217903137207 20.307987213134766 0.8778207898139954" stroke-width="0.0" fill="rgb(254, 164, 87)" opacity="1.0"/>
    <path d="M 20.733041763305664 0.16509433090686798 C 18.05354881286621 10.165094375610352 10.733041763305664 17.4856014251709 0.7330420017242432 20.16509437561035 C -9.266958236694336 17.4856014251709 -16.587465286254883 10.165094375610352 -19.266958236694336 0.16509433090686798 C -16.587465286254883 -9.834905624389648 -9.266958236694336 -17.155412673950195 0.7330420017242432 -19.83490562438965 C 10.733041763305664 -17.155412673950195 18.05354881286621 -9.834905624389648 20.733041763305664 0.16509433090686798" stroke-width="0.0" fill="rgb(145, 169, 111)" opacity="1.0"/>
    <path d="M 20.032238006591797 0.02157209999859333 C 17.352745056152344 10.02157211303711 10.032238006591797 17.342079162597656 0.03223773464560509 20.02157211303711 C -9.967761993408203 17.342079162597656 -17.28826904296875 10.02157211303711 -19.967761993408203 0.02157209999859333 C -17.28826904296875 -9.97842788696289 -9.967761993408203 -17.298934936523438 0.03223773464560509 -19.97842788696289 C 10.032238006591797 -17.298934936523438 17.352745056152344 -9.97842788696289 20.032238006591797 0.02157209999859333" stroke-width="0.0" fill="rgb(83, 10, 241)" opacity="1.0"/>
    <path d="M 20.645986557006836 0.2604620158672333 C 17.966493606567383 10.260461807250977 10.645987510681152 17.580968856811523 0.6459874510765076 20.260461807250977 C -9.354012489318848 17.580968856811523 -16.67452049255371 10.260461807250977 -19.354013442993164 0.2604620158672333 C -16.67452049255371 -9.739538192749023 -9.354012489318848 -17.06004524230957 0.6459874510765076 -19.739538192749023 C 10.645987510681152 -17.06004524230957 17.966493606567383 -9.739538192749023 20.645986557006836 0.2604620158672333" stroke-width="0.0" fill="rgb(212, 123, 8)" opacity="1.0"/>
    <path d="M 429.71221923828125 -10.889162063598633 C 433.7124328613281 23.52420425415039 439.60296630859375 -2.2578353881835938 438.9573059082031 -29.10553550720215 C 408.79132080078125 -14.276970863342285 418.27105712890625 -32.02115249633789 400.11834716796875 -25.572675704956055 C 398.18756103515625 -22.163618087768555 405.95782470703125 -28.303983688354492 412.9095458984375 -36.43218994140625 C 445.4614562988281 -11.885784149169922 466.2830810546875 0.1762886792421341 429.71221923828125 -10.889162063598633" stroke-width="0.0" fill="rgb(26, 129, 170)" opacity="0.07568002"/>
    <path d="M 467.31524658203125 19.141834259033203 C 462.9372253417969 35.47060775756836 472.3114013671875 33.222198486328125 441.4873962402344 21.550432205200195 C 442.36322021484375 6.733230113983154 436.30926513671875 4.014785289764404 428.9673767089844 11.54827880859375 C 449.13226318359375 8.158811569213867 450.0462951660156 2.5135281085968018 446.7535705566406 -13.267390251159668 C 462.95159912109375 -38.53720474243164 462.3800354003906 -18.56065559387207 467.31524658203125 19.141834259033203" stroke-width="0.0" fill="rgb(0, 129, 165)" opacity="0.047951534"/>
    <path d="M 477.24169921875 42.7076301574707 C 483.01788330078125 36.23066711425781 462.2589416503906 38.48721694946289 435.9554138183594 24.729434967041016 C 437.20501708984375 35.959712982177734 416.7757568359375 13.622008323669434 421.34686279296875 -0.5980100035667419 C 426.48944091796875 -26.390108108520508 436.3095397949219 -47.94337463378906 476.7503967285156 -42.8289909362793 C 484.908447265625 -28.6146183013916 485.0838928222656 -9.030467987060547 477.24169921875 42.7076301574707" stroke-width="0.0" fill="rgb(18, 122, 166)" opacity="0.0669826"/>
    <path d="M 20.10102653503418 0.16096308827400208 C 17.421533584594727 10.16096305847168 10.10102653503418 17.481470108032227 0.10102609544992447 20.16096305847168 C -9.89897346496582 17.481470108032227 -17.219480514526367 10.16096305847168 -19.89897346496582 0.16096308827400208 C -17.219480514526367 -9.83903694152832 -9.89897346496582 -17.159543991088867 0.10102609544992447 -19.83903694152832 C 10.10102653503418 -17.159543991088867 17.421533584594727 -9.83903694152832 20.10102653503418 0.16096308827400208" stroke-width="0.0" fill="rgb(125, 53, 242)" opacity="1.0"/>
    <path d="M 20.017147064208984 0.19108673930168152 C 17.33765411376953 10.191086769104004 10.017146110534668 17.511592864990234 0.017146140336990356 20.191085815429688 C -9.982853889465332 17.511592864990234 -17.303359985351562 10.191086769104004 -19.982852935791016 0.19108673930168152 C -17.303359985351562 -9.808913230895996 -9.982853889465332 -17.12942123413086 0.017146140336990356 -19.808914184570312 C 10.017146110534668 -17.12942123413086 17.33765411376953 -9.808913230895996 20.017147064208984 0.19108673930168152" stroke-width="0.0" fill="rgb(105, 225, 79)" opacity="1.0"/>
    <path d="M 20.823448181152344 0.3060721755027771 C 18.14395523071289 10.306072235107422 10.823447227478027 17.62657928466797 0.8234473466873169 20.306072235107422 C -9.176552772521973 17.62657928466797 -16.497058868408203 10.306072235107422 -19.176551818847656 0.3060721755027771 C -16.497058868408203 -9.693927764892578 -9.176552772521973 -17.014434814453125 0.8234473466873169 -19.693927764892578 C 10.823447227478027 -17.014434814453125 18.14395523071289 -9.693927764892578 20.823448181152344 0.3060721755027771" stroke-width="0.0" fill="rgb(250, 197, 212)" opacity="1.0"/>
    <path d="M 311.3678894042969 219.58355712890625 C 303.48504638671875 210.3895721435547 297.4137268066406 252.78829956054688 299.35174560546875 254.22093200683594 C 326.3328552246094 255.348388671875 299.2330322265625 241.53628540039062 263.3678894042969 272.7340087890625 C 316.53411865234375 271.0965270996094 303.29205322265625 231.38894653320312 316.6122741699219 238.4676513671875 C 330.6238708496094 255.12326049804688 330.47314453125 244.2808380126953 311.3678894042969 219.58355712890625" stroke-width="0.0" fill="rgb(255, 255, 209)" opacity="0.528609"/>
    <path d="M 20.248945236206055 0.22523510456085205 C 17.5694522857666 10.225234985351562 10.248946189880371 17.54574203491211 0.24894604086875916 20.225234985351562 C -9.751053810119629 17.54574203491211 -17.071561813354492 10.225234985351562 -19.751054763793945 0.22523510456085205 C -17.071561813354492 -9.774765014648438 -9.751053810119629 -17.095272064208984 0.24894604086875916 -19.774765014648438 C 10.248946189880371 -17.095272064208984 17.5694522857666 -9.774765014648438 20.248945236206055 0.22523510456085205" stroke-width="0.0" fill="rgb(53, 46, 67)" opacity="1.0"/>
    <path d="M 367.29315185546875 504.2630615234375 C 362.40960693359375 479.3537902832031 352.1466064453125 483.16046142578125 379.51727294921875 488.55987548828125 C 378.78167724609375 483.1399230957031 373.6031799316406 435.9008483886719 365.2352294921875 443.1817321777344 C 377.458984375 468.2367248535156 368.02947998046875 452.4669494628906 337.0065612792969 447.05389404296875 C 339.76470947265625 462.4958801269531 356.305419921875 490.2034912109375 367.29315185546875 504.2630615234375" stroke-width="0.0" fill="rgb(255, 247, 113)" opacity="0.5496972"/>
    <path d="M 20.638608932495117 0.5246112942695618 C 17.959115982055664 10.524611473083496 10.638609886169434 17.845117568969727 0.6386095285415649 20.52461051940918 C -9.361390113830566 17.845117568969727 -16.68189811706543 10.524611473083496 -19.361391067504883 0.5246112942695618 C -16.68189811706543 -9.475388526916504 -9.361390113830566 -16.795896530151367 0.6386095285415649 -19.47538948059082 C 10.638609886169434 -16.795896530151367 17.959115982055664 -9.475388526916504 20.638608932495117 0.5246112942695618" stroke-width="0.0" fill="rgb(61, 140, 240)" opacity="1.0"/>
    <path d="M 380.71826171875 250.30780029296875 C 382.9844970703125 249.45523071289062 377.3393859863281 263.7889709472656 375.19696044921875 257.2147216796875 C 353.73565673828125 257.03466796875 339.31573486328125 242.21788024902344 351.78662109375 231.0529022216797 C 347.60931396484375 234.7470703125 360.2063903808594 215.9312744140625 371.1125793457031 218.17095947265625 C 388.29998779296875 225.79005432128906 396.91998291015625 236.2330322265625 380.71826171875 250.30780029296875" stroke-width="0.0" fill="rgb(0, 0, 0)" opacity="1.0"/>
    <path d="M 20.617664337158203 0.9228792786598206 C 17.93817138671875 10.922879219055176 10.617664337158203 18.24338722229004 0.6176643371582031 20.922880172729492 C -9.382335662841797 18.24338722229004 -16.702842712402344 10.922879219055176 -19.382335662841797 0.9228792786598206 C -16.702842712402344 -9.077120780944824 -9.382335662841797 -16.397626876831055 0.6176643371582031 -19.077119827270508 C 10.617664337158203 -16.397626876831055 17.93817138671875 -9.077120780944824 20.617664337158203 0.9228792786598206" stroke-width="0.0" fill="rgb(172, 100, 70)" opacity="1.0"/>
    <path d="M 20.72211265563965 0.408340722322464 C 18.042619705200195 10.408340454101562 10.722112655639648 17.72884750366211 0.7221127152442932 20.408340454101562 C -9.277887344360352 17.72884750366211 -16.5983943939209 10.408340454101562 -19.27788734436035 0.408340722322464 C -16.5983943939209 -9.591659545898438 -9.277887344360352 -16.912166595458984 0.7221127152442932 -19.591659545898438 C 10.722112655639648 -16.912166595458984 18.042619705200195 -9.591659545898438 20.72211265563965 0.408340722322464" stroke-width="0.0" fill="rgb(38, 45, 173)" opacity="1.0"/>
    <path d="M 20.972400665283203 0.0415937565267086 C 18.29290771484375 10.041593551635742 10.972399711608887 17.36210060119629 0.9724000692367554 20.041593551635742 C -9.027600288391113 17.36210060119629 -16.348106384277344 10.041593551635742 -19.027599334716797 0.0415937565267086 C -16.348106384277344 -9.958406448364258 -9.027600288391113 -17.278913497924805 0.9724000692367554 -19.958406448364258 C 10.972399711608887 -17.278913497924805 18.29290771484375 -9.958406448364258 20.972400665283203 0.0415937565267086" stroke-width="0.0" fill="rgb(6, 67, 235)" opacity="1.0"/>
    <path d="M 20.272560119628906 0.0576048269867897 C 17.593067169189453 10.057604789733887 10.272560119628906 17.37811279296875 0.27256035804748535 20.057605743408203 C -9.727439880371094 17.37811279296875 -17.04794692993164 10.057604789733887 -19.727439880371094 0.0576048269867897 C -17.04794692993164 -9.942395210266113 -9.727439880371094 -17.262901306152344 0.27256035804748535 -19.942394256591797 C 10.272560119628906 -17.262901306152344 17.593067169189453 -9.942395210266113 20.272560119628906 0.0576048269867897" stroke-width="0.0" fill="rgb(158, 123, 193)" opacity="1.0"/>
    <path d="M 364.7314758300781 500.5322570800781 C 353.93634033203125 484.4246826171875 349.8512878417969 488.2718811035156 356.8867492675781 491.44964599609375 C 352.9326477050781 475.8581848144531 347.7238464355469 453.51483154296875 334.6650085449219 471.19671630859375 C 338.9168701171875 490.63214111328125 339.09674072265625 470.8388366699219 344.4024658203125 465.948974609375 C 327.1724548339844 470.6699523925781 348.48809814453125 466.7066955566406 364.7314758300781 500.5322570800781" stroke-width="0.0" fill="rgb(40, 103, 142)" opacity="0.18579994"/>
    <path d="M 20.38427734375 0.4469323456287384 C 17.704784393310547 10.446932792663574 10.38427734375 17.767438888549805 0.3842776417732239 20.446931838989258 C -9.61572265625 17.767438888549805 -16.936229705810547 10.446932792663574 -19.61572265625 0.4469323456287384 C -16.936229705810547 -9.553067207336426 -9.61572265625 -16.87357521057129 0.3842776417732239 -19.553068161010742 C 10.38427734375 -16.87357521057129 17.704784393310547 -9.553067207336426 20.38427734375 0.4469323456287384" stroke-width="0.0" fill="rgb(242, 51, 162)" opacity="1.0"/>
    <path d="M 20.402095794677734 0.44214367866516113 C 17.72260284423828 10.442143440246582 10.402094841003418 17.762651443481445 0.4020949900150299 20.4421443939209 C -9.597905158996582 17.762651443481445 -16.918411254882812 10.442143440246582 -19.597904205322266 0.44214367866516113 C -16.918411254882812 -9.557856559753418 -9.597905158996582 -16.87836265563965 0.4020949900150299 -19.5578556060791 C 10.402094841003418 -16.87836265563965 17.72260284423828 -9.557856559753418 20.402095794677734 0.44214367866516113" stroke-width="0.0" fill="rgb(151, 90, 221)" opacity="1.0"/>
    <path d="M 252.51829528808594 253.23007202148438 C 247.19009399414062 258.3609924316406 251.50592041015625 247.11915588378906 246.24871826171875 256.7413330078125 C 255.32424926757812 252.34075927734375 238.26443481445312 261.68792724609375 224.64987182617188 245.2826690673828 C 245.64266967773438 284.6022033691406 238.69322204589844 290.7052917480469 220.59994506835938 249.04302978515625 C 210.20819091796875 225.50196838378906 229.21446228027344 243.45054626464844 252.51829528808594 253.23007202148438" stroke-width="0.0" fill="rgb(255, 231, 0)" opacity="0.38856322"/>
    <path d="M 20.850194931030273 0.31328490376472473 C 18.17070198059082 10.313284873962402 10.850194931030273 17.633792877197266 0.8501948118209839 20.31328582763672 C -9.149805068969727 17.633792877197266 -16.470312118530273 10.313284873962402 -19.149805068969727 0.31328490376472473 C -16.470312118530273 -9.686715126037598 -9.149805068969727 -17.007221221923828 0.8501948118209839 -19.68671417236328 C 10.850194931030273 -17.007221221923828 18.17070198059082 -9.686715126037598 20.850194931030273 0.31328490376472473" stroke-width="0.0" fill="rgb(253, 223, 166)" opacity="1.0"/>
    <path d="M 20.040874481201172 0.39274683594703674 C 17.36138153076172 10.392746925354004 10.040875434875488 17.713253021240234 0.04087517037987709 20.392745971679688 C -9.959124565124512 17.713253021240234 -17.279632568359375 10.392746925354004 -19.959125518798828 0.39274683594703674 C -17.279632568359375 -9.607253074645996 -9.959124565124512 -16.92776107788086 0.04087517037987709 -19.607254028320312 C 10.040875434875488 -16.92776107788086 17.36138153076172 -9.607253074645996 20.040874481201172 0.39274683594703674" stroke-width="0.0" fill="rgb(218, 229, 237)" opacity="1.0"/>
    <path d="M 20.646013259887695 0.036826133728027344 C 17.966520309448242 10.036826133728027 10.646013259887695 17.35733413696289 0.6460127830505371 20.036827087402344 C -9.353986740112305 17.35733413696289 -16.67449378967285 10.036826133728027 -19.353986740112305 0.036826133728027344 C -16.67449378967285 -9.963173866271973 -9.353986740112305 -17.283679962158203 0.6460127830505371 -19.963172912597656 C 10.646013259887695 -17.283679962158203 17.966520309448242 -9.963173866271973 20.646013259887695 0.036826133728027344" stroke-width="0.0" fill="rgb(220, 2, 131)" opacity="1.0"/>
    <path d="M 20.392263412475586 0.935149610042572 C 17.712770462036133 10.935149192810059 10.392263412475586 18.255657196044922 0.39226293563842773 20.935150146484375 C -9.607736587524414 18.255657196044922 -16.92824363708496 10.935149192810059 -19.607736587524414 0.935149610042572 C -16.92824363708496 -9.064850807189941 -9.607736587524414 -16.385356903076172 0.39226293563842773 -19.064849853515625 C 10.392263412475586 -16.385356903076172 17.712770462036133 -9.064850807189941 20.392263412475586 0.935149610042572" stroke-width="0.0" fill="rgb(242, 181, 170)" opacity="1.0"/>
    <path d="M 20.18108558654785 0.3241000473499298 C 17.5015926361084 10.324100494384766 10.181084632873535 17.644607543945312 0.18108505010604858 20.324100494384766 C -9.818915367126465 17.644607543945312 -17.139421463012695 10.324100494384766 -19.81891441345215 0.3241000473499298 C -17.139421463012695 -9.675899505615234 -9.818915367126465 -16.99640655517578 0.18108505010604858 -19.675899505615234 C 10.181084632873535 -16.99640655517578 17.5015926361084 -9.675899505615234 20.18108558654785 0.3241000473499298" stroke-width="0.0" fill="rgb(153, 237, 201)" opacity="1.0"/>
    <path d="M 272.8894348144531 242.7800750732422 C 255.9129180908203 262.2129821777344 238.45596313476562 255.21511840820312 256.66900634765625 252.4227752685547 C 250.4933624267578 263.4796142578125 226.23529052734375 234.33631896972656 266.46954345703125 233.6512908935547 C 258.3386535644531 253.02078247070312 255.70562744140625 268.6341857910156 230.3935546875 234.5054473876953 C 228.66261291503906 207.7399444580078 288.5784912109375 202.5315399169922 272.8894348144531 242.7800750732422" stroke-width="0.0" fill="rgb(0, 0, 0)" opacity="0.9986141"/>
  </g>
</svg>
