<?xml version="1.0" ?>
<svg xmlns="http://www.w3.org/2000/svg" version="1.1" width="600" height="600">
  <defs/>
  <g>
    <path d="M -7.238953590393066 160.54469299316406 C -0.06146210432052612 168.47915649414062 -24.747283935546875 163.2981414794922 -28.185604095458984 140.6785430908203 C 0.6816050410270691 124.8083267211914 21.426773071289062 143.08900451660156 40.39954376220703 122.22991943359375 C 48.81093978881836 155.40650939941406 22.30524444580078 180.64071655273438 -18.031768798828125 170.3378448486328 C -3.722703456878662 198.52947998046875 -6.601632118225098 171.066650390625 -24.8406925201416 147.53407287597656" stroke-width="6.0" fill="none" stroke="rgb(0, 0, 0)" stroke-opacity="0.00050565135" stroke-linecap="round" stroke-linejoin="round"/>
    <path d="M 14.767975807189941 193.94052124023438 C 10.77451229095459 194.7432861328125 23.23444938659668 193.7662811279297 15.366865158081055 177.3853759765625 C 60.61494064331055 176.0405731201172 67.24431610107422 171.06248474121094 56.24578094482422 178.17466735839844 C 87.8248519897461 180.12916564941406 111.81767272949219 192.84275817871094 115.56047821044922 126.45623016357422 C 88.56604766845703 88.4953842163086 41.740814208984375 126.38432312011719 34.426124572753906 141.0215301513672" stroke-width="6.0" fill="none" stroke="rgb(0, 0, 0)" stroke-opacity="0.0" stroke-linecap="round" stroke-linejoin="round"/>
    <path d="M 548.983154296875 594.3748168945312 C 574.0435180664062 586.8277587890625 589.578857421875 570.954345703125 621.070068359375 592.689208984375 C 593.5466918945312 620.9578247070312 583.7364501953125 607.1343994140625 560.689208984375 615.1331787109375 C 586.2996826171875 624.8385620117188 582.15283203125 632.3565673828125 565.3958129882812 636.5128784179688 C 541.5733032226562 641.5970458984375 531.2959594726562 628.2569580078125 508.0321044921875 608.6907958984375" stroke-width="6.0" fill="none" stroke="rgb(0, 0, 0)" stroke-opacity="0.0" stroke-linecap="round" stroke-linejoin="round"/>
    <path d="M 16.75017547607422 494.27740478515625 C 22.876882553100586 506.3634338378906 35.61246109008789 479.21734619140625 24.65376853942871 483.655029296875 C 71.15979766845703 495.6493835449219 91.34525299072266 514.4835815429688 66.34541320800781 553.5366821289062 C 59.29050064086914 541.8375244140625 61.87467575073242 559.7885131835938 58.503814697265625 559.0971069335938 C 64.67732238769531 566.1807250976562 52.26362991333008 549.131103515625 49.222652435302734 557.5303955078125" stroke-width="6.0" fill="none" stroke="rgb(0, 0, 0)" stroke-opacity="0.001422881" stroke-linecap="round" stroke-linejoin="round"/>
    <path d="M 407.1167297363281 242.29409790039062 C 452.5059509277344 247.6374969482422 452.9552307128906 263.3708801269531 447.0506591796875 259.4169921875 C 495.2158203125 248.27590942382812 506.4534912109375 238.72116088867188 471.7583312988281 247.1761016845703 C 456.6494445800781 246.72279357910156 450.8815002441406 266.1343688964844 438.552490234375 286.5355529785156 C 407.87744140625 262.298828125 428.83648681640625 217.03817749023438 410.98223876953125 210.78250122070312" stroke-width="6.0" fill="none" stroke="rgb(0, 0, 0)" stroke-opacity="0.0" stroke-linecap="round" stroke-linejoin="round"/>
    <path d="M 635.342041015625 82.24008178710938 C 600.7301635742188 97.01197052001953 599.17724609375 127.14888000488281 590.8341064453125 130.1497344970703 C 585.6227416992188 134.3550567626953 627.18115234375 142.3739013671875 602.5969848632812 164.90516662597656 C 651.61279296875 129.61175537109375 607.1842651367188 133.34678649902344 596.0533447265625 132.5322723388672 C 586.8992919921875 112.35299682617188 570.671142578125 93.64531707763672 576.0828247070312 100.33150482177734" stroke-width="6.0" fill="none" stroke="rgb(0, 0, 0)" stroke-opacity="0.00575102" stroke-linecap="round" stroke-linejoin="round"/>
    <path d="M 60.95465087890625 470.9166564941406 C 53.371337890625 435.08984375 28.347339630126953 433.0563049316406 -17.733320236206055 443.1175231933594 C -4.5289626121521 476.63641357421875 -17.08994483947754 446.4873352050781 -9.4442138671875 402.45947265625 C -1.932498574256897 406.92169189453125 -4.31962776184082 415.25347900390625 -17.089380264282227 390.99713134765625 C -30.52685546875 399.2671813964844 -8.338520050048828 425.44659423828125 -5.830143451690674 403.45367431640625" stroke-width="6.0" fill="none" stroke="rgb(0, 0, 0)" stroke-opacity="0.0" stroke-linecap="round" stroke-linejoin="round"/>
    <path d="M 509.5902099609375 374.740234375 C 500.7388000488281 372.8423156738281 511.7386779785156 367.2612609863281 525.2459106445312 380.45062255859375 C 529.2146606445312 355.9805908203125 499.13470458984375 349.9770202636719 512.5806884765625 337.7225036621094 C 502.06561279296875 371.2185974121094 516.6928100585938 366.1230163574219 551.3108520507812 388.4366149902344 C 566.0167846679688 379.2796630859375 556.2723388671875 379.6701965332031 537.6463012695312 390.1777648925781" stroke-width="6.0" fill="none" stroke="rgb(0, 0, 0)" stroke-opacity="0.0" stroke-linecap="round" stroke-linejoin="round"/>
    <path d="M 496.6193542480469 448.5320739746094 C 490.3475036621094 443.8878479003906 489.2468566894531 459.4421081542969 488.0963134765625 456.81402587890625 C 489.1346130371094 468.0353088378906 479.6442565917969 474.96063232421875 454.5190124511719 469.7809143066406 C 465.492919921875 471.3747863769531 436.03448486328125 468.23675537109375 456.0931701660156 470.2855224609375 C 480.8103942871094 466.4895324707031 479.4082946777344 473.43994140625 489.68487548828125 475.1534729003906" stroke-width="6.0" fill="none" stroke="rgb(0, 0, 0)" stroke-opacity="0.0021842166" stroke-linecap="round" stroke-linejoin="round"/>
    <path d="M 123.00521087646484 601.0149536132812 C 129.11996459960938 563.1731567382812 136.1749267578125 574.3550415039062 151.15232849121094 611.4264526367188 C 152.31527709960938 591.5804443359375 176.23500061035156 569.9837036132812 203.6200714111328 547.26416015625 C 190.51522827148438 545.59619140625 152.48275756835938 499.7020568847656 199.90440368652344 539.9913940429688 C 144.77870178222656 553.26318359375 161.7265625 536.7412109375 175.41722106933594 567.459228515625" stroke-width="6.0" fill="none" stroke="rgb(0, 0, 0)" stroke-opacity="0.9838049" stroke-linecap="round" stroke-linejoin="round"/>
    <path d="M 401.6649475097656 294.6131286621094 C 375.0827331542969 275.8127746582031 393.34490966796875 289.0765075683594 387.7845764160156 307.6103820800781 C 408.39947509765625 282.0329895019531 403.7296447753906 270.698974609375 382.3667907714844 325.79107666015625 C 387.2756652832031 342.3925476074219 363.95159912109375 321.25762939453125 358.9674072265625 326.58056640625 C 307.1427307128906 303.0730895996094 306.4615173339844 314.651611328125 374.15277099609375 319.2547302246094" stroke-width="6.0" fill="none" stroke="rgb(0, 0, 0)" stroke-opacity="0.0" stroke-linecap="round" stroke-linejoin="round"/>
    <path d="M 279.0350646972656 416.7304992675781 C 297.9377746582031 416.2047424316406 271.7787780761719 416.3210754394531 280.157470703125 417.8580017089844 C 332.2853088378906 409.9459533691406 360.60870361328125 439.3131103515625 277.5065002441406 441.22125244140625 C 230.50099182128906 446.0387878417969 297.9785461425781 464.9914245605469 286.3277587890625 466.8138427734375 C 249.46754455566406 474.8352355957031 262.6651306152344 449.8485107421875 309.3003845214844 462.77227783203125" stroke-width="6.0" fill="none" stroke="rgb(0, 0, 0)" stroke-opacity="0.0" stroke-linecap="round" stroke-linejoin="round"/>
    <path d="M 371.5784912109375 523.5162353515625 C 431.8132629394531 522.5440063476562 450.2938232421875 518.6566162109375 434.6602783203125 497.69598388671875 C 429.48187255859375 506.76824951171875 448.061279296875 484.8486328125 436.13983154296875 477.25115966796875 C 470.3248596191406 500.8556823730469 471.7623291015625 494.6489562988281 452.49383544921875 517.4765014648438 C 452.58721923828125 539.0536499023438 443.9651794433594 522.7557983398438 478.015380859375 531.1589965820312" stroke-width="6.0" fill="none" stroke="rgb(0, 0, 0)" stroke-opacity="0.0" stroke-linecap="round" stroke-linejoin="round"/>
    <path d="M 402.103271484375 213.4173126220703 C 406.027099609375 236.32594299316406 432.98883056640625 234.61814880371094 420.3936462402344 240.8214874267578 C 434.2565612792969 242.24224853515625 409.855224609375 272.6677551269531 402.9667663574219 261.2666931152344 C 445.83001708984375 263.30340576171875 429.6359558105469 272.35418701171875 405.7355651855469 219.2390899658203 C 407.4679260253906 231.88243103027344 383.8087158203125 213.6951141357422 396.9728698730469 216.0735626220703" stroke-width="6.0" fill="none" stroke="rgb(0, 0, 0)" stroke-opacity="0.0" stroke-linecap="round" stroke-linejoin="round"/>
    <path d="M 145.33042907714844 277.3367614746094 C 140.1228485107422 294.3495788574219 142.49127197265625 256.3345947265625 150.87681579589844 274.27471923828125 C 120.87287902832031 271.81982421875 136.5240478515625 249.576904296875 104.56478881835938 309.6033630371094 C 107.96233367919922 270.48895263671875 90.11172485351562 277.6744384765625 109.45240020751953 237.09024047851562 C 112.93553924560547 246.91526794433594 105.37113952636719 242.3957977294922 120.18315124511719 237.24392700195312" stroke-width="6.0" fill="none" stroke="rgb(0, 0, 0)" stroke-opacity="0.0" stroke-linecap="round" stroke-linejoin="round"/>
    <path d="M 71.43294525146484 185.41114807128906 C 35.30766677856445 192.69134521484375 14.344037055969238 189.20533752441406 -0.7957944869995117 179.63023376464844 C -43.41093063354492 177.36517333984375 -21.330875396728516 151.5871124267578 -8.583385467529297 100.16080474853516 C -10.79798412322998 122.51143646240234 7.646599292755127 126.55213165283203 -26.61509895324707 95.75298309326172 C -33.351558685302734 95.43280029296875 -10.490033149719238 62.52256393432617 -7.801094055175781 75.62071228027344" stroke-width="6.0" fill="none" stroke="rgb(0, 0, 0)" stroke-opacity="0.0" stroke-linecap="round" stroke-linejoin="round"/>
    <path d="M 331.9187316894531 284.3348693847656 C 295.61761474609375 288.7733459472656 308.57366943359375 307.5697326660156 339.64422607421875 292.0824279785156 C 324.0174255371094 290.3891296386719 323.6070251464844 260.0414733886719 344.3267517089844 244.33651733398438 C 351.3983459472656 253.17410278320312 357.644287109375 277.9317932128906 348.02374267578125 251.81015014648438 C 368.4906921386719 215.9318389892578 328.95098876953125 212.60552978515625 335.3154296875 216.4747314453125" stroke-width="6.0" fill="none" stroke="rgb(0, 0, 0)" stroke-opacity="0.007946577" stroke-linecap="round" stroke-linejoin="round"/>
    <path d="M 585.913330078125 160.99070739746094 C 572.2040405273438 152.77650451660156 558.862060546875 158.7631072998047 528.3208618164062 160.62994384765625 C 524.6725463867188 160.92678833007812 540.1884155273438 159.68203735351562 530.27197265625 176.41526794433594 C 526.626220703125 200.26243591308594 563.9962768554688 207.48211669921875 563.7922973632812 183.84214782714844 C 552.860595703125 154.38243103027344 553.264404296875 174.8085479736328 579.8829956054688 164.4093017578125" stroke-width="6.0" fill="none" stroke="rgb(0, 0, 0)" stroke-opacity="0.002232356" stroke-linecap="round" stroke-linejoin="round"/>
    <path d="M -10.068943977355957 359.5902099609375 C -15.639473915100098 321.2443542480469 -6.603592395782471 281.0671081542969 -10.413132667541504 266.6737365722656 C -23.561586380004883 274.97613525390625 -15.523385047912598 274.4862365722656 -14.32825756072998 245.70144653320312 C -19.75554847717285 214.5981903076172 -22.2281551361084 232.71693420410156 -37.26355743408203 240.95252990722656 C -34.36830520629883 245.32489013671875 -29.4816951751709 255.06361389160156 -46.97138977050781 281.8727722167969" stroke-width="6.0" fill="none" stroke="rgb(0, 0, 0)" stroke-opacity="0.79033536" stroke-linecap="round" stroke-linejoin="round"/>
    <path d="M 366.21112060546875 471.8626708984375 C 354.4380798339844 504.2958679199219 302.15277099609375 493.2667541503906 342.2823181152344 497.1351013183594 C 352.03350830078125 470.8709716796875 357.78643798828125 435.700927734375 393.40057373046875 440.37860107421875 C 409.1931457519531 442.4261779785156 427.7557678222656 472.7791442871094 422.15887451171875 449.27288818359375 C 464.2508239746094 440.201904296875 466.36700439453125 441.1860656738281 429.8625793457031 449.83148193359375" stroke-width="6.0" fill="none" stroke="rgb(0, 0, 0)" stroke-opacity="0.0" stroke-linecap="round" stroke-linejoin="round"/>
    <path d="M 285.8451232910156 81.00155639648438 C 294.41546630859375 195.950439453125 300.6853332519531 188.92605590820312 265.08447265625 181.74635314941406 C 266.28924560546875 200.3580322265625 260.5474853515625 176.99526977539062 330.5484619140625 165.95982360839844 C 357.58819580078125 212.85496520996094 284.8829345703125 210.5541229248047 275.5086669921875 197.7789306640625 C 286.29864501953125 250.53945922851562 277.391845703125 226.38046264648438 279.6068115234375 122.79635620117188" stroke-width="6.0" fill="none" stroke="rgb(0, 0, 0)" stroke-opacity="0.94083023" stroke-linecap="round" stroke-linejoin="round"/>
    <path d="M 21.505464553833008 301.178955078125 C 15.696078300476074 308.1835021972656 33.6574821472168 302.9919738769531 43.201446533203125 287.5087890625 C 79.29878997802734 277.8606262207031 84.49134826660156 291.1065673828125 53.89241027832031 323.010986328125 C 72.17677307128906 378.1700134277344 61.12180709838867 389.5811462402344 91.94121551513672 410.0141906738281 C 76.4440689086914 404.6539611816406 76.35106658935547 394.2181701660156 77.55318450927734 386.4259948730469" stroke-width="6.0" fill="none" stroke="rgb(0, 0, 0)" stroke-opacity="0.0" stroke-linecap="round" stroke-linejoin="round"/>
    <path d="M 21.10890769958496 537.3705444335938 C 31.131755828857422 513.4862670898438 15.054161071777344 519.5537109375 32.541683197021484 520.8897094726562 C 34.60297775268555 502.7077941894531 41.67350769042969 536.87451171875 15.252157211303711 534.9337768554688 C 52.23076629638672 533.1688842773438 49.56716537475586 513.8847045898438 24.714569091796875 531.557373046875 C -5.5241618156433105 559.24072265625 36.84071731567383 551.7035522460938 48.96611404418945 569.6017456054688" stroke-width="6.0" fill="none" stroke="rgb(0, 0, 0)" stroke-opacity="0.0" stroke-linecap="round" stroke-linejoin="round"/>
    <path d="M 609.077392578125 535.4642333984375 C 607.3899536132812 538.2279052734375 612.3626708984375 544.3712158203125 603.9852294921875 551.3805541992188 C 618.4598999023438 531.4021606445312 638.2826538085938 545.3073120117188 641.5658569335938 567.8231811523438 C 620.0775756835938 581.0968017578125 636.6326293945312 608.3203735351562 617.3533935546875 583.7579956054688 C 614.890625 597.7106323242188 596.2572021484375 614.5380859375 604.244873046875 616.5016479492188" stroke-width="6.0" fill="none" stroke="rgb(0, 0, 0)" stroke-opacity="0.11154729" stroke-linecap="round" stroke-linejoin="round"/>
    <path d="M 34.85818099975586 238.96978759765625 C 40.5206298828125 238.9953155517578 23.666698455810547 257.3950500488281 -2.5880510807037354 255.5002899169922 C 49.28733444213867 235.83111572265625 64.61112976074219 232.9423370361328 76.49423217773438 253.9355010986328 C 59.41971969604492 247.98468017578125 56.353885650634766 236.6907196044922 54.46089172363281 200.3244171142578 C 73.91936492919922 245.66677856445312 46.17179870605469 242.7908172607422 42.052459716796875 263.80029296875" stroke-width="6.0" fill="none" stroke="rgb(0, 0, 0)" stroke-opacity="0.0" stroke-linecap="round" stroke-linejoin="round"/>
    <path d="M 322.51220703125 486.79156494140625 C 333.5090637207031 479.63446044921875 328.18499755859375 506.5132751464844 363.1032409667969 506.797119140625 C 322.4027099609375 499.8902587890625 366.6833801269531 542.6174926757812 373.65655517578125 542.5064086914062 C 348.16827392578125 562.7372436523438 372.923095703125 573.6695556640625 344.142578125 533.4267578125 C 358.26226806640625 501.6622009277344 374.9777526855469 532.6776123046875 399.8851318359375 534.8041381835938" stroke-width="6.0" fill="none" stroke="rgb(0, 0, 0)" stroke-opacity="1.0" stroke-linecap="round" stroke-linejoin="round"/>
    <path d="M 88.55406188964844 505.41375732421875 C 108.62091827392578 531.1312866210938 131.90040588378906 559.2789306640625 159.6284942626953 551.2432861328125 C 157.06903076171875 555.41162109375 177.81301879882812 534.8961181640625 211.38258361816406 501.32666015625 C 213.206787109375 504.5362243652344 208.70352172851562 530.7598876953125 205.9938201904297 571.7191772460938 C 216.71719360351562 595.0155029296875 230.1879119873047 633.9158325195312 231.15476989746094 630.5647583007812" stroke-width="6.0" fill="none" stroke="rgb(0, 0, 0)" stroke-opacity="0.01682056" stroke-linecap="round" stroke-linejoin="round"/>
    <path d="M 93.87000274658203 326.5989074707031 C 103.03734588623047 326.4497375488281 47.223846435546875 319.45208740234375 35.487083435058594 331.2424011230469 C 42.37552261352539 322.57586669921875 49.34856033325195 351.8012390136719 59.441097259521484 318.6900939941406 C 85.58609771728516 344.68890380859375 82.26008605957031 333.45111083984375 64.77505493164062 344.0113220214844 C 79.6866455078125 318.54852294921875 80.87918853759766 324.35772705078125 96.43000030517578 329.1339111328125" stroke-width="6.0" fill="none" stroke="rgb(0, 0, 0)" stroke-opacity="0.0" stroke-linecap="round" stroke-linejoin="round"/>
    <path d="M 565.9647216796875 45.248958587646484 C 573.1408081054688 31.08812141418457 570.647705078125 51.9053840637207 570.0477905273438 74.71644592285156 C 578.0089111328125 103.92314147949219 589.282470703125 87.05570220947266 547.9213256835938 97.5518569946289 C 520.4220581054688 107.60325622558594 537.3355712890625 124.41323852539062 507.4247741699219 135.06236267089844 C 505.3678283691406 152.1142120361328 520.9639892578125 165.48104858398438 537.0191650390625 177.96820068359375" stroke-width="6.0" fill="none" stroke="rgb(0, 0, 0)" stroke-opacity="0.0" stroke-linecap="round" stroke-linejoin="round"/>
    <path d="M 541.1609497070312 58.989620208740234 C 549.8312377929688 46.566978454589844 546.914306640625 41.114200592041016 546.6151733398438 42.22798156738281 C 560.935546875 34.832218170166016 532.1268920898438 73.09063720703125 566.1781005859375 21.418737411499023 C 586.4328002929688 24.598636627197266 562.4158325195312 30.603275299072266 568.5486450195312 25.62873649597168 C 640.339599609375 22.789566040039062 661.6366577148438 38.338478088378906 658.7947387695312 24.94088363647461" stroke-width="6.0" fill="none" stroke="rgb(0, 0, 0)" stroke-opacity="0.0" stroke-linecap="round" stroke-linejoin="round"/>
    <path d="M 486.206787109375 496.030029296875 C 533.7823486328125 494.2281799316406 535.6837768554688 481.07147216796875 563.6504516601562 469.5008544921875 C 617.7152709960938 467.270263671875 591.5752563476562 472.216796875 593.694580078125 460.74200439453125 C 615.3374633789062 439.09967041015625 617.30078125 451.0469970703125 628.0718383789062 449.5820617675781 C 627.038818359375 418.1831970214844 611.0225219726562 434.1751708984375 638.6367797851562 408.6136169433594" stroke-width="6.0" fill="none" stroke="rgb(0, 0, 0)" stroke-opacity="0.0" stroke-linecap="round" stroke-linejoin="round"/>
    <path d="M 433.9253845214844 460.9855651855469 C 424.42041015625 438.966064453125 442.4093322753906 403.8244323730469 414.3434753417969 415.9271240234375 C 431.2372741699219 433.6394348144531 467.37353515625 436.4021301269531 430.37005615234375 411.7381896972656 C 414.4311218261719 432.4089660644531 417.5086669921875 464.487548828125 392.7261962890625 414.3809814453125 C 338.5322265625 425.8074035644531 360.84991455078125 470.1938171386719 333.064208984375 461.57635498046875" stroke-width="6.0" fill="none" stroke="rgb(0, 0, 0)" stroke-opacity="0.0" stroke-linecap="round" stroke-linejoin="round"/>
    <path d="M 124.26618957519531 484.9799499511719 C 133.1919708251953 463.3275146484375 160.98388671875 436.13623046875 207.11444091796875 401.5055847167969 C 182.969970703125 393.6465148925781 151.10250854492188 431.961669921875 162.57601928710938 379.1048889160156 C 150.21200561523438 390.18890380859375 116.44419860839844 377.04730224609375 163.36524963378906 373.2991638183594 C 141.46327209472656 390.1636047363281 138.35137939453125 379.10260009765625 130.0837860107422 387.973876953125" stroke-width="6.0" fill="none" stroke="rgb(0, 0, 0)" stroke-opacity="0.0" stroke-linecap="round" stroke-linejoin="round"/>
    <path d="M 433.684326171875 631.276611328125 C 439.6552734375 612.02685546875 453.4743957519531 586.7494506835938 411.78680419921875 635.9956665039062 C 388.10052490234375 569.7606811523438 394.36859130859375 561.4988403320312 400.08367919921875 542.8718872070312 C 399.4490051269531 572.4525146484375 437.0750427246094 579.4462280273438 431.90936279296875 576.1434326171875 C 426.0902099609375 613.2115478515625 418.9823913574219 564.3216552734375 428.9416198730469 580.6415405273438" stroke-width="6.0" fill="none" stroke="rgb(0, 0, 0)" stroke-opacity="0.99835545" stroke-linecap="round" stroke-linejoin="round"/>
    <path d="M 494.2373962402344 523.572265625 C 514.7388916015625 506.14813232421875 544.5078735351562 505.680419921875 547.024658203125 531.6494140625 C 576.5584106445312 529.0770874023438 575.830078125 552.9933471679688 567.1213989257812 575.5709228515625 C 574.3488159179688 543.90771484375 569.2626953125 540.02587890625 581.187255859375 534.054443359375 C 597.3287963867188 532.4281005859375 606.8251342773438 540.5819091796875 633.7863159179688 547.0029296875" stroke-width="6.0" fill="none" stroke="rgb(0, 0, 0)" stroke-opacity="0.44122434" stroke-linecap="round" stroke-linejoin="round"/>
    <path d="M 43.803565979003906 47.087860107421875 C 52.60786056518555 62.98899459838867 93.66683959960938 72.17115020751953 121.36759185791016 44.52352523803711 C 116.48821258544922 24.14873695373535 115.14225006103516 -6.177796840667725 121.55804443359375 -19.701082229614258 C 140.78213500976562 -10.46846866607666 161.7006072998047 -9.123908042907715 181.90457153320312 -10.661457061767578 C 192.29254150390625 -26.576271057128906 177.84469604492188 -32.460594177246094 149.8287811279297 -41.15223693847656" stroke-width="6.0" fill="none" stroke="rgb(0, 0, 0)" stroke-opacity="0.0" stroke-linecap="round" stroke-linejoin="round"/>
    <path d="M 559.4971313476562 42.28822708129883 C 550.2012329101562 38.6595573425293 545.1719970703125 54.32418441772461 558.4060668945312 38.51987838745117 C 552.9985961914062 47.80921173095703 534.13916015625 49.5221061706543 515.3480224609375 15.213902473449707 C 506.9682312011719 -30.801624298095703 487.1552429199219 -34.04806137084961 505.95111083984375 -5.609567642211914 C 510.36761474609375 22.95049476623535 519.6898803710938 60.15043640136719 506.918701171875 45.17559051513672" stroke-width="6.0" fill="none" stroke="rgb(0, 0, 0)" stroke-opacity="0.0" stroke-linecap="round" stroke-linejoin="round"/>
    <path d="M 218.2917938232422 519.29736328125 C 184.93836975097656 555.3477783203125 177.05654907226562 532.3009643554688 176.42327880859375 506.5392761230469 C 179.63519287109375 495.3035583496094 173.48387145996094 515.3153686523438 183.65823364257812 541.3614501953125 C 193.47048950195312 550.6614990234375 217.51129150390625 506.2035827636719 189.9563751220703 547.770751953125 C 202.2626495361328 553.4288940429688 167.87045288085938 571.6178588867188 196.0074920654297 547.8998413085938" stroke-width="6.0" fill="none" stroke="rgb(0, 0, 0)" stroke-opacity="0.81084913" stroke-linecap="round" stroke-linejoin="round"/>
    <path d="M 398.9026184082031 -7.883936405181885 C 400.2272033691406 -9.724058151245117 410.1423034667969 -14.367097854614258 417.636474609375 -38.35845947265625 C 439.5213623046875 -45.72861862182617 430.5309753417969 -17.277376174926758 442.2221984863281 -37.78526306152344 C 447.66253662109375 -57.17453384399414 472.3640441894531 -83.04097747802734 483.0990295410156 -65.7472915649414 C 488.0799560546875 -47.33738708496094 472.5290832519531 -64.18803405761719 462.3046875 -54.671443939208984" stroke-width="6.0" fill="none" stroke="rgb(0, 0, 0)" stroke-opacity="0.5701056" stroke-linecap="round" stroke-linejoin="round"/>
    <path d="M 77.99987030029297 517.2135009765625 C 99.36112976074219 505.4539794921875 125.14421081542969 520.7108764648438 115.55620574951172 560.4251098632812 C 150.97708129882812 575.4102783203125 127.59056854248047 594.8065795898438 102.01231384277344 612.5628662109375 C 116.40785217285156 589.9823608398438 148.05801391601562 600.0114135742188 117.20977020263672 607.6277465820312 C 125.46746063232422 570.43115234375 140.68653869628906 576.2808837890625 123.40027618408203 597.3195190429688" stroke-width="6.0" fill="none" stroke="rgb(0, 0, 0)" stroke-opacity="0.37672278" stroke-linecap="round" stroke-linejoin="round"/>
    <path d="M 344.0931396484375 295.8388671875 C 322.0767822265625 287.9573669433594 364.33355712890625 281.0494079589844 365.58380126953125 268.5483703613281 C 391.0711669921875 218.18638610839844 432.4898986816406 223.04530334472656 453.0676574707031 243.43838500976562 C 413.409912109375 258.2572326660156 414.4088134765625 259.5694885253906 438.7287292480469 252.19439697265625 C 426.8218078613281 253.3169403076172 409.3755187988281 234.72789001464844 385.1785888671875 216.79905700683594" stroke-width="6.0" fill="none" stroke="rgb(0, 0, 0)" stroke-opacity="0.0" stroke-linecap="round" stroke-linejoin="round"/>
    <path d="M 662.19140625 475.37744140625 C 645.1038208007812 490.1219177246094 612.593994140625 496.1621398925781 561.3602294921875 496.12115478515625 C 573.907958984375 483.6378479003906 554.505126953125 508.3548278808594 547.9256591796875 481.88897705078125 C 551.5040283203125 493.6400146484375 572.4371948242188 472.6282043457031 558.3640747070312 456.1048889160156 C 563.6071166992188 467.4493103027344 564.7393188476562 456.5497741699219 547.9775390625 487.95037841796875" stroke-width="6.0" fill="none" stroke="rgb(0, 0, 0)" stroke-opacity="0.0024337366" stroke-linecap="round" stroke-linejoin="round"/>
    <path d="M 358.1220703125 497.1722412109375 C 329.31170654296875 515.1311645507812 303.96978759765625 510.5685729980469 322.2961730957031 502.8665771484375 C 284.5574035644531 494.1494140625 257.7270812988281 502.6824645996094 225.03280639648438 512.4657592773438 C 276.6179504394531 480.4710998535156 306.9148254394531 500.6617736816406 314.62017822265625 495.9429931640625 C 301.3017883300781 474.287841796875 233.33462524414062 467.8682556152344 194.99974060058594 499.539794921875" stroke-width="6.0" fill="none" stroke="rgb(0, 0, 0)" stroke-opacity="1.0" stroke-linecap="round" stroke-linejoin="round"/>
    <path d="M 87.48628997802734 438.0946350097656 C 89.35231018066406 436.8055114746094 103.23497772216797 451.34375 111.79753112792969 429.9683837890625 C 79.01431274414062 401.8935546875 117.30640411376953 413.8005065917969 90.19969177246094 396.5695495605469 C 95.41773986816406 413.0794372558594 115.6195297241211 410.90557861328125 94.88861083984375 427.1975402832031 C 99.36814880371094 463.6391296386719 100.44794464111328 465.7492370605469 100.74478912353516 460.3638610839844" stroke-width="6.0" fill="none" stroke="rgb(0, 0, 0)" stroke-opacity="0.0" stroke-linecap="round" stroke-linejoin="round"/>
    <path d="M 131.0360107421875 140.90179443359375 C 167.58767700195312 124.01708221435547 161.41531372070312 139.6544952392578 119.95073699951172 148.7259063720703 C 121.32333374023438 159.0306854248047 156.195068359375 166.8954620361328 145.38400268554688 155.7755889892578 C 126.76535034179688 179.903076171875 145.99903869628906 184.8987274169922 121.56320190429688 186.24168395996094 C 137.59841918945312 152.10321044921875 155.69094848632812 152.8651885986328 199.4588165283203 164.7197723388672" stroke-width="6.0" fill="none" stroke="rgb(0, 0, 0)" stroke-opacity="0.012639603" stroke-linecap="round" stroke-linejoin="round"/>
    <path d="M 611.1364135742188 153.5671844482422 C 575.1490478515625 158.57644653320312 571.8687744140625 145.41905212402344 582.6595458984375 155.3972930908203 C 561.2440185546875 154.2863006591797 551.171875 149.80845642089844 558.4791870117188 164.574951171875 C 549.699951171875 164.86502075195312 566.6209106445312 156.30795288085938 582.7485961914062 163.25897216796875 C 618.1626586914062 165.6090850830078 603.0851440429688 124.31291198730469 578.927001953125 135.81625366210938" stroke-width="6.0" fill="none" stroke="rgb(0, 0, 0)" stroke-opacity="0.00094526506" stroke-linecap="round" stroke-linejoin="round"/>
    <path d="M 255.84262084960938 352.29052734375 C 236.01087951660156 364.2208557128906 240.6884002685547 410.13629150390625 256.9167175292969 435.7910461425781 C 198.50003051757812 431.1174621582031 199.71986389160156 451.67706298828125 215.16839599609375 413.8905334472656 C 208.21676635742188 413.7074279785156 251.7727508544922 408.5504455566406 284.625 404.7301940917969 C 321.8385009765625 399.2218322753906 304.8419494628906 435.1205749511719 286.9023742675781 331.8861999511719" stroke-width="6.0" fill="none" stroke="rgb(0, 0, 0)" stroke-opacity="0.99104416" stroke-linecap="round" stroke-linejoin="round"/>
    <path d="M 264.1937255859375 70.51483917236328 C 281.9758605957031 103.863037109375 298.50567626953125 67.43354797363281 285.9913330078125 53.410213470458984 C 258.8273620605469 0.7327977418899536 287.0210876464844 -43.178916931152344 310.51666259765625 -85.51316833496094 C 327.4626159667969 -49.39329528808594 297.8653869628906 -48.14573287963867 319.8746643066406 -49.01905059814453 C 345.16485595703125 -62.72646713256836 326.4273986816406 -70.7899398803711 310.6727600097656 -44.11452865600586" stroke-width="6.0" fill="none" stroke="rgb(0, 0, 0)" stroke-opacity="1.0" stroke-linecap="round" stroke-linejoin="round"/>
    <path d="M 82.53680419921875 -13.00791072845459 C 69.65894317626953 -18.342445373535156 88.82565307617188 -40.32817840576172 78.58680725097656 -0.6757990717887878 C 86.80442810058594 3.3608038425445557 82.24543762207031 -27.14228630065918 99.91633605957031 -43.36572265625 C 121.85319519042969 -31.47197914123535 129.878662109375 2.0801892280578613 124.67068481445312 41.04582977294922 C 115.65492248535156 29.55768585205078 126.28936767578125 47.37722396850586 117.85601806640625 50.8560905456543" stroke-width="6.0" fill="none" stroke="rgb(0, 0, 0)" stroke-opacity="0.0007187065" stroke-linecap="round" stroke-linejoin="round"/>
    <path d="M 184.23333740234375 86.24317932128906 C 165.6951141357422 62.69263458251953 184.20278930664062 98.76085662841797 173.9086151123047 62.0284538269043 C 167.8678436279297 82.0883560180664 167.15623474121094 122.61895751953125 151.35194396972656 130.28387451171875 C 136.58688354492188 109.36227416992188 108.21714782714844 135.1394500732422 93.30673217773438 108.00504302978516 C 66.47996520996094 116.5942611694336 52.08270263671875 133.01852416992188 70.53657531738281 151.59597778320312" stroke-width="6.0" fill="none" stroke="rgb(0, 0, 0)" stroke-opacity="0.0" stroke-linecap="round" stroke-linejoin="round"/>
    <path d="M 487.2132263183594 330.5282897949219 C 488.83502197265625 310.02874755859375 491.58892822265625 299.0786437988281 498.41522216796875 313.369140625 C 465.75164794921875 299.65869140625 492.5745544433594 300.46417236328125 467.185302734375 263.6181945800781 C 475.4642333984375 250.97357177734375 474.6957702636719 256.2773742675781 479.72357177734375 303.7879333496094 C 494.9742126464844 265.71905517578125 457.767578125 236.7996063232422 469.6784973144531 231.5338897705078" stroke-width="6.0" fill="none" stroke="rgb(0, 0, 0)" stroke-opacity="0.0" stroke-linecap="round" stroke-linejoin="round"/>
    <path d="M 156.09255981445312 534.3029174804688 C 187.88165283203125 500.7344970703125 189.20021057128906 450.7578125 230.88760375976562 462.4580078125 C 239.40182495117188 474.789306640625 211.5691680908203 505.7103271484375 177.95193481445312 556.959228515625 C 209.78778076171875 536.6223754882812 237.19586181640625 507.3663635253906 189.77932739257812 529.725341796875 C 224.49221801757812 518.4043579101562 255.1969451904297 499.8125915527344 199.70358276367188 534.8096313476562" stroke-width="6.0" fill="none" stroke="rgb(0, 0, 0)" stroke-opacity="1.0" stroke-linecap="round" stroke-linejoin="round"/>
    <path d="M 624.9036254882812 140.86256408691406 C 579.2364501953125 148.22068786621094 591.72705078125 141.77439880371094 587.45751953125 167.64767456054688 C 597.3563232421875 109.95448303222656 573.2971801757812 105.72220611572266 538.78857421875 104.18985748291016 C 509.421630859375 142.36805725097656 519.1929931640625 161.64715576171875 545.612548828125 191.07891845703125 C 559.0911254882812 218.2882843017578 583.9553833007812 218.03929138183594 629.488525390625 213.57066345214844" stroke-width="6.0" fill="none" stroke="rgb(0, 0, 0)" stroke-opacity="0.0021195684" stroke-linecap="round" stroke-linejoin="round"/>
    <path d="M 607.1328125 301.6043395996094 C 613.7318115234375 319.8724365234375 637.8521728515625 330.2068786621094 601.9906616210938 309.9474792480469 C 618.56787109375 316.9974365234375 611.0524291992188 297.885986328125 617.5609741210938 323.43182373046875 C 605.6475219726562 311.7557373046875 620.8457641601562 337.8948669433594 627.4205322265625 338.7892761230469 C 611.4828491210938 317.8161315917969 630.892822265625 344.52099609375 612.4678955078125 364.9084777832031" stroke-width="6.0" fill="none" stroke="rgb(0, 0, 0)" stroke-opacity="0.295651" stroke-linecap="round" stroke-linejoin="round"/>
    <path d="M 515.1615600585938 361.1796569824219 C 500.4149169921875 364.23040771484375 539.0960693359375 332.3104248046875 528.9127197265625 344.0244140625 C 530.5045776367188 314.23406982421875 531.8187866210938 341.47454833984375 550.8264770507812 288.728759765625 C 531.6053466796875 291.119384765625 536.10009765625 328.00830078125 594.9195556640625 341.3642883300781 C 578.2531127929688 364.53350830078125 542.4913330078125 353.8169250488281 563.9658203125 397.45947265625" stroke-width="6.0" fill="none" stroke="rgb(0, 0, 0)" stroke-opacity="0.0" stroke-linecap="round" stroke-linejoin="round"/>
    <path d="M 105.60800170898438 523.9903564453125 C 112.08824157714844 514.7782592773438 95.07308959960938 540.9585571289062 115.50558471679688 525.370849609375 C 176.16339111328125 510.6257019042969 182.04959106445312 523.581298828125 155.0080108642578 611.579345703125 C 79.96131134033203 575.6785278320312 80.75115966796875 572.3756103515625 74.06621551513672 583.2973022460938 C 117.19560241699219 578.2088012695312 108.80249786376953 555.1971435546875 119.90263366699219 552.339111328125" stroke-width="6.0" fill="none" stroke="rgb(0, 0, 0)" stroke-opacity="0.0" stroke-linecap="round" stroke-linejoin="round"/>
    <path d="M 223.25637817382812 429.68023681640625 C 235.67568969726562 361.8588562011719 255.5833282470703 325.6577453613281 245.6441192626953 322.5015563964844 C 287.3111877441406 323.253173828125 257.50421142578125 310.981689453125 228.64320373535156 324.5002136230469 C 267.9561767578125 315.3880920410156 296.77374267578125 320.0961608886719 321.8606872558594 315.9471130371094 C 304.5245056152344 314.1783752441406 299.646484375 296.7388916015625 289.8482971191406 174.45741271972656" stroke-width="6.0" fill="none" stroke="rgb(0, 0, 0)" stroke-opacity="0.98369247" stroke-linecap="round" stroke-linejoin="round"/>
    <path d="M 276.59027099609375 41.0862922668457 C 290.8503112792969 26.732574462890625 310.53326416015625 46.80418395996094 322.0970764160156 37.21442794799805 C 332.2711486816406 82.65269470214844 326.7110900878906 77.18690490722656 342.5704650878906 82.56612396240234 C 317.04583740234375 82.24861907958984 272.193603515625 88.32672119140625 258.3563537597656 75.67110443115234 C 210.05303955078125 109.75439453125 230.60850524902344 101.37532806396484 308.4346923828125 102.73876190185547" stroke-width="6.0" fill="none" stroke="rgb(0, 0, 0)" stroke-opacity="0.0" stroke-linecap="round" stroke-linejoin="round"/>
    <path d="M 148.69297790527344 546.0899047851562 C 168.91038513183594 528.5096435546875 165.64434814453125 530.485107421875 139.5695343017578 579.165771484375 C 122.98336791992188 598.0394897460938 118.74276733398438 572.9068603515625 158.24452209472656 545.6406860351562 C 208.39822387695312 574.074951171875 168.84080505371094 588.4384765625 157.85679626464844 623.9462280273438 C 153.34902954101562 632.8034057617188 158.99049377441406 647.2178344726562 180.51004028320312 647.4360961914062" stroke-width="6.0" fill="none" stroke="rgb(0, 0, 0)" stroke-opacity="1.0" stroke-linecap="round" stroke-linejoin="round"/>
    <path d="M 372.4992980957031 504.1050720214844 C 361.0353088378906 480.6598205566406 391.54443359375 521.79736328125 404.1586608886719 551.6316528320312 C 412.0583801269531 559.0470581054688 431.9517517089844 569.6856689453125 419.3553161621094 583.87646484375 C 411.66412353515625 536.0477905273438 400.6109313964844 531.324951171875 378.8667297363281 580.2691040039062 C 351.3667297363281 502.0511169433594 349.84844970703125 524.0038452148438 379.5285339355469 580.0628051757812" stroke-width="6.0" fill="none" stroke="rgb(0, 0, 0)" stroke-opacity="1.0" stroke-linecap="round" stroke-linejoin="round"/>
    <path d="M 254.48709106445312 296.2047119140625 C 262.94940185546875 216.55873107910156 272.7207946777344 161.0919952392578 269.7072448730469 175.45126342773438 C 201.86428833007812 196.24034118652344 246.8057098388672 160.7154998779297 194.4515380859375 165.1923065185547 C 155.96646118164062 174.93702697753906 164.99537658691406 197.5919647216797 157.5741424560547 193.01129150390625 C 141.40452575683594 191.58241271972656 113.33081817626953 214.34092712402344 146.8570556640625 226.43724060058594" stroke-width="6.0" fill="none" stroke="rgb(0, 0, 0)" stroke-opacity="1.0" stroke-linecap="round" stroke-linejoin="round"/>
    <path d="M 307.4516296386719 325.4898986816406 C 324.1734924316406 400.56329345703125 335.0162658691406 423.41973876953125 361.5030822753906 451.91510009765625 C 388.0948791503906 451.8629150390625 369.5205383300781 456.4507141113281 345.0336608886719 461.0304260253906 C 276.5286560058594 464.8460693359375 240.2830352783203 464.5664367675781 250.71151733398438 462.0267028808594 C 242.68743896484375 390.8255920410156 250.11585998535156 411.00140380859375 325.3484802246094 398.5725402832031" stroke-width="6.0" fill="none" stroke="rgb(0, 0, 0)" stroke-opacity="0.97396135" stroke-linecap="round" stroke-linejoin="round"/>
    <path d="M 158.08995056152344 63.03372573852539 C 156.33436584472656 69.31029510498047 151.2898406982422 80.89657592773438 127.08602905273438 48.617713928222656 C 143.5916290283203 43.644432067871094 125.79447174072266 32.757381439208984 117.06092071533203 11.871400833129883 C 111.2920150756836 18.879606246948242 106.14847564697266 -4.063379287719727 69.50983428955078 11.946292877197266 C 58.02357482910156 7.65694522857666 49.09640884399414 18.32232666015625 76.34033966064453 11.005790710449219" stroke-width="6.0" fill="none" stroke="rgb(0, 0, 0)" stroke-opacity="0.0" stroke-linecap="round" stroke-linejoin="round"/>
    <path d="M 606.90185546875 241.30918884277344 C 604.4964599609375 204.42385864257812 598.865234375 171.45872497558594 616.6741333007812 144.71571350097656 C 648.01513671875 183.966064453125 656.619140625 209.3868408203125 628.955810546875 203.0639190673828 C 618.9335327148438 187.70924377441406 600.1749267578125 166.1883087158203 607.5690307617188 139.90353393554688 C 622.4761352539062 123.69881439208984 600.7296752929688 106.06520080566406 628.5863647460938 86.89521789550781" stroke-width="6.0" fill="none" stroke="rgb(0, 0, 0)" stroke-opacity="0.9049947" stroke-linecap="round" stroke-linejoin="round"/>
    <path d="M 40.6963996887207 52.48722457885742 C 48.115638732910156 21.643775939941406 47.89603042602539 30.805740356445312 55.66847229003906 20.69329071044922 C 61.9915885925293 23.212921142578125 46.16364288330078 27.854408264160156 57.2421989440918 -12.252144813537598 C 53.951725006103516 -6.475488185882568 41.55738830566406 -21.004419326782227 32.332183837890625 25.501720428466797 C 27.048803329467773 50.977596282958984 45.38158416748047 43.90129089355469 54.127098083496094 46.1490592956543" stroke-width="6.0" fill="none" stroke="rgb(0, 0, 0)" stroke-opacity="0.007933083" stroke-linecap="round" stroke-linejoin="round"/>
    <path d="M 454.25921630859375 239.70184326171875 C 509.2191162109375 237.7601776123047 469.69287109375 241.49717712402344 420.7261962890625 223.8889923095703 C 442.975830078125 223.359375 418.1829528808594 196.88075256347656 443.94171142578125 189.73756408691406 C 440.1501159667969 165.94398498535156 460.33056640625 149.18630981445312 465.7530517578125 169.14134216308594 C 474.99884033203125 162.7741241455078 469.618896484375 163.9423065185547 481.1085205078125 168.97064208984375" stroke-width="6.0" fill="none" stroke="rgb(0, 0, 0)" stroke-opacity="0.0" stroke-linecap="round" stroke-linejoin="round"/>
    <path d="M 209.0704803466797 478.8511657714844 C 207.66404724121094 540.2013549804688 206.30958557128906 550.3422241210938 201.1666259765625 553.3724365234375 C 215.05616760253906 537.8717041015625 230.2981414794922 524.887939453125 232.70761108398438 524.9766235351562 C 202.8890838623047 558.1298217773438 178.118896484375 517.4896240234375 209.70094299316406 465.5436706542969 C 214.40821838378906 457.0982666015625 178.04124450683594 454.4923095703125 178.19271850585938 458.0211181640625" stroke-width="6.0" fill="none" stroke="rgb(0, 0, 0)" stroke-opacity="0.013429062" stroke-linecap="round" stroke-linejoin="round"/>
    <path d="M 207.06912231445312 66.94033813476562 C 202.89698791503906 104.93612670898438 195.92681884765625 121.5441665649414 196.79006958007812 109.8637924194336 C 195.04969787597656 123.90058135986328 170.6219024658203 152.1841583251953 193.5409698486328 178.96609497070312 C 211.34906005859375 156.2343292236328 195.73785400390625 162.75845336914062 161.52886962890625 158.51278686523438 C 164.0489959716797 139.83053588867188 166.88478088378906 164.73304748535156 154.97390747070312 148.4923095703125" stroke-width="6.0" fill="none" stroke="rgb(0, 0, 0)" stroke-opacity="0.0" stroke-linecap="round" stroke-linejoin="round"/>
    <path d="M 42.1298713684082 504.15411376953125 C 33.20016098022461 496.90325927734375 43.557373046875 526.8372802734375 45.49771499633789 538.6596069335938 C 64.4583511352539 500.1159973144531 83.29358673095703 497.0342712402344 62.434722900390625 511.1336364746094 C 47.50680160522461 495.7939758300781 50.36648941040039 511.53033447265625 27.19247055053711 495.7052001953125 C 36.237998962402344 512.40283203125 48.2352294921875 506.39794921875 33.104705810546875 498.5553283691406" stroke-width="6.0" fill="none" stroke="rgb(0, 0, 0)" stroke-opacity="0.0" stroke-linecap="round" stroke-linejoin="round"/>
    <path d="M 484.2941589355469 542.4180908203125 C 487.62664794921875 548.0928344726562 471.5913391113281 521.0554809570312 459.96221923828125 549.309814453125 C 479.3104553222656 523.9017333984375 459.4234313964844 525.14208984375 467.6228332519531 545.4559936523438 C 455.807373046875 574.51953125 438.7642517089844 556.2437133789062 473.2220764160156 571.905517578125 C 456.6634216308594 576.539306640625 471.041015625 567.4490966796875 466.37347412109375 580.85205078125" stroke-width="6.0" fill="none" stroke="rgb(0, 0, 0)" stroke-opacity="0.0" stroke-linecap="round" stroke-linejoin="round"/>
    <path d="M 564.59375 129.4474639892578 C 580.7817993164062 127.44923400878906 566.0250854492188 137.24685668945312 546.9953002929688 99.03144836425781 C 545.3599853515625 113.43110656738281 527.9764404296875 151.50726318359375 536.3446044921875 119.31621551513672 C 515.6979370117188 128.51113891601562 547.1703491210938 143.0530548095703 530.4989013671875 143.4815216064453 C 552.5576782226562 164.5743865966797 573.8523559570312 159.54747009277344 550.6725463867188 163.5249786376953" stroke-width="6.0" fill="none" stroke="rgb(0, 0, 0)" stroke-opacity="0.003973662" stroke-linecap="round" stroke-linejoin="round"/>
    <path d="M 413.8395080566406 349.9180908203125 C 407.6158752441406 351.5791320800781 398.6203918457031 344.28240966796875 401.61309814453125 361.13177490234375 C 413.9726257324219 349.2249450683594 387.0341491699219 355.4043884277344 395.0859069824219 373.0482482910156 C 386.1603698730469 351.8726806640625 378.3504333496094 336.07830810546875 358.2799377441406 287.8691101074219 C 316.03582763671875 338.78118896484375 339.568115234375 320.399169921875 331.6400451660156 321.4823303222656" stroke-width="6.0" fill="none" stroke="rgb(0, 0, 0)" stroke-opacity="0.0" stroke-linecap="round" stroke-linejoin="round"/>
    <path d="M 53.19777297973633 609.337158203125 C 97.29641723632812 594.826416015625 98.39217376708984 618.3704223632812 107.68211364746094 627.7897338867188 C 97.41412353515625 627.4837036132812 127.1842269897461 625.4879150390625 148.44400024414062 636.2644653320312 C 123.70929718017578 632.4798583984375 94.93936920166016 648.50390625 105.44171142578125 664.08935546875 C 101.09461975097656 639.6630249023438 95.2448959350586 626.3065185546875 113.20691680908203 608.1832885742188" stroke-width="6.0" fill="none" stroke="rgb(0, 0, 0)" stroke-opacity="0.4577622" stroke-linecap="round" stroke-linejoin="round"/>
    <path d="M 291.7201232910156 78.6117935180664 C 297.9279479980469 49.91875076293945 288.8586730957031 32.346229553222656 284.63720703125 60.35324478149414 C 245.4673309326172 78.11643981933594 275.51171875 52.706886291503906 278.7165832519531 39.99794387817383 C 279.5439453125 22.17837142944336 263.89349365234375 45.50504684448242 284.3263244628906 64.77030944824219 C 251.15220642089844 82.38106536865234 262.8797607421875 53.3824348449707 268.78387451171875 48.1545524597168" stroke-width="6.0" fill="none" stroke="rgb(0, 0, 0)" stroke-opacity="1.0" stroke-linecap="round" stroke-linejoin="round"/>
    <path d="M 598.84033203125 506.0323181152344 C 634.6060180664062 521.7838745117188 649.0758666992188 512.5712890625 650.453125 503.4537353515625 C 652.0093383789062 458.69317626953125 625.8596801757812 456.79736328125 601.616455078125 450.732421875 C 624.2784423828125 443.9732971191406 602.0794067382812 469.5354919433594 608.625 452.728759765625 C 607.410400390625 455.2403564453125 612.655029296875 469.4740905761719 621.81103515625 478.0447692871094" stroke-width="6.0" fill="none" stroke="rgb(0, 0, 0)" stroke-opacity="0.0" stroke-linecap="round" stroke-linejoin="round"/>
    <path d="M 355.3034973144531 -6.513143539428711 C 362.2634582519531 -7.7519612312316895 372.3465576171875 -12.195235252380371 376.6417236328125 -22.31617546081543 C 378.57958984375 -33.64727020263672 368.21484375 -5.139073371887207 340.953369140625 -26.822832107543945 C 369.6612854003906 -7.369754791259766 366.2518005371094 -16.860549926757812 341.39312744140625 -37.49775314331055 C 367.4397888183594 -54.47501754760742 391.3517761230469 -76.27285766601562 364.09613037109375 -51.48093032836914" stroke-width="6.0" fill="none" stroke="rgb(0, 0, 0)" stroke-opacity="0.042424586" stroke-linecap="round" stroke-linejoin="round"/>
    <path d="M 98.08016204833984 161.32064819335938 C 106.67168426513672 156.07012939453125 123.74636840820312 165.76449584960938 151.26222229003906 174.9118194580078 C 117.28904724121094 165.19532775878906 122.86842346191406 182.98751831054688 150.3991241455078 172.75970458984375 C 174.3099365234375 184.8818359375 190.26913452148438 206.3234405517578 161.48655700683594 202.17800903320312 C 162.6815643310547 216.8062286376953 135.46633911132812 195.48016357421875 122.49845123291016 197.46664428710938" stroke-width="6.0" fill="none" stroke="rgb(0, 0, 0)" stroke-opacity="0.0" stroke-linecap="round" stroke-linejoin="round"/>
    <path d="M 354.43463134765625 225.66751098632812 C 343.9102783203125 265.79608154296875 343.3677978515625 286.01971435546875 328.0956726074219 260.5968017578125 C 296.94354248046875 244.20046997070312 296.74853515625 263.79046630859375 320.3923645019531 246.1428985595703 C 345.6888122558594 245.71200561523438 328.3027038574219 245.7920684814453 344.6678771972656 305.3095397949219 C 401.1567077636719 286.304443359375 389.57745361328125 283.4579772949219 357.1536560058594 264.6158142089844" stroke-width="6.0" fill="none" stroke="rgb(0, 0, 0)" stroke-opacity="0.00837217" stroke-linecap="round" stroke-linejoin="round"/>
    <path d="M 604.4638061523438 343.1014099121094 C 615.2678833007812 339.7778625488281 632.3731079101562 370.789794921875 628.0501708984375 407.3267517089844 C 611.630615234375 434.07537841796875 604.7923583984375 446.7591552734375 608.7609252929688 428.14898681640625 C 640.1161499023438 450.34967041015625 603.7386474609375 438.5915222167969 615.4959106445312 460.6788635253906 C 615.487060546875 460.804443359375 633.0382690429688 456.0400695800781 605.117431640625 440.2760314941406" stroke-width="6.0" fill="none" stroke="rgb(0, 0, 0)" stroke-opacity="0.002323696" stroke-linecap="round" stroke-linejoin="round"/>
    <path d="M 503.8882141113281 307.6041259765625 C 502.3702697753906 296.74017333984375 531.232666015625 329.0547790527344 533.9468383789062 331.0040588378906 C 554.2730102539062 346.6694641113281 563.7161254882812 381.3033752441406 603.7066040039062 377.85479736328125 C 594.7140502929688 356.97369384765625 552.1106567382812 347.6532287597656 531.3922119140625 322.394775390625 C 539.6007690429688 349.44805908203125 579.1633911132812 339.2896728515625 558.635009765625 352.1199645996094" stroke-width="6.0" fill="none" stroke="rgb(0, 0, 0)" stroke-opacity="0.0" stroke-linecap="round" stroke-linejoin="round"/>
    <path d="M 270.79559326171875 439.1647644042969 C 350.3161926269531 426.148193359375 355.5883483886719 417.0655822753906 354.6462707519531 436.7805480957031 C 381.1241149902344 426.7583312988281 376.80609130859375 447.9421081542969 395.7016906738281 391.5914001464844 C 340.6638488769531 388.9102783203125 270.02484130859375 405.6673583984375 254.13253784179688 407.3089904785156 C 268.1407775878906 329.3905029296875 270.4070739746094 329.7479553222656 258.26953125 397.53167724609375" stroke-width="6.0" fill="none" stroke="rgb(0, 0, 0)" stroke-opacity="0.9083113" stroke-linecap="round" stroke-linejoin="round"/>
    <path d="M 443.05816650390625 503.61846923828125 C 452.084716796875 478.2969665527344 473.05633544921875 463.42926025390625 493.9010925292969 476.6044616699219 C 469.6258544921875 485.6365966796875 456.3018798828125 452.2962341308594 419.4692687988281 448.64361572265625 C 403.6512145996094 468.0639343261719 427.60888671875 445.1112060546875 415.9403381347656 458.1368103027344 C 406.4261169433594 488.80914306640625 395.2520751953125 471.1514892578125 390.7183532714844 461.6137390136719" stroke-width="6.0" fill="none" stroke="rgb(0, 0, 0)" stroke-opacity="0.0" stroke-linecap="round" stroke-linejoin="round"/>
    <path d="M 473.36956787109375 400.5045471191406 C 455.5122375488281 378.41021728515625 406.2815246582031 379.09625244140625 421.8879699707031 389.13751220703125 C 430.8086853027344 351.2968444824219 425.68170166015625 398.6663818359375 449.86383056640625 429.505615234375 C 450.34442138671875 469.3385314941406 439.7209167480469 452.33270263671875 443.32080078125 430.3719482421875 C 446.3045654296875 471.23492431640625 483.1253967285156 483.7062072753906 472.16015625 468.9560546875" stroke-width="6.0" fill="none" stroke="rgb(0, 0, 0)" stroke-opacity="0.0011346749" stroke-linecap="round" stroke-linejoin="round"/>
    <path d="M 295.611328125 517.1859130859375 C 275.9686584472656 501.4111328125 279.9862060546875 530.4791870117188 275.71148681640625 541.8768920898438 C 308.6525573730469 567.2002563476562 288.60595703125 614.3829956054688 266.9443359375 580.6738891601562 C 269.23004150390625 571.2665405273438 278.904052734375 580.9443969726562 302.13848876953125 559.44189453125 C 307.54833984375 577.3941040039062 312.59088134765625 568.8880615234375 261.952880859375 577.713134765625" stroke-width="6.0" fill="none" stroke="rgb(0, 0, 0)" stroke-opacity="0.001203286" stroke-linecap="round" stroke-linejoin="round"/>
    <path d="M 74.75428009033203 331.08856201171875 C 69.17660522460938 328.3386535644531 92.49552154541016 334.3589172363281 65.83314514160156 315.1018371582031 C 87.23237609863281 338.249267578125 121.22266387939453 333.0406188964844 111.20372772216797 327.9953308105469 C 114.95339965820312 331.8907165527344 124.54893493652344 287.9686584472656 119.31080627441406 293.6712341308594 C 93.8692855834961 296.07318115234375 105.26661682128906 311.7967834472656 105.21682739257812 298.75250244140625" stroke-width="6.0" fill="none" stroke="rgb(0, 0, 0)" stroke-opacity="0.0" stroke-linecap="round" stroke-linejoin="round"/>
    <path d="M 197.72775268554688 69.58880615234375 C 190.03445434570312 71.87596130371094 193.30575561523438 65.66254425048828 209.5252227783203 42.75731658935547 C 184.40252685546875 75.73284912109375 197.937255859375 42.94409942626953 187.13890075683594 0.9591228365898132 C 180.83370971679688 35.481014251708984 209.07797241210938 48.59539794921875 217.1296844482422 42.85011672973633 C 233.12484741210938 5.055449485778809 233.21620178222656 -26.15899658203125 230.3524932861328 -28.717010498046875" stroke-width="6.0" fill="none" stroke="rgb(0, 0, 0)" stroke-opacity="0.002875662" stroke-linecap="round" stroke-linejoin="round"/>
    <path d="M 381.22186279296875 271.39239501953125 C 388.09063720703125 246.74053955078125 398.7401428222656 270.77606201171875 383.77471923828125 232.39932250976562 C 408.5388488769531 261.65277099609375 426.6632385253906 238.45889282226562 408.9750671386719 249.10716247558594 C 440.4949035644531 246.092041015625 440.7213134765625 223.58941650390625 455.82421875 240.84776306152344 C 445.6752014160156 229.15676879882812 419.9185485839844 233.89617919921875 411.0079345703125 254.20339965820312" stroke-width="6.0" fill="none" stroke="rgb(0, 0, 0)" stroke-opacity="0.0009158923" stroke-linecap="round" stroke-linejoin="round"/>
    <path d="M 279.7905578613281 498.36749267578125 C 300.8611145019531 490.9937438964844 318.44866943359375 473.5159606933594 373.3587646484375 486.90185546875 C 324.2834777832031 509.8121337890625 341.5947265625 519.698486328125 351.0185241699219 499.7814636230469 C 290.2697448730469 474.4833679199219 243.22483825683594 470.47332763671875 266.2786560058594 463.4637451171875 C 286.8878479003906 460.7667236328125 324.163818359375 464.919677734375 315.2841796875 464.54913330078125" stroke-width="6.0" fill="none" stroke="rgb(0, 0, 0)" stroke-opacity="0.30409208" stroke-linecap="round" stroke-linejoin="round"/>
    <path d="M 196.1223602294922 54.47011947631836 C 195.1936798095703 48.14466094970703 204.0968475341797 75.8929214477539 187.89120483398438 67.15966033935547 C 171.64173889160156 99.28002166748047 152.55384826660156 129.4342041015625 154.745361328125 163.15260314941406 C 164.584228515625 147.17276000976562 171.23252868652344 160.8910369873047 190.87094116210938 158.5990447998047 C 203.96571350097656 183.25514221191406 232.67918395996094 178.84829711914062 193.1494598388672 188.5299530029297" stroke-width="6.0" fill="none" stroke="rgb(0, 0, 0)" stroke-opacity="0.0018046247" stroke-linecap="round" stroke-linejoin="round"/>
    <path d="M 434.70391845703125 431.6118469238281 C 423.6978454589844 440.3296203613281 436.97088623046875 417.7073669433594 445.8729248046875 401.9600830078125 C 440.11029052734375 412.1275939941406 433.7865905761719 405.44158935546875 439.5586242675781 415.28570556640625 C 419.56378173828125 388.3763732910156 425.55096435546875 384.774169921875 418.8570556640625 358.1182861328125 C 418.31768798828125 386.7713623046875 413.8532409667969 377.09869384765625 442.86322021484375 398.1003723144531" stroke-width="6.0" fill="none" stroke="rgb(0, 0, 0)" stroke-opacity="0.0" stroke-linecap="round" stroke-linejoin="round"/>
    <path d="M 122.30976867675781 609.5096435546875 C 95.78219604492188 611.12255859375 119.36941528320312 575.0161743164062 185.93067932128906 559.89208984375 C 143.00619506835938 539.36669921875 139.93115234375 583.4117431640625 104.08423614501953 611.4577026367188 C 134.34890747070312 618.44873046875 167.93756103515625 615.7318115234375 169.79092407226562 563.1033325195312 C 147.9929962158203 599.8960571289062 151.46585083007812 624.4637451171875 142.4698486328125 642.7910766601562" stroke-width="6.0" fill="none" stroke="rgb(0, 0, 0)" stroke-opacity="1.0" stroke-linecap="round" stroke-linejoin="round"/>
    <path d="M 479.0488586425781 116.08699798583984 C 499.57373046875 127.54265594482422 512.405029296875 154.35350036621094 525.8380737304688 148.6893310546875 C 548.017333984375 130.91500854492188 558.42431640625 99.49959564208984 569.8359375 82.90870666503906 C 571.0516967773438 46.158084869384766 558.2216186523438 84.00740051269531 572.0211181640625 93.5638198852539 C 595.060302734375 79.02922821044922 565.8123779296875 54.315032958984375 552.6845092773438 37.47691345214844" stroke-width="6.0" fill="none" stroke="rgb(0, 0, 0)" stroke-opacity="0.0" stroke-linecap="round" stroke-linejoin="round"/>
    <path d="M 183.71363830566406 491.9714660644531 C 203.30506896972656 482.57720947265625 212.08010864257812 491.1888122558594 194.72496032714844 510.773193359375 C 169.8121795654297 520.5159301757812 137.6256561279297 554.126708984375 144.6484375 564.6064453125 C 193.10130310058594 545.419921875 200.28993225097656 513.6150512695312 219.14051818847656 483.757080078125 C 208.06053161621094 527.2077026367188 179.49758911132812 490.8262023925781 209.16427612304688 431.13482666015625" stroke-width="6.0" fill="none" stroke="rgb(0, 0, 0)" stroke-opacity="1.0" stroke-linecap="round" stroke-linejoin="round"/>
    <path d="M 376.64385986328125 75.3608627319336 C 357.1317138671875 81.74099731445312 383.2922668457031 96.54497528076172 391.3914489746094 113.77708435058594 C 405.6246643066406 104.20375061035156 375.0583190917969 94.61492156982422 373.1753234863281 81.6669921875 C 381.03619384765625 83.73912811279297 364.1959228515625 53.73491287231445 363.9893493652344 47.23593521118164 C 367.46099853515625 19.813398361206055 345.3511962890625 17.421859741210938 369.0077209472656 11.389603614807129" stroke-width="6.0" fill="none" stroke="rgb(0, 0, 0)" stroke-opacity="0.006375753" stroke-linecap="round" stroke-linejoin="round"/>
    <path d="M 475.7637023925781 140.7331085205078 C 468.01019287109375 153.4078369140625 480.88153076171875 149.31069946289062 462.04150390625 127.07998657226562 C 450.06085205078125 119.43910217285156 444.16943359375 94.44072723388672 432.59356689453125 130.26263427734375 C 461.1702880859375 178.9508056640625 437.4363708496094 196.23321533203125 458.5270690917969 212.05116271972656 C 468.6504211425781 209.8787078857422 485.3017272949219 175.9404754638672 477.84564208984375 184.85333251953125" stroke-width="6.0" fill="none" stroke="rgb(0, 0, 0)" stroke-opacity="4.0394836e-05" stroke-linecap="round" stroke-linejoin="round"/>
    <path d="M 192.9470672607422 10.848868370056152 C 190.25096130371094 -25.4274959564209 197.517578125 -21.448556900024414 199.62432861328125 -42.34135437011719 C 236.85214233398438 -42.86697769165039 248.4457550048828 -16.02471351623535 259.4406433105469 -6.248809814453125 C 280.3528747558594 30.487184524536133 279.460205078125 13.37911319732666 301.4631042480469 17.350589752197266 C 284.5817565917969 -17.923948287963867 286.045166015625 -24.4989070892334 293.08319091796875 -17.487600326538086" stroke-width="6.0" fill="none" stroke="rgb(0, 0, 0)" stroke-opacity="0.008208288" stroke-linecap="round" stroke-linejoin="round"/>
    <path d="M 47.34741973876953 45.16580581665039 C 16.4306697845459 34.93460464477539 39.82293701171875 54.84181213378906 68.16751098632812 24.348115921020508 C 71.12603759765625 13.186798095703125 91.87130737304688 19.806045532226562 80.58765411376953 23.97930335998535 C 86.40140533447266 22.42351722717285 55.47129821777344 16.863243103027344 69.59739685058594 30.870145797729492 C 53.9741096496582 24.81304931640625 58.0969123840332 26.841899871826172 80.92401123046875 27.532194137573242" stroke-width="6.0" fill="none" stroke="rgb(0, 0, 0)" stroke-opacity="0.006157595" stroke-linecap="round" stroke-linejoin="round"/>
    <path d="M -12.233208656311035 112.53318786621094 C 4.598235607147217 120.53565979003906 -14.94736385345459 107.8418197631836 -24.54078483581543 132.46083068847656 C -23.02311897277832 114.36479949951172 -44.571815490722656 90.6071548461914 -48.08953094482422 98.09908294677734 C -31.746532440185547 114.95281219482422 -33.139732360839844 101.06614685058594 -54.725223541259766 83.84097290039062 C -33.029354095458984 69.7850112915039 -22.612262725830078 46.86600875854492 -5.260847568511963 51.15304183959961" stroke-width="6.0" fill="none" stroke="rgb(0, 0, 0)" stroke-opacity="0.093322076" stroke-linecap="round" stroke-linejoin="round"/>
    <path d="M 279.64447021484375 214.4147491455078 C 278.871826171875 297.4163513183594 290.82928466796875 331.1214904785156 278.4471435546875 319.3447265625 C 284.1446838378906 328.5542907714844 277.4208068847656 275.4965515136719 283.2720947265625 263.8773193359375 C 260.9468688964844 268.4848327636719 254.067138671875 259.55419921875 257.26751708984375 271.7229919433594 C 244.21530151367188 334.8753967285156 261.5623474121094 365.0879211425781 264.4906311035156 219.33651733398438" stroke-width="6.0" fill="none" stroke="rgb(0, 0, 0)" stroke-opacity="0.99369556" stroke-linecap="round" stroke-linejoin="round"/>
    <path d="M -3.1801369190216064 401.87115478515625 C -14.151643753051758 389.67657470703125 -14.034371376037598 388.8105163574219 -32.15254592895508 358.6021728515625 C -15.349411964416504 351.1644592285156 -42.62289047241211 326.0682678222656 -27.42780303955078 305.4630432128906 C -32.63261032104492 305.88812255859375 -43.15728759765625 282.9639587402344 -64.45215606689453 299.485595703125 C -55.387298583984375 306.1491394042969 -39.562171936035156 326.5909118652344 -34.95169448852539 334.1595153808594" stroke-width="6.0" fill="none" stroke="rgb(0, 0, 0)" stroke-opacity="0.0" stroke-linecap="round" stroke-linejoin="round"/>
    <path d="M 109.03620910644531 66.42861938476562 C 120.46512603759766 82.15990447998047 113.8397216796875 53.8707389831543 90.01805114746094 52.01094436645508 C 103.54068756103516 38.43092727661133 103.31991577148438 18.62438201904297 107.58401489257812 4.961665630340576 C 110.37325286865234 24.072423934936523 82.6973876953125 43.08845138549805 63.4571418762207 73.85859680175781 C 81.4863510131836 103.1827392578125 65.26395416259766 66.7154541015625 48.506595611572266 78.39798736572266" stroke-width="6.0" fill="none" stroke="rgb(0, 0, 0)" stroke-opacity="0.0" stroke-linecap="round" stroke-linejoin="round"/>
    <path d="M 124.1378402709961 282.8995361328125 C 134.3602752685547 270.4429931640625 108.84553527832031 271.0159606933594 101.78439331054688 237.00759887695312 C 90.7547836303711 254.29669189453125 124.06488800048828 278.91082763671875 127.95893096923828 280.1510925292969 C 129.86964416503906 251.80763244628906 156.4604034423828 280.5235900878906 106.2361068725586 241.06021118164062 C 113.759521484375 246.4109344482422 101.12507629394531 248.20130920410156 88.01313018798828 202.1595916748047" stroke-width="6.0" fill="none" stroke="rgb(0, 0, 0)" stroke-opacity="0.0" stroke-linecap="round" stroke-linejoin="round"/>
    <path d="M 535.468505859375 377.45404052734375 C 530.6834716796875 377.4780578613281 553.076171875 370.6579284667969 533.1024169921875 337.27752685546875 C 540.9712524414062 300.5139465332031 561.6837158203125 288.6141052246094 578.0096435546875 317.4939880371094 C 583.5126342773438 305.2696838378906 579.672607421875 298.1212463378906 537.4240112304688 283.72186279296875 C 556.8341674804688 259.4584655761719 537.51220703125 279.4270324707031 518.5877075195312 264.59454345703125" stroke-width="6.0" fill="none" stroke="rgb(0, 0, 0)" stroke-opacity="0.0" stroke-linecap="round" stroke-linejoin="round"/>
    <path d="M 370.5326843261719 422.0400085449219 C 361.72265625 439.59222412109375 331.04931640625 434.00103759765625 381.84820556640625 438.3326721191406 C 367.8872985839844 445.95654296875 378.896240234375 451.0966491699219 387.6427307128906 409.1313781738281 C 334.2331237792969 409.2326354980469 357.4923400878906 411.0687561035156 316.14105224609375 394.02813720703125 C 278.8940734863281 329.101318359375 322.23089599609375 311.3608093261719 370.4034729003906 354.04632568359375" stroke-width="6.0" fill="none" stroke="rgb(0, 0, 0)" stroke-opacity="0.0" stroke-linecap="round" stroke-linejoin="round"/>
    <path d="M 313.3682556152344 371.58538818359375 C 337.1534118652344 413.1095275878906 312.56658935546875 440.86871337890625 250.11607360839844 435.90740966796875 C 217.30421447753906 506.1534423828125 205.87692260742188 478.79180908203125 304.21429443359375 481.5642395019531 C 319.90155029296875 465.4261169433594 309.955810546875 493.29351806640625 315.72711181640625 510.6523742675781 C 320.4133605957031 480.4938049316406 334.66607666015625 431.27362060546875 285.0655212402344 436.00732421875" stroke-width="6.0" fill="none" stroke="rgb(0, 0, 0)" stroke-opacity="0.9452667" stroke-linecap="round" stroke-linejoin="round"/>
    <path d="M 506.83673095703125 363.5804443359375 C 498.5162658691406 355.8937683105469 493.6976623535156 334.90557861328125 508.3984375 356.6830139160156 C 533.077880859375 375.9566955566406 525.621337890625 379.42596435546875 493.3141174316406 354.0223388671875 C 540.3773193359375 342.5581970214844 514.9258422851562 367.3921813964844 498.18145751953125 343.4300842285156 C 525.8519287109375 378.4957275390625 539.4345092773438 395.2615966796875 531.5025634765625 379.9518127441406" stroke-width="6.0" fill="none" stroke="rgb(0, 0, 0)" stroke-opacity="0.0" stroke-linecap="round" stroke-linejoin="round"/>
    <path d="M 571.5888061523438 165.54017639160156 C 587.5847778320312 169.37876892089844 614.4515380859375 168.0727996826172 654.9056396484375 169.65931701660156 C 605.27001953125 170.77349853515625 599.185791015625 187.09608459472656 610.6254272460938 174.3274383544922 C 606.7415161132812 158.79434204101562 621.9920654296875 187.85052490234375 623.94580078125 177.62196350097656 C 610.615966796875 165.18971252441406 600.0270385742188 147.18753051757812 617.8243408203125 119.41203308105469" stroke-width="6.0" fill="none" stroke="rgb(0, 0, 0)" stroke-opacity="0.013932459" stroke-linecap="round" stroke-linejoin="round"/>
    <path d="M 362.6202087402344 533.3225708007812 C 406.5567932128906 551.05615234375 403.32666015625 564.8239135742188 363.7919006347656 500.8604736328125 C 345.2932434082031 535.3839111328125 375.28936767578125 547.1014404296875 393.5699157714844 597.0244750976562 C 393.2892150878906 578.7581787109375 356.16571044921875 581.8021240234375 323.939697265625 584.1741333007812 C 371.9736328125 582.0602416992188 332.42889404296875 582.3776245117188 336.912841796875 583.1961059570312" stroke-width="6.0" fill="none" stroke="rgb(0, 0, 0)" stroke-opacity="1.0" stroke-linecap="round" stroke-linejoin="round"/>
    <path d="M 227.42245483398438 182.4097137451172 C 245.3516387939453 177.6522216796875 265.4709777832031 159.32485961914062 271.12890625 177.0094451904297 C 257.4013671875 164.4005584716797 253.00424194335938 166.02606201171875 284.4017028808594 141.40589904785156 C 287.0242919921875 166.42034912109375 284.1387939453125 194.60208129882812 260.9566345214844 216.16929626464844 C 288.99639892578125 192.8309783935547 306.9088439941406 187.376708984375 283.749755859375 183.7060089111328" stroke-width="6.0" fill="none" stroke="rgb(0, 0, 0)" stroke-opacity="0.0" stroke-linecap="round" stroke-linejoin="round"/>
    <path d="M 330.9393615722656 69.6063461303711 C 296.5286865234375 50.8232421875 311.9193115234375 57.061527252197266 301.52593994140625 73.85073852539062 C 310.83154296875 64.02578735351562 337.44830322265625 62.14933776855469 324.50732421875 89.91631317138672 C 371.69189453125 100.13311767578125 366.0025939941406 110.97097778320312 370.84600830078125 61.76251983642578 C 382.23431396484375 44.94605255126953 356.73614501953125 17.454404830932617 347.0555114746094 42.17479705810547" stroke-width="6.0" fill="none" stroke="rgb(0, 0, 0)" stroke-opacity="0.0" stroke-linecap="round" stroke-linejoin="round"/>
    <path d="M 357.47271728515625 259.8864440917969 C 379.5193786621094 257.0516662597656 398.8598937988281 265.48309326171875 399.9649658203125 247.77590942382812 C 398.6604919433594 224.18446350097656 353.7479553222656 235.15052795410156 394.88153076171875 240.31578063964844 C 414.00384521484375 207.40805053710938 371.18719482421875 212.12513732910156 392.1997375488281 180.44264221191406 C 376.3257751464844 170.909912109375 392.9605712890625 163.06594848632812 381.2575378417969 154.45257568359375" stroke-width="6.0" fill="none" stroke="rgb(0, 0, 0)" stroke-opacity="0.005576334" stroke-linecap="round" stroke-linejoin="round"/>
    <path d="M 42.78742980957031 550.6954345703125 C 77.42156982421875 553.2911987304688 42.854217529296875 544.2857666015625 38.22105026245117 519.9111938476562 C 31.289684295654297 535.9847412109375 60.133384704589844 510.27197265625 75.4388198852539 529.6290893554688 C 37.501182556152344 543.2498168945312 41.06587219238281 558.1766357421875 75.60599517822266 556.2640991210938 C 61.559871673583984 564.7371826171875 101.78386688232422 574.8099975585938 83.76045227050781 612.2471313476562" stroke-width="6.0" fill="none" stroke="rgb(0, 0, 0)" stroke-opacity="0.0" stroke-linecap="round" stroke-linejoin="round"/>
    <path d="M 48.98781204223633 285.9232177734375 C 44.949623107910156 294.51617431640625 47.5555305480957 266.53985595703125 84.35507202148438 264.6233215332031 C 59.90984344482422 252.98529052734375 78.95574188232422 274.7557373046875 80.06027221679688 299.4102783203125 C 99.86378479003906 321.23870849609375 93.25867462158203 323.7452697753906 102.01624298095703 298.19366455078125 C 89.37321472167969 297.46337890625 69.15764617919922 319.9029846191406 62.29327392578125 352.6931457519531" stroke-width="6.0" fill="none" stroke="rgb(0, 0, 0)" stroke-opacity="0.0" stroke-linecap="round" stroke-linejoin="round"/>
    <path d="M 59.052886962890625 17.58099937438965 C 66.25643920898438 66.95570373535156 67.96162414550781 33.14487075805664 53.9023323059082 25.91118812561035 C 99.18885803222656 12.828081130981445 87.2137222290039 -19.613767623901367 32.01477813720703 -7.1651763916015625 C 23.38030242919922 35.14225769042969 51.95416259765625 56.61488723754883 63.61946105957031 35.48088455200195 C 56.28488540649414 29.2004451751709 69.62725830078125 7.552143096923828 85.4521713256836 32.218013763427734" stroke-width="6.0" fill="none" stroke="rgb(0, 0, 0)" stroke-opacity="0.024755772" stroke-linecap="round" stroke-linejoin="round"/>
    <path d="M 416.37518310546875 4.6478962898254395 C 403.7594909667969 31.797290802001953 406.4403991699219 27.596277236938477 401.8272399902344 31.57367706298828 C 423.9129638671875 5.71604061126709 422.2457580566406 -4.635013103485107 415.7987060546875 19.000730514526367 C 414.29412841796875 32.70018005371094 433.08111572265625 -1.657611608505249 467.22247314453125 -2.2218871116638184 C 462.424072265625 39.7855339050293 463.8070068359375 21.84671401977539 435.6946716308594 10.56505298614502" stroke-width="6.0" fill="none" stroke="rgb(0, 0, 0)" stroke-opacity="0.0054356665" stroke-linecap="round" stroke-linejoin="round"/>
    <path d="M 267.1616516113281 140.5042724609375 C 249.7924041748047 161.05087280273438 240.3665313720703 152.1831817626953 238.486083984375 151.549072265625 C 284.640869140625 127.541015625 251.8052215576172 131.78817749023438 215.38818359375 117.44660186767578 C 207.68621826171875 119.67064666748047 199.38095092773438 116.63460540771484 214.7538604736328 120.25415802001953 C 224.7010040283203 158.43304443359375 235.3707275390625 151.53884887695312 251.61770629882812 146.36143493652344" stroke-width="6.0" fill="none" stroke="rgb(0, 0, 0)" stroke-opacity="0.0011235154" stroke-linecap="round" stroke-linejoin="round"/>
    <path d="M 103.15565490722656 197.5657196044922 C 111.67469787597656 209.6057586669922 94.91191864013672 235.50502014160156 99.97566986083984 258.9621276855469 C 116.20105743408203 228.80274963378906 138.36306762695312 211.4447021484375 112.04554748535156 136.302001953125 C 88.04562377929688 171.1420135498047 73.8460922241211 166.36785888671875 109.62190246582031 151.2779998779297 C 126.3798599243164 192.14073181152344 116.66091918945312 190.08372497558594 111.07511138916016 170.82821655273438" stroke-width="6.0" fill="none" stroke="rgb(0, 0, 0)" stroke-opacity="0.0" stroke-linecap="round" stroke-linejoin="round"/>
    <path d="M 154.7262725830078 611.3665771484375 C 156.07386779785156 612.4984741210938 166.34703063964844 599.8306884765625 202.72128295898438 618.4680786132812 C 213.00006103515625 603.3636474609375 216.9858856201172 606.1983032226562 180.3126678466797 609.1389770507812 C 177.9761199951172 604.3008422851562 206.67274475097656 631.759521484375 221.75804138183594 651.4593505859375 C 226.12954711914062 638.9453125 199.12461853027344 645.6094970703125 185.8860321044922 674.1658935546875" stroke-width="6.0" fill="none" stroke="rgb(0, 0, 0)" stroke-opacity="0.77182955" stroke-linecap="round" stroke-linejoin="round"/>
    <path d="M 248.00489807128906 342.2422790527344 C 274.2227783203125 342.23077392578125 340.97540283203125 331.1959533691406 284.0894470214844 337.2967834472656 C 273.5029296875 296.770263671875 330.5650939941406 264.1878967285156 351.3100280761719 299.0478820800781 C 277.679443359375 347.66009521484375 287.504150390625 367.09661865234375 299.0477294921875 345.458740234375 C 286.5460205078125 370.9271240234375 305.2677307128906 359.6473083496094 303.28411865234375 337.6568603515625" stroke-width="6.0" fill="none" stroke="rgb(0, 0, 0)" stroke-opacity="0.8111116" stroke-linecap="round" stroke-linejoin="round"/>
    <path d="M 568.9169921875 314.25628662109375 C 569.0392456054688 314.96759033203125 588.163330078125 321.015869140625 616.6660766601562 330.93426513671875 C 598.7631225585938 340.0790710449219 612.1103515625 346.75958251953125 586.9871826171875 363.7787780761719 C 562.6054077148438 345.83966064453125 553.7529296875 348.9931335449219 551.0633544921875 405.81610107421875 C 567.5208740234375 432.551513671875 591.1968383789062 421.5828552246094 640.5625610351562 430.453857421875" stroke-width="6.0" fill="none" stroke="rgb(0, 0, 0)" stroke-opacity="0.0044559166" stroke-linecap="round" stroke-linejoin="round"/>
    <path d="M 91.9988021850586 130.27786254882812 C 79.79605865478516 106.52816009521484 73.0364761352539 88.65980529785156 88.2322769165039 123.34893035888672 C 91.12360382080078 119.59671020507812 82.717529296875 96.57960510253906 81.76118469238281 115.4654541015625 C 91.99542236328125 135.86244201660156 74.9028549194336 85.0103759765625 78.80326080322266 104.41606903076172 C 75.2542724609375 113.1788101196289 84.98777770996094 116.39203643798828 93.609130859375 114.21845245361328" stroke-width="6.0" fill="none" stroke="rgb(0, 0, 0)" stroke-opacity="0.0" stroke-linecap="round" stroke-linejoin="round"/>
    <path d="M 65.68431854248047 341.322509765625 C 67.3497543334961 314.4203796386719 30.795881271362305 336.4784851074219 64.67317962646484 320.0702209472656 C 88.8677749633789 332.3614196777344 97.83943176269531 319.63323974609375 75.33943176269531 345.3499450683594 C 103.03074645996094 346.0921630859375 105.62898254394531 375.81842041015625 101.56661224365234 388.83013916015625 C 116.2751693725586 398.7984619140625 121.8427734375 390.4930419921875 95.9838638305664 376.3054504394531" stroke-width="6.0" fill="none" stroke="rgb(0, 0, 0)" stroke-opacity="0.0" stroke-linecap="round" stroke-linejoin="round"/>
    <path d="M 518.9385375976562 292.2703552246094 C 526.192626953125 298.0819091796875 507.7955322265625 296.4288635253906 512.8240356445312 329.6694641113281 C 506.5520324707031 288.3066711425781 497.129638671875 296.9029846191406 517.2733764648438 311.25335693359375 C 537.0055541992188 270.9031677246094 522.0596313476562 282.06451416015625 518.9598999023438 313.55230712890625 C 504.0457458496094 353.5957946777344 530.9932861328125 370.27056884765625 523.1926879882812 357.6583557128906" stroke-width="6.0" fill="none" stroke="rgb(0, 0, 0)" stroke-opacity="0.0" stroke-linecap="round" stroke-linejoin="round"/>
    <path d="M 472.5664367675781 121.82666015625 C 459.29742431640625 132.9868621826172 475.3339538574219 137.64340209960938 470.7739562988281 102.97382354736328 C 459.51849365234375 137.99168395996094 476.4828186035156 134.5756072998047 459.8951110839844 90.8578872680664 C 472.0159912109375 104.42829132080078 451.83660888671875 68.23789978027344 457.8035583496094 93.72233581542969 C 422.78436279296875 100.3553237915039 395.5888671875 114.63604736328125 402.5675354003906 108.53369140625" stroke-width="6.0" fill="none" stroke="rgb(0, 0, 0)" stroke-opacity="0.0" stroke-linecap="round" stroke-linejoin="round"/>
    <path d="M 201.35804748535156 203.4880828857422 C 188.9505615234375 170.4961395263672 194.5554962158203 191.69558715820312 201.63572692871094 195.47555541992188 C 189.53448486328125 179.7071075439453 193.14361572265625 153.421142578125 209.12432861328125 106.28170776367188 C 211.6884765625 159.0456085205078 215.49668884277344 163.30316162109375 195.01051330566406 141.0100555419922 C 222.0468292236328 101.6529312133789 203.67832946777344 105.70069122314453 215.3040771484375 109.6640625" stroke-width="6.0" fill="none" stroke="rgb(0, 0, 0)" stroke-opacity="0.0" stroke-linecap="round" stroke-linejoin="round"/>
    <path d="M 268.8067626953125 91.81299591064453 C 265.2510070800781 157.89759826660156 269.76116943359375 134.46844482421875 270.7886047363281 26.62592887878418 C 292.96728515625 66.50923156738281 298.3353271484375 134.19467163085938 272.0019836425781 118.92053985595703 C 268.19635009765625 140.59378051757812 265.5008239746094 213.53866577148438 260.8147888183594 211.05166625976562 C 261.23004150390625 215.80856323242188 201.2289581298828 220.62733459472656 162.4013214111328 226.99375915527344" stroke-width="6.0" fill="none" stroke="rgb(0, 0, 0)" stroke-opacity="0.97645915" stroke-linecap="round" stroke-linejoin="round"/>
    <path d="M 105.25038146972656 53.86829376220703 C 91.90491485595703 45.74766540527344 111.08504486083984 63.121665954589844 93.09771728515625 68.0554428100586 C 131.30230712890625 68.00232696533203 98.76557922363281 62.32496643066406 106.53022003173828 32.24203872680664 C 74.32060241699219 24.6393985748291 85.54216003417969 5.013805866241455 70.81680297851562 -31.00707244873047 C 128.49014282226562 3.62605357170105 142.98768615722656 -8.624905586242676 127.34407043457031 -11.349940299987793" stroke-width="6.0" fill="none" stroke="rgb(0, 0, 0)" stroke-opacity="0.0" stroke-linecap="round" stroke-linejoin="round"/>
    <path d="M 327.2082214355469 428.4420471191406 C 378.3846435546875 431.6581115722656 356.77777099609375 442.7554931640625 302.92724609375 434.1571044921875 C 336.1549072265625 410.6201171875 320.200439453125 447.33941650390625 327.6161804199219 485.4555969238281 C 356.33721923828125 467.3741760253906 347.2335205078125 459.8115539550781 326.488525390625 504.0673522949219 C 349.4272155761719 528.4921264648438 366.240478515625 563.0653686523438 404.0180358886719 584.328857421875" stroke-width="6.0" fill="none" stroke="rgb(0, 0, 0)" stroke-opacity="1.0" stroke-linecap="round" stroke-linejoin="round"/>
  </g>
</svg>
