<?xml version="1.0" ?>
<svg xmlns="http://www.w3.org/2000/svg" version="1.1" width="600" height="600">
  <defs/>
  <g>
    <path d="M 404.5672607421875 572.8521118164062 C 399.01300048828125 628.4351806640625 393.7738952636719 638.8358764648438 308.99432373046875 618.5098266601562 C 267.1673889160156 616.720458984375 241.54281616210938 611.1563720703125 215.1487274169922 588.9249267578125 C 247.70947265625 469.2451171875 253.5508270263672 461.8093566894531 361.6447448730469 468.0663146972656 C 384.294677734375 490.3394775390625 374.0765380859375 508.5349426269531 404.5672607421875 572.8521118164062" stroke-width="0.0" fill="rgb(0, 0, 7)" opacity="1.0"/>
    <path d="M 565.2772827148438 322.6845703125 C 549.3624267578125 299.80853271484375 537.9656982421875 302.69720458984375 552.1817016601562 330.31011962890625 C 541.672607421875 330.898681640625 540.6825561523438 328.4746398925781 545.4617309570312 346.4747619628906 C 516.1707153320312 334.0104675292969 553.4830932617188 341.84368896484375 545.9136352539062 336.0504150390625 C 530.1152954101562 333.3562316894531 541.5435791015625 325.69818115234375 565.2772827148438 322.6845703125" stroke-width="0.0" fill="rgb(255, 230, 244)" opacity="0.016434783"/>
    <path d="M 440.8359375 132.32928466796875 C 428.8192443847656 113.69184875488281 427.2685241699219 116.14153289794922 412.89837646484375 122.7877426147461 C 412.1883239746094 106.47608184814453 413.2261047363281 96.94239807128906 371.07763671875 97.54739379882812 C 372.67431640625 92.88118743896484 393.4482727050781 109.10082244873047 425.75250244140625 109.06822204589844 C 432.57037353515625 105.15043640136719 446.1191101074219 124.97447967529297 440.8359375 132.32928466796875" stroke-width="0.0" fill="rgb(122, 251, 205)" opacity="0.0143901445"/>
    <path d="M 289.7688903808594 373.0079040527344 C 292.3909606933594 473.757568359375 286.732177734375 489.42218017578125 159.5847930908203 450.8817443847656 C 152.85813903808594 436.21038818359375 167.22845458984375 411.2225036621094 169.64109802246094 403.7116394042969 C 176.83770751953125 391.91162109375 182.40087890625 372.73272705078125 199.4357452392578 338.9958801269531 C 207.36276245117188 277.6895751953125 257.0536193847656 281.3807678222656 289.7688903808594 373.0079040527344" stroke-width="0.0" fill="rgb(249, 101, 4)" opacity="0.9804823"/>
    <path d="M 124.49039459228516 228.29112243652344 C 112.89567565917969 255.6735076904297 94.70675659179688 244.75404357910156 97.23561096191406 209.07383728027344 C 102.1457290649414 223.5567169189453 71.28248596191406 222.2958526611328 22.794357299804688 196.53134155273438 C 11.787436485290527 165.58865356445312 25.988510131835938 162.9454803466797 66.73429870605469 161.37994384765625 C 110.65863037109375 168.0353240966797 115.96781921386719 193.81155395507812 124.49039459228516 228.29112243652344" stroke-width="0.0" fill="rgb(232, 249, 255)" opacity="0.020040577"/>
    <path d="M 355.9746398925781 33.64747619628906 C 331.0146179199219 59.400596618652344 325.3029479980469 74.56985473632812 311.522705078125 73.36050415039062 C 308.2719421386719 63.30585861206055 301.73492431640625 68.72895812988281 294.3758544921875 33.15824508666992 C 281.1172790527344 29.077945709228516 294.17138671875 5.888463973999023 289.65386962890625 -16.618656158447266 C 353.96002197265625 -11.687701225280762 369.17913818359375 -2.5445826053619385 355.9746398925781 33.64747619628906" stroke-width="0.0" fill="rgb(248, 255, 228)" opacity="0.00043419277"/>
    <path d="M 568.8219604492188 506.1166076660156 C 550.1716918945312 560.5664672851562 553.3164672851562 591.156005859375 552.0509033203125 554.625732421875 C 524.9891357421875 522.3716430664062 508.668212890625 520.8206787109375 505.01959228515625 539.7522583007812 C 499.588134765625 518.8771362304688 494.823974609375 472.73260498046875 512.9241333007812 479.3052062988281 C 566.4511108398438 495.3884582519531 551.64111328125 492.892333984375 568.8219604492188 506.1166076660156" stroke-width="0.0" fill="rgb(255, 255, 245)" opacity="0.0"/>
    <path d="M -4.233721733093262 416.49456787109375 C -6.189174175262451 414.0901184082031 -3.3619377613067627 435.07257080078125 -9.910642623901367 431.0127868652344 C -0.011198767460882664 441.4840087890625 -13.850542068481445 451.14288330078125 -24.635480880737305 442.97296142578125 C -9.107256889343262 426.74462890625 4.227016448974609 421.79248046875 -5.886415004730225 345.58612060546875 C -1.3423293828964233 344.78143310546875 8.470062255859375 379.39697265625 -4.233721733093262 416.49456787109375" stroke-width="0.0" fill="rgb(108, 109, 102)" opacity="0.49136662"/>
    <path d="M 425.0721740722656 148.8139190673828 C 391.36273193359375 167.63186645507812 343.8468017578125 154.1456298828125 310.8173522949219 235.0335235595703 C 257.51983642578125 193.49119567871094 222.911865234375 181.8078155517578 181.156982421875 168.86740112304688 C 280.78887939453125 116.7440185546875 300.5118103027344 116.76423645019531 312.0552673339844 92.63256072998047 C 326.76593017578125 86.56221008300781 347.0702209472656 83.07013702392578 425.0721740722656 148.8139190673828" stroke-width="0.0" fill="rgb(224, 91, 0)" opacity="0.9877843"/>
    <path d="M 610.2525024414062 512.6983032226562 C 633.024658203125 523.2088012695312 617.2049560546875 506.2090148925781 604.6809692382812 486.4361572265625 C 569.2763061523438 492.3115234375 558.8558349609375 506.76934814453125 569.5780639648438 510.4710998535156 C 582.55859375 463.5121765136719 555.3560180664062 445.9671325683594 538.2708129882812 478.4315490722656 C 548.8880615234375 517.77197265625 566.7604370117188 517.051025390625 610.2525024414062 512.6983032226562" stroke-width="0.0" fill="rgb(255, 255, 223)" opacity="0.008721518"/>
    <path d="M 623.8001708984375 462.1427307128906 C 627.7018432617188 491.5574951171875 634.1139526367188 512.7817993164062 571.0075073242188 545.9896850585938 C 547.1998291015625 524.91455078125 545.8264770507812 477.2276916503906 576.2579956054688 465.8731689453125 C 575.4188232421875 467.4651794433594 580.3773803710938 434.4342956542969 602.810302734375 426.61181640625 C 612.3558349609375 433.0489196777344 618.2610473632812 441.66900634765625 623.8001708984375 462.1427307128906" stroke-width="0.0" fill="rgb(241, 255, 177)" opacity="0.003204118"/>
    <path d="M 552.5628662109375 470.76959228515625 C 522.0301513671875 470.927001953125 500.55926513671875 455.3807067871094 524.319091796875 464.012939453125 C 453.9879455566406 489.3381042480469 422.43804931640625 506.5747985839844 395.4601135253906 467.332275390625 C 429.66058349609375 364.1526184082031 437.51849365234375 378.2475891113281 511.20355224609375 368.2579345703125 C 551.0632934570312 366.7054748535156 555.4942626953125 387.99017333984375 552.5628662109375 470.76959228515625" stroke-width="0.0" fill="rgb(255, 255, 207)" opacity="0.0"/>
    <path d="M 417.19683837890625 265.0116271972656 C 438.9832763671875 328.2106018066406 401.9683837890625 317.0287780761719 387.7358703613281 336.9791564941406 C 302.56451416015625 348.7141418457031 297.3598937988281 353.47381591796875 294.7095642089844 278.99322509765625 C 333.5889892578125 250.34628295898438 354.7525329589844 243.67713928222656 377.9906311035156 249.8768768310547 C 421.2754211425781 222.13844299316406 429.09576416015625 219.94021606445312 417.19683837890625 265.0116271972656" stroke-width="0.0" fill="rgb(0, 0, 22)" opacity="1.0"/>
    <path d="M 485.3885192871094 110.44401550292969 C 520.9517211914062 116.24504089355469 496.03839111328125 138.88177490234375 477.6962585449219 121.6431884765625 C 448.9833679199219 139.56690979003906 432.4248352050781 132.8685302734375 439.9850158691406 145.0180206298828 C 443.8180847167969 121.24490356445312 457.5480651855469 102.54595184326172 454.1492614746094 97.15837860107422 C 457.5827331542969 94.29873657226562 460.06488037109375 117.34598541259766 485.3885192871094 110.44401550292969" stroke-width="0.0" fill="rgb(127, 2, 196)" opacity="0.82303774"/>
    <path d="M 619.369140625 524.1493530273438 C 616.0066528320312 532.31005859375 612.632568359375 533.64794921875 603.9988403320312 479.747802734375 C 576.7208862304688 479.4211120605469 568.072265625 481.63818359375 578.6010131835938 500.2702941894531 C 563.98486328125 489.67156982421875 557.1260986328125 508.52618408203125 599.4151611328125 517.1512451171875 C 603.1907958984375 483.8898620605469 613.0360107421875 498.10107421875 619.369140625 524.1493530273438" stroke-width="0.0" fill="rgb(245, 254, 240)" opacity="0.0"/>
    <path d="M 416.98687744140625 504.786376953125 C 429.9306640625 515.9376831054688 427.09490966796875 503.8524169921875 405.9601135253906 512.8990478515625 C 352.75921630859375 508.9697265625 351.48968505859375 517.364501953125 303.2734069824219 472.77423095703125 C 295.7862548828125 415.8137512207031 328.00640869140625 408.6755065917969 361.88238525390625 412.86309814453125 C 391.7843322753906 467.5746154785156 399.10015869140625 479.0530090332031 416.98687744140625 504.786376953125" stroke-width="0.0" fill="rgb(54, 0, 39)" opacity="1.0"/>
    <path d="M 570.8409423828125 406.9833984375 C 578.6107177734375 426.429931640625 571.7108154296875 412.2469787597656 582.4505615234375 413.271484375 C 560.9866333007812 418.87408447265625 564.7704467773438 379.827880859375 581.3526611328125 394.6025695800781 C 564.567138671875 427.70526123046875 566.2551879882812 418.8536682128906 587.734619140625 404.2518615722656 C 569.7195434570312 423.72857666015625 566.323486328125 433.2365417480469 570.8409423828125 406.9833984375" stroke-width="0.0" fill="rgb(222, 249, 246)" opacity="0.0"/>
    <path d="M 458.9258117675781 81.2219009399414 C 449.4416809082031 89.98695373535156 419.28314208984375 81.04004669189453 420.3566589355469 111.61083984375 C 413.3424072265625 126.83760833740234 361.40716552734375 126.79144287109375 310.6900329589844 94.91698455810547 C 333.8120422363281 7.905365943908691 357.82208251953125 11.480070114135742 369.616943359375 7.334024429321289 C 466.24334716796875 -0.9288412928581238 461.8270263671875 -3.2484066486358643 458.9258117675781 81.2219009399414" stroke-width="0.0" fill="rgb(227, 191, 109)" opacity="0.019402537"/>
    <path d="M 157.8932342529297 44.736541748046875 C 149.09661865234375 54.15348434448242 152.54969787597656 80.99532318115234 150.31507873535156 105.27490234375 C 173.98895263671875 99.4082260131836 180.01979064941406 80.12867736816406 161.8906707763672 87.99088287353516 C 161.28306579589844 82.44398498535156 190.8544921875 99.35840606689453 209.377197265625 81.2702407836914 C 170.87725830078125 61.66813278198242 189.15895080566406 66.92108917236328 157.8932342529297 44.736541748046875" stroke-width="0.0" fill="rgb(128, 219, 90)" opacity="0.09263548"/>
    <path d="M 160.76730346679688 404.722900390625 C 175.4862060546875 443.4934387207031 137.68055725097656 490.0481872558594 115.93877410888672 465.47027587890625 C 65.14139556884766 456.5281066894531 64.69373321533203 469.95989990234375 69.02760314941406 415.7129821777344 C 64.4344711303711 382.2688903808594 70.70274353027344 377.5231628417969 93.86685943603516 337.8296813964844 C 165.48849487304688 340.024658203125 159.0213623046875 374.5784606933594 160.76730346679688 404.722900390625" stroke-width="0.0" fill="rgb(240, 228, 202)" opacity="0.0"/>
    <path d="M 72.94734191894531 281.34674072265625 C 92.43480682373047 266.4131164550781 77.74568176269531 250.8815155029297 84.34272003173828 265.9219665527344 C 81.36328887939453 251.91136169433594 85.60865020751953 267.4634704589844 71.8303451538086 288.1963195800781 C 66.02416229248047 264.60528564453125 87.30303192138672 253.57228088378906 59.83683395385742 226.06507873535156 C 50.5432243347168 216.73825073242188 57.15471267700195 230.73048400878906 72.94734191894531 281.34674072265625" stroke-width="0.0" fill="rgb(255, 255, 254)" opacity="0.0"/>
    <path d="M 333.2214050292969 418.326904296875 C 365.37103271484375 426.13739013671875 371.9402160644531 432.53936767578125 317.6681823730469 424.7043762207031 C 299.25531005859375 426.2370300292969 285.34539794921875 420.57232666015625 278.0559997558594 388.2919616699219 C 277.3657531738281 373.92828369140625 301.07891845703125 379.73583984375 344.55023193359375 377.6764221191406 C 344.9646911621094 388.7066345214844 348.2633056640625 416.7281799316406 333.2214050292969 418.326904296875" stroke-width="0.0" fill="rgb(125, 28, 85)" opacity="0.9378237"/>
    <path d="M 337.8361511230469 74.15101623535156 C 294.4670715332031 124.16686248779297 264.7685241699219 111.52347564697266 254.7987823486328 108.71238708496094 C 233.20428466796875 106.48955535888672 219.35072326660156 104.80152893066406 186.22154235839844 64.75630187988281 C 186.49476623535156 40.05855178833008 189.08261108398438 18.774620056152344 211.44430541992188 -27.4398250579834 C 318.5780944824219 2.859839677810669 335.6833801269531 5.795504570007324 337.8361511230469 74.15101623535156" stroke-width="0.0" fill="rgb(252, 255, 228)" opacity="0.0"/>
    <path d="M 419.411376953125 234.89642333984375 C 457.50653076171875 254.15296936035156 446.92791748046875 259.16552734375 421.0378723144531 240.64674377441406 C 406.696044921875 222.6085968017578 408.3473815917969 206.6598663330078 418.0593566894531 221.99105834960938 C 405.5808410644531 206.66896057128906 412.331787109375 201.74185180664062 420.8818054199219 189.37330627441406 C 412.3885192871094 204.0689239501953 406.154296875 214.18710327148438 419.411376953125 234.89642333984375" stroke-width="0.0" fill="rgb(255, 255, 104)" opacity="0.29124522"/>
    <path d="M 613.695068359375 369.6868591308594 C 610.4473266601562 390.4237976074219 602.8147583007812 397.551513671875 612.0775756835938 396.9788818359375 C 613.4386596679688 378.8076477050781 610.404541015625 365.8454895019531 609.7340698242188 374.505126953125 C 602.0407104492188 388.3861999511719 612.0724487304688 378.5126647949219 625.8176879882812 379.26739501953125 C 612.6712646484375 350.2439270019531 619.6229858398438 357.8948974609375 613.695068359375 369.6868591308594" stroke-width="0.0" fill="rgb(108, 172, 91)" opacity="0.280256"/>
    <path d="M 224.7325897216797 16.35375213623047 C 206.32411193847656 36.981773376464844 196.8673553466797 46.18021011352539 188.02076721191406 55.10356903076172 C 175.4556427001953 110.28538513183594 157.08486938476562 114.28765869140625 154.86709594726562 51.86332702636719 C 163.7875518798828 35.257667541503906 172.60250854492188 39.833641052246094 213.20196533203125 34.36885452270508 C 208.0605010986328 7.608086585998535 219.88156127929688 3.155707836151123 224.7325897216797 16.35375213623047" stroke-width="0.0" fill="rgb(211, 253, 240)" opacity="0.01836286"/>
    <path d="M 526.6378784179688 330.6217346191406 C 500.4719543457031 314.3561096191406 489.95654296875 291.0928649902344 508.2785339355469 267.4187316894531 C 525.2676391601562 292.9771423339844 500.7645263671875 277.46337890625 470.74896240234375 285.3680419921875 C 488.5652770996094 302.3074645996094 516.3986206054688 299.44036865234375 523.167724609375 317.193359375 C 522.6641845703125 284.6596374511719 537.861328125 292.3827819824219 526.6378784179688 330.6217346191406" stroke-width="0.0" fill="rgb(255, 255, 251)" opacity="0.0037933877"/>
    <path d="M 92.12484741210938 436.10723876953125 C 102.18495178222656 489.1749572753906 93.32711791992188 508.3692626953125 37.11684799194336 520.19580078125 C -58.689239501953125 484.5243835449219 -56.57063293457031 476.6912536621094 -72.83345794677734 399.2467956542969 C -69.84683227539062 353.33807373046875 -58.57109451293945 356.38128662109375 17.03636360168457 342.9959411621094 C 80.19261169433594 354.19976806640625 81.8243408203125 361.4559020996094 92.12484741210938 436.10723876953125" stroke-width="0.0" fill="rgb(238, 244, 240)" opacity="0.01619698"/>
    <path d="M 395.9239501953125 247.99993896484375 C 383.7409973144531 233.34408569335938 366.3211975097656 223.4222412109375 362.3358459472656 193.29811096191406 C 355.9812927246094 191.7679901123047 384.0588073730469 203.40736389160156 370.81451416015625 198.98382568359375 C 365.12664794921875 220.51412963867188 386.1498107910156 214.03781127929688 400.76470947265625 197.12518310546875 C 402.14434814453125 203.86895751953125 409.1858825683594 201.67013549804688 395.9239501953125 247.99993896484375" stroke-width="0.0" fill="rgb(136, 247, 101)" opacity="0.02101602"/>
    <path d="M 580.8118286132812 453.2637634277344 C 577.2360229492188 492.1963195800781 551.512939453125 486.3765563964844 512.7890625 486.24884033203125 C 481.593017578125 488.3437805175781 483.7823181152344 491.5375671386719 475.2952575683594 434.5998229980469 C 499.8121643066406 424.8436584472656 522.17578125 430.075439453125 542.1431884765625 427.04449462890625 C 549.8823852539062 402.25634765625 565.907958984375 414.61761474609375 580.8118286132812 453.2637634277344" stroke-width="0.0" fill="rgb(255, 252, 241)" opacity="0.00566798"/>
    <path d="M 438.45867919921875 486.1046447753906 C 444.3428039550781 497.1642761230469 415.7974853515625 493.0233459472656 390.3577880859375 496.83453369140625 C 423.0049743652344 539.406494140625 423.7879943847656 524.1654663085938 425.3559875488281 519.9105224609375 C 424.1540222167969 493.5686950683594 436.49755859375 491.50811767578125 433.495361328125 481.8554992675781 C 400.76605224609375 478.9593811035156 402.4096374511719 483.5692138671875 438.45867919921875 486.1046447753906" stroke-width="0.0" fill="rgb(255, 228, 69)" opacity="0.18469459"/>
    <path d="M 400.6385498046875 481.9765930175781 C 422.87652587890625 479.4894104003906 440.9613952636719 490.9345703125 424.25445556640625 479.57830810546875 C 402.5065002441406 476.47137451171875 386.9409484863281 467.0144348144531 365.7872619628906 442.865478515625 C 396.10247802734375 411.4158630371094 415.1071472167969 423.5664367675781 385.49505615234375 402.8614501953125 C 407.17315673828125 407.0347900390625 389.20281982421875 410.1761474609375 400.6385498046875 481.9765930175781" stroke-width="0.0" fill="rgb(218, 246, 28)" opacity="0.04579674"/>
    <path d="M 436.2033386230469 488.086181640625 C 435.4834899902344 481.0357971191406 422.8929138183594 505.67950439453125 415.8553161621094 539.3511962890625 C 397.336181640625 522.5931396484375 388.1823425292969 504.9074401855469 416.44281005859375 508.1172790527344 C 408.2251281738281 491.93878173828125 406.9584045410156 469.4290466308594 389.8779602050781 473.0721740722656 C 414.8338928222656 484.43707275390625 435.0478820800781 486.38018798828125 436.2033386230469 488.086181640625" stroke-width="0.0" fill="rgb(237, 140, 75)" opacity="0.60435015"/>
    <path d="M 164.06100463867188 225.87620544433594 C 157.01219177246094 259.7906494140625 143.09544372558594 262.1008605957031 110.06470489501953 269.9171142578125 C 110.60601806640625 243.89218139648438 99.74799346923828 242.7874755859375 89.28140258789062 224.51754760742188 C 111.21680450439453 226.1842041015625 134.73423767089844 232.49485778808594 130.65399169921875 223.8619842529297 C 130.99913024902344 237.10354614257812 156.3878631591797 229.03292846679688 164.06100463867188 225.87620544433594" stroke-width="0.0" fill="rgb(255, 235, 247)" opacity="0.015669843"/>
    <path d="M 348.5314025878906 28.995311737060547 C 336.2381286621094 8.658487319946289 331.1432189941406 10.40501880645752 360.52587890625 15.39890193939209 C 328.7585144042969 -2.3252062797546387 315.8472900390625 0.4492231607437134 299.1355285644531 4.925059795379639 C 299.7381286621094 -2.8107004165649414 305.9834289550781 -15.818644523620605 343.2546081542969 -28.653766632080078 C 349.91546630859375 -31.201602935791016 347.0319519042969 -17.297304153442383 348.5314025878906 28.995311737060547" stroke-width="0.0" fill="rgb(251, 250, 150)" opacity="0.012743229"/>
    <path d="M 477.2056884765625 115.08719635009766 C 458.08758544921875 151.49139404296875 464.5887145996094 175.2665252685547 437.56365966796875 160.98419189453125 C 419.4388122558594 145.79527282714844 431.2327880859375 157.98744201660156 435.985595703125 148.8404083251953 C 437.26092529296875 139.732666015625 441.2821960449219 126.45848083496094 459.3028259277344 101.10005187988281 C 463.8124694824219 72.63452911376953 498.97283935546875 73.151123046875 477.2056884765625 115.08719635009766" stroke-width="0.0" fill="rgb(0, 0, 21)" opacity="1.0"/>
    <path d="M 155.0205078125 453.873046875 C 163.28445434570312 468.08636474609375 170.60794067382812 519.4957275390625 170.50674438476562 531.6431274414062 C 124.46443939208984 535.9461669921875 91.8986587524414 510.4421691894531 64.15602111816406 473.9951477050781 C 78.82183837890625 493.0019836425781 83.6819839477539 497.39007568359375 124.94901275634766 505.5884704589844 C 165.99325561523438 447.06915283203125 159.63864135742188 446.9797058105469 155.0205078125 453.873046875" stroke-width="0.0" fill="rgb(1, 0, 46)" opacity="1.0"/>
    <path d="M 205.0183563232422 202.61070251464844 C 213.30242919921875 209.12713623046875 185.3395233154297 182.27053833007812 178.05540466308594 197.14857482910156 C 169.8132781982422 212.76771545410156 149.2594451904297 200.6986541748047 135.50762939453125 193.73106384277344 C 152.055419921875 187.1680908203125 139.54290771484375 143.49961853027344 156.92486572265625 169.89927673339844 C 199.79014587402344 168.66958618164062 206.78887939453125 163.65252685546875 205.0183563232422 202.61070251464844" stroke-width="0.0" fill="rgb(255, 247, 164)" opacity="0.031992167"/>
    <path d="M 77.57394409179688 178.31185913085938 C 87.76580810546875 196.5414581298828 62.002010345458984 204.3538055419922 75.04254913330078 169.67666625976562 C 69.14124298095703 145.84548950195312 71.62183380126953 129.30072021484375 39.30509948730469 132.19288635253906 C 33.478965759277344 114.08214569091797 47.11980438232422 114.11282348632812 46.289207458496094 129.57162475585938 C 79.7291488647461 128.1380157470703 79.61624145507812 133.35618591308594 77.57394409179688 178.31185913085938" stroke-width="0.0" fill="rgb(255, 245, 255)" opacity="0.0"/>
    <path d="M 416.8586120605469 156.34317016601562 C 447.4949951171875 157.1298065185547 441.57843017578125 153.38987731933594 438.13348388671875 156.1649627685547 C 424.34100341796875 153.9329833984375 416.13177490234375 136.89845275878906 410.94146728515625 151.39584350585938 C 388.6412048339844 144.94686889648438 388.7841796875 131.78955078125 399.6744689941406 165.36468505859375 C 398.33978271484375 161.08041381835938 403.9641418457031 175.7655029296875 416.8586120605469 156.34317016601562" stroke-width="0.0" fill="rgb(214, 252, 2)" opacity="0.013907977"/>
    <path d="M 514.0797119140625 217.0449676513672 C 478.7292785644531 289.0149841308594 447.2760009765625 282.21502685546875 411.0805358886719 274.3187255859375 C 406.9767761230469 245.1541748046875 386.36114501953125 252.55430603027344 362.4501037597656 234.34295654296875 C 372.7378845214844 220.08348083496094 406.0043640136719 230.517333984375 470.1237487792969 145.2254638671875 C 483.163330078125 126.24110412597656 505.3526611328125 149.95433044433594 514.0797119140625 217.0449676513672" stroke-width="0.0" fill="rgb(255, 139, 15)" opacity="0.9250892"/>
    <path d="M 218.18212890625 98.7260971069336 C 190.5774383544922 168.02197265625 180.2329864501953 152.75436401367188 173.8311004638672 105.2626953125 C 144.22325134277344 92.42092895507812 156.3025360107422 94.7626724243164 140.3340301513672 84.26821899414062 C 171.05899047851562 105.49030303955078 179.2667999267578 118.84611511230469 170.5517578125 62.7204475402832 C 153.6484832763672 34.034095764160156 172.9260711669922 34.62519454956055 218.18212890625 98.7260971069336" stroke-width="0.0" fill="rgb(42, 34, 44)" opacity="1.0"/>
    <path d="M -5.125666618347168 208.8842010498047 C -1.9830944538116455 161.368896484375 -12.303888320922852 163.8027801513672 -0.9439958333969116 162.67520141601562 C -15.972756385803223 157.6753692626953 -23.7003231048584 165.25975036621094 0.2978929877281189 135.0115509033203 C 5.618847846984863 129.9789276123047 -2.277475595474243 148.3559112548828 3.837494373321533 159.15487670898438 C -2.837178945541382 183.7568359375 10.155661582946777 223.93284606933594 -5.125666618347168 208.8842010498047" stroke-width="0.0" fill="rgb(171, 153, 65)" opacity="0.28383717"/>
    <path d="M 567.7401123046875 526.1380615234375 C 582.7755126953125 497.3182678222656 581.9293823242188 470.3311462402344 571.1220092773438 434.76422119140625 C 518.1058959960938 455.3720703125 511.0895080566406 464.1191711425781 542.7139282226562 521.669189453125 C 566.1123657226562 502.75396728515625 570.6231689453125 489.1283874511719 545.6224975585938 470.0154724121094 C 546.393310546875 477.08441162109375 547.2030029296875 492.02301025390625 567.7401123046875 526.1380615234375" stroke-width="0.0" fill="rgb(255, 254, 241)" opacity="0.008805149"/>
    <path d="M 87.28667449951172 178.0901336669922 C 73.59553527832031 209.5478057861328 66.22258758544922 216.63206481933594 17.260637283325195 187.5536651611328 C -15.486742973327637 205.09176635742188 -22.95136070251465 217.02085876464844 -6.073382377624512 188.50823974609375 C 1.329979658126831 163.84613037109375 3.528021812438965 155.06045532226562 19.023086547851562 153.71189880371094 C 73.51641082763672 152.73899841308594 94.42948913574219 149.27903747558594 87.28667449951172 178.0901336669922" stroke-width="0.0" fill="rgb(248, 240, 255)" opacity="0.030682871"/>
    <path d="M 157.5833740234375 83.06629180908203 C 157.64476013183594 100.96768188476562 140.84959411621094 110.84822082519531 134.77159118652344 98.8798599243164 C 167.10556030273438 91.85226440429688 138.58839416503906 90.95372772216797 69.47647094726562 77.23394775390625 C 73.90402221679688 53.49608612060547 80.79375457763672 46.92914962768555 139.0573272705078 52.40138244628906 C 163.73985290527344 61.87295150756836 171.97967529296875 76.15432739257812 157.5833740234375 83.06629180908203" stroke-width="0.0" fill="rgb(248, 255, 245)" opacity="0.040639043"/>
    <path d="M 494.3589172363281 86.72604370117188 C 468.90899658203125 133.74530029296875 471.4732666015625 132.0316925048828 475.70477294921875 104.89935302734375 C 451.42974853515625 105.11882019042969 437.5072021484375 130.56983947753906 424.0305480957031 105.35604095458984 C 418.2439880371094 100.64295196533203 431.14337158203125 78.97481536865234 454.9771423339844 108.60582733154297 C 481.9501647949219 51.91923522949219 525.8699340820312 29.225263595581055 494.3589172363281 86.72604370117188" stroke-width="0.0" fill="rgb(0, 0, 26)" opacity="1.0"/>
    <path d="M 621.748291015625 280.0441589355469 C 620.3724975585938 290.384765625 614.2909545898438 294.8333740234375 618.8178100585938 320.24603271484375 C 615.0855102539062 299.1234436035156 596.528564453125 293.47796630859375 598.8252563476562 293.1531982421875 C 595.6082153320312 261.1004333496094 607.4700317382812 263.67840576171875 607.301025390625 245.10739135742188 C 601.1340942382812 236.19302368164062 611.3457641601562 245.04959106445312 621.748291015625 280.0441589355469" stroke-width="0.0" fill="rgb(148, 230, 53)" opacity="0.3213101"/>
    <path d="M 258.55963134765625 201.1350860595703 C 254.90245056152344 241.4912109375 238.8592529296875 243.80064392089844 222.4845733642578 262.6507568359375 C 174.2034454345703 257.0469055175781 153.906005859375 257.8567810058594 156.0399169921875 201.49070739746094 C 188.10801696777344 181.9595947265625 211.83694458007812 190.72213745117188 229.37713623046875 187.9669647216797 C 213.38180541992188 201.41368103027344 212.75523376464844 192.35154724121094 258.55963134765625 201.1350860595703" stroke-width="0.0" fill="rgb(255, 166, 255)" opacity="0.07136524"/>
    <path d="M 321.0081787109375 371.0747375488281 C 322.6400146484375 409.0098571777344 329.2568054199219 441.19146728515625 275.8040771484375 456.778076171875 C 283.04388427734375 396.3485412597656 263.047119140625 405.0048522949219 268.5701599121094 364.26287841796875 C 277.0193786621094 345.9095764160156 280.47491455078125 341.6302185058594 299.0504455566406 327.7299499511719 C 313.76788330078125 389.15960693359375 323.9206848144531 390.26611328125 321.0081787109375 371.0747375488281" stroke-width="0.0" fill="rgb(50, 0, 90)" opacity="1.0"/>
    <path d="M 510.30352783203125 5.514891624450684 C 537.7928466796875 35.68091583251953 544.5812377929688 74.35640716552734 507.7401123046875 68.5060806274414 C 450.70892333984375 28.525253295898438 457.7877197265625 35.49949264526367 480.5630187988281 -22.491756439208984 C 471.14593505859375 -11.18273639678955 478.9847106933594 -18.06949806213379 518.5337524414062 -28.923280715942383 C 534.47412109375 -20.322223663330078 535.222412109375 -13.288887023925781 510.30352783203125 5.514891624450684" stroke-width="0.0" fill="rgb(61, 0, 71)" opacity="0.99687225"/>
    <path d="M 131.00254821777344 190.75282287597656 C 116.92449188232422 193.3009033203125 108.55596160888672 207.99351501464844 114.23490142822266 211.94528198242188 C 106.88986206054688 225.6898956298828 87.52005004882812 216.60792541503906 94.4905776977539 195.13626098632812 C 87.93256378173828 177.77920532226562 88.82322692871094 168.0426025390625 103.80745697021484 202.0953826904297 C 101.36845397949219 136.70603942871094 114.44999694824219 169.26828002929688 131.00254821777344 190.75282287597656" stroke-width="0.0" fill="rgb(241, 255, 255)" opacity="0.0786098"/>
    <path d="M 283.7513427734375 581.9374389648438 C 270.6064453125 592.220947265625 265.567626953125 576.2198486328125 242.5141143798828 595.0394287109375 C 202.4386444091797 596.394287109375 210.5977325439453 579.1072387695312 194.91195678710938 561.3447265625 C 179.05422973632812 508.1053466796875 187.37506103515625 486.3599548339844 208.29896545410156 440.2860107421875 C 306.0831604003906 441.6298522949219 297.83416748046875 470.5140380859375 283.7513427734375 581.9374389648438" stroke-width="0.0" fill="rgb(53, 7, 42)" opacity="1.0"/>
    <path d="M 241.90628051757812 265.8550109863281 C 212.8997039794922 269.984375 200.82723999023438 272.90771484375 211.27346801757812 293.51409912109375 C 169.1628875732422 316.5870666503906 161.42933654785156 301.241455078125 147.31231689453125 248.35227966308594 C 139.1754150390625 233.36659240722656 185.1996612548828 246.7809295654297 203.63385009765625 258.27398681640625 C 185.2127685546875 247.74835205078125 225.1827850341797 243.05322265625 241.90628051757812 265.8550109863281" stroke-width="0.0" fill="rgb(255, 244, 239)" opacity="0.0037962345"/>
    <path d="M 180.6653289794922 40.07450485229492 C 150.87808227539062 55.12663650512695 129.80520629882812 63.470787048339844 123.59396362304688 91.48954010009766 C 101.47298431396484 127.24044799804688 71.91558837890625 115.11266326904297 76.2095718383789 41.65274429321289 C 71.50891876220703 -16.627822875976562 101.66331481933594 -14.317729949951172 118.27664184570312 11.060561180114746 C 182.75668334960938 9.693458557128906 185.51840209960938 4.279455184936523 180.6653289794922 40.07450485229492" stroke-width="0.0" fill="rgb(242, 254, 234)" opacity="0.022331577"/>
    <path d="M 515.2673950195312 534.75 C 515.5958251953125 538.706787109375 516.0877685546875 531.6796875 522.1985473632812 578.3847045898438 C 528.4901733398438 580.7172241210938 508.3848876953125 581.0874633789062 525.8303833007812 581.6156616210938 C 515.8762817382812 536.4608764648438 520.7613525390625 526.151123046875 517.9920043945312 518.5739135742188 C 536.97802734375 511.4528503417969 539.0335693359375 518.7550048828125 515.2673950195312 534.75" stroke-width="0.0" fill="rgb(247, 243, 238)" opacity="0.0010016266"/>
    <path d="M 430.524169921875 350.78021240234375 C 406.9510498046875 406.44158935546875 405.5015563964844 430.0172424316406 388.70965576171875 427.3446350097656 C 317.2085266113281 402.644287109375 301.8697204589844 396.92767333984375 275.1544189453125 343.51898193359375 C 254.20506286621094 307.3316650390625 285.07427978515625 318.4277648925781 377.3561096191406 323.744384765625 C 420.2036437988281 320.572265625 438.1552734375 307.3628234863281 430.524169921875 350.78021240234375" stroke-width="0.0" fill="rgb(0, 0, 28)" opacity="1.0"/>
    <path d="M 212.17298889160156 223.39173889160156 C 209.28890991210938 212.976318359375 183.26927185058594 208.5216522216797 178.80015563964844 200.9232177734375 C 184.05638122558594 214.73828125 169.5623321533203 200.3845977783203 168.9918670654297 172.4122314453125 C 140.6525115966797 170.77691650390625 134.62039184570312 152.51193237304688 162.78216552734375 146.591552734375 C 231.00161743164062 161.46505737304688 229.27635192871094 184.5831756591797 212.17298889160156 223.39173889160156" stroke-width="0.0" fill="rgb(254, 231, 212)" opacity="0.016489776"/>
    <path d="M 128.10606384277344 347.83392333984375 C 124.22998046875 391.423583984375 73.10588836669922 387.24444580078125 51.28895568847656 382.7389831542969 C 43.166297912597656 356.5699157714844 51.246917724609375 331.1604919433594 56.563560485839844 318.0625915527344 C 45.441078186035156 297.1174621582031 53.77518081665039 303.7308044433594 55.85419464111328 286.1885681152344 C 63.264007568359375 283.0184631347656 92.04015350341797 301.6868591308594 128.10606384277344 347.83392333984375" stroke-width="0.0" fill="rgb(238, 255, 255)" opacity="0.0017021114"/>
    <path d="M 541.583984375 398.07598876953125 C 547.0393676757812 404.4844970703125 523.2275390625 395.3161315917969 532.4495239257812 400.2654113769531 C 486.04010009765625 403.1301574707031 435.2139587402344 398.505859375 417.00665283203125 396.1797180175781 C 440.4618225097656 351.0838623046875 441.9515686035156 347.02044677734375 468.37353515625 342.7558898925781 C 522.6700439453125 341.5753173828125 531.4518432617188 333.801025390625 541.583984375 398.07598876953125" stroke-width="0.0" fill="rgb(217, 228, 229)" opacity="0.0031543318"/>
    <path d="M 281.24847412109375 3.934551239013672 C 210.13995361328125 38.91386032104492 172.6908721923828 40.25765609741211 167.78138732910156 40.73202896118164 C 172.77218627929688 32.830223083496094 185.4981689453125 12.809395790100098 182.7586669921875 6.379151821136475 C 164.05487060546875 2.8076729774475098 177.21307373046875 -5.402041912078857 190.1795654296875 -22.5839900970459 C 255.67886352539062 -54.512603759765625 265.9919738769531 -53.40814971923828 281.24847412109375 3.934551239013672" stroke-width="0.0" fill="rgb(255, 254, 228)" opacity="0.008687804"/>
    <path d="M 594.499755859375 429.5240783691406 C 583.6648559570312 428.53033447265625 567.2960205078125 434.84698486328125 550.0611572265625 430.0542297363281 C 548.429931640625 418.4237365722656 535.3162231445312 419.378173828125 533.3447875976562 393.2563781738281 C 528.0820922851562 371.8963623046875 528.8310546875 353.2966613769531 571.9303588867188 361.73394775390625 C 609.3035278320312 370.6549072265625 604.5070190429688 406.95306396484375 594.499755859375 429.5240783691406" stroke-width="0.0" fill="rgb(255, 255, 255)" opacity="0.00059842964"/>
    <path d="M 191.3257598876953 355.4950866699219 C 181.5508575439453 379.3279113769531 178.21902465820312 408.5211181640625 166.39830017089844 395.5370788574219 C 132.80796813964844 362.42218017578125 141.81527709960938 325.2431640625 133.186767578125 307.2525939941406 C 130.70968627929688 316.2561340332031 133.88816833496094 322.5289306640625 165.3541717529297 320.68359375 C 212.91766357421875 314.0459899902344 212.01023864746094 318.5469055175781 191.3257598876953 355.4950866699219" stroke-width="0.0" fill="rgb(246, 252, 111)" opacity="0.0014260149"/>
    <path d="M 609.776123046875 333.8085021972656 C 600.0072631835938 365.605224609375 597.0010375976562 382.88653564453125 573.7269287109375 397.2901306152344 C 530.4700317382812 381.8847351074219 522.8470458984375 373.1024169921875 535.6881103515625 346.6131896972656 C 544.9724731445312 348.14996337890625 546.5488891601562 337.32818603515625 567.7472534179688 271.2348937988281 C 607.2794799804688 268.1726379394531 613.6174926757812 275.463134765625 609.776123046875 333.8085021972656" stroke-width="0.0" fill="rgb(244, 255, 246)" opacity="0.011407064"/>
    <path d="M 533.6959838867188 -35.248023986816406 C 526.0350952148438 -11.109949111938477 516.0258178710938 1.0746341943740845 534.9424438476562 -2.5820109844207764 C 534.22314453125 -4.807300567626953 523.31494140625 -7.115847110748291 512.464111328125 -37.905818939208984 C 485.9893493652344 -21.424612045288086 493.956298828125 -26.1768798828125 535.0927124023438 -35.73321533203125 C 554.0025024414062 -34.82978057861328 561.307373046875 -32.37577819824219 533.6959838867188 -35.248023986816406" stroke-width="0.0" fill="rgb(93, 141, 116)" opacity="0.37882194"/>
    <path d="M 306.0132141113281 482.7077331542969 C 330.40570068359375 487.23077392578125 338.66510009765625 507.2331848144531 328.2798156738281 485.1887512207031 C 275.94146728515625 473.96142578125 262.0461730957031 478.5970458984375 231.42633056640625 435.51385498046875 C 271.3262634277344 397.38031005859375 278.8662109375 399.2508544921875 327.2020568847656 410.20794677734375 C 303.00775146484375 416.46636962890625 293.8199768066406 459.7020568847656 306.0132141113281 482.7077331542969" stroke-width="0.0" fill="rgb(44, 1, 54)" opacity="0.9830837"/>
    <path d="M 567.844482421875 185.47341918945312 C 585.8267211914062 202.16566467285156 580.4247436523438 209.31613159179688 553.0833740234375 241.30455017089844 C 504.5155944824219 224.395751953125 502.6424865722656 192.68536376953125 520.2346801757812 188.32693481445312 C 558.725341796875 189.5782928466797 561.3392333984375 193.10037231445312 559.10400390625 170.48048400878906 C 559.0243530273438 190.06411743164062 551.9949340820312 195.90467834472656 567.844482421875 185.47341918945312" stroke-width="0.0" fill="rgb(242, 254, 222)" opacity="0.004049469"/>
    <path d="M 133.4422607421875 584.6228637695312 C 122.38045501708984 586.4602661132812 84.91850280761719 581.2879028320312 46.571685791015625 600.939453125 C 20.106168746948242 596.232421875 15.713240623474121 587.5823974609375 20.658639907836914 509.06072998046875 C 22.987672805786133 487.8855895996094 34.55448532104492 478.7458801269531 144.62025451660156 475.9880676269531 C 144.99012756347656 510.3612976074219 135.47520446777344 520.3991088867188 133.4422607421875 584.6228637695312" stroke-width="0.0" fill="rgb(168, 160, 131)" opacity="0.0"/>
    <path d="M 115.89822387695312 128.88832092285156 C 120.05437469482422 134.29537963867188 114.03958892822266 125.76161193847656 106.84432220458984 108.1732406616211 C 93.38397216796875 108.9359359741211 85.26985168457031 127.74172973632812 94.39321899414062 121.56639099121094 C 94.17660522460938 106.73350524902344 113.15289306640625 108.32403564453125 126.52044677734375 111.47220611572266 C 120.41629028320312 82.70059967041016 137.52288818359375 67.75999450683594 115.89822387695312 128.88832092285156" stroke-width="0.0" fill="rgb(255, 255, 238)" opacity="0.0005229129"/>
    <path d="M 410.6261901855469 406.82659912109375 C 407.94647216796875 414.0851745605469 390.9314880371094 427.09808349609375 392.63427734375 471.971923828125 C 362.5126953125 464.53497314453125 359.8633728027344 446.9260559082031 356.5596008300781 419.9521179199219 C 369.4792785644531 387.5001220703125 377.3323059082031 361.4761047363281 385.8941650390625 377.2486267089844 C 428.5208740234375 389.3196105957031 426.3150329589844 390.9233703613281 410.6261901855469 406.82659912109375" stroke-width="0.0" fill="rgb(55, 0, 38)" opacity="1.0"/>
    <path d="M 332.4563903808594 63.129608154296875 C 336.0779724121094 155.6780242919922 335.71453857421875 138.72348022460938 308.5179443359375 120.96141815185547 C 303.9903259277344 107.51774597167969 286.5194091796875 111.54608917236328 277.9390563964844 105.57904052734375 C 300.8079528808594 74.41514587402344 308.6038818359375 61.730735778808594 317.8460998535156 48.291290283203125 C 358.22613525390625 14.930344581604004 373.3247375488281 -1.7582097053527832 332.4563903808594 63.129608154296875" stroke-width="0.0" fill="rgb(80, 36, 0)" opacity="0.9754001"/>
    <path d="M 371.0325622558594 232.19700622558594 C 382.77069091796875 235.53494262695312 389.6957702636719 226.05445861816406 370.0108642578125 240.25559997558594 C 355.12237548828125 238.5943603515625 356.9654846191406 221.85704040527344 334.33074951171875 220.72659301757812 C 334.75628662109375 202.87281799316406 358.90557861328125 193.83734130859375 351.3705749511719 210.91893005371094 C 331.1893005371094 221.83038330078125 362.6402282714844 221.51893615722656 371.0325622558594 232.19700622558594" stroke-width="0.0" fill="rgb(177, 172, 76)" opacity="0.0"/>
    <path d="M 20.079227447509766 268.6361999511719 C 30.059425354003906 259.4555358886719 53.32861328125 261.93597412109375 45.05461502075195 272.6982727050781 C 58.62948989868164 293.2166442871094 49.64961242675781 283.3866882324219 29.211870193481445 265.96826171875 C 47.205101013183594 303.2632141113281 45.06488037109375 296.36517333984375 49.18383026123047 292.1436462402344 C 36.26256561279297 269.6119079589844 41.58815383911133 270.10430908203125 20.079227447509766 268.6361999511719" stroke-width="0.0" fill="rgb(249, 255, 254)" opacity="0.0"/>
    <path d="M 53.48408508300781 281.4227600097656 C 63.25849151611328 306.32586669921875 57.447509765625 300.442626953125 26.509029388427734 308.48638916015625 C 11.05884075164795 309.62335205078125 -20.12641716003418 309.3265380859375 -46.38701629638672 292.6400451660156 C -11.273171424865723 251.49908447265625 17.399574279785156 256.2609558105469 -9.393632888793945 249.56582641601562 C 60.88117599487305 242.54818725585938 66.91969299316406 234.41317749023438 53.48408508300781 281.4227600097656" stroke-width="0.0" fill="rgb(242, 240, 252)" opacity="0.027431084"/>
    <path d="M 343.6353759765625 -40.72376251220703 C 329.3999938964844 -25.714303970336914 323.6646728515625 -4.931633949279785 333.4496765136719 9.15811538696289 C 345.7926025390625 10.113118171691895 341.5223693847656 15.828267097473145 335.42120361328125 8.117587089538574 C 348.3782043457031 -22.70709800720215 358.03594970703125 -32.653480529785156 370.4056396484375 -33.56830978393555 C 358.1361999511719 -25.712656021118164 356.79522705078125 -27.33953857421875 343.6353759765625 -40.72376251220703" stroke-width="0.0" fill="rgb(221, 255, 188)" opacity="0.011249511"/>
    <path d="M 450.1573486328125 178.367431640625 C 453.64410400390625 186.41217041015625 423.5483703613281 184.12213134765625 419.55743408203125 195.77796936035156 C 434.6960754394531 188.93988037109375 415.19317626953125 199.02101135253906 445.7636413574219 168.74522399902344 C 421.2737731933594 141.91207885742188 420.3540954589844 169.09976196289062 436.06207275390625 141.0951385498047 C 467.1813659667969 82.73528289794922 473.5078125 145.21209716796875 450.1573486328125 178.367431640625" stroke-width="0.0" fill="rgb(0, 0, 16)" opacity="0.94704825"/>
    <path d="M 179.01649475097656 110.01763916015625 C 145.50587463378906 126.09925079345703 120.8745346069336 140.8899688720703 102.8154296875 138.5250244140625 C 106.2252426147461 129.3921356201172 97.24911499023438 110.15013122558594 95.99349975585938 105.89659881591797 C 90.43685913085938 83.01224517822266 90.54829406738281 83.95304870605469 115.8923568725586 85.26533508300781 C 141.56539916992188 92.10163116455078 174.43287658691406 86.77394104003906 179.01649475097656 110.01763916015625" stroke-width="0.0" fill="rgb(244, 255, 227)" opacity="0.02716847"/>
    <path d="M 167.52883911132812 100.45348358154297 C 142.41616821289062 112.61851501464844 150.4150390625 148.78176879882812 143.349609375 170.9998779296875 C 144.0341339111328 194.16075134277344 119.74695587158203 180.24380493164062 166.15170288085938 195.12039184570312 C 196.56492614746094 186.20640563964844 197.94515991210938 190.77256774902344 185.09329223632812 155.99032592773438 C 171.48410034179688 106.30274963378906 189.9325408935547 102.80238342285156 167.52883911132812 100.45348358154297" stroke-width="0.0" fill="rgb(255, 255, 48)" opacity="0.05186371"/>
    <path d="M 511.42413330078125 560.5975341796875 C 516.8121948242188 559.8634033203125 502.3789978027344 528.2169799804688 526.1542358398438 540.1464233398438 C 527.7645874023438 544.127197265625 535.619384765625 537.0866088867188 508.13592529296875 541.720703125 C 530.3548583984375 559.4761352539062 528.3604736328125 553.176025390625 523.1524658203125 555.649658203125 C 523.9652099609375 558.8255615234375 529.494140625 573.2088623046875 511.42413330078125 560.5975341796875" stroke-width="0.0" fill="rgb(255, 255, 255)" opacity="0.0"/>
    <path d="M 563.3104248046875 360.7796325683594 C 539.5730590820312 338.63238525390625 553.3344116210938 365.9917907714844 551.7290649414062 375.9971008300781 C 529.4918212890625 361.7850036621094 516.8433837890625 370.1024169921875 521.17333984375 361.76611328125 C 535.3629760742188 344.72344970703125 523.293701171875 309.5816955566406 536.7224731445312 316.21173095703125 C 554.9829711914062 338.973388671875 590.2037963867188 351.7040710449219 563.3104248046875 360.7796325683594" stroke-width="0.0" fill="rgb(248, 255, 255)" opacity="0.006185704"/>
    <path d="M 97.38996124267578 183.3314666748047 C 111.45670318603516 185.07188415527344 108.72547149658203 167.12098693847656 61.19120407104492 167.32798767089844 C 75.06836700439453 189.5686492919922 73.20401763916016 178.18179321289062 70.60018920898438 162.15115356445312 C 94.92992401123047 170.91429138183594 100.61276245117188 170.86119079589844 96.47549438476562 159.63160705566406 C 85.5705795288086 155.43202209472656 97.6246109008789 152.8424835205078 97.38996124267578 183.3314666748047" stroke-width="0.0" fill="rgb(243, 243, 232)" opacity="0.036554392"/>
    <path d="M 479.545654296875 129.3316650390625 C 488.995849609375 120.31226348876953 470.9932556152344 122.97898864746094 463.772705078125 110.32698059082031 C 469.0956726074219 119.83240509033203 477.67596435546875 125.03668975830078 489.82440185546875 130.1684112548828 C 511.1329345703125 135.45559692382812 517.0694580078125 108.74172973632812 478.34796142578125 109.9908676147461 C 458.84423828125 110.81102752685547 485.9765319824219 95.04985809326172 479.545654296875 129.3316650390625" stroke-width="0.0" fill="rgb(0, 0, 23)" opacity="0.9628611"/>
    <path d="M 526.576904296875 506.0460510253906 C 532.2637329101562 507.0107727050781 525.079833984375 520.6820678710938 530.8281860351562 526.4634399414062 C 536.0274047851562 503.19866943359375 529.0254516601562 498.2682189941406 517.21923828125 506.492919921875 C 505.7996520996094 476.196044921875 507.6181640625 457.8993835449219 528.8954467773438 462.9140930175781 C 546.3386840820312 452.3201904296875 544.7968139648438 493.4039001464844 526.576904296875 506.0460510253906" stroke-width="0.0" fill="rgb(255, 255, 252)" opacity="0.0"/>
    <path d="M 174.73373413085938 105.5512924194336 C 152.3148956298828 192.89447021484375 156.8420867919922 216.6399688720703 101.11026000976562 211.4522705078125 C 56.81353759765625 199.67562866210938 45.38451385498047 184.42306518554688 4.577971935272217 152.33847045898438 C -3.739251136779785 105.59425354003906 21.3284912109375 96.03726959228516 52.883094787597656 77.78902435302734 C 150.72080993652344 81.49642181396484 162.75961303710938 87.4063720703125 174.73373413085938 105.5512924194336" stroke-width="0.0" fill="rgb(253, 255, 255)" opacity="0.3328129"/>
    <path d="M 242.60488891601562 307.85345458984375 C 237.2208709716797 326.35394287109375 238.1274871826172 334.33258056640625 210.29742431640625 332.06646728515625 C 207.23004150390625 333.21246337890625 203.53916931152344 337.4451599121094 208.34458923339844 332.35546875 C 211.76553344726562 310.2931823730469 209.31155395507812 290.8394775390625 207.55039978027344 298.25457763671875 C 214.1849365234375 301.8060302734375 222.48866271972656 298.46392822265625 242.60488891601562 307.85345458984375" stroke-width="0.0" fill="rgb(223, 219, 15)" opacity="0.0"/>
    <path d="M 244.7515411376953 221.0223846435547 C 254.30426025390625 238.29405212402344 288.9774475097656 245.68785095214844 330.1376647949219 284.498779296875 C 235.1005096435547 308.8120422363281 226.7494659423828 299.7270812988281 228.35435485839844 253.5487823486328 C 235.24452209472656 249.69361877441406 271.8931884765625 257.7338562011719 289.1368103027344 249.10105895996094 C 257.88543701171875 234.52183532714844 247.69024658203125 226.1374969482422 244.7515411376953 221.0223846435547" stroke-width="0.0" fill="rgb(50, 56, 52)" opacity="0.5252383"/>
    <path d="M 376.7435302734375 410.3639831542969 C 365.3833923339844 485.8941650390625 366.83416748046875 488.41943359375 379.8603820800781 423.3277282714844 C 333.2096252441406 425.6263427734375 319.6684265136719 414.6452331542969 296.0159912109375 376.5871276855469 C 322.3837585449219 379.3189697265625 341.9197692871094 372.9845886230469 315.7378234863281 388.2076721191406 C 337.41094970703125 411.8315124511719 345.8953857421875 413.5670471191406 376.7435302734375 410.3639831542969" stroke-width="0.0" fill="rgb(35, 13, 22)" opacity="0.16859686"/>
    <path d="M 281.88726806640625 175.2733917236328 C 290.3210144042969 223.63299560546875 300.7005920410156 218.8143310546875 262.3184814453125 215.92428588867188 C 245.80865478515625 217.68780517578125 241.5376434326172 196.62464904785156 229.7233428955078 184.06248474121094 C 239.78994750976562 166.46109008789062 266.65728759765625 169.4876708984375 269.9458923339844 134.8440399169922 C 289.1394348144531 182.35243225097656 304.9111633300781 183.42283630371094 281.88726806640625 175.2733917236328" stroke-width="0.0" fill="rgb(255, 255, 4)" opacity="0.0209697"/>
    <path d="M 421.34423828125 517.622314453125 C 425.2537841796875 552.427490234375 418.5295715332031 573.9915161132812 402.609619140625 603.3912353515625 C 287.96209716796875 594.6405029296875 291.3153991699219 611.5580444335938 321.0012512207031 547.577392578125 C 359.2965393066406 487.4124755859375 351.7689208984375 469.41607666015625 373.0738220214844 466.8055114746094 C 420.7590637207031 487.262939453125 432.0145263671875 484.6220703125 421.34423828125 517.622314453125" stroke-width="0.0" fill="rgb(73, 0, 36)" opacity="1.0"/>
    <path d="M 29.463916778564453 609.59228515625 C 61.055686950683594 587.5136108398438 49.69312286376953 588.3154907226562 2.1907145977020264 583.0839233398438 C -25.895458221435547 593.9102172851562 -35.085906982421875 590.104248046875 -35.15999984741211 537.7674560546875 C -13.643271446228027 539.1771240234375 14.043203353881836 534.8253173828125 18.460954666137695 544.2467651367188 C 22.742874145507812 553.884765625 24.62380599975586 595.70556640625 29.463916778564453 609.59228515625" stroke-width="0.0" fill="rgb(235, 255, 236)" opacity="0.0"/>
    <path d="M -8.563329696655273 355.9903259277344 C -1.9162555932998657 351.1273498535156 -6.309543132781982 354.1622314453125 -14.271662712097168 361.7034912109375 C -7.958106994628906 376.9950866699219 -14.75326919555664 368.6859436035156 -18.437959671020508 360.01318359375 C -15.185256004333496 338.59381103515625 -10.56515884399414 330.1029052734375 -16.05198860168457 346.61376953125 C -10.71133041381836 360.37261962890625 -2.7099499702453613 365.95623779296875 -8.563329696655273 355.9903259277344" stroke-width="0.0" fill="rgb(28, 70, 4)" opacity="0.77420276"/>
    <path d="M 67.68875885009766 561.70458984375 C 70.50189208984375 641.79345703125 67.18775939941406 659.283203125 45.335777282714844 664.0244140625 C -8.305749893188477 608.487548828125 -16.82453155517578 605.116943359375 -12.086837768554688 528.7737426757812 C 1.7607831954956055 507.956298828125 24.93358039855957 502.36627197265625 46.23486328125 507.0416564941406 C 55.46918487548828 519.2744140625 63.10249328613281 539.633056640625 67.68875885009766 561.70458984375" stroke-width="0.0" fill="rgb(230, 252, 246)" opacity="0.006889441"/>
    <path d="M 234.3738555908203 414.010498046875 C 232.9137725830078 444.8158874511719 222.6025848388672 455.8997802734375 213.30975341796875 463.09613037109375 C 195.3800506591797 471.7513122558594 187.18630981445312 463.9810485839844 178.6904754638672 434.6222229003906 C 211.198486328125 432.7989196777344 234.5144805908203 435.2981872558594 220.85926818847656 439.30120849609375 C 209.5417938232422 417.4701232910156 208.52957153320312 400.95318603515625 234.3738555908203 414.010498046875" stroke-width="0.0" fill="rgb(130, 92, 0)" opacity="0.0"/>
    <path d="M 369.7891540527344 166.16018676757812 C 352.5992431640625 229.7138671875 338.4877624511719 227.4957733154297 324.40399169921875 244.4664306640625 C 280.4234924316406 240.80056762695312 280.24444580078125 209.14637756347656 277.7698974609375 172.42953491210938 C 290.12066650390625 179.32830810546875 302.8750305175781 172.8816375732422 294.02972412109375 141.3564910888672 C 339.1369323730469 149.3094024658203 377.406982421875 124.51605987548828 369.7891540527344 166.16018676757812" stroke-width="0.0" fill="rgb(196, 101, 119)" opacity="0.0239027"/>
    <path d="M 348.607666015625 564.495849609375 C 361.04010009765625 586.2996826171875 366.8345642089844 601.2272338867188 410.32763671875 582.0618896484375 C 379.3534240722656 556.0037231445312 364.6198425292969 544.908203125 373.3241271972656 559.906005859375 C 363.7908630371094 568.5560302734375 349.67535400390625 538.2386474609375 364.6983947753906 517.6231079101562 C 382.15081787109375 546.0740356445312 396.6331787109375 560.2516479492188 348.607666015625 564.495849609375" stroke-width="0.0" fill="rgb(41, 44, 5)" opacity="0.06736832"/>
    <path d="M 468.592041015625 563.3448486328125 C 469.68951416015625 561.5419921875 459.6051940917969 564.9747314453125 460.63482666015625 556.2526245117188 C 470.5628356933594 564.2933959960938 475.158203125 570.8648071289062 472.9298400878906 541.6009521484375 C 465.3577575683594 559.3162841796875 477.7116394042969 552.2862548828125 469.4022216796875 572.495849609375 C 474.2181396484375 533.7611083984375 473.2800598144531 543.2057495117188 468.592041015625 563.3448486328125" stroke-width="0.0" fill="rgb(255, 255, 255)" opacity="0.0"/>
    <path d="M 262.68463134765625 436.6234436035156 C 211.52293395996094 462.9841613769531 164.10568237304688 463.7585754394531 207.2440185546875 604.1265258789062 C 130.70196533203125 602.3477783203125 132.72938537597656 573.8272705078125 130.11875915527344 502.5972900390625 C 146.80154418945312 436.70281982421875 163.67184448242188 412.7974548339844 222.558349609375 388.2332458496094 C 285.5460510253906 365.3880615234375 307.08935546875 383.08270263671875 262.68463134765625 436.6234436035156" stroke-width="0.0" fill="rgb(241, 105, 0)" opacity="0.9978599"/>
    <path d="M 463.7690734863281 342.36370849609375 C 453.3463134765625 371.8970031738281 433.0659484863281 372.2198791503906 443.5707702636719 407.5633850097656 C 349.7105712890625 392.61322021484375 373.8576965332031 399.3966064453125 382.40447998046875 348.7339172363281 C 402.15179443359375 322.1144104003906 406.99176025390625 291.3099670410156 420.4146728515625 254.7466583251953 C 443.22381591796875 264.4552001953125 444.080810546875 279.5234375 463.7690734863281 342.36370849609375" stroke-width="0.0" fill="rgb(46, 3, 35)" opacity="1.0"/>
    <path d="M 613.3320922851562 116.8110580444336 C 592.5285034179688 133.64637756347656 571.488037109375 136.44029235839844 581.6242065429688 139.04640197753906 C 550.2007446289062 146.91110229492188 539.488525390625 150.13272094726562 506.3484802246094 96.4559555053711 C 531.44287109375 88.8065185546875 548.54248046875 87.5245132446289 538.930419921875 100.32527923583984 C 590.45166015625 82.06532287597656 641.8510131835938 85.27842712402344 613.3320922851562 116.8110580444336" stroke-width="0.0" fill="rgb(252, 255, 226)" opacity="0.004188053"/>
    <path d="M 413.2066345214844 231.619140625 C 434.0106201171875 257.9790954589844 413.8797302246094 269.77874755859375 390.6152038574219 241.34747314453125 C 375.44976806640625 218.23123168945312 362.7542419433594 227.47132873535156 384.9442443847656 242.12098693847656 C 394.3833923339844 216.97023010253906 406.8944396972656 202.43344116210938 404.5064392089844 220.46595764160156 C 408.7455139160156 199.89146423339844 419.44537353515625 208.1433563232422 413.2066345214844 231.619140625" stroke-width="0.0" fill="rgb(243, 182, 52)" opacity="0.28305718"/>
    <path d="M 509.6763916015625 201.7490997314453 C 511.44561767578125 202.92373657226562 516.0440063476562 240.09332275390625 506.4448547363281 236.87571716308594 C 511.3672790527344 231.88165283203125 533.4976196289062 239.01687622070312 540.3336181640625 234.6787567138672 C 558.22216796875 238.24595642089844 551.464111328125 210.03829956054688 520.327392578125 219.29551696777344 C 518.345458984375 207.0709991455078 508.5592041015625 186.94036865234375 509.6763916015625 201.7490997314453" stroke-width="0.0" fill="rgb(255, 230, 210)" opacity="0.008327441"/>
    <path d="M 368.57757568359375 108.22960662841797 C 376.2073059082031 164.78341674804688 335.45745849609375 127.1114730834961 267.9105224609375 124.79405975341797 C 254.29490661621094 162.5889129638672 249.39891052246094 143.66346740722656 224.81243896484375 107.25753784179688 C 243.685302734375 98.40998077392578 258.9317626953125 93.79121398925781 292.951171875 89.68081665039062 C 319.36297607421875 77.85853576660156 318.3839416503906 84.77599334716797 368.57757568359375 108.22960662841797" stroke-width="0.0" fill="rgb(234, 87, 0)" opacity="1.0"/>
    <path d="M 53.798667907714844 361.175048828125 C 59.16487121582031 353.5902099609375 31.245336532592773 361.175537109375 32.121063232421875 385.5604248046875 C 26.926631927490234 381.73553466796875 18.389963150024414 376.70196533203125 15.170221328735352 348.32965087890625 C -17.635637283325195 339.8733825683594 18.517759323120117 339.1694641113281 26.036724090576172 324.9513854980469 C 49.883758544921875 339.8486022949219 57.384376525878906 338.0298767089844 53.798667907714844 361.175048828125" stroke-width="0.0" fill="rgb(246, 247, 244)" opacity="0.009790843"/>
    <path d="M 396.65570068359375 262.31787109375 C 402.4933166503906 280.5427551269531 405.4800720214844 277.7391662597656 412.7363586425781 273.49835205078125 C 343.1707458496094 297.8460998535156 298.5098571777344 311.9342956542969 307.1662292480469 277.75311279296875 C 341.55438232421875 238.65533447265625 354.9504089355469 229.55398559570312 372.1789245605469 237.99514770507812 C 413.6494140625 244.39385986328125 422.76080322265625 235.94943237304688 396.65570068359375 262.31787109375" stroke-width="0.0" fill="rgb(45, 0, 49)" opacity="0.98097825"/>
    <path d="M 577.9662475585938 178.0361785888672 C 567.403564453125 195.23167419433594 571.0048828125 214.26466369628906 522.8068237304688 214.7240753173828 C 525.8544311523438 176.67906188964844 527.5252685546875 173.19583129882812 525.5065307617188 178.41259765625 C 530.2759399414062 175.98086547851562 557.5003051757812 176.80230712890625 555.6260986328125 175.55917358398438 C 549.361572265625 170.3802032470703 557.34716796875 160.31771850585938 577.9662475585938 178.0361785888672" stroke-width="0.0" fill="rgb(198, 232, 237)" opacity="0.0"/>
    <path d="M 534.9253540039062 339.38720703125 C 539.3687133789062 308.6232604980469 515.3675537109375 303.1296081542969 559.6724243164062 311.0218200683594 C 551.9628295898438 292.10504150390625 531.9600830078125 298.70916748046875 536.1041259765625 301.3046569824219 C 541.9052734375 305.2458190917969 550.9885864257812 289.2545471191406 542.1934204101562 287.155029296875 C 513.899658203125 282.9380187988281 522.7086181640625 307.5872802734375 534.9253540039062 339.38720703125" stroke-width="0.0" fill="rgb(248, 238, 251)" opacity="0.011879258"/>
    <path d="M 602.8154907226562 301.6295471191406 C 602.2740478515625 356.50799560546875 586.5078735351562 359.1740417480469 535.5350341796875 373.3109130859375 C 488.34149169921875 370.4951477050781 467.0753173828125 367.21685791015625 454.156982421875 323.81488037109375 C 452.48602294921875 217.10398864746094 492.989990234375 216.35548400878906 571.9932861328125 231.7598419189453 C 574.6322021484375 252.61216735839844 589.4375610351562 262.01715087890625 602.8154907226562 301.6295471191406" stroke-width="0.0" fill="rgb(235, 214, 204)" opacity="0.009008096"/>
    <path d="M 434.09686279296875 217.85791015625 C 413.3185119628906 259.3338928222656 422.46295166015625 296.0145263671875 382.13494873046875 297.45587158203125 C 350.50677490234375 297.80987548828125 392.5350036621094 256.5851745605469 382.8584899902344 255.3493194580078 C 392.9106750488281 252.62942504882812 387.4093017578125 210.52206420898438 422.16510009765625 188.82501220703125 C 465.2757568359375 152.67239379882812 455.89556884765625 169.88925170898438 434.09686279296875 217.85791015625" stroke-width="0.0" fill="rgb(0, 0, 14)" opacity="1.0"/>
    <path d="M 54.66775131225586 87.9722671508789 C 35.43421173095703 96.09011840820312 34.14217758178711 107.8934097290039 38.092777252197266 90.88379669189453 C 30.004873275756836 101.10836029052734 26.998779296875 114.013916015625 18.404666900634766 120.0849838256836 C 6.368182182312012 120.09364318847656 -0.050607770681381226 112.39452362060547 18.20867156982422 68.22681427001953 C 35.80841827392578 76.04539489746094 58.379127502441406 82.93272399902344 54.66775131225586 87.9722671508789" stroke-width="0.0" fill="rgb(249, 244, 255)" opacity="0.010357616"/>
    <path d="M 84.25131225585938 99.87985229492188 C 60.9752082824707 85.52644348144531 40.56400680541992 80.95854187011719 22.639455795288086 98.44605255126953 C 25.441349029541016 93.54649353027344 1.5317505598068237 68.44879150390625 10.847476959228516 76.19683074951172 C 28.909082412719727 67.78912353515625 18.454824447631836 31.5218505859375 34.698001861572266 20.272083282470703 C 80.18614959716797 28.031885147094727 97.20133972167969 35.23365020751953 84.25131225585938 99.87985229492188" stroke-width="0.0" fill="rgb(254, 255, 255)" opacity="0.0007288396"/>
    <path d="M 560.939697265625 529.1656494140625 C 565.1925659179688 603.600830078125 552.6026000976562 605.5927124023438 468.8556213378906 625.0801391601562 C 405.64117431640625 613.1676025390625 414.71728515625 566.6796875 420.1447448730469 510.2386474609375 C 431.21844482421875 493.3390197753906 434.2084655761719 469.6883850097656 440.897705078125 470.5361633300781 C 529.5283203125 470.88739013671875 546.2088012695312 460.26220703125 560.939697265625 529.1656494140625" stroke-width="0.0" fill="rgb(234, 255, 191)" opacity="0.007957688"/>
    <path d="M 562.2135009765625 142.45205688476562 C 554.4703979492188 147.10076904296875 560.4124145507812 151.3050537109375 569.4155883789062 198.623046875 C 583.7210083007812 169.98353576660156 579.5198364257812 133.22447204589844 570.4658203125 117.98857879638672 C 558.8251342773438 133.6127471923828 568.5296630859375 133.66091918945312 564.1878662109375 117.18263244628906 C 562.0449829101562 116.37847900390625 572.6337280273438 142.01495361328125 562.2135009765625 142.45205688476562" stroke-width="0.0" fill="rgb(229, 255, 226)" opacity="0.0"/>
    <path d="M 367.22613525390625 417.67681884765625 C 344.9462585449219 458.3683166503906 350.5116882324219 482.0541687011719 364.0290222167969 434.9112243652344 C 379.56671142578125 413.8323974609375 349.554931640625 422.56982421875 320.9457092285156 400.4648742675781 C 312.2344970703125 421.782958984375 307.8681945800781 443.15948486328125 322.783935546875 407.6537780761719 C 316.7575988769531 413.13739013671875 343.34942626953125 413.99993896484375 367.22613525390625 417.67681884765625" stroke-width="0.0" fill="rgb(225, 113, 145)" opacity="0.6729334"/>
    <path d="M 445.4259948730469 272.4090576171875 C 456.74676513671875 292.3992614746094 465.3128967285156 317.323486328125 455.28466796875 354.48095703125 C 409.62322998046875 350.5477294921875 404.2105407714844 318.53466796875 419.2156677246094 268.68670654296875 C 426.88323974609375 246.63885498046875 426.1842346191406 253.68557739257812 419.0268249511719 254.4353790283203 C 433.8308410644531 263.0315856933594 449.1741638183594 278.7873840332031 445.4259948730469 272.4090576171875" stroke-width="0.0" fill="rgb(31, 0, 41)" opacity="0.9445506"/>
    <path d="M 504.6656188964844 234.83560180664062 C 487.0356750488281 268.2801818847656 480.1166687011719 267.5058288574219 468.16839599609375 272.6200866699219 C 470.08984375 229.56924438476562 459.1012878417969 208.81790161132812 461.6467590332031 187.6978759765625 C 484.270263671875 198.82046508789062 476.1384582519531 207.65798950195312 477.7138671875 174.7633514404297 C 499.207275390625 171.59674072265625 516.0657958984375 191.8075714111328 504.6656188964844 234.83560180664062" stroke-width="0.0" fill="rgb(255, 137, 22)" opacity="0.59854144"/>
    <path d="M -6.629080772399902 406.2928466796875 C 11.465331077575684 414.886962890625 -16.963653564453125 400.1207580566406 -40.12027359008789 413.63580322265625 C -36.517616271972656 420.0997619628906 -40.59150695800781 408.388916015625 -44.92497634887695 386.9472351074219 C -37.267066955566406 381.95709228515625 -22.893144607543945 387.8563537597656 -3.8700573444366455 386.65960693359375 C -6.975228786468506 380.5428466796875 2.1914217472076416 390.93792724609375 -6.629080772399902 406.2928466796875" stroke-width="0.0" fill="rgb(146, 255, 197)" opacity="0.06208268"/>
    <path d="M 622.33447265625 546.7847290039062 C 609.48095703125 565.6635131835938 600.7631225585938 573.5450439453125 633.0736694335938 556.4959716796875 C 631.8070068359375 552.52734375 620.97021484375 550.684326171875 602.9791259765625 551.5444946289062 C 611.6072387695312 555.946044921875 633.387451171875 556.3262939453125 611.2538452148438 546.3197021484375 C 600.9237060546875 511.9284973144531 611.2271728515625 521.1221313476562 622.33447265625 546.7847290039062" stroke-width="0.0" fill="rgb(94, 126, 72)" opacity="0.17968723"/>
    <path d="M 124.17802429199219 183.90219116210938 C 148.1406707763672 180.2619171142578 129.5376739501953 212.64732360839844 113.6379623413086 189.57127380371094 C 141.47561645507812 199.6973419189453 119.75091552734375 198.55894470214844 106.35688018798828 193.1114501953125 C 98.80167388916016 200.10763549804688 119.7795181274414 211.76516723632812 105.0780258178711 194.3278045654297 C 112.90022277832031 211.1587371826172 129.61959838867188 223.4010467529297 124.17802429199219 183.90219116210938" stroke-width="0.0" fill="rgb(220, 255, 255)" opacity="0.06102429"/>
    <path d="M 249.84385681152344 182.18463134765625 C 222.3719482421875 180.7255859375 208.3641815185547 181.40858459472656 186.427001953125 189.35633850097656 C 138.5995635986328 195.0203094482422 128.44927978515625 218.54164123535156 146.80287170410156 189.7149200439453 C 173.7590789794922 133.06289672851562 187.61534118652344 119.65924835205078 206.55740356445312 110.8100357055664 C 265.7611389160156 122.43087005615234 244.70469665527344 151.61770629882812 249.84385681152344 182.18463134765625" stroke-width="0.0" fill="rgb(255, 78, 0)" opacity="1.0"/>
    <path d="M 620.1738891601562 34.851070404052734 C 633.1707153320312 62.056331634521484 634.2841186523438 64.19032287597656 577.2630004882812 69.75698852539062 C 533.3858032226562 77.99879455566406 524.01708984375 81.3219223022461 516.2406005859375 30.048402786254883 C 524.9488525390625 -25.597667694091797 545.2435913085938 -22.108898162841797 558.7719116210938 26.33368492126465 C 573.7786865234375 40.96705627441406 603.639892578125 34.20814895629883 620.1738891601562 34.851070404052734" stroke-width="0.0" fill="rgb(219, 178, 205)" opacity="0.0"/>
    <path d="M 565.9367065429688 150.90357971191406 C 571.2802124023438 146.81845092773438 588.482666015625 164.49850463867188 551.356201171875 206.98097229003906 C 478.75872802734375 217.2706756591797 474.8905944824219 207.8245849609375 492.3533630371094 103.41394805908203 C 519.6912841796875 90.21959686279297 529.5836181640625 107.80209350585938 546.2520141601562 112.30255126953125 C 565.36474609375 115.12800598144531 558.1719970703125 126.18541717529297 565.9367065429688 150.90357971191406" stroke-width="0.0" fill="rgb(148, 215, 229)" opacity="0.0"/>
    <path d="M 255.22286987304688 129.36390686035156 C 276.223876953125 197.0538330078125 238.6189422607422 203.15318298339844 192.85963439941406 180.9689483642578 C 181.83645629882812 180.03749084472656 174.11856079101562 176.14764404296875 196.14122009277344 118.6160888671875 C 231.53256225585938 94.7625732421875 216.7375030517578 99.82083129882812 165.7764434814453 40.82839584350586 C 217.42636108398438 62.58237075805664 244.77342224121094 99.10626983642578 255.22286987304688 129.36390686035156" stroke-width="0.0" fill="rgb(230, 81, 0)" opacity="1.0"/>
    <path d="M 235.51968383789062 257.7091369628906 C 189.63685607910156 370.4584045410156 194.62754821777344 374.72259521484375 96.30496215820312 379.3091735839844 C 26.964752197265625 376.16455078125 19.752155303955078 359.8040771484375 19.776165008544922 259.098388671875 C 27.716129302978516 194.6947021484375 26.447265625 185.0472412109375 94.34687805175781 205.65457153320312 C 150.42759704589844 232.18222045898438 192.13169860839844 228.24134826660156 235.51968383789062 257.7091369628906" stroke-width="0.0" fill="rgb(244, 247, 245)" opacity="0.050334387"/>
    <path d="M 403.2230529785156 343.0677185058594 C 319.8829650878906 378.4551696777344 249.47251892089844 357.50653076171875 194.49729919433594 349.4749450683594 C 184.01576232910156 359.2144775390625 209.59886169433594 331.0707092285156 231.6178741455078 246.44808959960938 C 277.7012023925781 248.58428955078125 268.0242919921875 268.6071472167969 276.8520812988281 287.2867736816406 C 280.05322265625 308.7264099121094 346.2919616699219 287.9867858886719 403.2230529785156 343.0677185058594" stroke-width="0.0" fill="rgb(244, 107, 0)" opacity="1.0"/>
    <path d="M 592.1406860351562 330.57403564453125 C 572.9485473632812 335.4465026855469 549.2970581054688 332.2332763671875 569.4124145507812 335.13409423828125 C 567.8934936523438 321.1907043457031 573.9495849609375 328.7000732421875 571.4729614257812 352.33062744140625 C 567.6427001953125 337.5646667480469 573.4417114257812 351.21759033203125 594.7115478515625 352.44708251953125 C 598.9120483398438 358.4670715332031 588.4797973632812 367.9725341796875 592.1406860351562 330.57403564453125" stroke-width="0.0" fill="rgb(244, 255, 229)" opacity="0.011062579"/>
    <path d="M 340.68609619140625 495.8305969238281 C 350.9656677246094 509.0411682128906 315.5588684082031 487.45355224609375 289.2743835449219 486.7525634765625 C 287.1127624511719 529.4832153320312 275.0322570800781 533.7280883789062 224.60748291015625 466.39801025390625 C 219.83526611328125 415.36199951171875 235.1707305908203 430.5697937011719 304.93603515625 453.2904052734375 C 326.29595947265625 469.30291748046875 349.21429443359375 474.86395263671875 340.68609619140625 495.8305969238281" stroke-width="0.0" fill="rgb(57, 6, 38)" opacity="0.98466754"/>
    <path d="M 117.2335205078125 92.77754211425781 C 126.69068145751953 94.4947509765625 129.43780517578125 127.4611587524414 161.69908142089844 102.09933471679688 C 131.4819793701172 84.38270568847656 112.71687316894531 84.7804946899414 93.2682113647461 85.07349395751953 C 109.04378509521484 98.18865966796875 83.55879211425781 92.69950866699219 115.38262939453125 100.1407699584961 C 111.79670715332031 88.91664123535156 122.42631530761719 105.27079010009766 117.2335205078125 92.77754211425781" stroke-width="0.0" fill="rgb(247, 255, 255)" opacity="0.21805213"/>
    <path d="M 28.04477310180664 622.4998779296875 C 13.066075325012207 591.9630126953125 15.920385360717773 580.05810546875 -4.219334602355957 588.4696655273438 C 3.275977373123169 562.086669921875 -29.545677185058594 551.4519653320312 10.925799369812012 549.1152954101562 C 12.633149147033691 564.97705078125 14.891691207885742 556.1165771484375 16.300537109375 552.2814331054688 C 35.92760467529297 547.5339965820312 28.058015823364258 571.0650024414062 28.04477310180664 622.4998779296875" stroke-width="0.0" fill="rgb(235, 237, 233)" opacity="0.06622278"/>
  </g>
</svg>
