<?xml version="1.0" ?>
<svg xmlns="http://www.w3.org/2000/svg" version="1.1" width="600" height="600">
  <defs/>
  <g>
    <path d="M 371.8924255371094 518.81103515625 C 374.0771179199219 581.4237670898438 376.42852783203125 599.3331298828125 356.7303771972656 617.3378295898438 C 315.2734375 614.4329223632812 286.2046203613281 604.0970458984375 289.4245300292969 563.4148559570312 C 284.1792297363281 489.3091125488281 286.8963317871094 494.873779296875 322.84332275390625 498.25982666015625 C 344.125732421875 503.2479248046875 354.1488952636719 519.1797485351562 371.8924255371094 518.81103515625" stroke-width="0.0" fill="rgb(118, 63, 7)" opacity="0.9217325"/>
    <path d="M 540.6656494140625 341.8318786621094 C 524.1502685546875 320.4909973144531 530.5446166992188 335.81146240234375 544.8040771484375 326.8292236328125 C 535.845703125 329.8331298828125 519.0320434570312 314.9364013671875 535.6776733398438 287.53131103515625 C 545.370361328125 295.8514709472656 559.8834838867188 287.7806701660156 577.17529296875 310.5137939453125 C 544.89111328125 335.7817077636719 556.0260620117188 344.83074951171875 540.6656494140625 341.8318786621094" stroke-width="0.0" fill="rgb(209, 220, 22)" opacity="0.28928697"/>
    <path d="M 436.700927734375 104.78410339355469 C 454.2875671386719 128.89524841308594 419.5292663574219 132.67982482910156 393.8687438964844 144.8714599609375 C 354.3487854003906 117.40070343017578 349.4032897949219 96.43374633789062 362.9845886230469 53.27811050415039 C 381.120361328125 95.97594451904297 384.45904541015625 69.30609893798828 400.76312255859375 102.40181732177734 C 384.9522399902344 67.49590301513672 393.14385986328125 80.96458435058594 436.700927734375 104.78410339355469" stroke-width="0.0" fill="rgb(129, 241, 208)" opacity="0.13155691"/>
    <path d="M 323.27899169921875 424.1819152832031 C 299.3306884765625 458.75958251953125 260.47772216796875 442.1892395019531 212.6233673095703 485.31561279296875 C 128.22842407226562 484.7728271484375 92.35643005371094 483.1327209472656 105.8753433227539 376.435546875 C 119.23422241210938 329.47509765625 119.31409454345703 303.29681396484375 171.00416564941406 313.4977722167969 C 245.55374145507812 304.2465515136719 288.3360595703125 302.4186706542969 323.27899169921875 424.1819152832031" stroke-width="0.0" fill="rgb(92, 243, 19)" opacity="0.91903967"/>
    <path d="M 103.95347595214844 181.8372039794922 C 120.04186248779297 282.4466247558594 137.22476196289062 308.2067565917969 76.94429779052734 299.1629943847656 C 18.254417419433594 299.4897766113281 29.905466079711914 264.1781311035156 24.513856887817383 221.77610778808594 C 48.42905044555664 171.3840789794922 34.763336181640625 138.44754028320312 60.06373977661133 144.2369384765625 C 144.73081970214844 141.61622619628906 169.0623016357422 167.38250732421875 103.95347595214844 181.8372039794922" stroke-width="0.0" fill="rgb(233, 246, 0)" opacity="0.9833368"/>
    <path d="M 348.90447998046875 23.885316848754883 C 349.98828125 60.743412017822266 352.0310974121094 73.10508728027344 321.977294921875 67.62865447998047 C 294.7893981933594 95.43035888671875 286.1220397949219 84.6409912109375 268.5063781738281 44.008880615234375 C 274.5452880859375 3.8831212520599365 331.91387939453125 9.153007507324219 353.127197265625 19.560056686401367 C 321.2518310546875 12.513888359069824 344.62091064453125 20.1181697845459 348.90447998046875 23.885316848754883" stroke-width="0.0" fill="rgb(161, 203, 2)" opacity="0.5969924"/>
    <path d="M 612.2295532226562 498.4676208496094 C 612.695068359375 555.7781372070312 598.9624633789062 555.5672607421875 484.3211669921875 556.098388671875 C 474.25531005859375 497.66400146484375 479.3105163574219 472.9679870605469 485.5984802246094 481.4854431152344 C 488.15277099609375 487.81097412109375 494.1622619628906 490.1374816894531 513.2801513671875 486.0968322753906 C 534.6773071289062 475.84039306640625 545.0584716796875 477.1275329589844 612.2295532226562 498.4676208496094" stroke-width="0.0" fill="rgb(237, 253, 0)" opacity="0.9642041"/>
    <path d="M 39.03648376464844 447.9086608886719 C 70.31861877441406 478.8882751464844 90.2721939086914 490.6156921386719 38.53614807128906 516.2767333984375 C -49.87818908691406 506.0928039550781 -59.988616943359375 498.2651062011719 -70.64376831054688 488.3877258300781 C -23.479448318481445 406.8278503417969 -16.535900115966797 408.0950927734375 -12.767080307006836 412.6147155761719 C 4.737254619598389 431.2615051269531 36.766571044921875 432.14849853515625 39.03648376464844 447.9086608886719" stroke-width="0.0" fill="rgb(122, 49, 15)" opacity="0.99394447"/>
    <path d="M 411.25775146484375 127.64551544189453 C 379.9920654296875 198.7746124267578 363.8353271484375 200.55108642578125 339.0487976074219 166.01243591308594 C 302.5894775390625 137.92747497558594 294.18011474609375 143.7275848388672 304.55078125 128.05088806152344 C 315.4589538574219 106.34039306640625 290.781005859375 123.82878112792969 282.6643371582031 96.02237701416016 C 328.8939514160156 86.28237915039062 357.5129089355469 75.30244445800781 411.25775146484375 127.64551544189453" stroke-width="0.0" fill="rgb(208, 208, 205)" opacity="0.15391262"/>
    <path d="M 578.5482788085938 451.4100036621094 C 585.6088256835938 498.3446350097656 574.96337890625 533.5043334960938 566.4290161132812 488.1499938964844 C 609.2564086914062 499.034423828125 585.621826171875 486.5587463378906 552.84228515625 498.1524658203125 C 572.1578369140625 503.30352783203125 596.6610107421875 480.06610107421875 586.63232421875 516.4581298828125 C 542.093505859375 499.1451110839844 540.1595458984375 483.1230773925781 578.5482788085938 451.4100036621094" stroke-width="0.0" fill="rgb(255, 255, 16)" opacity="0.20685542"/>
    <path d="M 642.4117431640625 521.0313110351562 C 604.8367919921875 530.123046875 599.2719116210938 535.0902709960938 574.6480102539062 509.2996826171875 C 586.9075317382812 537.6046142578125 587.1876831054688 529.7361450195312 582.1948852539062 488.2708435058594 C 567.6744995117188 486.4688415527344 565.903076171875 502.78204345703125 564.1994018554688 487.20654296875 C 621.5109252929688 462.60845947265625 645.6068115234375 463.85675048828125 642.4117431640625 521.0313110351562" stroke-width="0.0" fill="rgb(242, 254, 30)" opacity="0.74533665"/>
    <path d="M 543.349609375 473.4197082519531 C 547.4354858398438 476.51300048828125 560.3523559570312 496.41632080078125 498.25274658203125 495.372314453125 C 446.8848571777344 491.5981750488281 446.9761962890625 489.8670654296875 430.0372619628906 439.63427734375 C 417.9208068847656 403.29779052734375 416.85211181640625 365.80242919921875 479.638671875 387.3302307128906 C 536.7174682617188 407.4859313964844 549.697021484375 432.36431884765625 543.349609375 473.4197082519531" stroke-width="0.0" fill="rgb(241, 252, 0)" opacity="1.0"/>
    <path d="M 410.3745422363281 307.60247802734375 C 413.9654846191406 336.79998779296875 402.39019775390625 336.9089050292969 425.65057373046875 338.9068908691406 C 359.35430908203125 338.2823486328125 345.16387939453125 337.5333251953125 365.8231506347656 334.2070617675781 C 372.113037109375 315.3670654296875 363.30810546875 288.04937744140625 362.3214111328125 244.12350463867188 C 408.6237487792969 247.32456970214844 406.4482116699219 253.87782287597656 410.3745422363281 307.60247802734375" stroke-width="0.0" fill="rgb(128, 150, 32)" opacity="0.7698209"/>
    <path d="M 478.3548583984375 94.33160400390625 C 454.52813720703125 92.79864501953125 425.02142333984375 101.60726165771484 430.2110595703125 112.56605529785156 C 467.5348205566406 112.05900573730469 458.7289733886719 105.87789916992188 423.3458251953125 119.4449691772461 C 429.9072570800781 106.3344955444336 446.274169921875 72.21510314941406 474.45355224609375 82.0691146850586 C 472.68048095703125 83.95035552978516 469.9563293457031 83.44906616210938 478.3548583984375 94.33160400390625" stroke-width="0.0" fill="rgb(173, 177, 95)" opacity="0.34767902"/>
    <path d="M 617.3906860351562 543.046142578125 C 625.1937255859375 546.7418823242188 618.2552490234375 558.2247314453125 640.449462890625 536.755859375 C 613.9373779296875 533.5841674804688 586.9002075195312 534.3629150390625 565.4158325195312 544.0617065429688 C 546.2577514648438 497.6427307128906 566.2135620117188 506.37109375 600.7835083007812 527.4208984375 C 601.7840576171875 515.586669921875 612.3001708984375 526.8745727539062 617.3906860351562 543.046142578125" stroke-width="0.0" fill="rgb(254, 252, 66)" opacity="0.21081121"/>
    <path d="M 431.1566162109375 459.3891296386719 C 433.0401306152344 521.10546875 441.9086608886719 555.108154296875 417.4778747558594 521.5089111328125 C 352.826416015625 529.035888671875 348.65411376953125 519.1050415039062 335.4427185058594 463.2455749511719 C 338.7431945800781 431.0765380859375 352.2716979980469 433.6505126953125 387.63232421875 439.2734680175781 C 442.6022644042969 444.3696594238281 445.8631286621094 437.6719665527344 431.1566162109375 459.3891296386719" stroke-width="0.0" fill="rgb(112, 32, 18)" opacity="0.91776556"/>
    <path d="M 648.4869995117188 487.4209289550781 C 641.118896484375 486.88958740234375 631.4674682617188 500.79449462890625 552.1736450195312 510.1033935546875 C 501.1056823730469 495.9444274902344 494.691650390625 461.2756652832031 505.7359619140625 380.59552001953125 C 546.4752807617188 380.29010009765625 548.0531005859375 382.77069091796875 626.1751098632812 375.90716552734375 C 613.7838134765625 377.8026123046875 611.054443359375 386.0738220214844 648.4869995117188 487.4209289550781" stroke-width="0.0" fill="rgb(239, 253, 3)" opacity="0.9741802"/>
    <path d="M 452.4989013671875 86.87004852294922 C 458.6435852050781 87.0908432006836 432.78729248046875 87.89457702636719 414.82635498046875 88.91493225097656 C 399.66278076171875 55.71129608154297 361.1905212402344 79.76068878173828 325.58343505859375 63.275482177734375 C 327.1836853027344 -29.552705764770508 331.8561706542969 -47.97300720214844 434.7609558105469 -33.69712829589844 C 448.0303649902344 9.0726318359375 441.0135803222656 44.906185150146484 452.4989013671875 86.87004852294922" stroke-width="0.0" fill="rgb(229, 255, 0)" opacity="1.0"/>
    <path d="M 154.87489318847656 77.37865447998047 C 153.5517578125 73.57032775878906 158.27223205566406 81.10851287841797 123.7123794555664 91.40357208251953 C 153.71908569335938 84.42610168457031 163.88641357421875 75.62178039550781 162.06927490234375 83.06427001953125 C 157.39820861816406 66.88140869140625 151.2702178955078 80.56576538085938 145.45465087890625 84.43665313720703 C 146.90032958984375 87.32853698730469 174.09375 85.37838745117188 154.87489318847656 77.37865447998047" stroke-width="0.0" fill="rgb(255, 226, 165)" opacity="0.0023442851"/>
    <path d="M 179.62417602539062 448.2331237792969 C 197.51467895507812 494.20013427734375 130.96047973632812 483.4532165527344 69.92867279052734 474.5004577636719 C 101.78843688964844 461.80718994140625 83.29237365722656 447.6531982421875 100.39151000976562 414.50750732421875 C 119.16426086425781 399.27935791015625 96.7302017211914 394.821044921875 112.90994262695312 405.1053161621094 C 139.2895050048828 400.9428405761719 155.89688110351562 405.3016662597656 179.62417602539062 448.2331237792969" stroke-width="0.0" fill="rgb(7, 220, 116)" opacity="1.0"/>
    <path d="M 41.52395248413086 267.87152099609375 C 51.731231689453125 263.05047607421875 65.16495513916016 266.48846435546875 65.29615020751953 286.4866027832031 C 104.49308013916016 284.85699462890625 107.73433685302734 288.9662780761719 60.11646270751953 291.477294921875 C 49.11534118652344 220.82762145996094 50.44084548950195 226.6798095703125 43.18094253540039 256.2347106933594 C 62.55512619018555 261.9579162597656 65.44629669189453 262.5604248046875 41.52395248413086 267.87152099609375" stroke-width="0.0" fill="rgb(200, 255, 107)" opacity="0.0"/>
    <path d="M 305.5051574707031 421.2936706542969 C 347.1743469238281 463.58990478515625 339.9774169921875 451.2288513183594 305.79351806640625 451.7423095703125 C 301.7837829589844 471.57916259765625 312.10919189453125 437.8596496582031 312.62884521484375 405.6607971191406 C 299.4539489746094 390.137451171875 312.36279296875 357.3570556640625 314.6807556152344 379.4399719238281 C 314.94012451171875 398.5023193359375 311.6190185546875 391.31707763671875 305.5051574707031 421.2936706542969" stroke-width="0.0" fill="rgb(106, 236, 83)" opacity="0.66325897"/>
    <path d="M 296.34613037109375 119.36334228515625 C 297.7328186035156 119.37242889404297 272.1244201660156 114.77127075195312 221.4786376953125 125.48228454589844 C 241.53404235839844 126.69664764404297 240.30615234375 105.5484619140625 231.8709259033203 60.821197509765625 C 199.41009521484375 47.75749206542969 203.79922485351562 51.2957878112793 247.33920288085938 63.07720947265625 C 257.9891052246094 59.21711730957031 273.0386047363281 69.35104370117188 296.34613037109375 119.36334228515625" stroke-width="0.0" fill="rgb(180, 219, 123)" opacity="0.4841154"/>
    <path d="M 481.4610290527344 173.64166259765625 C 462.9225769042969 237.95347595214844 447.9211120605469 254.73675537109375 397.3074951171875 253.35589599609375 C 397.9477844238281 231.2950439453125 377.0614318847656 235.39349365234375 344.6183166503906 183.6280059814453 C 350.98748779296875 167.6113739013672 379.21875 174.9797821044922 419.453369140625 143.33290100097656 C 489.64605712890625 129.13323974609375 487.9742431640625 122.26122283935547 481.4610290527344 173.64166259765625" stroke-width="0.0" fill="rgb(207, 0, 212)" opacity="0.9974824"/>
    <path d="M 624.4738159179688 382.58074951171875 C 617.0034790039062 397.6202697753906 610.3930053710938 405.16522216796875 612.3310546875 401.1436767578125 C 607.3648071289062 394.67742919921875 605.194091796875 383.8273010253906 610.1555786132812 371.8729248046875 C 607.4954223632812 368.206787109375 601.3989868164062 361.7149658203125 605.5263671875 368.7571716308594 C 613.7193603515625 367.5319519042969 622.0194702148438 372.2695007324219 624.4738159179688 382.58074951171875" stroke-width="0.0" fill="rgb(79, 147, 1)" opacity="0.8238358"/>
    <path d="M 223.44650268554688 61.499698638916016 C 193.83433532714844 60.07695007324219 184.14732360839844 62.828487396240234 191.50413513183594 63.0699348449707 C 212.22142028808594 69.03663635253906 229.21963500976562 83.75570678710938 249.92047119140625 80.31300354003906 C 242.02259826660156 42.317630767822266 240.33709716796875 30.70119857788086 231.14122009277344 8.345112800598145 C 223.57235717773438 56.73204040527344 229.16372680664062 59.86754608154297 223.44650268554688 61.499698638916016" stroke-width="0.0" fill="rgb(49, 219, 0)" opacity="0.6271399"/>
    <path d="M 538.632080078125 331.8278503417969 C 524.388427734375 287.8340759277344 503.96075439453125 289.4237365722656 514.576416015625 312.48809814453125 C 501.08782958984375 306.52703857421875 493.42840576171875 303.41595458984375 477.14013671875 284.4505615234375 C 491.1726379394531 287.4969482421875 490.08465576171875 277.4516296386719 493.2664489746094 254.2129669189453 C 538.47216796875 264.522216796875 550.5335693359375 279.0848388671875 538.632080078125 331.8278503417969" stroke-width="0.0" fill="rgb(255, 234, 13)" opacity="0.86627525"/>
    <path d="M 109.48904418945312 403.1294860839844 C 100.40491485595703 482.07611083984375 86.86840057373047 476.53363037109375 39.61720657348633 469.2654113769531 C 9.324905395507812 455.29071044921875 -27.518625259399414 468.0034484863281 -73.9281997680664 448.9424133300781 C -72.86898803710938 332.93121337890625 -47.675533294677734 346.5000305175781 17.32529640197754 333.3057556152344 C 69.94220733642578 348.0125427246094 119.30128479003906 357.6980285644531 109.48904418945312 403.1294860839844" stroke-width="0.0" fill="rgb(102, 239, 54)" opacity="0.99485594"/>
    <path d="M 402.14801025390625 221.52223205566406 C 390.99072265625 259.7939147949219 373.90625 261.36004638671875 334.2144775390625 247.9189453125 C 319.1273498535156 238.52259826660156 317.397705078125 224.3223419189453 364.7104797363281 226.93527221679688 C 379.3321228027344 191.72268676757812 375.93792724609375 165.29835510253906 368.12115478515625 174.58792114257812 C 368.71295166015625 201.95997619628906 389.17633056640625 187.6083526611328 402.14801025390625 221.52223205566406" stroke-width="0.0" fill="rgb(176, 50, 99)" opacity="0.78757"/>
    <path d="M 501.8094787597656 455.40997314453125 C 501.6859130859375 451.5942077636719 521.7609252929688 466.30078125 511.05413818359375 455.2501525878906 C 520.0492553710938 466.004638671875 515.3377685546875 462.0103759765625 515.9218139648438 444.83953857421875 C 504.84112548828125 450.5439453125 515.4495239257812 441.4576721191406 510.5423583984375 457.8849792480469 C 514.4573974609375 439.5690002441406 519.752197265625 466.486572265625 501.8094787597656 455.40997314453125" stroke-width="0.0" fill="rgb(242, 211, 73)" opacity="0.0025802797"/>
    <path d="M 429.00579833984375 461.5075988769531 C 437.4669189453125 517.8170166015625 446.6833801269531 506.1357727050781 424.3578186035156 524.6574096679688 C 426.9043884277344 447.2198486328125 422.9916687011719 435.8836669921875 415.4550476074219 455.9346923828125 C 413.4129333496094 474.71221923828125 412.8320617675781 460.4319763183594 428.5398254394531 466.1470947265625 C 443.7199401855469 435.9776611328125 442.8913879394531 424.3000793457031 429.00579833984375 461.5075988769531" stroke-width="0.0" fill="rgb(193, 191, 153)" opacity="0.6293435"/>
    <path d="M 466.5960388183594 433.6591796875 C 456.7074279785156 449.81268310546875 436.8517761230469 454.5003967285156 415.74798583984375 468.81561279296875 C 418.06182861328125 482.5052185058594 416.1301574707031 471.30657958984375 409.51922607421875 439.77325439453125 C 453.9248046875 448.4630432128906 445.7420654296875 452.65997314453125 427.491455078125 382.0915222167969 C 452.2458190917969 380.88568115234375 471.7414245605469 398.72589111328125 466.5960388183594 433.6591796875" stroke-width="0.0" fill="rgb(9, 190, 108)" opacity="0.95537907"/>
    <path d="M 476.64349365234375 507.18914794921875 C 459.9796447753906 529.0630493164062 446.037109375 544.8131713867188 420.0081787109375 556.9487915039062 C 400.026123046875 533.4561157226562 394.00726318359375 532.2863159179688 387.05523681640625 479.721435546875 C 390.5140075683594 471.3111877441406 401.7691345214844 463.98028564453125 414.6632995605469 454.9842224121094 C 486.3995361328125 458.9603576660156 483.61138916015625 459.5213317871094 476.64349365234375 507.18914794921875" stroke-width="0.0" fill="rgb(109, 18, 1)" opacity="0.94991297"/>
    <path d="M 192.8904571533203 227.9226837158203 C 191.75794982910156 287.3399658203125 180.89268493652344 276.3443603515625 131.60768127441406 277.6225280761719 C 109.85538482666016 268.11151123046875 103.45309448242188 267.3546447753906 90.46626281738281 188.3557891845703 C 93.5107192993164 142.3275909423828 81.09502410888672 158.32879638671875 154.5387420654297 155.64161682128906 C 175.20384216308594 159.18959045410156 184.06919860839844 168.4281463623047 192.8904571533203 227.9226837158203" stroke-width="0.0" fill="rgb(234, 240, 18)" opacity="1.0"/>
    <path d="M 346.0001525878906 -12.232540130615234 C 347.672607421875 44.979087829589844 365.4002380371094 75.53318786621094 346.4150085449219 70.14471435546875 C 280.9626770019531 70.14842224121094 268.1020202636719 66.03562927246094 264.4491271972656 0.6091821789741516 C 275.4589538574219 -40.814937591552734 276.7707214355469 -40.82408905029297 326.33428955078125 -64.38143157958984 C 356.2709655761719 -30.4116153717041 359.2423095703125 -12.634352684020996 346.0001525878906 -12.232540130615234" stroke-width="0.0" fill="rgb(215, 251, 0)" opacity="1.0"/>
    <path d="M 461.7924499511719 105.00817108154297 C 467.8565673828125 151.45932006835938 470.0494384765625 153.6853485107422 435.0794982910156 139.80015563964844 C 428.7575378417969 109.28504180908203 421.2584533691406 85.5462417602539 395.62713623046875 83.80815124511719 C 401.0296630859375 106.27690887451172 431.5169677734375 103.5744400024414 429.5064697265625 103.42886352539062 C 427.88592529296875 81.0899658203125 448.699951171875 69.806396484375 461.7924499511719 105.00817108154297" stroke-width="0.0" fill="rgb(164, 25, 125)" opacity="0.62514406"/>
    <path d="M 184.23300170898438 498.1966552734375 C 210.51145935058594 597.3402099609375 185.6122589111328 616.302001953125 128.3859100341797 603.6309814453125 C 125.57176208496094 480.22076416015625 111.25524139404297 474.2931213378906 75.39530181884766 479.7692565917969 C 82.34564208984375 464.50921630859375 83.69857025146484 486.8698425292969 174.00537109375 481.1002502441406 C 185.7188262939453 463.7965393066406 170.39488220214844 467.79937744140625 184.23300170898438 498.1966552734375" stroke-width="0.0" fill="rgb(127, 46, 14)" opacity="0.98234534"/>
    <path d="M 204.58106994628906 183.0029296875 C 192.87725830078125 235.6073760986328 165.68006896972656 241.5968780517578 164.21124267578125 209.12637329101562 C 164.7433624267578 175.95025634765625 179.6475830078125 200.86053466796875 159.10995483398438 217.24562072753906 C 142.2145538330078 197.12608337402344 154.94651794433594 177.05943298339844 183.28184509277344 129.63400268554688 C 220.79360961914062 122.27120971679688 200.84913635253906 146.90003967285156 204.58106994628906 183.0029296875" stroke-width="0.0" fill="rgb(251, 0, 229)" opacity="1.0"/>
    <path d="M 95.55786895751953 161.0964813232422 C 80.44639587402344 194.7646026611328 111.18405151367188 192.12051391601562 47.97789001464844 193.04649353027344 C 35.44519805908203 180.7323455810547 57.83359146118164 166.24801635742188 39.726104736328125 116.62728118896484 C 36.350852966308594 84.87179565429688 25.631298065185547 96.79566955566406 78.48738861083984 108.64776611328125 C 116.30079650878906 104.14707946777344 109.37466430664062 97.44371795654297 95.55786895751953 161.0964813232422" stroke-width="0.0" fill="rgb(240, 246, 11)" opacity="0.9886674"/>
    <path d="M 498.1754455566406 141.57992553710938 C 446.83563232421875 159.62017822265625 462.0522766113281 189.02597045898438 473.0859680175781 142.05284118652344 C 444.7052001953125 127.10273742675781 449.85662841796875 106.09786224365234 437.3564453125 125.47520446777344 C 422.7055969238281 98.04764556884766 413.9873046875 111.98780059814453 429.0669860839844 121.33540344238281 C 463.9744873046875 102.873779296875 478.3487854003906 104.61196899414062 498.1754455566406 141.57992553710938" stroke-width="0.0" fill="rgb(148, 59, 153)" opacity="0.80711216"/>
    <path d="M 450.2332458496094 223.38865661621094 C 442.8125305175781 273.6480712890625 417.0134582519531 280.4262390136719 376.2063293457031 277.0479736328125 C 373.95635986328125 264.1343994140625 378.66357421875 251.62713623046875 387.2797546386719 219.0432891845703 C 351.1753845214844 208.9803009033203 366.7618713378906 204.2023162841797 389.60345458984375 196.9153289794922 C 419.5364990234375 205.19656372070312 444.09051513671875 212.70616149902344 450.2332458496094 223.38865661621094" stroke-width="0.0" fill="rgb(205, 10, 188)" opacity="0.6993938"/>
    <path d="M 244.7996063232422 95.50031280517578 C 192.05731201171875 120.93267059326172 181.33013916015625 147.1450653076172 177.79100036621094 146.0105743408203 C 144.64889526367188 143.79312133789062 152.56689453125 134.7587127685547 153.6451416015625 103.11933135986328 C 151.52110290527344 75.59076690673828 143.66244506835938 40.31348419189453 180.6647491455078 20.080188751220703 C 231.20721435546875 14.248186111450195 237.44947814941406 28.90401268005371 244.7996063232422 95.50031280517578" stroke-width="0.0" fill="rgb(205, 253, 0)" opacity="0.9852068"/>
    <path d="M 48.09187698364258 172.40171813964844 C 39.56707000732422 168.2164764404297 40.35176086425781 162.24742126464844 32.85818862915039 134.56231689453125 C -26.759235382080078 136.10899353027344 -26.939468383789062 144.64988708496094 -26.133499145507812 139.83924865722656 C -8.409601211547852 111.25944519042969 -23.77240562438965 98.06324005126953 17.946388244628906 115.9303207397461 C 56.027976989746094 112.40873718261719 50.724281311035156 137.71202087402344 48.09187698364258 172.40171813964844" stroke-width="0.0" fill="rgb(134, 242, 6)" opacity="0.5591383"/>
    <path d="M 575.8151245117188 497.1802978515625 C 561.5958862304688 489.9517822265625 566.1575927734375 464.3429260253906 553.527099609375 460.7713317871094 C 561.1004638671875 470.828125 572.905029296875 460.48675537109375 576.3134765625 490.2804870605469 C 544.9053344726562 467.61090087890625 545.9917602539062 449.322998046875 594.34423828125 472.6206970214844 C 579.367431640625 458.0885314941406 585.0614624023438 463.725830078125 575.8151245117188 497.1802978515625" stroke-width="0.0" fill="rgb(252, 233, 54)" opacity="0.0"/>
    <path d="M 57.44910430908203 176.93109130859375 C 54.27457046508789 202.6516876220703 59.50754165649414 222.6544647216797 38.007179260253906 244.11659240722656 C 7.561713695526123 247.40394592285156 -5.772768020629883 223.41981506347656 -28.644554138183594 215.7855224609375 C -52.208675384521484 103.32281494140625 -64.53173065185547 111.61840057373047 28.260629653930664 111.37821197509766 C 63.94733810424805 115.17353820800781 59.42847442626953 133.8592987060547 57.44910430908203 176.93109130859375" stroke-width="0.0" fill="rgb(239, 250, 6)" opacity="0.9948782"/>
    <path d="M 203.23899841308594 71.54429626464844 C 187.2088623046875 135.42095947265625 178.541015625 155.76454162597656 146.78077697753906 176.90277099609375 C 99.6474838256836 149.41212463378906 93.11085510253906 139.14260864257812 87.1253662109375 130.11732482910156 C 85.80003356933594 46.482948303222656 83.50508880615234 40.97900390625 134.2412567138672 -4.431507587432861 C 212.5469512939453 14.009567260742188 207.2393798828125 30.86294174194336 203.23899841308594 71.54429626464844" stroke-width="0.0" fill="rgb(231, 255, 6)" opacity="0.9633457"/>
    <path d="M 473.5695495605469 102.1701431274414 C 475.3553466796875 165.27122497558594 487.740478515625 171.70115661621094 426.2633972167969 165.59996032714844 C 410.5493469238281 107.52967834472656 417.5072326660156 95.6904296875 350.0522766113281 94.4807357788086 C 340.7397155761719 62.6708869934082 349.8716125488281 64.68831634521484 370.0376892089844 66.7878646850586 C 407.53839111328125 70.43606567382812 431.8635559082031 81.94444274902344 473.5695495605469 102.1701431274414" stroke-width="0.0" fill="rgb(202, 1, 225)" opacity="0.9715504"/>
    <path d="M 655.9240112304688 307.306884765625 C 663.7293701171875 330.706298828125 656.3540649414062 336.8680419921875 585.150390625 335.7570495605469 C 567.6337280273438 324.58935546875 578.8339233398438 288.64276123046875 571.1430053710938 247.60511779785156 C 570.939208984375 252.60086059570312 586.7915649414062 244.11386108398438 601.1353759765625 225.75840759277344 C 624.6671142578125 220.8216552734375 629.5462646484375 226.79832458496094 655.9240112304688 307.306884765625" stroke-width="0.0" fill="rgb(206, 248, 6)" opacity="0.9520723"/>
    <path d="M 321.5862731933594 218.08399963378906 C 276.18035888671875 262.20892333984375 249.3468475341797 251.27589416503906 238.7713623046875 256.3238525390625 C 196.75360107421875 248.99464416503906 157.8097686767578 238.63328552246094 148.17269897460938 203.59996032714844 C 146.98672485351562 171.2919158935547 166.3418731689453 178.18116760253906 164.7412109375 187.13233947753906 C 230.5313720703125 194.05807495117188 286.0345458984375 178.1279754638672 321.5862731933594 218.08399963378906" stroke-width="0.0" fill="rgb(231, 0, 207)" opacity="1.0"/>
    <path d="M 329.6610412597656 391.50994873046875 C 325.742919921875 395.48492431640625 315.3199157714844 417.4716796875 294.8315734863281 433.2759094238281 C 235.60879516601562 435.62115478515625 199.42459106445312 431.25042724609375 243.66000366210938 373.3122253417969 C 264.0316467285156 329.75054931640625 257.1826477050781 340.05419921875 293.1077880859375 347.31378173828125 C 334.868896484375 375.8349914550781 340.4432067871094 376.009765625 329.6610412597656 391.50994873046875" stroke-width="0.0" fill="rgb(0, 107, 249)" opacity="0.91835135"/>
    <path d="M 515.2428588867188 -8.137280464172363 C 511.2546081542969 25.009902954101562 503.6707458496094 21.198284149169922 511.9957580566406 22.20585823059082 C 496.1620788574219 7.705312252044678 470.915771484375 -20.610340118408203 462.1482849121094 4.614499092102051 C 484.2652282714844 17.705825805664062 480.6009826660156 -1.2256224155426025 476.7524719238281 -2.439987897872925 C 501.1701354980469 -8.860126495361328 516.7545776367188 -9.456684112548828 515.2428588867188 -8.137280464172363" stroke-width="0.0" fill="rgb(210, 158, 239)" opacity="0.27645665"/>
    <path d="M 83.86739349365234 174.9324493408203 C 89.37866973876953 187.85704040527344 79.9415283203125 209.03707885742188 119.41097259521484 201.99205017089844 C 114.49785614013672 163.56689453125 109.42521667480469 157.13955688476562 111.43556213378906 155.34136962890625 C 104.27295684814453 181.58262634277344 96.78091430664062 198.66343688964844 111.63777160644531 201.6748504638672 C 165.7214813232422 208.71629333496094 117.32286071777344 187.24093627929688 83.86739349365234 174.9324493408203" stroke-width="0.0" fill="rgb(236, 210, 50)" opacity="0.13113938"/>
    <path d="M 293.77197265625 540.4324340820312 C 327.11407470703125 603.6344604492188 320.58795166015625 594.25146484375 299.2509765625 620.7102661132812 C 200.5182342529297 613.9017944335938 167.96034240722656 599.9208984375 182.1887664794922 560.601318359375 C 221.147216796875 519.2948608398438 245.1844940185547 518.111083984375 293.3072509765625 519.664306640625 C 307.3373107910156 470.89642333984375 302.87103271484375 454.5839538574219 293.77197265625 540.4324340820312" stroke-width="0.0" fill="rgb(125, 77, 15)" opacity="0.9586862"/>
    <path d="M 262.8121643066406 266.0344543457031 C 265.23614501953125 343.18621826171875 231.95718383789062 347.3457336425781 185.95777893066406 333.6572265625 C 157.08734130859375 334.2431945800781 169.0281982421875 332.9735107421875 181.56005859375 281.5465087890625 C 157.53765869140625 218.77584838867188 141.0767822265625 214.20713806152344 185.44480895996094 230.72637939453125 C 228.990966796875 246.55905151367188 248.4356689453125 238.6620330810547 262.8121643066406 266.0344543457031" stroke-width="0.0" fill="rgb(241, 255, 5)" opacity="1.0"/>
    <path d="M 178.22174072265625 78.51837921142578 C 149.3392333984375 68.4380111694336 159.35289001464844 61.50506591796875 164.5129852294922 123.603515625 C 84.19895935058594 126.29972839355469 87.32706451416016 134.648681640625 82.51371002197266 89.37541198730469 C 60.909149169921875 24.797727584838867 66.25611877441406 -9.299178123474121 81.44522094726562 -22.392663955688477 C 179.36585998535156 -14.016223907470703 187.47727966308594 -0.213261678814888 178.22174072265625 78.51837921142578" stroke-width="0.0" fill="rgb(229, 253, 8)" opacity="0.7332043"/>
    <path d="M 524.7864990234375 582.9264526367188 C 515.8509521484375 502.6889953613281 523.5420532226562 526.9470825195312 541.5440673828125 554.5995483398438 C 521.3837890625 548.6885986328125 499.6360168457031 523.2735595703125 503.50921630859375 548.6273803710938 C 511.4171142578125 543.52001953125 511.2776794433594 544.8814086914062 484.27374267578125 561.3263549804688 C 484.7695617675781 561.0872802734375 498.657958984375 579.9716796875 524.7864990234375 582.9264526367188" stroke-width="0.0" fill="rgb(197, 248, 13)" opacity="0.5651413"/>
    <path d="M 423.8953552246094 394.4893493652344 C 418.42193603515625 431.3180847167969 383.0591735839844 422.0967102050781 334.5946044921875 393.9586181640625 C 307.2212829589844 403.9000549316406 295.09332275390625 411.447265625 258.4324035644531 364.60601806640625 C 226.37387084960938 231.9761199951172 245.98631286621094 216.53611755371094 354.7271423339844 222.91249084472656 C 418.7586975097656 282.533203125 414.2711486816406 299.308349609375 423.8953552246094 394.4893493652344" stroke-width="0.0" fill="rgb(2, 138, 204)" opacity="1.0"/>
    <path d="M 147.33761596679688 217.47854614257812 C 156.26324462890625 172.20223999023438 150.72593688964844 160.800048828125 145.27053833007812 153.11846923828125 C 147.84844970703125 203.7998809814453 141.64759826660156 178.5525665283203 143.180908203125 167.61915588378906 C 141.25111389160156 157.4341583251953 136.1700897216797 149.02467346191406 145.71945190429688 148.48733520507812 C 159.81166076660156 165.3972930908203 138.2079620361328 184.55393981933594 147.33761596679688 217.47854614257812" stroke-width="0.0" fill="rgb(172, 199, 143)" opacity="0.40069184"/>
    <path d="M 145.09754943847656 291.85260009765625 C 143.6178741455078 382.851806640625 125.19298553466797 389.7745666503906 75.57380676269531 367.77740478515625 C 33.9836540222168 352.3017272949219 24.592342376708984 333.88946533203125 29.937284469604492 336.5456848144531 C 12.172240257263184 319.422607421875 8.727256774902344 286.0454406738281 28.54995346069336 276.1868896484375 C 89.15637969970703 267.9954528808594 117.25171661376953 279.18585205078125 145.09754943847656 291.85260009765625" stroke-width="0.0" fill="rgb(219, 250, 20)" opacity="0.9918104"/>
    <path d="M 576.8954467773438 376.7654113769531 C 576.6904296875 440.7825012207031 541.7535400390625 441.2838134765625 466.5120849609375 432.3516845703125 C 463.533447265625 398.2274169921875 426.3681640625 408.32177734375 408.5829772949219 385.76373291015625 C 428.4411315917969 326.8544921875 432.8869323730469 307.47271728515625 460.46087646484375 263.8140869140625 C 541.9674682617188 264.50372314453125 552.0069580078125 298.20257568359375 576.8954467773438 376.7654113769531" stroke-width="0.0" fill="rgb(233, 251, 20)" opacity="0.9866622"/>
    <path d="M 300.6764831542969 72.31742095947266 C 209.7920684814453 101.30623626708984 196.83944702148438 114.48259735107422 170.36181640625 84.21892547607422 C 177.01296997070312 62.4355583190918 166.21839904785156 47.075721740722656 155.19578552246094 21.91082763671875 C 150.6273651123047 -18.746952056884766 157.67767333984375 -25.66193389892578 209.14637756347656 -50.729759216308594 C 261.5030517578125 -47.46963119506836 290.906005859375 -50.1569709777832 300.6764831542969 72.31742095947266" stroke-width="0.0" fill="rgb(226, 254, 1)" opacity="0.9898095"/>
    <path d="M 617.3746948242188 415.0352478027344 C 595.6514892578125 426.25238037109375 602.6175537109375 411.5504150390625 587.7188110351562 412.78790283203125 C 581.5941162109375 422.0730895996094 573.3221435546875 413.7070617675781 566.874755859375 412.4961242675781 C 573.2551879882812 370.6145324707031 551.0227661132812 371.7627258300781 580.5588989257812 364.11517333984375 C 619.0670776367188 367.03118896484375 636.8060302734375 371.5220642089844 617.3746948242188 415.0352478027344" stroke-width="0.0" fill="rgb(232, 246, 23)" opacity="0.99062103"/>
    <path d="M 222.74664306640625 319.03009033203125 C 170.6372833251953 336.6673889160156 140.45489501953125 330.034423828125 137.35317993164062 371.7977600097656 C 139.848876953125 351.996337890625 143.29737854003906 329.7454528808594 125.28936767578125 299.169189453125 C 138.07220458984375 328.72442626953125 145.92613220214844 328.39630126953125 148.14718627929688 252.57315063476562 C 189.10415649414062 246.68739318847656 210.38906860351562 260.5447082519531 222.74664306640625 319.03009033203125" stroke-width="0.0" fill="rgb(215, 255, 20)" opacity="0.4416286"/>
    <path d="M 645.3416748046875 364.8898620605469 C 617.1992797851562 362.3935241699219 610.1605224609375 370.02001953125 570.8850708007812 373.7725830078125 C 552.260009765625 351.6184387207031 559.1547241210938 333.5373229980469 547.7047119140625 325.44903564453125 C 547.9203491210938 318.8727722167969 536.9083862304688 313.6199645996094 574.7801513671875 315.4697570800781 C 609.3927612304688 294.3137512207031 616.23583984375 303.21136474609375 645.3416748046875 364.8898620605469" stroke-width="0.0" fill="rgb(235, 255, 13)" opacity="0.9646025"/>
    <path d="M 583.3981323242188 15.067371368408203 C 595.4974975585938 53.29476547241211 599.7160034179688 106.99935150146484 498.0030822753906 128.53359985351562 C 440.8759765625 76.81568145751953 419.47772216796875 87.12181854248047 401.8117980957031 57.76350021362305 C 420.89996337890625 -83.43404388427734 442.23284912109375 -75.55590057373047 522.7199096679688 -66.09899139404297 C 551.77294921875 -39.368778228759766 561.8505249023438 -33.67097473144531 583.3981323242188 15.067371368408203" stroke-width="0.0" fill="rgb(237, 255, 3)" opacity="0.9764925"/>
    <path d="M 345.5406799316406 458.67291259765625 C 313.5773010253906 447.419677734375 337.11322021484375 475.7608642578125 314.2437438964844 489.30316162109375 C 248.2891082763672 492.9711608886719 214.9307861328125 485.0614318847656 216.89906311035156 431.254150390625 C 261.832763671875 403.173095703125 288.1727294921875 405.60076904296875 295.8565979003906 427.0684509277344 C 331.3398132324219 439.7755432128906 346.3829040527344 436.7742614746094 345.5406799316406 458.67291259765625" stroke-width="0.0" fill="rgb(40, 229, 121)" opacity="1.0"/>
    <path d="M 616.6265258789062 241.62152099609375 C 622.0756225585938 224.42916870117188 643.2266235351562 261.82110595703125 592.0474243164062 261.3704833984375 C 497.23114013671875 256.9752197265625 511.3334045410156 245.93881225585938 505.77532958984375 186.57078552246094 C 493.2076416015625 147.16920471191406 518.5577392578125 131.99363708496094 602.656005859375 149.512451171875 C 631.9225463867188 198.09686279296875 620.657958984375 231.2637481689453 616.6265258789062 241.62152099609375" stroke-width="0.0" fill="rgb(238, 248, 10)" opacity="0.9619902"/>
    <path d="M 129.79806518554688 595.6177368164062 C 141.4447479248047 626.2972412109375 80.08013153076172 613.2218627929688 25.06332778930664 600.4390869140625 C 31.942060470581055 571.4052734375 16.628599166870117 587.2091064453125 -8.730392456054688 550.4896240234375 C -20.54698944091797 481.88397216796875 -19.218971252441406 477.5712890625 70.96748352050781 472.7522888183594 C 135.60386657714844 469.42791748046875 139.14064025878906 490.5632629394531 129.79806518554688 595.6177368164062" stroke-width="0.0" fill="rgb(126, 61, 25)" opacity="1.0"/>
    <path d="M 129.0631561279297 113.5478286743164 C 137.53372192382812 140.97804260253906 129.07237243652344 121.0866928100586 101.51041412353516 127.33149719238281 C 81.84685516357422 115.66043090820312 71.2222900390625 106.69129943847656 78.39472198486328 126.51907348632812 C 84.11827850341797 97.39234161376953 98.17996978759766 72.23664855957031 120.17882537841797 114.5497055053711 C 87.54430389404297 123.52384948730469 86.79607391357422 90.50440216064453 129.0631561279297 113.5478286743164" stroke-width="0.0" fill="rgb(178, 233, 42)" opacity="0.026473753"/>
    <path d="M 443.09942626953125 403.782958984375 C 445.8057861328125 439.8773498535156 468.8159484863281 463.2750244140625 418.40765380859375 468.96343994140625 C 372.2369384765625 459.0132751464844 369.56292724609375 441.93017578125 362.0234069824219 406.51605224609375 C 373.1245422363281 416.8888244628906 396.7440490722656 418.58447265625 418.8621826171875 401.4364013671875 C 395.1246643066406 377.96783447265625 433.3089599609375 399.0845031738281 443.09942626953125 403.782958984375" stroke-width="0.0" fill="rgb(8, 197, 106)" opacity="0.98653036"/>
    <path d="M 374.7962951660156 81.25718688964844 C 320.3781433105469 115.8819351196289 312.2708435058594 126.89289093017578 292.2645263671875 129.51234436035156 C 251.77850341796875 115.20283508300781 258.24603271484375 106.32902526855469 259.4775695800781 93.8026123046875 C 289.5702209472656 71.48783111572266 307.7330017089844 70.36068725585938 309.8573303222656 70.14730072021484 C 357.2320556640625 65.98383331298828 390.5990905761719 65.10446166992188 374.7962951660156 81.25718688964844" stroke-width="0.0" fill="rgb(228, 0, 198)" opacity="0.8756135"/>
    <path d="M 409.57403564453125 195.7825469970703 C 404.74041748046875 225.54808044433594 392.6739807128906 230.95042419433594 381.6525573730469 212.4326934814453 C 376.3201904296875 249.27224731445312 389.8670349121094 247.36888122558594 332.8404541015625 250.58120727539062 C 331.968017578125 160.7002716064453 331.6291198730469 166.80702209472656 362.205322265625 158.29859924316406 C 390.708251953125 160.94183349609375 404.44647216796875 161.1497344970703 409.57403564453125 195.7825469970703" stroke-width="0.0" fill="rgb(220, 0, 251)" opacity="0.5258307"/>
    <path d="M 97.7878646850586 291.7578125 C 91.06169891357422 288.188232421875 65.2848129272461 296.7414245605469 9.536722183227539 269.2622375488281 C -10.696765899658203 279.4427490234375 1.418121576309204 292.7450866699219 8.582779884338379 314.8402404785156 C 59.81435775756836 313.575927734375 41.01251220703125 304.6853942871094 61.018184661865234 265.29376220703125 C 55.311180114746094 243.17628479003906 91.09693145751953 253.810546875 97.7878646850586 291.7578125" stroke-width="0.0" fill="rgb(248, 229, 29)" opacity="0.18555152"/>
    <path d="M 49.61903381347656 310.1700744628906 C 37.92415237426758 312.65380859375 36.73281478881836 307.1334228515625 -5.490157127380371 298.6163635253906 C -17.8835506439209 309.02276611328125 -28.956714630126953 309.1644287109375 -66.48184967041016 234.0178985595703 C -39.50617980957031 216.75369262695312 -23.49468231201172 213.2089080810547 40.29255676269531 212.2439727783203 C 57.44422149658203 204.16148376464844 51.834434509277344 231.49099731445312 49.61903381347656 310.1700744628906" stroke-width="0.0" fill="rgb(236, 251, 7)" opacity="0.96705717"/>
    <path d="M 359.52532958984375 -28.666391372680664 C 353.5731506347656 -15.071989059448242 354.6780090332031 -5.736489772796631 342.00433349609375 46.62392807006836 C 337.0386047363281 67.38555145263672 331.531494140625 48.00616455078125 331.6114501953125 -9.66811752319336 C 342.378173828125 -15.684921264648438 343.00390625 -20.139259338378906 360.6090393066406 -30.09764862060547 C 367.6289978027344 -24.140026092529297 370.2528381347656 -8.12901782989502 359.52532958984375 -28.666391372680664" stroke-width="0.0" fill="rgb(255, 242, 9)" opacity="0.17072263"/>
    <path d="M 473.4200134277344 170.2334747314453 C 419.70831298828125 183.66029357910156 436.4903869628906 171.68527221679688 426.4773254394531 125.80133819580078 C 416.442138671875 116.26890563964844 411.1494445800781 127.80081939697266 402.81451416015625 97.59955596923828 C 395.9201965332031 101.5534439086914 412.5736999511719 124.1137924194336 424.6638488769531 129.16558837890625 C 443.9344482421875 98.70065307617188 464.0579833984375 98.61264038085938 473.4200134277344 170.2334747314453" stroke-width="0.0" fill="rgb(225, 8, 205)" opacity="0.13448298"/>
    <path d="M 119.47177124023438 80.3824234008789 C 104.61305236816406 90.09976959228516 96.74905395507812 87.09022521972656 109.00733184814453 119.13134765625 C 109.75455474853516 116.84363555908203 109.6874008178711 95.33267211914062 117.00186920166016 87.44940948486328 C 130.67332458496094 70.17251586914062 119.25504302978516 80.61023712158203 128.2078094482422 88.3279037475586 C 138.73760986328125 103.04661560058594 128.10423278808594 102.32723236083984 119.47177124023438 80.3824234008789" stroke-width="0.0" fill="rgb(249, 248, 51)" opacity="0.10994647"/>
    <path d="M 179.6635284423828 125.1363754272461 C 162.26239013671875 156.4577178955078 166.9791717529297 160.41046142578125 149.69070434570312 174.2172088623047 C 142.1085205078125 204.82220458984375 123.88552856445312 202.9856719970703 126.39215850830078 166.2409210205078 C 158.3783721923828 165.16029357910156 164.43238830566406 158.01954650878906 162.53384399414062 88.27977752685547 C 210.24778747558594 87.12274932861328 211.48463439941406 121.12686157226562 179.6635284423828 125.1363754272461" stroke-width="0.0" fill="rgb(229, 253, 4)" opacity="0.44270068"/>
    <path d="M 626.849365234375 569.3302001953125 C 594.7286987304688 621.1759643554688 569.3624267578125 621.5491333007812 486.46490478515625 600.2896118164062 C 494.840087890625 545.7183837890625 493.4294128417969 551.1223754882812 482.7889404296875 528.73779296875 C 483.436279296875 524.555419921875 497.4617614746094 519.2279052734375 529.7115478515625 521.7368774414062 C 580.120849609375 486.3795471191406 609.9774780273438 471.505126953125 626.849365234375 569.3302001953125" stroke-width="0.0" fill="rgb(241, 248, 9)" opacity="0.9581312"/>
    <path d="M 584.24560546875 339.7438659667969 C 614.0025634765625 387.5283508300781 583.7762451171875 395.61822509765625 561.1372680664062 384.6029052734375 C 545.6287231445312 388.4449462890625 543.0687255859375 365.060791015625 545.0341186523438 332.18853759765625 C 548.8161010742188 317.5166320800781 542.5283813476562 314.1386413574219 541.59375 300.8858642578125 C 556.7752075195312 319.8345031738281 550.993896484375 343.27667236328125 584.24560546875 339.7438659667969" stroke-width="0.0" fill="rgb(232, 243, 25)" opacity="0.4566961"/>
    <path d="M 96.27325439453125 137.0143585205078 C 102.61457824707031 189.91136169433594 107.20126342773438 198.44419860839844 112.64739990234375 167.9535369873047 C 86.52496337890625 168.70172119140625 73.11886596679688 164.271240234375 85.87349700927734 168.22544860839844 C 73.4579086303711 162.82736206054688 66.36947631835938 137.39906311035156 81.4917221069336 125.79033660888672 C 103.55574035644531 120.66141510009766 95.63064575195312 135.279052734375 96.27325439453125 137.0143585205078" stroke-width="0.0" fill="rgb(169, 235, 40)" opacity="0.05412181"/>
    <path d="M 522.3890380859375 155.3974609375 C 548.267822265625 204.15306091308594 532.8712768554688 210.45968627929688 499.20001220703125 176.06863403320312 C 482.68658447265625 143.10162353515625 468.1892395019531 125.307373046875 453.7523498535156 112.46936798095703 C 454.6922912597656 102.8049087524414 472.528076171875 106.81636810302734 473.53411865234375 105.3089370727539 C 480.9821472167969 114.74996948242188 497.3690490722656 118.81246948242188 522.3890380859375 155.3974609375" stroke-width="0.0" fill="rgb(73, 0, 118)" opacity="1.0"/>
    <path d="M 542.4913940429688 475.33599853515625 C 506.3583679199219 464.7901611328125 490.68597412109375 456.2818908691406 490.0281066894531 499.9548034667969 C 488.6554260253906 499.7843933105469 486.2029113769531 516.7440185546875 500.0462951660156 501.655029296875 C 524.5740356445312 489.6905212402344 534.7909545898438 457.09747314453125 495.97100830078125 475.9764404296875 C 537.7625732421875 480.47833251953125 557.8123779296875 484.70941162109375 542.4913940429688 475.33599853515625" stroke-width="0.0" fill="rgb(242, 239, 39)" opacity="0.04020013"/>
    <path d="M 158.89547729492188 139.0563507080078 C 162.04501342773438 190.75466918945312 152.74900817871094 182.727783203125 106.73979187011719 169.1201171875 C 86.33285522460938 179.20404052734375 88.59053802490234 149.9536895751953 89.96424102783203 146.25921630859375 C 85.69117736816406 150.62657165527344 94.52474212646484 131.88771057128906 78.46485900878906 96.31613159179688 C 119.75658416748047 99.2389907836914 144.86366271972656 108.00077819824219 158.89547729492188 139.0563507080078" stroke-width="0.0" fill="rgb(231, 250, 14)" opacity="0.9049867"/>
    <path d="M 217.48594665527344 313.8320007324219 C 221.23043823242188 356.6606140136719 234.6649169921875 383.3204650878906 248.75559997558594 365.80987548828125 C 216.69813537597656 325.33056640625 206.99658203125 334.9994201660156 185.68331909179688 325.8332214355469 C 173.88876342773438 311.3958740234375 200.7704315185547 314.35443115234375 237.5070343017578 316.7540283203125 C 239.8252716064453 312.66119384765625 231.60386657714844 313.4344787597656 217.48594665527344 313.8320007324219" stroke-width="0.0" fill="rgb(228, 255, 14)" opacity="0.96424395"/>
    <path d="M 321.341552734375 239.6068115234375 C 273.19635009765625 251.87344360351562 245.2941131591797 244.70875549316406 272.1749267578125 265.0948791503906 C 265.97650146484375 258.1579284667969 259.8079528808594 244.79055786132812 182.91285705566406 237.16592407226562 C 168.1636505126953 198.9495849609375 219.90469360351562 207.39927673339844 301.1584167480469 215.32423400878906 C 330.01214599609375 206.72653198242188 335.41741943359375 205.22496032714844 321.341552734375 239.6068115234375" stroke-width="0.0" fill="rgb(68, 0, 132)" opacity="1.0"/>
    <path d="M 374.5818176269531 421.2452392578125 C 366.4339904785156 459.6442565917969 351.71038818359375 473.0695495605469 331.3042297363281 453.7956848144531 C 334.1849060058594 424.4736633300781 321.6136169433594 409.8099670410156 329.42333984375 421.30072021484375 C 334.4001770019531 396.6109924316406 327.42706298828125 387.6976623535156 328.3272399902344 393.91064453125 C 341.13201904296875 391.0927734375 354.3929748535156 379.1351318359375 374.5818176269531 421.2452392578125" stroke-width="0.0" fill="rgb(16, 126, 205)" opacity="0.7266252"/>
    <path d="M 295.99896240234375 182.20596313476562 C 311.2415771484375 197.67628479003906 300.5160827636719 207.9402618408203 291.97222900390625 207.7015380859375 C 270.49224853515625 204.97073364257812 235.78782653808594 192.14730834960938 221.90492248535156 189.66018676757812 C 259.9741516113281 177.76707458496094 282.9488220214844 169.2804412841797 271.03924560546875 140.94345092773438 C 312.4688415527344 141.44639587402344 295.5135192871094 159.41407775878906 295.99896240234375 182.20596313476562" stroke-width="0.0" fill="rgb(242, 0, 207)" opacity="0.96734405"/>
    <path d="M 450.611083984375 557.01416015625 C 465.2829895019531 620.6483154296875 438.6192932128906 622.4058227539062 342.434326171875 606.7095947265625 C 336.0501403808594 529.7305908203125 313.7159729003906 476.4521789550781 348.6319885253906 490.6610107421875 C 368.7502746582031 508.98541259765625 370.3430480957031 503.4854736328125 400.4166259765625 499.7906494140625 C 402.8113098144531 488.88330078125 436.31463623046875 488.5528869628906 450.611083984375 557.01416015625" stroke-width="0.0" fill="rgb(106, 48, 19)" opacity="0.9768992"/>
    <path d="M 47.663429260253906 566.1090087890625 C 65.82949829101562 601.4749755859375 67.7829818725586 631.1005859375 47.18240737915039 630.7647705078125 C -16.592756271362305 602.7675170898438 -24.23335838317871 594.5634765625 -29.552818298339844 577.9017333984375 C -21.0803165435791 552.8086547851562 -21.589248657226562 537.066650390625 -8.4743070602417 532.9105834960938 C 26.268051147460938 541.7235717773438 27.9521541595459 553.42919921875 47.663429260253906 566.1090087890625" stroke-width="0.0" fill="rgb(62, 46, 4)" opacity="1.0"/>
    <path d="M 7.9047698974609375 367.9988708496094 C -0.6841568350791931 395.3831481933594 3.4157800674438477 416.1446228027344 -10.547908782958984 421.4938659667969 C -28.740097045898438 398.22357177734375 -35.79646682739258 390.4080505371094 -22.89409828186035 340.40545654296875 C -4.607536315917969 297.7018737792969 -1.1272096633911133 281.5684509277344 1.6318973302841187 324.891357421875 C 4.768589973449707 363.90301513671875 7.960861682891846 372.5713806152344 7.9047698974609375 367.9988708496094" stroke-width="0.0" fill="rgb(19, 13, 0)" opacity="0.9462307"/>
    <path d="M 54.075897216796875 572.6229858398438 C 14.668970108032227 575.822265625 15.047683715820312 574.3729858398438 -25.26323890686035 572.4548950195312 C -24.736705780029297 579.0277709960938 -19.599361419677734 577.796630859375 3.0697007179260254 551.5460815429688 C -0.22645995020866394 578.3486938476562 5.909458160400391 582.4340209960938 18.921321868896484 587.0957641601562 C 18.175416946411133 552.0541381835938 31.655282974243164 570.5879516601562 54.075897216796875 572.6229858398438" stroke-width="0.0" fill="rgb(39, 44, 52)" opacity="0.058241595"/>
    <path d="M 252.90951538085938 422.3091735839844 C 245.67660522460938 479.1996765136719 254.51531982421875 489.7481384277344 200.06085205078125 482.43072509765625 C 152.43101501464844 488.3813781738281 150.32904052734375 477.02374267578125 156.91183471679688 437.0165710449219 C 202.0973663330078 414.7236328125 169.91891479492188 429.6632995605469 236.5458984375 437.5545654296875 C 259.1965637207031 440.353759765625 249.9938201904297 421.19183349609375 252.90951538085938 422.3091735839844" stroke-width="0.0" fill="rgb(22, 197, 122)" opacity="0.9614382"/>
    <path d="M 401.5180969238281 183.70504760742188 C 405.32037353515625 254.29278564453125 359.37017822265625 241.28009033203125 326.4949645996094 220.28079223632812 C 285.3886413574219 212.13754272460938 281.3106384277344 209.24819946289062 236.535888671875 205.98190307617188 C 232.78028869628906 199.03028869628906 276.7909240722656 167.8306884765625 302.7046813964844 118.63516998291016 C 328.676025390625 149.52493286132812 355.1029968261719 148.9447479248047 401.5180969238281 183.70504760742188" stroke-width="0.0" fill="rgb(255, 0, 213)" opacity="0.9444723"/>
    <path d="M 399.9757385253906 587.451416015625 C 364.28558349609375 567.1781005859375 383.2498779296875 577.8342895507812 365.051025390625 581.3453979492188 C 358.2266845703125 583.683837890625 366.11444091796875 558.604248046875 373.476318359375 567.196044921875 C 338.35479736328125 565.7476196289062 348.6640319824219 556.81591796875 342.485107421875 556.4701538085938 C 359.2062072753906 556.56494140625 394.2508850097656 554.3281860351562 399.9757385253906 587.451416015625" stroke-width="0.0" fill="rgb(133, 11, 65)" opacity="0.10063138"/>
    <path d="M 485.6171875 547.073974609375 C 507.97552490234375 589.7705078125 505.1907043457031 609.1490478515625 494.4627990722656 631.9546508789062 C 425.9301452636719 616.2623901367188 416.178466796875 622.0123901367188 427.13055419921875 569.06591796875 C 445.69091796875 549.1704711914062 432.11273193359375 525.17138671875 470.7312316894531 507.0417785644531 C 480.5401306152344 527.6954345703125 469.9599914550781 547.740966796875 485.6171875 547.073974609375" stroke-width="0.0" fill="rgb(53, 27, 3)" opacity="0.99604434"/>
    <path d="M 306.80059814453125 478.42669677734375 C 299.5917053222656 590.9541625976562 222.52268981933594 612.7350463867188 152.6457061767578 612.3270263671875 C 184.25733947753906 508.1829833984375 176.5435791015625 486.3725891113281 157.58677673339844 486.5829162597656 C 135.78646850585938 466.6102294921875 166.39097595214844 474.1803894042969 201.21682739257812 487.7801513671875 C 234.94422912597656 475.6299133300781 249.3777313232422 457.9273376464844 306.80059814453125 478.42669677734375" stroke-width="0.0" fill="rgb(127, 63, 18)" opacity="1.0"/>
    <path d="M 481.7814025878906 301.6033020019531 C 467.61773681640625 408.6990661621094 397.5806579589844 434.2130126953125 391.8522644042969 405.1928405761719 C 376.30377197265625 343.60577392578125 381.3478088378906 314.88446044921875 382.0843505859375 302.1200866699219 C 381.2867126464844 317.12188720703125 380.9244384765625 288.36151123046875 389.0418395996094 241.41380310058594 C 474.01129150390625 243.8788604736328 478.30645751953125 227.07757568359375 481.7814025878906 301.6033020019531" stroke-width="0.0" fill="rgb(224, 252, 13)" opacity="0.96045667"/>
    <path d="M 625.5970458984375 140.6746826171875 C 622.359619140625 160.48651123046875 625.1427001953125 180.51708984375 554.0984497070312 170.94602966308594 C 507.1394348144531 149.75582885742188 487.3640441894531 118.21253967285156 499.3820495605469 70.17562103271484 C 560.7984008789062 41.98689270019531 603.9173583984375 38.74230194091797 625.8517456054688 59.70842361450195 C 596.395263671875 114.17974090576172 616.193603515625 105.42298889160156 625.5970458984375 140.6746826171875" stroke-width="0.0" fill="rgb(238, 250, 18)" opacity="1.0"/>
    <path d="M 385.9988708496094 198.14064025878906 C 409.6278991699219 188.25552368164062 405.54534912109375 193.1841583251953 409.8815612792969 226.6031494140625 C 379.0010986328125 255.83995056152344 389.6692199707031 253.5127410888672 383.010986328125 213.3804473876953 C 357.5362243652344 195.2323760986328 362.73236083984375 184.89320373535156 362.2574768066406 210.53846740722656 C 358.7048645019531 208.34603881835938 355.94342041015625 215.27403259277344 385.9988708496094 198.14064025878906" stroke-width="0.0" fill="rgb(211, 38, 166)" opacity="0.1826696"/>
    <path d="M 616.3585815429688 229.840087890625 C 620.4380493164062 274.3715515136719 583.9468383789062 277.59149169921875 537.2398071289062 266.9281311035156 C 531.5712890625 245.66090393066406 507.39556884765625 239.79342651367188 503.1022644042969 224.16197204589844 C 544.0125122070312 230.83917236328125 558.357421875 239.8163299560547 563.6089477539062 234.80873107910156 C 598.0797729492188 230.06448364257812 613.2289428710938 235.2113037109375 616.3585815429688 229.840087890625" stroke-width="0.0" fill="rgb(224, 255, 12)" opacity="0.2980469"/>
    <path d="M 321.872802734375 106.45376586914062 C 319.657470703125 162.933349609375 329.5900573730469 168.38905334472656 289.0774841308594 150.01344299316406 C 238.05514526367188 131.36456298828125 200.41993713378906 103.25431823730469 222.78662109375 105.68067169189453 C 256.29266357421875 80.03038024902344 294.0718078613281 64.83963775634766 326.5774230957031 82.63673400878906 C 331.9194641113281 116.22120666503906 322.6337585449219 111.24846649169922 321.872802734375 106.45376586914062" stroke-width="0.0" fill="rgb(250, 2, 211)" opacity="0.9741425"/>
    <path d="M 66.68145751953125 358.1460876464844 C 72.85608673095703 358.4663391113281 65.7685775756836 360.7233581542969 76.39849853515625 361.8200378417969 C 39.92519760131836 358.4986572265625 50.55952072143555 369.48260498046875 11.176199913024902 376.3044128417969 C -12.266289710998535 328.80133056640625 -31.109575271606445 283.8680419921875 15.756366729736328 274.856201171875 C 74.9892807006836 280.639892578125 65.34171295166016 319.33526611328125 66.68145751953125 358.1460876464844" stroke-width="0.0" fill="rgb(240, 253, 2)" opacity="0.97891"/>
    <path d="M 451.2723083496094 262.1953125 C 414.37939453125 266.7735290527344 419.4704895019531 259.460205078125 416.5763244628906 268.9903564453125 C 378.603271484375 260.8158874511719 335.614013671875 253.1479949951172 288.6886291503906 240.6878204345703 C 296.0968322753906 210.1953582763672 360.39990234375 234.5854949951172 381.56524658203125 231.08932495117188 C 391.7955322265625 230.48635864257812 419.64404296875 220.2967987060547 451.2723083496094 262.1953125" stroke-width="0.0" fill="rgb(88, 11, 163)" opacity="0.9689292"/>
    <path d="M 591.6482543945312 196.81846618652344 C 554.4035034179688 193.39120483398438 558.7470092773438 189.29420471191406 562.5036010742188 203.20164489746094 C 562.3276977539062 186.8766326904297 567.6256103515625 194.50985717773438 556.8806762695312 167.03582763671875 C 570.3477172851562 178.7334747314453 562.8641967773438 187.86647033691406 559.71044921875 200.45925903320312 C 577.6266479492188 210.56199645996094 596.0811767578125 225.34095764160156 591.6482543945312 196.81846618652344" stroke-width="0.0" fill="rgb(239, 229, 22)" opacity="0.03315121"/>
    <path d="M 553.5053100585938 303.1594543457031 C 570.4732055664062 316.9612121582031 561.1788330078125 323.3229675292969 496.8441467285156 313.79974365234375 C 474.09942626953125 320.8534240722656 457.7581787109375 294.9932556152344 475.9561462402344 229.78395080566406 C 527.18359375 256.6493835449219 530.5965576171875 276.6991271972656 540.4695434570312 291.47601318359375 C 505.60577392578125 287.2851257324219 524.2390747070312 296.8251953125 553.5053100585938 303.1594543457031" stroke-width="0.0" fill="rgb(238, 251, 19)" opacity="0.78429955"/>
    <path d="M 590.426025390625 338.3971252441406 C 546.1633911132812 353.6337585449219 542.8763427734375 351.7028503417969 531.7854614257812 350.38507080078125 C 523.9165649414062 351.68743896484375 515.1742553710938 333.93609619140625 510.65435791015625 293.4700622558594 C 502.0289001464844 256.44635009765625 488.80877685546875 242.89723205566406 554.62939453125 219.43402099609375 C 614.9801635742188 238.628173828125 612.1797485351562 313.17333984375 590.426025390625 338.3971252441406" stroke-width="0.0" fill="rgb(238, 251, 6)" opacity="0.9882656"/>
    <path d="M 404.5152893066406 201.6354522705078 C 401.63702392578125 227.66407775878906 399.7781677246094 226.03285217285156 362.6576232910156 230.28407287597656 C 336.1393737792969 232.82449340820312 346.19842529296875 217.9755401611328 362.93218994140625 205.64588928222656 C 362.6619873046875 182.6436309814453 353.9802551269531 172.5823211669922 380.9365539550781 163.6636505126953 C 409.0632019042969 182.4498748779297 416.26739501953125 212.43336486816406 404.5152893066406 201.6354522705078" stroke-width="0.0" fill="rgb(214, 18, 202)" opacity="0.5151268"/>
    <path d="M 89.848388671875 119.7104721069336 C 48.974708557128906 133.9968719482422 47.9642219543457 107.82296752929688 8.242562294006348 108.7324447631836 C 34.89176559448242 122.02625274658203 24.353527069091797 126.692626953125 38.03947067260742 103.01805114746094 C 41.928184509277344 99.34281158447266 35.11781311035156 110.88483428955078 30.67653465270996 93.11965942382812 C 74.8361587524414 90.0244369506836 87.02793884277344 92.82682800292969 89.848388671875 119.7104721069336" stroke-width="0.0" fill="rgb(255, 250, 112)" opacity="0.58509475"/>
    <path d="M 131.42953491210938 69.1462631225586 C 119.50959777832031 136.43093872070312 101.69213104248047 136.3328399658203 23.202383041381836 133.0576171875 C -17.45682144165039 128.60765075683594 -12.0570650100708 98.4896469116211 -51.814842224121094 21.756723403930664 C -30.597553253173828 13.201071739196777 -8.305305480957031 12.389009475708008 18.909963607788086 -31.126062393188477 C 122.97847747802734 -68.9363021850586 135.33860778808594 -54.06393051147461 131.42953491210938 69.1462631225586" stroke-width="0.0" fill="rgb(246, 244, 11)" opacity="0.97165626"/>
    <path d="M 486.88592529296875 545.7341918945312 C 493.9786682128906 564.3048706054688 509.8898620605469 593.7564086914062 456.46014404296875 611.9146728515625 C 426.5010070800781 586.2745971679688 437.1965026855469 541.5740966796875 437.42718505859375 500.9960632324219 C 437.874755859375 488.7131042480469 446.4705810546875 471.0137023925781 474.44915771484375 473.3951416015625 C 477.14788818359375 490.3281555175781 483.4566650390625 516.5079956054688 486.88592529296875 545.7341918945312" stroke-width="0.0" fill="rgb(61, 19, 21)" opacity="0.9600642"/>
    <path d="M 592.4035034179688 138.77455139160156 C 563.6746215820312 155.6549835205078 549.1698608398438 134.8954315185547 564.1368408203125 163.19313049316406 C 558.62353515625 164.82168579101562 537.1436157226562 161.5504608154297 540.0755004882812 163.2272186279297 C 534.520263671875 150.07960510253906 546.9154052734375 141.5079345703125 561.0067138671875 168.65757751464844 C 567.698486328125 175.74453735351562 588.23388671875 165.709716796875 592.4035034179688 138.77455139160156" stroke-width="0.0" fill="rgb(253, 233, 81)" opacity="0.10174327"/>
    <path d="M 410.33563232421875 427.96600341796875 C 403.5766296386719 495.40679931640625 382.579833984375 489.6367492675781 303.9278564453125 503.5509338378906 C 253.66827392578125 489.96112060546875 258.7445983886719 486.73065185546875 291.7892761230469 429.3208312988281 C 309.3739929199219 435.8032531738281 293.50860595703125 407.1510314941406 354.36444091796875 376.363525390625 C 386.0752868652344 380.8487854003906 406.8706970214844 385.38177490234375 410.33563232421875 427.96600341796875" stroke-width="0.0" fill="rgb(16, 193, 131)" opacity="1.0"/>
    <path d="M 543.443359375 235.91676330566406 C 513.9645385742188 278.47296142578125 457.6933288574219 271.08673095703125 435.32049560546875 273.069091796875 C 401.47222900390625 267.0709533691406 384.8342590332031 276.4177551269531 393.0889892578125 230.33001708984375 C 437.44268798828125 223.360595703125 451.7955322265625 232.43663024902344 482.8609924316406 171.12835693359375 C 525.8587646484375 158.8997344970703 547.2799072265625 166.43374633789062 543.443359375 235.91676330566406" stroke-width="0.0" fill="rgb(73, 0, 150)" opacity="1.0"/>
    <path d="M 476.0547790527344 223.81517028808594 C 475.8987731933594 226.08465576171875 482.19354248046875 227.30874633789062 478.74609375 224.4276885986328 C 456.2831115722656 214.80686950683594 453.0135192871094 213.2325897216797 453.5205383300781 211.19271850585938 C 445.499755859375 198.20205688476562 444.8167419433594 177.98660278320312 479.7170104980469 145.5701141357422 C 522.4646606445312 170.5911407470703 522.4293823242188 196.76266479492188 476.0547790527344 223.81517028808594" stroke-width="0.0" fill="rgb(216, 174, 206)" opacity="0.9899458"/>
    <path d="M -13.757410049438477 403.7408447265625 C -5.338005542755127 426.26348876953125 1.2458819150924683 418.61932373046875 -9.423097610473633 413.11187744140625 C -50.80021286010742 401.74371337890625 -53.90302658081055 399.3955383300781 -7.74099063873291 406.9576721191406 C -8.959421157836914 398.7425537109375 -8.148957252502441 382.89593505859375 11.054082870483398 364.02752685546875 C 19.035205841064453 372.28887939453125 5.142180919647217 365.3597412109375 -13.757410049438477 403.7408447265625" stroke-width="0.0" fill="rgb(2, 6, 0)" opacity="0.0005690104"/>
    <path d="M 581.875244140625 565.0025634765625 C 589.4719848632812 577.8228149414062 619.3186645507812 587.2725830078125 584.9016723632812 506.2970275878906 C 562.7586669921875 496.75274658203125 594.664794921875 524.1290893554688 576.7333984375 548.2330932617188 C 572.5762939453125 535.796142578125 568.5509033203125 559.9254760742188 581.5411376953125 564.185546875 C 575.5504150390625 539.1815185546875 588.0577392578125 564.7984008789062 581.875244140625 565.0025634765625" stroke-width="0.0" fill="rgb(255, 253, 14)" opacity="0.17547123"/>
    <path d="M 137.0045166015625 183.207763671875 C 139.94766235351562 175.183349609375 143.49710083007812 184.79837036132812 146.7974853515625 208.2738037109375 C 136.88934326171875 212.84024047851562 111.32047271728516 211.75308227539062 80.4841079711914 206.67416381835938 C 69.698974609375 155.15667724609375 71.71199798583984 166.74081420898438 138.4594268798828 167.3970489501953 C 153.9054412841797 171.88230895996094 146.2808380126953 201.55641174316406 137.0045166015625 183.207763671875" stroke-width="0.0" fill="rgb(226, 254, 18)" opacity="0.31206724"/>
    <path d="M 245.59153747558594 175.52926635742188 C 229.12472534179688 186.10122680664062 210.70399475097656 184.66746520996094 201.0749053955078 198.2057647705078 C 211.24851989746094 194.1353759765625 206.7698516845703 186.76373291015625 192.53086853027344 170.39682006835938 C 182.56915283203125 174.47561645507812 178.47142028808594 163.59329223632812 220.0766143798828 108.37489318847656 C 274.257568359375 125.87690734863281 296.4351501464844 172.96974182128906 245.59153747558594 175.52926635742188" stroke-width="0.0" fill="rgb(250, 255, 15)" opacity="0.13565466"/>
    <path d="M 644.5800170898438 21.374134063720703 C 620.681884765625 57.7426643371582 609.6165771484375 70.127197265625 595.8411254882812 54.12001419067383 C 582.4608764648438 56.785823822021484 589.23486328125 29.55278778076172 573.4025268554688 5.450960636138916 C 540.8274536132812 -8.138782501220703 549.7854614257812 -6.1967010498046875 572.6339721679688 -22.57215690612793 C 615.5432739257812 4.92108678817749 629.2350463867188 7.757221221923828 644.5800170898438 21.374134063720703" stroke-width="0.0" fill="rgb(187, 225, 0)" opacity="0.9250257"/>
    <path d="M 581.2245483398438 123.72721862792969 C 583.304931640625 137.89901733398438 564.3365478515625 111.91132354736328 541.2449951171875 93.15467834472656 C 550.7440185546875 126.4468765258789 551.33837890625 127.07939910888672 549.0616455078125 115.34917449951172 C 565.2117919921875 140.99169921875 572.9327392578125 133.3603515625 559.609375 118.34432983398438 C 560.8173217773438 108.76708984375 572.01611328125 97.62894439697266 581.2245483398438 123.72721862792969" stroke-width="0.0" fill="rgb(199, 254, 107)" opacity="0.06568656"/>
    <path d="M 249.99081420898438 122.36168670654297 C 260.6078186035156 127.42945861816406 262.75872802734375 137.9499053955078 245.72348022460938 133.36279296875 C 175.367431640625 165.3358917236328 176.5828857421875 180.89466857910156 191.09410095214844 132.87307739257812 C 210.5124053955078 113.27228546142578 217.01852416992188 101.67449951171875 237.12364196777344 112.21123504638672 C 248.85304260253906 139.51161193847656 251.6062774658203 130.02896118164062 249.99081420898438 122.36168670654297" stroke-width="0.0" fill="rgb(252, 4, 238)" opacity="0.95113033"/>
    <path d="M 198.3781280517578 305.9461364746094 C 195.2443389892578 341.5444030761719 129.7287139892578 347.12628173828125 122.94322204589844 344.52178955078125 C 111.67306518554688 294.9747619628906 111.51798248291016 279.2464904785156 112.40708923339844 257.3680114746094 C 105.28089904785156 269.8885803222656 111.7831039428711 298.7116394042969 112.98707580566406 251.893798828125 C 175.55311584472656 246.08779907226562 175.814208984375 231.49403381347656 198.3781280517578 305.9461364746094" stroke-width="0.0" fill="rgb(224, 248, 14)" opacity="0.99064195"/>
    <path d="M 272.32421875 267.7590637207031 C 255.53163146972656 350.7965393066406 254.59884643554688 378.91375732421875 217.69178771972656 350.3437194824219 C 193.84768676757812 324.3981628417969 210.2245635986328 282.5615539550781 210.04737854003906 277.06573486328125 C 232.8545379638672 287.62176513671875 229.09361267089844 275.8035583496094 233.8828887939453 240.1576690673828 C 290.8639831542969 247.31939697265625 273.1303405761719 227.7710723876953 272.32421875 267.7590637207031" stroke-width="0.0" fill="rgb(228, 249, 0)" opacity="1.0"/>
    <path d="M 580.3167724609375 364.68719482421875 C 598.4746704101562 351.2945251464844 613.6407470703125 391.6833190917969 567.4283447265625 406.3069152832031 C 514.5970458984375 406.3025207519531 545.0477294921875 383.8793640136719 532.6889038085938 333.0539855957031 C 505.5424499511719 373.4991455078125 551.6920166015625 365.1554870605469 567.6978149414062 333.619140625 C 580.6939086914062 389.89666748046875 579.8792724609375 390.65673828125 580.3167724609375 364.68719482421875" stroke-width="0.0" fill="rgb(237, 236, 52)" opacity="0.29253194"/>
    <path d="M 362.79638671875 492.8115539550781 C 372.0925598144531 564.905517578125 373.6421203613281 547.8824462890625 304.4160461425781 541.661865234375 C 283.1757507324219 536.819580078125 284.32537841796875 533.0840454101562 285.8944396972656 503.6331787109375 C 290.30645751953125 505.5362243652344 267.79443359375 506.59832763671875 313.2568054199219 498.1893615722656 C 347.547607421875 455.32623291015625 311.4487609863281 474.2510681152344 362.79638671875 492.8115539550781" stroke-width="0.0" fill="rgb(129, 39, 14)" opacity="1.0"/>
    <path d="M 128.26686096191406 120.6861801147461 C 126.66790008544922 111.83949279785156 124.0643539428711 108.47020721435547 127.19450378417969 136.44329833984375 C 64.82807159423828 132.19151306152344 63.256866455078125 157.27418518066406 84.23111724853516 55.901119232177734 C 135.53805541992188 71.54505157470703 129.26275634765625 85.44816589355469 140.52630615234375 89.215576171875 C 146.05126953125 129.59913635253906 149.60867309570312 125.0909652709961 128.26686096191406 120.6861801147461" stroke-width="0.0" fill="rgb(239, 250, 6)" opacity="0.5376947"/>
    <path d="M 42.38041305541992 590.7689208984375 C 46.88032150268555 600.7716674804688 60.96546936035156 624.3853759765625 47.81398391723633 572.6937255859375 C 25.24881935119629 572.6122436523438 18.546306610107422 576.61669921875 2.8564136028289795 557.5064086914062 C 18.17620086669922 543.9776611328125 12.644716262817383 545.3370971679688 20.936410903930664 557.5928344726562 C 37.619842529296875 561.5482177734375 47.366729736328125 567.4443359375 42.38041305541992 590.7689208984375" stroke-width="0.0" fill="rgb(73, 25, 46)" opacity="0.34569123"/>
  </g>
</svg>
