<?xml version="1.0" ?>
<svg xmlns="http://www.w3.org/2000/svg" version="1.1" width="600" height="600">
  <defs/>
  <g>
    <path d="M 65.7705078125 185.946533203125 C 71.59812927246094 185.78689575195312 59.07315444946289 179.27490234375 71.099853515625 175.10015869140625 C 63.04062271118164 178.79043579101562 76.2563247680664 169.66810607910156 35.54572296142578 160.7972412109375 C 52.19935607910156 147.45298767089844 45.92184829711914 181.80909729003906 52.810123443603516 137.45516967773438 C 52.63865661621094 160.7066192626953 55.14207458496094 166.02207946777344 12.45464038848877 184.18209838867188" stroke-width="6.0" fill="none" stroke="rgb(0, 0, 0)" stroke-opacity="0.0" stroke-linecap="round" stroke-linejoin="round"/>
    <path d="M 139.5441436767578 271.9073791503906 C 153.05699157714844 277.49322509765625 195.75244140625 268.43719482421875 141.6272430419922 284.96136474609375 C 89.31787109375 279.5205078125 102.95037078857422 281.0310363769531 153.19859313964844 286.9823303222656 C 166.90797424316406 325.537353515625 117.76716613769531 397.1153564453125 152.62277221679688 369.525634765625 C 175.8048095703125 386.4033203125 153.9492950439453 344.0819396972656 179.40184020996094 240.6675262451172" stroke-width="6.0" fill="none" stroke="rgb(0, 0, 0)" stroke-opacity="0.026462061" stroke-linecap="round" stroke-linejoin="round"/>
    <path d="M 409.1379089355469 535.7800903320312 C 412.9587707519531 531.306884765625 408.5980529785156 533.0309448242188 373.9581604003906 512.1207885742188 C 382.3632507324219 542.7109375 386.4505310058594 517.0889892578125 351.61688232421875 509.7354736328125 C 399.968017578125 519.1626586914062 374.7210388183594 495.7286682128906 370.3764953613281 452.0148620605469 C 322.3473815917969 460.9919738769531 294.71112060546875 470.93780517578125 315.279052734375 470.6373291015625" stroke-width="6.0" fill="none" stroke="rgb(0, 0, 0)" stroke-opacity="0.09242659" stroke-linecap="round" stroke-linejoin="round"/>
    <path d="M 165.23402404785156 136.28363037109375 C 181.76089477539062 144.92117309570312 216.69549560546875 176.85162353515625 197.49407958984375 193.92770385742188 C 165.6078643798828 144.70578002929688 152.5917510986328 169.4482879638672 133.21987915039062 127.56614685058594 C 120.740234375 143.2985382080078 85.83228302001953 140.30079650878906 87.24732971191406 138.02310180664062 C 133.4564208984375 135.829833984375 96.72492980957031 129.2530059814453 76.7230453491211 141.3758544921875" stroke-width="6.0" fill="none" stroke="rgb(0, 0, 0)" stroke-opacity="0.0" stroke-linecap="round" stroke-linejoin="round"/>
    <path d="M 441.0410461425781 28.886560440063477 C 439.4923095703125 11.431845664978027 429.5491027832031 -6.853066444396973 447.2597351074219 -38.01823043823242 C 483.89300537109375 -10.094590187072754 486.3172912597656 -38.82826614379883 500.9335632324219 -52.624427795410156 C 505.3965148925781 -65.72870635986328 517.6567993164062 -62.78910446166992 518.27783203125 -77.59380340576172 C 543.7257080078125 -98.9609603881836 569.43994140625 -91.49129486083984 543.5868530273438 -80.81652069091797" stroke-width="6.0" fill="none" stroke="rgb(0, 0, 0)" stroke-opacity="0.0" stroke-linecap="round" stroke-linejoin="round"/>
    <path d="M 237.1549530029297 502.32366943359375 C 195.0112762451172 487.9190368652344 151.5725860595703 478.5118408203125 157.93728637695312 466.3089904785156 C 151.71983337402344 438.432373046875 168.4463653564453 461.7939453125 117.55751037597656 432.57843017578125 C 85.63867950439453 429.1418762207031 106.04668426513672 437.35968017578125 102.26753234863281 401.1050109863281 C 109.27416229248047 396.9668273925781 114.50592041015625 389.6726379394531 57.699363708496094 373.6648254394531" stroke-width="6.0" fill="none" stroke="rgb(0, 0, 0)" stroke-opacity="0.44536453" stroke-linecap="round" stroke-linejoin="round"/>
    <path d="M 611.318115234375 31.9820556640625 C 617.6646728515625 16.148052215576172 629.2528686523438 -2.984419345855713 613.3612060546875 10.882135391235352 C 599.1879272460938 4.274585247039795 618.36669921875 0.5871514678001404 593.1521606445312 -5.31321907043457 C 617.6410522460938 -3.393343448638916 597.5830078125 -28.057470321655273 593.7312622070312 -13.592050552368164 C 582.2933349609375 4.001536846160889 606.5806274414062 -8.993548393249512 619.576171875 -12.28564453125" stroke-width="6.0" fill="none" stroke="rgb(0, 0, 0)" stroke-opacity="0.3355573" stroke-linecap="round" stroke-linejoin="round"/>
    <path d="M 41.43054962158203 165.19854736328125 C 40.427738189697266 162.0399932861328 17.291841506958008 151.77984619140625 10.012650489807129 219.16558837890625 C 17.192792892456055 234.48367309570312 -11.326094627380371 223.75779724121094 -27.458568572998047 223.51812744140625 C -21.27330207824707 253.23414611816406 11.447382926940918 242.74844360351562 12.802223205566406 203.91827392578125 C -5.8271331787109375 202.59786987304688 -17.562515258789062 213.4978485107422 -38.01084518432617 185.1315460205078" stroke-width="6.0" fill="none" stroke="rgb(0, 0, 0)" stroke-opacity="0.0" stroke-linecap="round" stroke-linejoin="round"/>
    <path d="M 420.3847961425781 439.71484375 C 405.5821838378906 426.8795471191406 387.0626220703125 473.5924377441406 401.01202392578125 380.77618408203125 C 431.61370849609375 354.9110107421875 493.1691589355469 338.40185546875 488.49090576171875 320.17047119140625 C 398.73553466796875 305.468994140625 394.3645324707031 325.806396484375 399.06298828125 340.204833984375 C 390.0314636230469 369.66265869140625 374.5965576171875 383.1785888671875 343.9085998535156 374.68548583984375" stroke-width="6.0" fill="none" stroke="rgb(0, 0, 0)" stroke-opacity="0.27111784" stroke-linecap="round" stroke-linejoin="round"/>
    <path d="M 222.663818359375 470.3910827636719 C 238.2938232421875 450.8662109375 241.4913787841797 454.9881896972656 203.51519775390625 439.1592102050781 C 183.69125366210938 431.6470947265625 172.16928100585938 431.02325439453125 154.56703186035156 421.33123779296875 C 183.17706298828125 403.71722412109375 168.66445922851562 416.34698486328125 179.43209838867188 415.4408874511719 C 153.10520935058594 422.9299621582031 169.4993133544922 414.14385986328125 184.67608642578125 408.3320617675781" stroke-width="6.0" fill="none" stroke="rgb(0, 0, 0)" stroke-opacity="0.36579284" stroke-linecap="round" stroke-linejoin="round"/>
    <path d="M 260.3085632324219 444.5513916015625 C 290.6881103515625 441.45233154296875 278.80767822265625 449.7964782714844 264.2535705566406 458.75006103515625 C 258.38824462890625 485.7991638183594 290.3305358886719 446.2806091308594 246.34884643554688 423.9615173339844 C 268.3800354003906 432.10687255859375 294.0421142578125 438.58465576171875 322.2168884277344 444.95562744140625 C 302.92095947265625 442.5146789550781 299.8367004394531 475.1310729980469 301.77850341796875 496.7465515136719" stroke-width="6.0" fill="none" stroke="rgb(0, 0, 0)" stroke-opacity="0.12819868" stroke-linecap="round" stroke-linejoin="round"/>
    <path d="M 276.965576171875 564.943115234375 C 287.9700927734375 556.3065795898438 323.6272888183594 567.6405029296875 333.9415283203125 537.750244140625 C 268.96661376953125 533.234130859375 255.98904418945312 498.48980712890625 228.73165893554688 497.9112243652344 C 248.5634002685547 522.1367797851562 251.77944946289062 544.152099609375 285.2583312988281 540.2547607421875 C 299.8500061035156 550.2706298828125 334.2005920410156 521.6270141601562 349.727294921875 525.8960571289062" stroke-width="6.0" fill="none" stroke="rgb(0, 0, 0)" stroke-opacity="0.0014375418" stroke-linecap="round" stroke-linejoin="round"/>
    <path d="M 214.22256469726562 405.9849548339844 C 299.3470458984375 418.2468566894531 349.8931579589844 396.5470886230469 307.4767761230469 386.0496520996094 C 285.2806701660156 351.7146911621094 327.102294921875 359.51812744140625 298.7868957519531 415.2955627441406 C 285.3253173828125 385.9860534667969 272.1390075683594 389.43804931640625 272.401611328125 407.5537109375 C 294.3707580566406 403.6011047363281 274.4293212890625 401.6732482910156 276.3976745605469 357.4906311035156" stroke-width="6.0" fill="none" stroke="rgb(0, 0, 0)" stroke-opacity="0.112528816" stroke-linecap="round" stroke-linejoin="round"/>
    <path d="M 385.13916015625 313.4520568847656 C 325.3353576660156 339.71337890625 343.0903625488281 346.37152099609375 341.6556091308594 236.90777587890625 C 369.7283630371094 256.1617126464844 344.1048889160156 378.8274230957031 359.9435729980469 354.85858154296875 C 381.5313415527344 341.79852294921875 346.9736022949219 357.8280944824219 386.0620422363281 335.2627258300781 C 437.601806640625 304.5841979980469 478.7486877441406 314.7837829589844 402.808837890625 296.01885986328125" stroke-width="6.0" fill="none" stroke="rgb(0, 0, 0)" stroke-opacity="0.60119367" stroke-linecap="round" stroke-linejoin="round"/>
    <path d="M 59.147422790527344 -3.5039098262786865 C 53.86395263671875 -25.50937843322754 55.9461555480957 -22.193649291992188 3.242701530456543 -23.22286605834961 C -12.821830749511719 18.82343292236328 -0.544837474822998 45.64301300048828 -16.253337860107422 28.37998390197754 C 9.559334754943848 27.094528198242188 -9.740677833557129 26.680212020874023 -24.199939727783203 90.07738494873047 C -9.641468048095703 113.04170227050781 6.054957389831543 132.6107177734375 47.314483642578125 124.151611328125" stroke-width="6.0" fill="none" stroke="rgb(0, 0, 0)" stroke-opacity="0.0" stroke-linecap="round" stroke-linejoin="round"/>
    <path d="M 149.09901428222656 562.5645141601562 C 160.34568786621094 576.859619140625 167.06895446777344 565.22119140625 181.0943603515625 584.3580322265625 C 181.66786193847656 612.1409912109375 167.17965698242188 609.4655151367188 154.91734313964844 587.5736083984375 C 166.9898681640625 561.5703735351562 184.2703399658203 584.5211791992188 177.94772338867188 559.1248168945312 C 174.6851806640625 594.7630004882812 173.5809326171875 635.3046875 178.03253173828125 588.974853515625" stroke-width="6.0" fill="none" stroke="rgb(0, 0, 0)" stroke-opacity="0.032127544" stroke-linecap="round" stroke-linejoin="round"/>
    <path d="M 516.8662109375 201.32791137695312 C 497.6255798339844 177.5319061279297 501.2560119628906 181.14344787597656 498.8744201660156 199.8234100341797 C 542.1066284179688 223.11822509765625 521.6952514648438 214.3695526123047 521.615966796875 231.1071014404297 C 551.3872680664062 229.6412811279297 537.6554565429688 236.32403564453125 508.05914306640625 220.15162658691406 C 491.9187316894531 214.6180877685547 493.56475830078125 221.41165161132812 475.3271484375 229.702392578125" stroke-width="6.0" fill="none" stroke="rgb(0, 0, 0)" stroke-opacity="0.0" stroke-linecap="round" stroke-linejoin="round"/>
    <path d="M 409.3605041503906 475.7746276855469 C 450.56085205078125 469.57928466796875 431.1605529785156 509.10394287109375 408.6149597167969 501.9340515136719 C 443.3772888183594 503.63934326171875 467.5796203613281 502.8401184082031 452.1943054199219 499.3699645996094 C 469.4631652832031 517.4080810546875 442.9617614746094 490.2572937011719 415.0396728515625 503.6195983886719 C 399.4579772949219 516.1660766601562 382.11956787109375 501.8298034667969 368.587890625 482.8349914550781" stroke-width="6.0" fill="none" stroke="rgb(0, 0, 0)" stroke-opacity="0.09136509" stroke-linecap="round" stroke-linejoin="round"/>
    <path d="M 241.06640625 155.55967712402344 C 269.28997802734375 148.33642578125 278.8372802734375 158.50405883789062 276.7467041015625 158.740966796875 C 274.27557373046875 209.057861328125 237.70059204101562 222.62184143066406 228.02540588378906 216.4750213623047 C 242.67068481445312 260.5245056152344 236.6461944580078 206.47390747070312 243.20339965820312 193.1385955810547 C 186.27499389648438 198.3436737060547 158.05165100097656 198.80935668945312 152.36163330078125 194.9555206298828" stroke-width="6.0" fill="none" stroke="rgb(0, 0, 0)" stroke-opacity="0.0" stroke-linecap="round" stroke-linejoin="round"/>
    <path d="M 610.364501953125 236.40737915039062 C 619.4039306640625 230.45668029785156 575.1356201171875 234.93443298339844 564.8657836914062 240.3799285888672 C 562.4359741210938 214.52273559570312 562.3419799804688 223.62635803222656 567.5125732421875 228.9954071044922 C 552.4339599609375 231.259521484375 557.9013671875 241.7576446533203 572.27099609375 232.36849975585938 C 564.50341796875 233.64292907714844 570.5665893554688 240.34181213378906 556.053466796875 238.4528350830078" stroke-width="6.0" fill="none" stroke="rgb(0, 0, 0)" stroke-opacity="0.0" stroke-linecap="round" stroke-linejoin="round"/>
    <path d="M 549.4157104492188 507.697265625 C 605.1798095703125 480.1468200683594 621.1788330078125 483.9242248535156 608.4573974609375 448.2107849121094 C 601.9041748046875 447.82159423828125 594.5380249023438 445.14947509765625 561.755615234375 420.675537109375 C 555.5877075195312 452.8531188964844 561.02587890625 467.27191162109375 511.2738952636719 457.8493347167969 C 534.2506713867188 445.2741394042969 498.5775451660156 447.5718688964844 506.3706359863281 437.0465393066406" stroke-width="6.0" fill="none" stroke="rgb(0, 0, 0)" stroke-opacity="0.04583467" stroke-linecap="round" stroke-linejoin="round"/>
    <path d="M 382.8330383300781 167.65713500976562 C 359.8277893066406 162.67063903808594 342.04290771484375 180.44642639160156 337.854248046875 166.8848114013672 C 380.707275390625 175.49862670898438 375.4306945800781 181.81912231445312 379.71002197265625 142.7798614501953 C 380.877685546875 199.26036071777344 395.7955322265625 211.08834838867188 350.6887512207031 236.85745239257812 C 365.8904113769531 212.3213653564453 350.5252685546875 148.8809356689453 328.5782775878906 173.0882568359375" stroke-width="6.0" fill="none" stroke="rgb(0, 0, 0)" stroke-opacity="0.0" stroke-linecap="round" stroke-linejoin="round"/>
    <path d="M 367.0016174316406 224.45484924316406 C 396.56085205078125 226.00404357910156 397.2601318359375 185.43450927734375 400.4401550292969 308.1072692871094 C 365.1240234375 320.1860656738281 373.7137756347656 332.9541015625 370.4339294433594 264.6683654785156 C 369.7743835449219 240.91200256347656 368.333984375 190.97824096679688 357.6947937011719 224.96267700195312 C 361.2294616699219 229.59181213378906 363.5902404785156 189.68260192871094 348.73358154296875 163.97860717773438" stroke-width="6.0" fill="none" stroke="rgb(0, 0, 0)" stroke-opacity="0.5795306" stroke-linecap="round" stroke-linejoin="round"/>
    <path d="M 302.3323059082031 -16.18308448791504 C 299.2181701660156 3.784573554992676 287.6103210449219 -10.838293075561523 296.17620849609375 -37.26792526245117 C 284.7423095703125 -21.800058364868164 260.1658935546875 -51.208953857421875 233.7300567626953 -70.59819030761719 C 254.22044372558594 -100.43121337890625 240.93304443359375 -86.97090148925781 217.50445556640625 -89.64899444580078 C 216.97940063476562 -76.67654418945312 189.22703552246094 -56.490299224853516 183.28182983398438 -66.48121643066406" stroke-width="6.0" fill="none" stroke="rgb(0, 0, 0)" stroke-opacity="0.0" stroke-linecap="round" stroke-linejoin="round"/>
    <path d="M 141.9613800048828 96.87860107421875 C 119.57820129394531 95.68708038330078 128.7686309814453 84.5341567993164 149.8846893310547 62.54821014404297 C 173.307373046875 63.64377975463867 156.9770050048828 81.5193099975586 159.48011779785156 31.248512268066406 C 159.82489013671875 95.10981750488281 190.0592041015625 98.62307739257812 163.7530975341797 95.9629135131836 C 157.0063018798828 83.98350524902344 176.56033325195312 58.05866622924805 136.33229064941406 70.7218017578125" stroke-width="6.0" fill="none" stroke="rgb(0, 0, 0)" stroke-opacity="0.0" stroke-linecap="round" stroke-linejoin="round"/>
    <path d="M 549.7338256835938 285.1463623046875 C 573.8684692382812 284.9751281738281 599.5079956054688 302.6078796386719 596.62890625 299.00836181640625 C 564.5108642578125 274.3769226074219 573.7230834960938 296.4450378417969 585.5093994140625 299.9182434082031 C 614.197998046875 284.494140625 606.1497192382812 299.38702392578125 643.384033203125 273.6603088378906 C 627.7969360351562 325.8672790527344 591.8553466796875 333.24468994140625 612.700439453125 320.66357421875" stroke-width="6.0" fill="none" stroke="rgb(0, 0, 0)" stroke-opacity="0.0" stroke-linecap="round" stroke-linejoin="round"/>
    <path d="M 359.72174072265625 243.2562255859375 C 371.8545227050781 210.45220947265625 320.0098571777344 247.89947509765625 323.3508605957031 215.0261688232422 C 341.4551696777344 195.8474578857422 338.1648254394531 236.15371704101562 331.1485290527344 230.97421264648438 C 281.7101135253906 239.35720825195312 308.22686767578125 291.9552917480469 328.92193603515625 280.250732421875 C 329.85113525390625 373.646728515625 332.4331970214844 328.2336120605469 366.168212890625 317.30975341796875" stroke-width="6.0" fill="none" stroke="rgb(0, 0, 0)" stroke-opacity="0.4611039" stroke-linecap="round" stroke-linejoin="round"/>
    <path d="M 592.628173828125 608.7697143554688 C 573.5670166015625 626.082275390625 582.1211547851562 655.4801025390625 564.8575439453125 633.26123046875 C 535.771484375 616.7913208007812 518.4332885742188 630.5279541015625 543.0198364257812 631.3165283203125 C 572.498291015625 624.2711181640625 553.9682006835938 627.5032348632812 537.2577514648438 617.2852172851562 C 566.528564453125 617.9467163085938 546.4266357421875 641.1104736328125 542.3344116210938 642.4563598632812" stroke-width="6.0" fill="none" stroke="rgb(0, 0, 0)" stroke-opacity="0.084215984" stroke-linecap="round" stroke-linejoin="round"/>
    <path d="M -2.1801140308380127 343.24237060546875 C 13.294999122619629 331.52606201171875 25.311660766601562 334.9071044921875 71.98439025878906 354.13348388671875 C 58.47309494018555 352.2804870605469 67.79480743408203 337.0141296386719 85.68453979492188 329.6799621582031 C 95.3315658569336 304.255859375 77.95883178710938 311.15087890625 34.6959342956543 334.888916015625 C -0.6780778169631958 335.9676513671875 -33.28036117553711 332.6407775878906 -42.438194274902344 337.7900085449219" stroke-width="6.0" fill="none" stroke="rgb(0, 0, 0)" stroke-opacity="0.0" stroke-linecap="round" stroke-linejoin="round"/>
    <path d="M 244.02662658691406 415.73883056640625 C 290.3558349609375 399.4602966308594 276.7710266113281 393.0911560058594 293.2713623046875 377.4270935058594 C 342.0092468261719 354.2060546875 335.5712585449219 371.7541198730469 380.9575500488281 364.5879821777344 C 407.6104431152344 367.5581970214844 382.7285461425781 364.6532287597656 385.7933654785156 377.0367736816406 C 373.24761962890625 360.6121826171875 375.2033386230469 392.923095703125 383.7307434082031 366.69891357421875" stroke-width="6.0" fill="none" stroke="rgb(0, 0, 0)" stroke-opacity="0.17338152" stroke-linecap="round" stroke-linejoin="round"/>
    <path d="M 539.8009643554688 170.16563415527344 C 524.1546020507812 165.71734619140625 566.618408203125 163.70591735839844 523.4120483398438 158.00587463378906 C 506.7597351074219 163.37171936035156 536.49609375 156.77175903320312 570.547607421875 165.32186889648438 C 562.2610473632812 179.1076202392578 578.9947509765625 149.0933074951172 563.4768676757812 169.66287231445312 C 537.5651245117188 141.43435668945312 528.3622436523438 150.2335662841797 549.4183959960938 141.83135986328125" stroke-width="6.0" fill="none" stroke="rgb(0, 0, 0)" stroke-opacity="0.0" stroke-linecap="round" stroke-linejoin="round"/>
    <path d="M 31.78333854675293 493.9873046875 C 64.0107192993164 498.29827880859375 94.21784210205078 516.1033325195312 92.85704040527344 511.8492431640625 C 110.01343536376953 503.548828125 119.54553985595703 517.1354370117188 120.0920181274414 533.1701049804688 C 90.2237319946289 536.753662109375 105.20147705078125 520.8545532226562 103.5299072265625 533.2864379882812 C 101.59912872314453 529.890869140625 83.11846160888672 515.96435546875 87.16913604736328 486.444091796875" stroke-width="6.0" fill="none" stroke="rgb(0, 0, 0)" stroke-opacity="0.0" stroke-linecap="round" stroke-linejoin="round"/>
    <path d="M -15.764104843139648 461.6242370605469 C 36.50501251220703 464.8785400390625 46.6684684753418 457.7693176269531 43.108367919921875 462.3324890136719 C 50.724910736083984 423.11895751953125 47.56550216674805 383.9657897949219 63.41643524169922 373.1159362792969 C 85.13711547851562 365.0271911621094 74.1834487915039 364.50140380859375 -2.0565919876098633 361.3304138183594 C -38.56550216674805 387.88580322265625 -2.6666877269744873 371.8924255371094 -17.767881393432617 406.80908203125" stroke-width="6.0" fill="none" stroke="rgb(0, 0, 0)" stroke-opacity="0.18604012" stroke-linecap="round" stroke-linejoin="round"/>
    <path d="M 544.3604736328125 415.8856201171875 C 509.0729064941406 439.7666320800781 480.1056823730469 464.6620178222656 445.9395751953125 422.382080078125 C 482.2545166015625 408.6336669921875 506.5968933105469 418.841796875 511.9654846191406 399.1891174316406 C 488.1353454589844 368.80328369140625 462.4826354980469 409.83154296875 450.2814025878906 411.7997131347656 C 455.1973876953125 446.027587890625 450.7860412597656 422.7978515625 452.95135498046875 429.17791748046875" stroke-width="6.0" fill="none" stroke="rgb(0, 0, 0)" stroke-opacity="0.34862438" stroke-linecap="round" stroke-linejoin="round"/>
    <path d="M 37.52246856689453 372.9062805175781 C 39.25664520263672 378.3311462402344 65.26215362548828 374.5556640625 30.469482421875 362.67120361328125 C 94.1494369506836 347.42718505859375 83.0122299194336 360.145751953125 88.00286865234375 338.8711853027344 C 104.67216491699219 297.7333984375 75.21223449707031 330.3297424316406 -12.642712593078613 341.3991394042969 C -9.99765682220459 418.51995849609375 3.843971014022827 396.51556396484375 80.25093841552734 370.1528015136719" stroke-width="6.0" fill="none" stroke="rgb(0, 0, 0)" stroke-opacity="0.0" stroke-linecap="round" stroke-linejoin="round"/>
    <path d="M 349.720458984375 549.9986572265625 C 349.6607971191406 502.6416015625 354.673095703125 489.0040283203125 364.69610595703125 538.53173828125 C 358.6038818359375 510.6102600097656 330.80462646484375 554.6514892578125 348.0865173339844 550.410888671875 C 378.34228515625 568.6259155273438 399.95635986328125 571.607666015625 390.3278503417969 588.029296875 C 412.8140869140625 569.7308959960938 411.9384765625 564.8933715820312 444.9236755371094 568.8978881835938" stroke-width="6.0" fill="none" stroke="rgb(0, 0, 0)" stroke-opacity="0.0" stroke-linecap="round" stroke-linejoin="round"/>
    <path d="M 532.9481201171875 442.5714111328125 C 545.2362670898438 456.0215148925781 536.0918579101562 458.5292663574219 535.1385498046875 485.9796142578125 C 528.3301391601562 486.0221252441406 541.3583374023438 486.8486022949219 552.5225830078125 493.6778869628906 C 590.6986694335938 515.260009765625 610.265869140625 493.3735046386719 633.5836181640625 526.7959594726562 C 621.1964111328125 512.4300537109375 641.5103149414062 500.9308166503906 668.3220825195312 518.123291015625" stroke-width="6.0" fill="none" stroke="rgb(0, 0, 0)" stroke-opacity="0.096264414" stroke-linecap="round" stroke-linejoin="round"/>
    <path d="M 206.8224639892578 207.931640625 C 177.72494506835938 180.25889587402344 167.9818878173828 209.92459106445312 182.72598266601562 203.8247528076172 C 155.02072143554688 207.4930419921875 159.8333740234375 202.371826171875 207.13169860839844 189.44053649902344 C 208.69155883789062 198.77609252929688 174.66139221191406 195.715087890625 186.8467559814453 209.55551147460938 C 161.7676544189453 201.26834106445312 185.3946990966797 217.81976318359375 209.00250244140625 222.87733459472656" stroke-width="6.0" fill="none" stroke="rgb(0, 0, 0)" stroke-opacity="0.0" stroke-linecap="round" stroke-linejoin="round"/>
    <path d="M 490.289306640625 347.4144287109375 C 488.2895202636719 333.2225646972656 487.3688659667969 301.9721984863281 485.53857421875 301.770751953125 C 492.5202941894531 313.86566162109375 478.9820556640625 319.4251403808594 458.577880859375 326.2621154785156 C 384.48431396484375 300.6944885253906 373.08892822265625 305.69268798828125 389.439208984375 303.59051513671875 C 388.4691467285156 188.91824340820312 394.3291320800781 185.96896362304688 350.2978820800781 238.73887634277344" stroke-width="6.0" fill="none" stroke="rgb(0, 0, 0)" stroke-opacity="0.6195171" stroke-linecap="round" stroke-linejoin="round"/>
    <path d="M -23.464271545410156 255.83726501464844 C -33.18807601928711 222.850341796875 4.179965972900391 201.64744567871094 14.984588623046875 235.97021484375 C 45.35112380981445 264.6027526855469 25.982439041137695 259.7413330078125 35.1262321472168 238.13917541503906 C 9.273015022277832 224.4601287841797 -6.212958812713623 237.39797973632812 -1.7639936208724976 230.15264892578125 C -45.65532684326172 239.844970703125 -62.882381439208984 265.2417297363281 -73.58839416503906 263.14849853515625" stroke-width="6.0" fill="none" stroke="rgb(0, 0, 0)" stroke-opacity="0.0" stroke-linecap="round" stroke-linejoin="round"/>
    <path d="M 26.38014793395996 236.266845703125 C 38.04295349121094 241.75338745117188 22.69762420654297 240.40272521972656 3.8394103050231934 204.0014190673828 C 5.083127021789551 204.58522033691406 -21.195552825927734 236.742431640625 -36.11543273925781 250.89671325683594 C -24.96916961669922 251.4345703125 -34.69755935668945 263.4837341308594 -28.98417854309082 259.84832763671875 C -14.875744819641113 232.2419891357422 -27.524721145629883 205.2098388671875 -24.11606788635254 216.78244018554688" stroke-width="6.0" fill="none" stroke="rgb(0, 0, 0)" stroke-opacity="0.013183954" stroke-linecap="round" stroke-linejoin="round"/>
    <path d="M 443.2623596191406 142.35165405273438 C 437.1263427734375 169.80230712890625 446.7460632324219 139.1586151123047 437.86602783203125 149.59323120117188 C 455.758056640625 104.63275909423828 439.0864562988281 86.45549774169922 410.9251708984375 100.34722900390625 C 400.8440856933594 115.14449310302734 409.8406066894531 115.67593383789062 401.46392822265625 109.06881713867188 C 380.6509094238281 105.01703643798828 393.1958312988281 97.85909271240234 388.60333251953125 124.53887939453125" stroke-width="6.0" fill="none" stroke="rgb(0, 0, 0)" stroke-opacity="0.0" stroke-linecap="round" stroke-linejoin="round"/>
    <path d="M 575.6876831054688 446.6027526855469 C 571.6663818359375 422.3268127441406 590.57080078125 418.9872741699219 558.227783203125 415.77532958984375 C 501.5981750488281 394.69952392578125 481.65557861328125 421.8880920410156 542.1559448242188 427.3307189941406 C 584.0631103515625 416.0367431640625 594.0392456054688 402.7151184082031 618.880615234375 426.9634704589844 C 580.932861328125 424.90948486328125 607.577880859375 445.8758544921875 615.8341064453125 424.5666198730469" stroke-width="6.0" fill="none" stroke="rgb(0, 0, 0)" stroke-opacity="0.22273467" stroke-linecap="round" stroke-linejoin="round"/>
    <path d="M 193.5019073486328 604.460205078125 C 191.76455688476562 611.9430541992188 183.6727752685547 631.8299560546875 185.35101318359375 628.9373168945312 C 189.10726928710938 588.2131958007812 185.49388122558594 528.683349609375 207.61448669433594 523.5789794921875 C 213.48544311523438 523.5855102539062 237.65325927734375 499.15118408203125 222.98434448242188 470.24774169921875 C 205.2928924560547 451.0550842285156 197.77548217773438 417.3821105957031 211.55319213867188 429.15118408203125" stroke-width="6.0" fill="none" stroke="rgb(0, 0, 0)" stroke-opacity="0.0" stroke-linecap="round" stroke-linejoin="round"/>
    <path d="M 291.0384826660156 566.2566528320312 C 245.95730590820312 562.4439697265625 222.4724578857422 551.9992065429688 213.66180419921875 576.8294067382812 C 188.77468872070312 536.4467163085938 160.05361938476562 544.33056640625 213.88717651367188 551.95361328125 C 232.5995635986328 498.62890625 230.2139434814453 487.3847961425781 178.9000701904297 490.93231201171875 C 152.71578979492188 491.8828430175781 136.3060302734375 490.9490051269531 146.9796905517578 485.0070495605469" stroke-width="6.0" fill="none" stroke="rgb(0, 0, 0)" stroke-opacity="0.0" stroke-linecap="round" stroke-linejoin="round"/>
    <path d="M 285.02703857421875 479.710693359375 C 281.05108642578125 501.7952575683594 309.1860046386719 502.67657470703125 307.6533508300781 539.8002319335938 C 290.7754821777344 569.42236328125 306.54742431640625 561.324951171875 295.9080810546875 564.9747924804688 C 277.9006652832031 584.0087280273438 306.2216491699219 550.605712890625 324.5597229003906 526.0445556640625 C 326.2109375 516.989501953125 364.4307861328125 500.88397216796875 334.5072937011719 506.9228515625" stroke-width="6.0" fill="none" stroke="rgb(0, 0, 0)" stroke-opacity="0.03476409" stroke-linecap="round" stroke-linejoin="round"/>
    <path d="M 551.3814086914062 311.87200927734375 C 538.492919921875 319.90380859375 539.530029296875 302.1573181152344 542.8963623046875 303.42999267578125 C 574.2515869140625 274.85943603515625 572.2491455078125 277.4059143066406 565.7034912109375 248.3949432373047 C 554.4550170898438 245.82643127441406 547.7421264648438 222.0040283203125 561.386474609375 300.9505920410156 C 555.3643188476562 311.5304870605469 550.80322265625 305.993896484375 535.1194458007812 303.3553466796875" stroke-width="6.0" fill="none" stroke="rgb(0, 0, 0)" stroke-opacity="0.0" stroke-linecap="round" stroke-linejoin="round"/>
    <path d="M 282.0780029296875 612.2901000976562 C 298.2581787109375 618.6954345703125 323.1435852050781 598.6088256835938 276.2461853027344 607.7117309570312 C 309.26214599609375 606.9395751953125 291.5950622558594 629.5262451171875 295.6658935546875 655.3427734375 C 270.4976806640625 651.3745727539062 283.5810241699219 647.1633911132812 303.529296875 640.25732421875 C 298.2016296386719 611.8336181640625 316.9532470703125 602.7442016601562 293.7959289550781 622.9487915039062" stroke-width="6.0" fill="none" stroke="rgb(0, 0, 0)" stroke-opacity="0.15898716" stroke-linecap="round" stroke-linejoin="round"/>
    <path d="M 506.1163635253906 197.50091552734375 C 512.5850219726562 242.11585998535156 525.9578247070312 216.37281799316406 496.67376708984375 219.27732849121094 C 489.7460632324219 242.5906982421875 511.74591064453125 260.804443359375 527.2041625976562 243.6525421142578 C 575.8302612304688 239.5890350341797 569.3053588867188 247.16427612304688 556.9122924804688 247.33465576171875 C 567.7439575195312 278.17425537109375 545.7225341796875 298.6968078613281 549.4385375976562 287.4142761230469" stroke-width="6.0" fill="none" stroke="rgb(0, 0, 0)" stroke-opacity="0.0" stroke-linecap="round" stroke-linejoin="round"/>
    <path d="M 259.4178466796875 457.7283935546875 C 241.14315795898438 458.716064453125 277.0419616699219 469.5185241699219 312.9291076660156 464.6947937011719 C 303.47869873046875 495.27392578125 264.8597717285156 485.2305908203125 273.3986511230469 500.7351989746094 C 276.9121398925781 485.994384765625 275.9162292480469 435.31689453125 265.300048828125 428.6665344238281 C 264.7740478515625 431.5719299316406 245.5493621826172 466.8600158691406 264.9150695800781 482.8148193359375" stroke-width="6.0" fill="none" stroke="rgb(0, 0, 0)" stroke-opacity="0.13764589" stroke-linecap="round" stroke-linejoin="round"/>
    <path d="M 563.580078125 499.8927917480469 C 502.82855224609375 524.376953125 469.26580810546875 542.6839599609375 492.6995849609375 531.6422729492188 C 472.4505920410156 540.7514038085938 454.5804138183594 558.7297973632812 437.1679382324219 557.0230712890625 C 461.57952880859375 574.7146606445312 461.6428527832031 567.261474609375 392.5615539550781 584.6199340820312 C 358.56500244140625 608.8871459960938 380.6649475097656 550.9259643554688 429.6867370605469 541.329345703125" stroke-width="6.0" fill="none" stroke="rgb(0, 0, 0)" stroke-opacity="0.24436496" stroke-linecap="round" stroke-linejoin="round"/>
    <path d="M 78.06787872314453 332.16400146484375 C 86.31099700927734 328.1836242675781 58.76531219482422 345.1803894042969 44.49312210083008 327.462890625 C 34.23003387451172 294.787841796875 63.33369827270508 270.0926513671875 36.39192199707031 267.4833679199219 C 25.489521026611328 274.37255859375 45.77470779418945 258.89453125 53.456539154052734 252.64529418945312 C 47.77973556518555 256.2105712890625 68.98851776123047 257.303955078125 82.95054626464844 247.23342895507812" stroke-width="6.0" fill="none" stroke="rgb(0, 0, 0)" stroke-opacity="0.00030146842" stroke-linecap="round" stroke-linejoin="round"/>
    <path d="M 266.3057556152344 249.8147430419922 C 264.88726806640625 192.0440216064453 241.7086181640625 176.03488159179688 247.83279418945312 324.00909423828125 C 264.0444641113281 317.8631896972656 217.81472778320312 312.80841064453125 235.47323608398438 311.0887756347656 C 233.2925567626953 267.9255676269531 226.97232055664062 253.27426147460938 260.32928466796875 263.2930603027344 C 274.6698303222656 281.0413818359375 259.53570556640625 239.56065368652344 277.863037109375 219.18801879882812" stroke-width="6.0" fill="none" stroke="rgb(0, 0, 0)" stroke-opacity="0.56440467" stroke-linecap="round" stroke-linejoin="round"/>
    <path d="M 331.742431640625 172.8270263671875 C 325.004638671875 112.67681884765625 328.17974853515625 113.34491729736328 316.68914794921875 96.95669555664062 C 347.5625305175781 109.31432342529297 369.8862609863281 116.59028625488281 352.88232421875 105.65403747558594 C 374.281494140625 111.18518829345703 364.63385009765625 137.87350463867188 363.7304992675781 107.93367004394531 C 357.60784912109375 112.43579864501953 361.7394714355469 129.69085693359375 391.14849853515625 137.7677001953125" stroke-width="6.0" fill="none" stroke="rgb(0, 0, 0)" stroke-opacity="0.0" stroke-linecap="round" stroke-linejoin="round"/>
    <path d="M 38.392147064208984 279.1033630371094 C 40.66725158691406 305.9233093261719 41.3764533996582 275.9705810546875 39.4253044128418 264.4031982421875 C 0.6100900173187256 281.54461669921875 1.1691389083862305 247.9503173828125 -30.947643280029297 271.8612060546875 C -26.873884201049805 283.0313415527344 -43.06596374511719 264.2716064453125 -39.096370697021484 258.669677734375 C -32.467411041259766 268.175537109375 -11.616671562194824 295.5824279785156 -4.773890018463135 315.6595153808594" stroke-width="6.0" fill="none" stroke="rgb(0, 0, 0)" stroke-opacity="0.0" stroke-linecap="round" stroke-linejoin="round"/>
    <path d="M 53.69792175292969 68.82703399658203 C 53.32554626464844 62.925079345703125 71.52217864990234 77.34427642822266 49.644840240478516 85.25846862792969 C 75.27922058105469 51.57808303833008 54.069095611572266 31.476430892944336 87.75570678710938 30.49046516418457 C 105.65538787841797 21.844247817993164 117.08431243896484 56.75495529174805 114.17878723144531 31.7810001373291 C 129.5594940185547 17.274415969848633 165.33644104003906 43.59171676635742 166.37660217285156 56.741722106933594" stroke-width="6.0" fill="none" stroke="rgb(0, 0, 0)" stroke-opacity="0.0" stroke-linecap="round" stroke-linejoin="round"/>
    <path d="M 277.057861328125 132.64471435546875 C 269.0148620605469 128.86563110351562 275.8804931640625 148.88597106933594 300.59521484375 189.84144592285156 C 343.1563415527344 148.2197723388672 286.2267761230469 158.34115600585938 268.66290283203125 151.1944580078125 C 280.68499755859375 120.6288070678711 280.62445068359375 103.9571762084961 273.5719299316406 129.19496154785156 C 280.0322265625 121.49405670166016 264.91131591796875 114.7380142211914 265.7088928222656 104.64535522460938" stroke-width="6.0" fill="none" stroke="rgb(0, 0, 0)" stroke-opacity="0.0" stroke-linecap="round" stroke-linejoin="round"/>
    <path d="M 554.67724609375 454.155029296875 C 536.1331176757812 460.127685546875 533.66015625 458.15216064453125 508.9476318359375 481.8055725097656 C 478.2657165527344 481.1331481933594 471.00604248046875 485.1022644042969 451.518310546875 479.9833068847656 C 447.4647521972656 477.68365478515625 449.3857421875 487.9820251464844 473.6075439453125 474.3446044921875 C 516.939208984375 460.2897644042969 504.3083801269531 426.3653259277344 437.3165588378906 468.13983154296875" stroke-width="6.0" fill="none" stroke="rgb(0, 0, 0)" stroke-opacity="0.23186117" stroke-linecap="round" stroke-linejoin="round"/>
    <path d="M 541.8082885742188 183.37657165527344 C 544.1426391601562 165.45956420898438 524.7720336914062 175.2946014404297 524.2598266601562 148.1373748779297 C 528.5723876953125 183.90342712402344 534.0147094726562 183.3680419921875 552.2547607421875 178.9088134765625 C 567.2705078125 137.68080139160156 561.088134765625 147.13412475585938 549.68505859375 170.93667602539062 C 562.6835327148438 147.4856719970703 560.1058959960938 152.6129150390625 571.4325561523438 167.00112915039062" stroke-width="6.0" fill="none" stroke="rgb(0, 0, 0)" stroke-opacity="0.0" stroke-linecap="round" stroke-linejoin="round"/>
    <path d="M 148.1326904296875 155.33148193359375 C 125.32026672363281 130.53672790527344 146.94004821777344 138.76614379882812 179.21697998046875 125.53779602050781 C 169.81410217285156 172.03543090820312 187.78680419921875 157.9644012451172 157.17491149902344 156.7635040283203 C 143.0294952392578 147.36611938476562 142.50958251953125 116.24512481689453 143.18846130371094 94.66847229003906 C 168.36351013183594 127.1981430053711 168.4556121826172 149.083984375 145.5958251953125 94.6549301147461" stroke-width="6.0" fill="none" stroke="rgb(0, 0, 0)" stroke-opacity="0.0" stroke-linecap="round" stroke-linejoin="round"/>
    <path d="M 228.5434112548828 409.9836730957031 C 271.93011474609375 382.6566162109375 319.8017272949219 410.2360534667969 332.29937744140625 424.3661193847656 C 346.7719421386719 419.2157287597656 369.1020812988281 425.47119140625 348.4906921386719 446.9566345214844 C 344.9862060546875 456.7422790527344 364.67510986328125 453.53143310546875 415.1296081542969 419.2815856933594 C 388.6057434082031 347.7033996582031 376.6684875488281 353.602783203125 347.71795654296875 391.86932373046875" stroke-width="6.0" fill="none" stroke="rgb(0, 0, 0)" stroke-opacity="0.18498902" stroke-linecap="round" stroke-linejoin="round"/>
    <path d="M 144.34837341308594 212.86341857910156 C 144.67189025878906 211.62474060058594 150.28424072265625 201.2420196533203 128.53619384765625 224.3624267578125 C 135.7367401123047 237.4618377685547 106.31246948242188 246.69287109375 129.57467651367188 224.21644592285156 C 175.39334106445312 264.77789306640625 162.5840301513672 249.34190368652344 172.08770751953125 257.53851318359375 C 220.1007080078125 257.56689453125 252.3959197998047 276.4908447265625 225.65740966796875 271.8803405761719" stroke-width="6.0" fill="none" stroke="rgb(0, 0, 0)" stroke-opacity="0.0" stroke-linecap="round" stroke-linejoin="round"/>
    <path d="M 511.6097106933594 248.66407775878906 C 469.126953125 281.3835754394531 492.632080078125 236.22332763671875 499.6585693359375 305.2039794921875 C 463.4138488769531 306.08111572265625 458.7505798339844 298.1629638671875 484.9072570800781 297.67205810546875 C 491.97918701171875 271.5172424316406 493.7951965332031 242.44842529296875 510.23089599609375 223.3403778076172 C 491.48968505859375 210.18275451660156 464.9786071777344 217.0543212890625 449.9501953125 209.78904724121094" stroke-width="6.0" fill="none" stroke="rgb(0, 0, 0)" stroke-opacity="0.004698881" stroke-linecap="round" stroke-linejoin="round"/>
    <path d="M 456.29296875 358.1120910644531 C 472.0973205566406 363.1156311035156 458.11639404296875 336.6192321777344 480.8089599609375 348.46466064453125 C 494.8422546386719 343.7833251953125 481.93572998046875 354.8139343261719 498.57513427734375 363.5532531738281 C 466.0372009277344 328.52197265625 466.1298522949219 322.3829040527344 472.6184997558594 404.4235534667969 C 493.4024658203125 385.4100646972656 498.1370849609375 364.9735412597656 481.43707275390625 370.96044921875" stroke-width="6.0" fill="none" stroke="rgb(0, 0, 0)" stroke-opacity="0.24496326" stroke-linecap="round" stroke-linejoin="round"/>
    <path d="M 47.879905700683594 430.18609619140625 C 59.650516510009766 451.4145202636719 101.10273742675781 433.3536682128906 103.62307739257812 435.33538818359375 C 103.21907806396484 371.36846923828125 131.2094268798828 354.8865661621094 133.17718505859375 333.6078796386719 C 125.24887084960938 352.1300964355469 166.97283935546875 386.23492431640625 165.5325927734375 377.75335693359375 C 63.48446273803711 373.4885559082031 40.01252365112305 342.36871337890625 138.651611328125 341.2029724121094" stroke-width="6.0" fill="none" stroke="rgb(0, 0, 0)" stroke-opacity="0.20777722" stroke-linecap="round" stroke-linejoin="round"/>
    <path d="M 18.735130310058594 239.69390869140625 C -1.2182505130767822 214.65110778808594 -3.1524553298950195 266.66009521484375 9.838293075561523 287.4539794921875 C 61.32627487182617 290.77301025390625 47.532474517822266 255.9341583251953 85.15814971923828 229.05865478515625 C 78.98597717285156 237.97032165527344 64.83134460449219 229.0244598388672 60.90395736694336 222.03297424316406 C 77.94994354248047 237.3888397216797 66.0537109375 260.0658264160156 82.10303497314453 267.21990966796875" stroke-width="6.0" fill="none" stroke="rgb(0, 0, 0)" stroke-opacity="0.0" stroke-linecap="round" stroke-linejoin="round"/>
    <path d="M 524.462890625 635.4828491210938 C 511.4806213378906 583.4008178710938 529.62451171875 578.83544921875 514.446044921875 583.4339599609375 C 549.3502197265625 578.3373413085938 538.405517578125 583.4898681640625 521.4088745117188 571.20703125 C 500.3825378417969 608.98828125 486.7199401855469 611.5419311523438 500.083740234375 585.8324584960938 C 541.6466674804688 572.8231811523438 560.9776611328125 587.1676635742188 544.298095703125 603.4022216796875" stroke-width="6.0" fill="none" stroke="rgb(0, 0, 0)" stroke-opacity="0.00040093446" stroke-linecap="round" stroke-linejoin="round"/>
    <path d="M 383.7777404785156 373.924072265625 C 426.3032531738281 389.4537048339844 424.5262756347656 419.3984069824219 426.5218505859375 434.2935791015625 C 473.4334411621094 412.6130065917969 512.1241455078125 431.3590393066406 458.5565490722656 369.478271484375 C 466.43170166015625 440.8858947753906 457.33880615234375 424.80047607421875 382.22271728515625 424.13775634765625 C 347.6171875 429.12884521484375 374.70098876953125 479.4682922363281 445.79339599609375 490.7366027832031" stroke-width="6.0" fill="none" stroke="rgb(0, 0, 0)" stroke-opacity="0.24390686" stroke-linecap="round" stroke-linejoin="round"/>
    <path d="M 75.7675552368164 97.86800384521484 C 65.19681549072266 91.05429077148438 56.68886947631836 86.40989685058594 80.85796356201172 84.79045104980469 C 59.801109313964844 93.90724182128906 87.14905548095703 95.8704833984375 67.20606231689453 116.92237854003906 C 65.1681137084961 143.7942657470703 66.44538116455078 124.21401977539062 68.85823822021484 141.42776489257812 C 63.46664047241211 106.7944564819336 74.60897064208984 125.48719024658203 102.00138092041016 121.07434844970703" stroke-width="6.0" fill="none" stroke="rgb(0, 0, 0)" stroke-opacity="0.0" stroke-linecap="round" stroke-linejoin="round"/>
    <path d="M 12.559564590454102 154.49488830566406 C 5.513355255126953 171.5572509765625 -14.223658561706543 169.3360595703125 -30.384761810302734 174.4493865966797 C 8.774626731872559 155.7845001220703 -17.428314208984375 183.11045837402344 -40.867252349853516 165.46810913085938 C -20.286670684814453 153.59384155273438 -12.025808334350586 171.34347534179688 -9.126213073730469 181.02630615234375 C -21.576017379760742 161.9927520751953 -41.250335693359375 180.1049346923828 -63.29822540283203 150.54319763183594" stroke-width="6.0" fill="none" stroke="rgb(0, 0, 0)" stroke-opacity="0.0021318928" stroke-linecap="round" stroke-linejoin="round"/>
    <path d="M -3.4973301887512207 105.88720703125 C -6.0314130783081055 114.79170989990234 -0.1269058734178543 147.3670196533203 -18.99803924560547 153.0681915283203 C 28.818544387817383 146.190673828125 30.13720703125 191.14178466796875 36.627174377441406 165.5222625732422 C 41.09596252441406 182.66908264160156 55.30905532836914 170.09442138671875 68.70249938964844 148.65618896484375 C 53.734405517578125 97.80586242675781 77.55390167236328 117.02406311035156 91.51786804199219 108.64909362792969" stroke-width="6.0" fill="none" stroke="rgb(0, 0, 0)" stroke-opacity="0.0" stroke-linecap="round" stroke-linejoin="round"/>
    <path d="M 98.67645263671875 50.57695007324219 C 96.7564468383789 65.02191925048828 81.28837585449219 59.86956024169922 85.66121673583984 61.49417495727539 C 90.00894165039062 80.81534576416016 102.50227355957031 84.89100646972656 89.84728240966797 91.15865325927734 C 97.04010772705078 60.52445983886719 98.650390625 43.88448715209961 98.93757629394531 38.014469146728516 C 114.88433074951172 2.4941232204437256 106.47164916992188 -36.70365524291992 110.92341613769531 50.821372985839844" stroke-width="6.0" fill="none" stroke="rgb(0, 0, 0)" stroke-opacity="0.0" stroke-linecap="round" stroke-linejoin="round"/>
    <path d="M 349.8997497558594 465.05615234375 C 374.1149597167969 477.95782470703125 353.6841125488281 460.7396240234375 357.3760070800781 381.7445068359375 C 347.896728515625 367.3368835449219 285.1460876464844 381.4129943847656 303.2361145019531 380.7435302734375 C 302.1616516113281 405.9884033203125 319.3614196777344 423.7195739746094 307.2899169921875 440.14251708984375 C 302.2493591308594 437.44189453125 291.96630859375 431.8815612792969 297.10357666015625 458.200927734375" stroke-width="6.0" fill="none" stroke="rgb(0, 0, 0)" stroke-opacity="0.30326346" stroke-linecap="round" stroke-linejoin="round"/>
    <path d="M 583.04736328125 363.4437561035156 C 584.3280639648438 359.3846435546875 632.6647338867188 373.53961181640625 634.4056396484375 336.7445983886719 C 620.3485107421875 299.1417541503906 597.1045532226562 265.99371337890625 565.9904174804688 271.7856750488281 C 552.2755126953125 265.7992248535156 539.7906494140625 278.4013671875 565.001220703125 246.7470703125 C 580.1849365234375 187.4369659423828 557.6907348632812 203.85589599609375 567.0170288085938 203.8666534423828" stroke-width="6.0" fill="none" stroke="rgb(0, 0, 0)" stroke-opacity="0.0" stroke-linecap="round" stroke-linejoin="round"/>
    <path d="M 170.3097686767578 313.8858642578125 C 147.5519561767578 289.7579345703125 135.9942626953125 291.5372619628906 159.1770782470703 385.1584167480469 C 190.5550994873047 302.5328674316406 182.73165893554688 274.52435302734375 136.8286590576172 279.6055908203125 C 185.5845489501953 312.02587890625 137.91819763183594 307.1982116699219 147.17770385742188 374.517333984375 C 151.78976440429688 354.48388671875 169.27511596679688 405.36151123046875 134.75613403320312 374.6976318359375" stroke-width="6.0" fill="none" stroke="rgb(0, 0, 0)" stroke-opacity="0.18925287" stroke-linecap="round" stroke-linejoin="round"/>
    <path d="M 451.8191833496094 298.5906677246094 C 437.506103515625 354.7995300292969 473.2402038574219 327.1878356933594 511.8100891113281 330.7058410644531 C 495.7687683105469 354.28466796875 504.2510070800781 366.7275390625 511.4073486328125 304.37127685546875 C 536.3238525390625 296.5142517089844 565.3355712890625 309.5728454589844 543.9432983398438 306.4360656738281 C 549.6456298828125 280.9598388671875 567.1795654296875 297.3448486328125 535.4918212890625 301.8468933105469" stroke-width="6.0" fill="none" stroke="rgb(0, 0, 0)" stroke-opacity="0.0" stroke-linecap="round" stroke-linejoin="round"/>
    <path d="M 396.3169860839844 387.0699157714844 C 396.076904296875 435.04888916015625 394.72637939453125 413.8084716796875 441.4068908691406 400.66351318359375 C 452.66546630859375 421.2115478515625 457.7907409667969 410.64215087890625 502.1472473144531 378.7194519042969 C 483.216552734375 382.0884704589844 460.8786926269531 360.5716857910156 435.35931396484375 363.65081787109375 C 420.1536865234375 357.9281311035156 428.0125732421875 382.5916442871094 432.6849670410156 414.75860595703125" stroke-width="6.0" fill="none" stroke="rgb(0, 0, 0)" stroke-opacity="0.38388956" stroke-linecap="round" stroke-linejoin="round"/>
    <path d="M 239.5932159423828 486.2538757324219 C 267.0212707519531 478.39776611328125 297.5482177734375 476.8553466796875 336.8858337402344 504.2332763671875 C 304.43035888671875 532.6029052734375 285.6011657714844 519.83837890625 322.88629150390625 464.9070739746094 C 313.63690185546875 394.1503601074219 304.585205078125 412.64801025390625 374.4929504394531 431.8834533691406 C 385.6520080566406 443.1973571777344 388.9342346191406 364.316650390625 374.6001281738281 384.1313171386719" stroke-width="6.0" fill="none" stroke="rgb(0, 0, 0)" stroke-opacity="0.05581586" stroke-linecap="round" stroke-linejoin="round"/>
    <path d="M 209.24169921875 28.401508331298828 C 209.97630310058594 61.43556594848633 215.4012908935547 40.53121566772461 192.1470489501953 92.57080841064453 C 197.25953674316406 70.3570556640625 199.33372497558594 54.82084274291992 200.53729248046875 57.725440979003906 C 191.87503051757812 43.939544677734375 209.16122436523438 56.24961853027344 189.60922241210938 38.71521759033203 C 169.45431518554688 6.422601222991943 168.3114013671875 28.188648223876953 177.03192138671875 24.153459548950195" stroke-width="6.0" fill="none" stroke="rgb(0, 0, 0)" stroke-opacity="0.0" stroke-linecap="round" stroke-linejoin="round"/>
    <path d="M 37.23944854736328 220.87332153320312 C 67.38324737548828 252.25636291503906 79.09778594970703 228.9590606689453 42.975250244140625 227.81948852539062 C 69.40351104736328 228.19822692871094 60.71792221069336 243.7382354736328 53.90589904785156 232.28909301757812 C 92.39945983886719 227.38632202148438 119.7471694946289 241.1903533935547 143.4239044189453 282.26202392578125 C 151.93106079101562 265.5928649902344 157.04080200195312 257.7637023925781 115.45641326904297 256.20318603515625" stroke-width="6.0" fill="none" stroke="rgb(0, 0, 0)" stroke-opacity="0.0" stroke-linecap="round" stroke-linejoin="round"/>
    <path d="M 53.21595764160156 71.55341339111328 C 53.72319412231445 90.1405258178711 35.453369140625 73.96873474121094 29.670671463012695 83.5119857788086 C 20.309959411621094 65.00041198730469 45.07089614868164 80.37433624267578 52.55181121826172 91.7210922241211 C -14.032291412353516 90.88021850585938 35.78307342529297 84.47350311279297 78.15320587158203 83.55803680419922 C 73.2411117553711 94.08968353271484 46.994903564453125 108.21064758300781 66.48151397705078 127.06031036376953" stroke-width="6.0" fill="none" stroke="rgb(0, 0, 0)" stroke-opacity="0.0" stroke-linecap="round" stroke-linejoin="round"/>
    <path d="M 185.1167449951172 152.17465209960938 C 184.95565795898438 142.0693817138672 194.01095581054688 150.76210021972656 182.35853576660156 157.9177703857422 C 151.13235473632812 157.674072265625 159.70452880859375 145.9062957763672 200.41664123535156 172.32135009765625 C 185.4620819091797 172.68701171875 196.90106201171875 170.3470001220703 236.51327514648438 179.33155822753906 C 300.15765380859375 160.09246826171875 285.4490966796875 124.31697082519531 277.3034362792969 233.5964813232422" stroke-width="6.0" fill="none" stroke="rgb(0, 0, 0)" stroke-opacity="0.0" stroke-linecap="round" stroke-linejoin="round"/>
    <path d="M 256.6592102050781 380.3429870605469 C 245.84739685058594 362.03363037109375 216.3592529296875 373.8230895996094 203.69482421875 400.18829345703125 C 218.50718688964844 400.7477111816406 247.68991088867188 412.2921447753906 242.74508666992188 417.3374938964844 C 232.1273193359375 457.5797424316406 213.317138671875 420.2718200683594 224.07907104492188 469.9652404785156 C 251.9251251220703 501.03790283203125 240.6327667236328 489.73870849609375 200.2474365234375 496.1642150878906" stroke-width="6.0" fill="none" stroke="rgb(0, 0, 0)" stroke-opacity="0.03603006" stroke-linecap="round" stroke-linejoin="round"/>
    <path d="M 59.63453674316406 59.84468078613281 C 51.726383209228516 60.828407287597656 71.76921844482422 57.426055908203125 72.18438720703125 55.876373291015625 C 60.359920501708984 62.73230743408203 35.59374237060547 73.73253631591797 88.25243377685547 43.00641632080078 C 111.61458587646484 39.938934326171875 100.50293731689453 45.82610321044922 120.298583984375 22.38180160522461 C 97.18199157714844 -18.008665084838867 98.41218566894531 -25.78769874572754 87.14411926269531 -6.006356716156006" stroke-width="6.0" fill="none" stroke="rgb(0, 0, 0)" stroke-opacity="0.0" stroke-linecap="round" stroke-linejoin="round"/>
    <path d="M 571.5342407226562 349.8985595703125 C 556.1090087890625 331.4754333496094 551.1841430664062 337.7999572753906 567.8443603515625 352.26849365234375 C 577.0146484375 386.38275146484375 578.761474609375 351.64117431640625 555.3045043945312 325.3000793457031 C 559.762939453125 327.3122253417969 572.4989624023438 341.0264587402344 569.4036865234375 333.1952819824219 C 542.6900024414062 327.39947509765625 531.1705322265625 300.6742248535156 536.3607788085938 299.1343078613281" stroke-width="6.0" fill="none" stroke="rgb(0, 0, 0)" stroke-opacity="0.0" stroke-linecap="round" stroke-linejoin="round"/>
    <path d="M 564.5225830078125 118.81137084960938 C 575.6078491210938 114.31132507324219 582.5573120117188 143.675048828125 596.8899536132812 142.43873596191406 C 577.4814453125 136.52642822265625 602.7174072265625 161.247314453125 639.484375 167.04371643066406 C 621.4895629882812 196.1200714111328 630.8719482421875 203.63064575195312 656.8538818359375 214.294677734375 C 637.3219604492188 187.8617706298828 614.1016235351562 187.2589111328125 610.0253295898438 204.65530395507812" stroke-width="6.0" fill="none" stroke="rgb(0, 0, 0)" stroke-opacity="0.0" stroke-linecap="round" stroke-linejoin="round"/>
    <path d="M 242.04029846191406 476.84710693359375 C 274.964111328125 466.1795959472656 330.1634216308594 446.3044738769531 324.3438720703125 470.8938293457031 C 323.00555419921875 489.7530822753906 336.6061706542969 438.7331848144531 333.1817321777344 457.50372314453125 C 363.6919860839844 464.7740173339844 331.38299560546875 452.4149475097656 338.4393310546875 468.55755615234375 C 313.169677734375 482.0091247558594 275.8354797363281 504.23944091796875 266.13519287109375 506.3194885253906" stroke-width="6.0" fill="none" stroke="rgb(0, 0, 0)" stroke-opacity="0.046641406" stroke-linecap="round" stroke-linejoin="round"/>
    <path d="M 239.86045837402344 337.87567138671875 C 255.3052215576172 310.6012268066406 276.5395812988281 324.82763671875 330.26043701171875 343.9588928222656 C 333.03515625 330.1677551269531 288.2734680175781 323.8211364746094 287.23382568359375 316.89642333984375 C 228.65951538085938 339.1828308105469 261.5142517089844 335.929443359375 328.3296203613281 360.815673828125 C 392.6676330566406 331.1296081542969 436.68316650390625 309.906494140625 446.12371826171875 320.6913146972656" stroke-width="6.0" fill="none" stroke="rgb(0, 0, 0)" stroke-opacity="0.5271881" stroke-linecap="round" stroke-linejoin="round"/>
    <path d="M 159.3117218017578 486.80157470703125 C 184.8451385498047 497.7967834472656 209.19374084472656 505.3892517089844 210.4308624267578 499.8282775878906 C 237.84323120117188 494.07464599609375 258.32330322265625 493.1439514160156 263.4248352050781 500.84136962890625 C 210.3077392578125 507.5401611328125 190.37359619140625 479.4415588378906 181.9071502685547 487.562744140625 C 184.5966033935547 495.9198913574219 161.95278930664062 521.8488159179688 170.5646209716797 477.01837158203125" stroke-width="6.0" fill="none" stroke="rgb(0, 0, 0)" stroke-opacity="0.01882499" stroke-linecap="round" stroke-linejoin="round"/>
    <path d="M 273.1522216796875 189.45669555664062 C 342.1649169921875 190.6009979248047 326.2887268066406 203.50161743164062 322.67999267578125 150.91793823242188 C 357.265380859375 170.7432861328125 351.82086181640625 186.8095703125 355.22772216796875 196.11668395996094 C 337.27728271484375 197.9782257080078 323.05865478515625 217.78720092773438 337.1008605957031 182.61907958984375 C 353.5927734375 165.18080139160156 374.33270263671875 202.5279998779297 351.195068359375 194.06809997558594" stroke-width="6.0" fill="none" stroke="rgb(0, 0, 0)" stroke-opacity="0.29216686" stroke-linecap="round" stroke-linejoin="round"/>
    <path d="M 280.84356689453125 565.702880859375 C 283.746826171875 538.5909423828125 259.2414245605469 516.17041015625 262.0594177246094 562.0875854492188 C 231.76239013671875 554.0848388671875 221.58926391601562 560.2869873046875 224.9373779296875 576.3236694335938 C 263.7394714355469 559.330810546875 230.44546508789062 572.340087890625 242.82325744628906 553.7548828125 C 240.767822265625 534.7164306640625 247.95053100585938 552.880859375 234.4440460205078 569.7447509765625" stroke-width="6.0" fill="none" stroke="rgb(0, 0, 0)" stroke-opacity="0.0" stroke-linecap="round" stroke-linejoin="round"/>
    <path d="M 322.40740966796875 120.56282806396484 C 334.8000793457031 180.7306671142578 370.08062744140625 190.52059936523438 306.98486328125 189.80409240722656 C 305.5935974121094 233.5695343017578 299.48187255859375 264.88604736328125 315.2806396484375 227.2467041015625 C 309.2004699707031 257.1361389160156 303.0651550292969 222.03514099121094 326.10888671875 239.3138427734375 C 327.4073181152344 229.6070098876953 338.3968200683594 208.3080291748047 267.6789855957031 202.45924377441406" stroke-width="6.0" fill="none" stroke="rgb(0, 0, 0)" stroke-opacity="0.45123908" stroke-linecap="round" stroke-linejoin="round"/>
    <path d="M 99.2202377319336 150.03907775878906 C 67.1755142211914 143.71597290039062 111.6143569946289 150.73245239257812 141.81411743164062 171.82833862304688 C 145.27078247070312 162.0074462890625 166.37432861328125 153.09571838378906 150.13499450683594 137.62353515625 C 162.62591552734375 153.53231811523438 168.9435272216797 140.72662353515625 214.25282287597656 165.9824981689453 C 220.5225067138672 230.48548889160156 235.64295959472656 200.9198455810547 212.49908447265625 165.98110961914062" stroke-width="6.0" fill="none" stroke="rgb(0, 0, 0)" stroke-opacity="0.0" stroke-linecap="round" stroke-linejoin="round"/>
    <path d="M 144.5446319580078 540.8001708984375 C 162.3677215576172 552.050537109375 192.3540802001953 554.6351318359375 185.42800903320312 542.1206665039062 C 215.12315368652344 554.8429565429688 227.36477661132812 532.4110107421875 255.66293334960938 569.531494140625 C 244.35946655273438 560.909912109375 242.79844665527344 537.3609619140625 238.23507690429688 496.5391540527344 C 210.35882568359375 487.16693115234375 209.20034790039062 496.5234375 197.09132385253906 455.46990966796875" stroke-width="6.0" fill="none" stroke="rgb(0, 0, 0)" stroke-opacity="0.0" stroke-linecap="round" stroke-linejoin="round"/>
    <path d="M -11.675684928894043 -11.295413970947266 C -17.274776458740234 11.097491264343262 -5.608625888824463 23.479310989379883 -1.9231222867965698 11.465279579162598 C 18.543846130371094 11.70267105102539 15.537971496582031 27.79369354248047 66.11351776123047 30.796363830566406 C 33.56957244873047 20.78221321105957 40.390159606933594 29.41790199279785 17.088756561279297 47.75617599487305 C 27.008657455444336 73.09487915039062 22.886865615844727 80.50318145751953 18.939775466918945 71.31468200683594" stroke-width="6.0" fill="none" stroke="rgb(0, 0, 0)" stroke-opacity="0.0" stroke-linecap="round" stroke-linejoin="round"/>
    <path d="M 332.7773132324219 186.14541625976562 C 338.6141357421875 192.6326904296875 361.5675048828125 162.3019561767578 354.76715087890625 189.83419799804688 C 376.2397766113281 209.8589630126953 322.4111022949219 202.00759887695312 319.77447509765625 188.70758056640625 C 332.2302551269531 167.93641662597656 302.0146179199219 207.9879913330078 311.0915832519531 255.2294464111328 C 301.90228271484375 267.6166076660156 306.0411682128906 284.9659729003906 315.74212646484375 198.6871795654297" stroke-width="6.0" fill="none" stroke="rgb(0, 0, 0)" stroke-opacity="0.29619783" stroke-linecap="round" stroke-linejoin="round"/>
    <path d="M 611.8045043945312 436.1565856933594 C 622.454833984375 435.07513427734375 603.8616333007812 423.1164245605469 570.9009399414062 427.3955993652344 C 606.6890258789062 424.6232604980469 594.0181884765625 434.7020568847656 503.7167053222656 397.77825927734375 C 455.5992126464844 389.04071044921875 446.0757141113281 407.7276916503906 475.4028015136719 439.80584716796875 C 480.82275390625 471.0017395019531 487.0357666015625 473.106689453125 546.3512573242188 439.6461181640625" stroke-width="6.0" fill="none" stroke="rgb(0, 0, 0)" stroke-opacity="0.42236745" stroke-linecap="round" stroke-linejoin="round"/>
    <path d="M 501.4042053222656 -10.183389663696289 C 502.9974060058594 -9.676772117614746 511.0982360839844 -0.6518873572349548 505.9075622558594 -21.784221649169922 C 531.0599365234375 -1.1169172525405884 527.310546875 -7.343307018280029 517.0635375976562 -18.33653450012207 C 489.78375244140625 -46.12674331665039 504.6638488769531 -43.237823486328125 518.9904174804688 -61.0897102355957 C 508.0692443847656 -67.63348388671875 500.13677978515625 -93.58670043945312 521.4295654296875 -91.86534881591797" stroke-width="6.0" fill="none" stroke="rgb(0, 0, 0)" stroke-opacity="0.23522992" stroke-linecap="round" stroke-linejoin="round"/>
    <path d="M 39.1496696472168 21.92867660522461 C 31.365615844726562 29.726741790771484 29.332609176635742 33.46564865112305 37.19486618041992 27.90437889099121 C 49.59633255004883 6.408810138702393 39.43739318847656 -20.975833892822266 13.311772346496582 -16.62803840637207 C -29.75582504272461 18.766504287719727 -47.1423454284668 -6.165066719055176 -46.15773391723633 -15.508134841918945 C -40.84654235839844 -15.29953670501709 -61.3176155090332 -21.594619750976562 -90.4468765258789 -10.52220630645752" stroke-width="6.0" fill="none" stroke="rgb(0, 0, 0)" stroke-opacity="0.03002457" stroke-linecap="round" stroke-linejoin="round"/>
    <path d="M 417.0693664550781 465.3692321777344 C 435.6935119628906 478.905029296875 394.2657775878906 486.1429443359375 377.7520446777344 470.5678405761719 C 400.8626403808594 464.4720458984375 417.3983459472656 461.9394836425781 394.13592529296875 490.4220275878906 C 408.7440490722656 481.2991943359375 411.5511474609375 470.6148376464844 395.6729431152344 423.22271728515625 C 430.3630065917969 400.53167724609375 448.9303283691406 387.2749938964844 432.6825256347656 393.33416748046875" stroke-width="6.0" fill="none" stroke="rgb(0, 0, 0)" stroke-opacity="0.118003175" stroke-linecap="round" stroke-linejoin="round"/>
    <path d="M 171.4553680419922 136.69046020507812 C 169.5311279296875 158.8936309814453 140.94557189941406 166.2291717529297 135.9741668701172 150.02146911621094 C 160.64402770996094 129.43084716796875 154.84999084472656 120.31526947021484 175.4787139892578 170.93238830566406 C 174.06614685058594 142.23052978515625 177.05677795410156 112.0052261352539 183.6171112060547 96.72600555419922 C 168.8313446044922 81.77339935302734 141.08004760742188 72.2595443725586 142.88226318359375 70.04559326171875" stroke-width="6.0" fill="none" stroke="rgb(0, 0, 0)" stroke-opacity="0.0" stroke-linecap="round" stroke-linejoin="round"/>
    <path d="M 516.4985961914062 204.97129821777344 C 511.9225158691406 192.0345916748047 518.7883911132812 201.39833068847656 512.7028198242188 209.43283081054688 C 513.902587890625 255.61297607421875 509.1570129394531 254.02490234375 511.13916015625 243.2786407470703 C 550.296875 250.81167602539062 549.41015625 238.9650115966797 514.6237182617188 243.7088165283203 C 503.4578552246094 245.62435913085938 528.772705078125 210.24281311035156 530.459228515625 218.34158325195312" stroke-width="6.0" fill="none" stroke="rgb(0, 0, 0)" stroke-opacity="0.0" stroke-linecap="round" stroke-linejoin="round"/>
    <path d="M 466.59503173828125 49.79071807861328 C 462.6490783691406 29.347131729125977 461.2230224609375 54.156551361083984 421.9967346191406 42.796634674072266 C 452.3187255859375 40.31288146972656 489.709716796875 33.996177673339844 435.2052001953125 46.737648010253906 C 420.5235900878906 34.8510856628418 402.3235168457031 20.780380249023438 416.92626953125 41.63631057739258 C 431.54937744140625 -6.221857070922852 422.158935546875 16.20573616027832 411.5881042480469 43.746334075927734" stroke-width="6.0" fill="none" stroke="rgb(0, 0, 0)" stroke-opacity="0.0" stroke-linecap="round" stroke-linejoin="round"/>
    <path d="M 224.50857543945312 71.63605499267578 C 193.46786499023438 55.76359558105469 200.61434936523438 85.4869155883789 216.44969177246094 75.99647521972656 C 202.7506103515625 65.16519165039062 240.23045349121094 37.11454391479492 285.58099365234375 39.36177444458008 C 284.83941650390625 34.444305419921875 267.2123107910156 78.94611358642578 262.2065734863281 90.99490356445312 C 234.84864807128906 88.95671844482422 274.0244140625 77.60891723632812 281.16900634765625 42.78402328491211" stroke-width="6.0" fill="none" stroke="rgb(0, 0, 0)" stroke-opacity="0.0" stroke-linecap="round" stroke-linejoin="round"/>
    <path d="M 18.383190155029297 301.98358154296875 C 35.00978469848633 303.24774169921875 55.54513168334961 319.2821350097656 79.15071105957031 308.744384765625 C 79.00051879882812 285.1996765136719 86.3104248046875 304.4095153808594 99.23995971679688 294.5724182128906 C 80.4812240600586 295.67388916015625 83.17008972167969 315.1138916015625 83.94503021240234 309.0401916503906 C 114.24644470214844 270.1878967285156 132.510009765625 235.58348083496094 116.03069305419922 232.51632690429688" stroke-width="6.0" fill="none" stroke="rgb(0, 0, 0)" stroke-opacity="0.0" stroke-linecap="round" stroke-linejoin="round"/>
    <path d="M 326.87335205078125 259.4713439941406 C 248.79763793945312 248.96884155273438 283.79925537109375 235.65672302246094 266.5023498535156 212.09640502929688 C 241.33026123046875 218.12850952148438 251.86683654785156 227.87709045410156 284.3398742675781 178.9260711669922 C 284.4068298339844 183.8751220703125 292.84173583984375 285.2359313964844 290.8054504394531 278.5924987792969 C 253.70814514160156 251.48806762695312 271.6920166015625 266.2633056640625 264.55438232421875 321.05255126953125" stroke-width="6.0" fill="none" stroke="rgb(0, 0, 0)" stroke-opacity="0.4379885" stroke-linecap="round" stroke-linejoin="round"/>
    <path d="M 499.99053955078125 232.85086059570312 C 511.42926025390625 240.2243194580078 519.1486206054688 217.18853759765625 529.2066040039062 191.96432495117188 C 531.6441650390625 208.89076232910156 542.1395874023438 194.95553588867188 511.95684814453125 169.96311950683594 C 532.5796508789062 157.57177734375 541.3654174804688 158.6310577392578 565.5482177734375 103.5147705078125 C 561.2167358398438 133.60276794433594 597.2797241210938 152.7949676513672 565.8501586914062 153.1759033203125" stroke-width="6.0" fill="none" stroke="rgb(0, 0, 0)" stroke-opacity="0.0" stroke-linecap="round" stroke-linejoin="round"/>
    <path d="M 336.5621643066406 455.8457336425781 C 312.7465515136719 471.3760681152344 312.187255859375 484.5101013183594 341.9180908203125 471.2951354980469 C 299.447021484375 460.108642578125 309.0876770019531 483.1625061035156 318.6986389160156 468.2471618652344 C 301.0685119628906 424.2714538574219 326.6164855957031 412.17181396484375 295.0706787109375 412.84600830078125 C 293.4072265625 482.5264587402344 314.0035400390625 464.7904052734375 311.36810302734375 428.7142639160156" stroke-width="6.0" fill="none" stroke="rgb(0, 0, 0)" stroke-opacity="0.0377542" stroke-linecap="round" stroke-linejoin="round"/>
    <path d="M 88.47578430175781 311.7258605957031 C 67.43284606933594 358.07452392578125 86.62431335449219 334.7112731933594 111.17787170410156 350.476806640625 C 113.14209747314453 416.0965881347656 104.1532211303711 403.63671875 143.0609588623047 377.8970642089844 C 163.16024780273438 395.50396728515625 214.1790008544922 400.5907287597656 234.7119598388672 411.4554748535156 C 228.0854034423828 383.5012512207031 224.27716064453125 376.60052490234375 222.71115112304688 304.7119140625" stroke-width="6.0" fill="none" stroke="rgb(0, 0, 0)" stroke-opacity="0.4757059" stroke-linecap="round" stroke-linejoin="round"/>
    <path d="M 210.83473205566406 385.8470153808594 C 226.7254180908203 379.3807678222656 226.5529022216797 371.414306640625 212.37843322753906 409.49298095703125 C 186.87948608398438 395.4685363769531 207.40957641601562 396.5432434082031 204.60415649414062 399.3622131347656 C 200.66102600097656 404.0926818847656 221.93075561523438 397.6215515136719 227.20950317382812 384.6814880371094 C 252.16677856445312 400.2424621582031 258.6129455566406 396.4614562988281 171.39939880371094 373.8663635253906" stroke-width="6.0" fill="none" stroke="rgb(0, 0, 0)" stroke-opacity="0.2585428" stroke-linecap="round" stroke-linejoin="round"/>
    <path d="M 107.88722229003906 192.2327423095703 C 118.40486907958984 180.04917907714844 122.4383773803711 173.8351593017578 139.49880981445312 184.40084838867188 C 98.72073364257812 162.47720336914062 94.1091537475586 207.64097595214844 98.61846160888672 216.3854522705078 C 111.41732025146484 229.86473083496094 95.72044372558594 216.0037078857422 145.90711975097656 182.73635864257812 C 115.49967956542969 164.14910888671875 112.18647766113281 166.5775909423828 94.1668472290039 212.76834106445312" stroke-width="6.0" fill="none" stroke="rgb(0, 0, 0)" stroke-opacity="0.0" stroke-linecap="round" stroke-linejoin="round"/>
    <path d="M 373.1436462402344 21.725563049316406 C 370.53656005859375 17.56928825378418 369.84423828125 25.042882919311523 366.2796630859375 -38.08920669555664 C 429.5693359375 -8.28139591217041 443.58349609375 -11.101183891296387 435.670654296875 43.8516845703125 C 445.6211242675781 57.244693756103516 439.1060485839844 57.74904251098633 411.8165283203125 87.3134765625 C 376.7132568359375 97.2589111328125 383.17169189453125 93.03164672851562 373.2911682128906 104.66624450683594" stroke-width="6.0" fill="none" stroke="rgb(0, 0, 0)" stroke-opacity="0.0011681669" stroke-linecap="round" stroke-linejoin="round"/>
    <path d="M 333.5325622558594 466.6606750488281 C 352.8653869628906 448.728759765625 375.0765380859375 455.16375732421875 360.3011169433594 466.9786376953125 C 370.79193115234375 473.0449523925781 375.3879699707031 485.26922607421875 392.1782531738281 491.1040954589844 C 405.68603515625 492.5155029296875 401.7499084472656 504.3899841308594 376.8871154785156 499.1553039550781 C 380.10546875 476.53955078125 346.89227294921875 467.24713134765625 387.8691711425781 507.5511169433594" stroke-width="6.0" fill="none" stroke="rgb(0, 0, 0)" stroke-opacity="0.016512262" stroke-linecap="round" stroke-linejoin="round"/>
    <path d="M 275.1159362792969 199.6250457763672 C 275.194580078125 151.62255859375 286.5087890625 168.706298828125 284.401123046875 171.03884887695312 C 298.0770568847656 177.7262725830078 310.59521484375 124.2503890991211 315.8008728027344 103.73291778564453 C 319.78070068359375 128.45318603515625 308.557861328125 120.96196746826172 317.4669494628906 118.30410766601562 C 323.91162109375 184.2936248779297 308.059326171875 189.94943237304688 347.64111328125 162.66006469726562" stroke-width="6.0" fill="none" stroke="rgb(0, 0, 0)" stroke-opacity="0.74556863" stroke-linecap="round" stroke-linejoin="round"/>
    <path d="M 11.970853805541992 531.80810546875 C 4.843993186950684 538.9050903320312 -17.250442504882812 554.69384765625 -46.82954406738281 546.723388671875 C -18.96080207824707 587.3294067382812 4.358669281005859 616.9877319335938 4.744195938110352 619.5430908203125 C 28.568031311035156 599.9047241210938 60.94009017944336 618.6746215820312 83.11219787597656 627.6278076171875 C 113.99116516113281 620.3710327148438 120.03776550292969 593.8404541015625 116.2150650024414 539.0576782226562" stroke-width="6.0" fill="none" stroke="rgb(0, 0, 0)" stroke-opacity="0.0" stroke-linecap="round" stroke-linejoin="round"/>
    <path d="M 586.9217529296875 431.2535705566406 C 586.7097778320312 411.0389099121094 603.6575317382812 406.5223693847656 639.2213745117188 431.40716552734375 C 601.242919921875 477.0599670410156 629.7263793945312 476.45263671875 622.6502685546875 493.6742858886719 C 614.4830932617188 474.6896057128906 624.5233764648438 501.72906494140625 622.2637329101562 531.3978881835938 C 602.0142822265625 533.65869140625 603.2130737304688 549.1057739257812 583.2771606445312 531.3903198242188" stroke-width="6.0" fill="none" stroke="rgb(0, 0, 0)" stroke-opacity="0.0" stroke-linecap="round" stroke-linejoin="round"/>
    <path d="M 89.64598846435547 488.8682556152344 C 136.44248962402344 455.77496337890625 135.78131103515625 448.5354309082031 150.0984344482422 444.5343933105469 C 182.05352783203125 460.99713134765625 159.53707885742188 465.8583068847656 148.5106964111328 463.6089172363281 C 162.49253845214844 469.993896484375 140.8699951171875 483.3395080566406 154.39141845703125 449.20477294921875 C 120.05795288085938 443.1326904296875 98.68412017822266 455.7071838378906 62.86973190307617 481.3446960449219" stroke-width="6.0" fill="none" stroke="rgb(0, 0, 0)" stroke-opacity="0.008950385" stroke-linecap="round" stroke-linejoin="round"/>
    <path d="M 607.609130859375 133.6210174560547 C 619.0974731445312 115.4672622680664 645.0360717773438 100.10697174072266 631.3094482421875 120.27175903320312 C 619.9496459960938 132.0972442626953 637.3809204101562 157.74879455566406 652.1378784179688 168.0288848876953 C 654.7020874023438 163.21075439453125 651.6947021484375 149.59811401367188 664.533447265625 122.20039367675781 C 680.1986694335938 132.5252227783203 670.0402221679688 132.49290466308594 661.0576782226562 106.57611846923828" stroke-width="6.0" fill="none" stroke="rgb(0, 0, 0)" stroke-opacity="0.1496789" stroke-linecap="round" stroke-linejoin="round"/>
    <path d="M 195.41783142089844 276.5059814453125 C 244.1008758544922 285.3389892578125 267.3008728027344 276.0973815917969 261.6156921386719 215.6995391845703 C 287.38153076171875 221.7580108642578 253.01226806640625 203.25772094726562 230.92457580566406 184.3522186279297 C 259.734619140625 211.61767578125 236.4698486328125 206.68499755859375 235.3541259765625 259.47198486328125 C 296.0340881347656 282.3167724609375 272.2726745605469 222.8791961669922 276.7845153808594 238.41685485839844" stroke-width="6.0" fill="none" stroke="rgb(0, 0, 0)" stroke-opacity="0.064179316" stroke-linecap="round" stroke-linejoin="round"/>
    <path d="M 192.34075927734375 262.0611267089844 C 214.17030334472656 272.8636169433594 192.31396484375 276.08514404296875 202.8157196044922 252.90956115722656 C 199.0236053466797 248.26087951660156 200.4315643310547 284.79571533203125 235.82066345214844 259.6205749511719 C 214.6859893798828 257.54425048828125 207.92922973632812 244.91680908203125 186.33819580078125 266.8013610839844 C 171.9809112548828 326.7786560058594 169.84889221191406 379.34765625 169.1805419921875 368.9927062988281" stroke-width="6.0" fill="none" stroke="rgb(0, 0, 0)" stroke-opacity="0.5513742" stroke-linecap="round" stroke-linejoin="round"/>
    <path d="M 291.4579772949219 542.1347045898438 C 253.50303649902344 529.1508178710938 263.75274658203125 541.7632446289062 263.8008728027344 528.1539916992188 C 251.69891357421875 533.7281494140625 276.2117004394531 513.2369995117188 273.23651123046875 450.790771484375 C 268.10968017578125 444.7210388183594 300.9744873046875 458.2367858886719 395.2773132324219 455.3046569824219 C 396.3835144042969 467.3114013671875 420.5985412597656 429.0794982910156 379.2619323730469 392.5081787109375" stroke-width="6.0" fill="none" stroke="rgb(0, 0, 0)" stroke-opacity="0.108066164" stroke-linecap="round" stroke-linejoin="round"/>
    <path d="M -8.224706649780273 163.54776000976562 C -22.24077606201172 152.32192993164062 -17.96058464050293 163.32264709472656 -10.603379249572754 137.57357788085938 C -23.566997528076172 132.72642517089844 -20.786542892456055 156.859375 -20.453723907470703 188.90528869628906 C 7.825754165649414 170.1949462890625 -19.36612892150879 167.05026245117188 -14.525725364685059 117.35247039794922 C -7.913974761962891 103.6837158203125 -12.247766494750977 131.1142578125 -6.252597808837891 105.6781997680664" stroke-width="6.0" fill="none" stroke="rgb(0, 0, 0)" stroke-opacity="0.16297531" stroke-linecap="round" stroke-linejoin="round"/>
    <path d="M 412.8290710449219 441.0138854980469 C 356.1007385253906 465.3193664550781 342.9411315917969 473.99322509765625 326.8314514160156 444.5250549316406 C 333.9073181152344 475.67205810546875 341.2052917480469 455.8731384277344 322.0522766113281 440.5791015625 C 323.348388671875 393.6068115234375 333.646240234375 422.70831298828125 330.8289489746094 446.1316223144531 C 347.51092529296875 463.9858703613281 394.6517028808594 476.75189208984375 425.09002685546875 487.93194580078125" stroke-width="6.0" fill="none" stroke="rgb(0, 0, 0)" stroke-opacity="0.17113383" stroke-linecap="round" stroke-linejoin="round"/>
    <path d="M 497.7957458496094 83.16909790039062 C 471.1883544921875 53.74674606323242 455.32177734375 54.36701583862305 434.7900085449219 106.2740707397461 C 446.99945068359375 87.03549194335938 464.3611755371094 83.60832977294922 468.8038635253906 54.17601013183594 C 466.95220947265625 44.4549674987793 464.1227722167969 77.93838500976562 461.61859130859375 105.87545013427734 C 470.51312255859375 106.77739715576172 464.5843505859375 73.41276550292969 476.7882080078125 78.82550048828125" stroke-width="6.0" fill="none" stroke="rgb(0, 0, 0)" stroke-opacity="0.0" stroke-linecap="round" stroke-linejoin="round"/>
    <path d="M 163.39907836914062 134.7527313232422 C 144.9705047607422 115.26547241210938 152.89901733398438 102.60543823242188 167.32456970214844 75.46871185302734 C 185.0966339111328 88.71939086914062 162.51129150390625 82.18731689453125 156.61456298828125 87.12869262695312 C 171.73007202148438 87.07955169677734 182.34873962402344 47.63721466064453 168.8792724609375 20.715620040893555 C 197.87582397460938 44.78799057006836 170.6761016845703 33.12083435058594 174.42587280273438 45.080482482910156" stroke-width="6.0" fill="none" stroke="rgb(0, 0, 0)" stroke-opacity="0.0" stroke-linecap="round" stroke-linejoin="round"/>
    <path d="M 242.16552734375 114.32470703125 C 235.472412109375 90.32096099853516 258.7315979003906 80.60405731201172 261.9826965332031 62.980384826660156 C 262.44244384765625 87.6535873413086 254.00701904296875 115.97027587890625 234.15016174316406 106.98875427246094 C 220.3610076904297 80.75590515136719 185.67506408691406 62.10591506958008 185.2331085205078 71.43211364746094 C 149.40147399902344 57.050498962402344 174.70840454101562 59.637210845947266 184.35842895507812 41.85076904296875" stroke-width="6.0" fill="none" stroke="rgb(0, 0, 0)" stroke-opacity="0.0" stroke-linecap="round" stroke-linejoin="round"/>
    <path d="M 196.60877990722656 437.8506164550781 C 209.0331573486328 459.17523193359375 231.92555236816406 456.61358642578125 206.24639892578125 461.585205078125 C 213.556396484375 437.47021484375 236.15396118164062 398.0474548339844 235.78475952148438 395.95062255859375 C 209.73939514160156 437.2731628417969 197.23974609375 438.0432434082031 254.78187561035156 445.0281066894531 C 262.984619140625 470.4665222167969 271.86962890625 500.916015625 290.0150451660156 489.7453308105469" stroke-width="6.0" fill="none" stroke="rgb(0, 0, 0)" stroke-opacity="0.0" stroke-linecap="round" stroke-linejoin="round"/>
    <path d="M 427.5934143066406 495.58050537109375 C 415.3918151855469 482.9744567871094 410.43359375 461.73028564453125 420.4092102050781 491.966064453125 C 432.2569885253906 511.8946533203125 434.6725158691406 502.7833557128906 393.8154296875 496.3692626953125 C 378.45806884765625 511.04168701171875 372.0124816894531 523.52294921875 385.0113830566406 505.0966796875 C 380.7762451171875 513.398193359375 334.9048767089844 518.9442749023438 320.1562194824219 525.710205078125" stroke-width="6.0" fill="none" stroke="rgb(0, 0, 0)" stroke-opacity="0.06451338" stroke-linecap="round" stroke-linejoin="round"/>
  </g>
</svg>
