<?xml version="1.0" ?>
<svg xmlns="http://www.w3.org/2000/svg" version="1.1" width="240" height="240">
  <defs/>
  <g>
    <path d="M 212.77383422851562 97.09979248046875 C 201.77320861816406 196.46145629882812 152.90835571289062 237.80245971679688 81.80835723876953 230.70370483398438 C 38.18265151977539 225.86802673339844 14.551620483398438 189.67491149902344 10.631949424743652 146.85304260253906 C 10.39780330657959 60.85198211669922 79.14727783203125 54.34516906738281 133.455322265625 28.093000411987305 C 213.07078552246094 -23.01866340637207 254.75306701660156 39.45979309082031 212.77383422851562 97.09979248046875" stroke-width="0.0" fill="rgb(144, 140, 0)" opacity="0.78803027"/>
    <path d="M 191.4033660888672 84.04855346679688 C 155.99868774414062 265.67901611328125 45.78712844848633 173.80567932128906 27.89715576171875 106.6596450805664 C 116.81831359863281 263.4013977050781 204.38575744628906 38.83705139160156 78.82099151611328 89.41556549072266 C 24.56192398071289 131.4896240234375 14.073543548583984 109.31280517578125 65.93482971191406 80.44160461425781 C 192.48074340820312 -18.705806732177734 245.1468505859375 17.90089225769043 191.4033660888672 84.04855346679688" stroke-width="0.0" fill="rgb(254, 246, 156)" opacity="0.98026085"/>
    <path d="M 55.88693618774414 130.9604949951172 C 60.47092056274414 152.84693908691406 65.85054016113281 155.5599822998047 128.15426635742188 189.7967071533203 C 32.476654052734375 216.07257080078125 9.158390045166016 132.68980407714844 32.77311706542969 94.86436462402344 C 59.370182037353516 49.74960708618164 230.05282592773438 8.47285270690918 101.21409606933594 60.697879791259766 C 59.8386116027832 103.98279571533203 55.37131118774414 112.86578369140625 55.88693618774414 130.9604949951172" stroke-width="0.0" fill="rgb(255, 246, 156)" opacity="0.989591"/>
    <path d="M 212.90155029296875 200.67861938476562 C 206.97947692871094 202.9084930419922 201.05819702148438 207.1090545654297 203.15634155273438 207.3154296875 C 201.88758850097656 211.06248474121094 207.62681579589844 207.8212127685547 207.784423828125 207.68722534179688 C 208.44386291503906 215.97042846679688 208.61688232421875 209.29486083984375 211.288818359375 213.2283935546875 C 206.74049377441406 203.3347930908203 214.1900177001953 207.0301971435547 212.90155029296875 200.67861938476562" stroke-width="0.0" fill="rgb(255, 255, 255)" opacity="0.0"/>
    <path d="M 224.9463653564453 207.57870483398438 C 229.71994018554688 201.69140625 230.11424255371094 201.7612762451172 225.46656799316406 206.9913787841797 C 231.11114501953125 199.72128295898438 230.50991821289062 203.09312438964844 235.2235107421875 199.9576416015625 C 230.11021423339844 202.95425415039062 232.45140075683594 200.6714324951172 227.91140747070312 203.13523864746094 C 232.4904327392578 199.72044372558594 230.21034240722656 201.92250061035156 224.9463653564453 207.57870483398438" stroke-width="0.0" fill="rgb(255, 255, 255)" opacity="0.2085579"/>
    <path d="M 164.46688842773438 130.165283203125 C 184.33731079101562 93.518798828125 196.7130889892578 104.12347412109375 156.5224151611328 171.48904418945312 C 74.03388977050781 222.39305114746094 107.98297119140625 172.75645446777344 131.27090454101562 141.14007568359375 C 148.7403106689453 109.34490966796875 142.8483123779297 77.54257202148438 94.03732299804688 67.7354507446289 C 181.61749267578125 -12.585067749023438 260.7403259277344 1.485327124595642 164.46688842773438 130.165283203125" stroke-width="0.0" fill="rgb(255, 246, 157)" opacity="0.8681899"/>
    <path d="M 209.85064697265625 106.03257751464844 C 207.87615966796875 188.79356384277344 146.36495971679688 220.042236328125 155.77157592773438 214.98057556152344 C 87.7958984375 255.4140625 -7.41580057144165 223.58230590820312 14.420783042907715 110.57333374023438 C -1.3222132921218872 226.2335968017578 165.71104431152344 253.34963989257812 195.74020385742188 114.04415893554688 C 265.22186279296875 -53.98939514160156 204.88497924804688 136.60104370117188 209.85064697265625 106.03257751464844" stroke-width="0.0" fill="rgb(52, 77, 76)" opacity="0.4391451"/>
    <path d="M 140.1127166748047 106.68558502197266 C 141.1451416015625 135.0616912841797 124.87003326416016 157.97178649902344 102.59825134277344 162.29200744628906 C 81.1006851196289 166.72740173339844 55.093807220458984 153.09788513183594 55.7299919128418 125.35804748535156 C 59.112178802490234 99.1399917602539 75.63348388671875 87.1728515625 99.10179138183594 82.60145568847656 C 132.1780242919922 79.88326263427734 137.98080444335938 88.49857330322266 140.1127166748047 106.68558502197266" stroke-width="0.0" fill="rgb(106, 24, 110)" opacity="0.50518745"/>
  </g>
</svg>
