<?xml version="1.0" ?>
<svg xmlns="http://www.w3.org/2000/svg" version="1.1" width="240" height="240">
  <defs/>
  <g>
    <path d="M 235.28424072265625 166.31838989257812 C 245.73272705078125 227.31578063964844 112.70043182373047 232.27871704101562 70.65994262695312 221.40481567382812 C -38.13303756713867 200.00576782226562 27.395004272460938 156.6096649169922 6.4255571365356445 93.43401336669922 C 38.90690231323242 119.19914245605469 27.1020450592041 -7.327947616577148 177.5796661376953 48.236942291259766 C 277.706787109375 168.3663330078125 210.953369140625 49.36011505126953 235.28424072265625 166.31838989257812" stroke-width="0.0" fill="rgb(242, 179, 0)" opacity="0.8601833"/>
    <path d="M 310.5639953613281 96.09173583984375 C 174.03530883789062 44.56792068481445 274.7524719238281 180.87144470214844 170.31787109375 166.755859375 C 107.647216796875 155.58995056152344 125.41157531738281 34.916412353515625 145.8005828857422 159.54827880859375 C 118.0655288696289 7.405667304992676 129.52099609375 224.92689514160156 16.360525131225586 153.73779296875 C 24.00497817993164 78.2573471069336 -93.1038589477539 89.09304809570312 310.5639953613281 96.09173583984375" stroke-width="0.0" fill="rgb(0, 12, 54)" opacity="0.76185864"/>
    <path d="M 57.23904037475586 114.36345672607422 C 49.637351989746094 129.49769592285156 46.00302505493164 146.83706665039062 43.2949333190918 158.2630157470703 C 41.47352981567383 163.33795166015625 27.449052810668945 156.17343139648438 23.560901641845703 135.51718139648438 C 23.051389694213867 106.6470718383789 21.57073211669922 101.33556365966797 48.07577896118164 97.39097595214844 C 70.53488159179688 97.44268035888672 66.05577087402344 94.60133361816406 57.23904037475586 114.36345672607422" stroke-width="0.0" fill="rgb(254, 254, 254)" opacity="0.96365595"/>
    <path d="M 176.54505920410156 106.78681945800781 C 165.40072631835938 129.68312072753906 162.34185791015625 146.2877655029297 160.220947265625 154.67002868652344 C 156.6134796142578 160.3987274169922 138.40386962890625 141.53634643554688 138.24478149414062 118.56230163574219 C 136.72250366210938 91.64408874511719 184.5630645751953 100.72015380859375 162.08045959472656 97.2257308959961 C 178.03773498535156 98.57734680175781 184.36410522460938 93.2409896850586 176.54505920410156 106.78681945800781" stroke-width="0.0" fill="rgb(247, 247, 247)" opacity="0.99938756"/>
    <path d="M 156.8195037841797 92.44025421142578 C 129.71897888183594 102.73307800292969 98.78802490234375 97.91288757324219 129.2363739013672 98.71018981933594 C 78.31608581542969 100.50552368164062 100.85608673095703 86.34668731689453 25.092117309570312 89.72999572753906 C 54.248355865478516 18.298072814941406 177.42965698242188 7.609068393707275 214.20086669921875 89.90206909179688 C 101.56885528564453 86.78062438964844 184.17982482910156 94.47887420654297 156.8195037841797 92.44025421142578" stroke-width="0.0" fill="rgb(253, 194, 28)" opacity="0.8750493"/>
    <path d="M 171.56692504882812 178.90017700195312 C 173.71897888183594 183.76882934570312 149.76361083984375 202.44117736816406 125.91091918945312 203.07469177246094 C 146.12179565429688 202.39315795898438 96.35350799560547 207.18760681152344 97.38685607910156 196.7174072265625 C 98.71102142333984 182.77731323242188 112.38139343261719 200.9611053466797 144.8585205078125 187.6344451904297 C 161.4383087158203 180.60682678222656 166.07789611816406 166.72154235839844 171.56692504882812 178.90017700195312" stroke-width="0.0" fill="rgb(24, 28, 45)" opacity="0.8376976"/>
    <path d="M 243.6253662109375 169.60284423828125 C 238.56724548339844 172.972900390625 241.77587890625 170.81044006347656 289.0462951660156 111.23873901367188 C 269.5072326660156 154.28598022460938 221.3355255126953 84.14170837402344 225.99920654296875 124.08168029785156 C 241.99473571777344 177.7137451171875 219.71630859375 210.30210876464844 248.6227569580078 183.52915954589844 C 254.43466186523438 179.08432006835938 239.2682342529297 182.74366760253906 243.6253662109375 169.60284423828125" stroke-width="0.0" fill="rgb(254, 255, 254)" opacity="0.79940534"/>
    <path d="M 230.46144104003906 96.72897338867188 C 245.81842041015625 118.04737091064453 199.600341796875 115.91523742675781 198.05453491210938 166.19078063964844 C 141.5435791015625 168.11758422851562 230.64669799804688 41.85149002075195 126.02366638183594 117.16596984863281 C 77.86446380615234 96.45919799804688 172.29684448242188 100.36283874511719 154.1701202392578 92.75498962402344 C 171.5529022216797 88.32292175292969 214.4722900390625 90.77620697021484 230.46144104003906 96.72897338867188" stroke-width="0.0" fill="rgb(45, 46, 47)" opacity="0.8687025"/>
  </g>
</svg>
