<?xml version="1.0" ?>
<svg xmlns="http://www.w3.org/2000/svg" version="1.1" width="240" height="240">
  <defs/>
  <g>
    <path d="M 232.16238403320312 128.4578399658203 C 212.69097900390625 173.2708282470703 263.7578125 188.61273193359375 177.98757934570312 217.40353393554688 C 71.30208587646484 237.89878845214844 7.5286545753479 202.00852966308594 8.309020042419434 178.67611694335938 C 1.013903021812439 88.01764678955078 53.63801956176758 29.448623657226562 103.21361541748047 19.793132781982422 C 155.1326904296875 8.21338176727295 236.35458374023438 22.128114700317383 232.16238403320312 128.4578399658203" stroke-width="0.0" fill="rgb(249, 183, 0)" opacity="0.8693955"/>
    <path d="M 200.94027709960938 175.0048065185547 C 193.36158752441406 204.15386962890625 179.42269897460938 150.03768920898438 134.09182739257812 166.92636108398438 C 106.32185363769531 175.10435485839844 93.2635498046875 208.53395080566406 89.43733978271484 180.0300750732422 C 113.21057891845703 152.19033813476562 145.00865173339844 147.13844299316406 151.93138122558594 148.5263214111328 C 165.41232299804688 146.4719696044922 195.5524444580078 159.81558227539062 200.94027709960938 175.0048065185547" stroke-width="0.0" fill="rgb(249, 1, 0)" opacity="0.93918943"/>
    <path d="M 138.23680114746094 113.20948028564453 C 137.57188415527344 127.6227035522461 129.7420654296875 137.5780029296875 115.50689697265625 135.31179809570312 C 110.50663757324219 133.746826171875 99.8685302734375 125.82559204101562 104.75714874267578 108.41757202148438 C 101.76973724365234 105.85466003417969 117.965087890625 109.82714080810547 131.51715087890625 100.88285064697266 C 131.16156005859375 103.4737319946289 134.7961883544922 95.17791748046875 138.23680114746094 113.20948028564453" stroke-width="0.0" fill="rgb(7, 248, 1)" opacity="0.9637017"/>
    <path d="M 207.47073364257812 122.33515167236328 C 208.493408203125 133.56982421875 200.267578125 141.97537231445312 192.14756774902344 142.4885711669922 C 182.18194580078125 140.47164916992188 177.62686157226562 134.09803771972656 177.6237335205078 121.85943603515625 C 179.7599334716797 112.70639038085938 181.11129760742188 110.46310424804688 186.8502655029297 106.37088775634766 C 199.98486328125 121.595703125 208.50650024414062 115.83855438232422 207.47073364257812 122.33515167236328" stroke-width="0.0" fill="rgb(7, 5, 243)" opacity="0.95850074"/>
    <path d="M 205.34852600097656 42.2266731262207 C 242.68844604492188 94.80635070800781 230.81948852539062 111.84524536132812 224.73529052734375 168.10025024414062 C 234.95217895507812 111.30210876464844 232.7431640625 131.7270965576172 233.17588806152344 97.07290649414062 C 232.37217712402344 122.20380401611328 232.8392791748047 109.72506713867188 232.4557342529297 119.15727233886719 C 226.46372985839844 140.599853515625 248.19894409179688 85.76864624023438 205.34852600097656 42.2266731262207" stroke-width="0.0" fill="rgb(255, 223, 103)" opacity="0.5326645"/>
  </g>
</svg>
