<?xml version="1.0" ?>
<svg xmlns="http://www.w3.org/2000/svg" version="1.1" width="224" height="224">
  <defs/>
  <g>
    <path d="M 11.950175285339355 153.8249053955078 C 8.587116241455078 175.0028076171875 12.25393295288086 150.48760986328125 5.539371013641357 165.65664672851562" stroke-width="3.0" fill="none" stroke="rgb(0, 0, 0)" stroke-opacity="1" stroke-linecap="round" stroke-linejoin="round"/>
    <path d="M 170.61087036132812 198.84254455566406 C 179.06260681152344 199.07273864746094 193.56993103027344 199.61326599121094 165.64939880371094 198.68704223632812" stroke-width="3.0" fill="none" stroke="rgb(0, 0, 0)" stroke-opacity="1" stroke-linecap="round" stroke-linejoin="round"/>
    <path d="M 111.28124237060547 197.18728637695312 C 263.8786315917969 200.10281372070312 261.8663024902344 212.43394470214844 112.4577407836914 211.00755310058594" stroke-width="3.0" fill="none" stroke="rgb(0, 0, 0)" stroke-opacity="1" stroke-linecap="round" stroke-linejoin="round"/>
    <path d="M 181.70350646972656 119.61457061767578 C 180.75401306152344 111.86148071289062 180.02452087402344 87.89017486572266 179.6300048828125 83.4163589477539" stroke-width="3.0" fill="none" stroke="rgb(0, 0, 0)" stroke-opacity="1" stroke-linecap="round" stroke-linejoin="round"/>
    <path d="M 129.3358917236328 163.00640869140625 C 86.07904052734375 166.13623046875 211.74639892578125 173.2860565185547 65.58236694335938 168.99517822265625" stroke-width="3.0" fill="none" stroke="rgb(0, 0, 0)" stroke-opacity="1" stroke-linecap="round" stroke-linejoin="round"/>
    <path d="M -8.654472351074219 3.1866657733917236 C 29.531883239746094 42.67424392700195 51.498966217041016 48.38267517089844 86.1054916381836 55.093238830566406" stroke-width="3.0" fill="none" stroke="rgb(0, 0, 0)" stroke-opacity="1" stroke-linecap="round" stroke-linejoin="round"/>
    <path d="M -3.0668718814849854 57.34658432006836 C 21.08649253845215 97.47041320800781 17.68837547302246 48.45969772338867 4.092173099517822 145.4641571044922" stroke-width="3.0" fill="none" stroke="rgb(0, 0, 0)" stroke-opacity="1" stroke-linecap="round" stroke-linejoin="round"/>
    <path d="M 25.627954483032227 144.7498779296875 C 54.01265335083008 149.53990173339844 43.45098876953125 139.43612670898438 44.377044677734375 162.3599090576172" stroke-width="3.0" fill="none" stroke="rgb(0, 0, 0)" stroke-opacity="1" stroke-linecap="round" stroke-linejoin="round"/>
    <path d="M 176.2174530029297 59.39891052246094 C 86.03772735595703 48.65043258666992 27.919086456298828 67.26685333251953 4.7259202003479 22.344003677368164" stroke-width="3.0" fill="none" stroke="rgb(0, 0, 0)" stroke-opacity="1" stroke-linecap="round" stroke-linejoin="round"/>
    <path d="M 13.511088371276855 81.32880401611328 C -4.075290679931641 133.7273406982422 29.246910095214844 51.08121871948242 -3.542689800262451 69.530517578125" stroke-width="3.0" fill="none" stroke="rgb(0, 0, 0)" stroke-opacity="1" stroke-linecap="round" stroke-linejoin="round"/>
    <path d="M 16.20134735107422 76.84770202636719 C -1.681776762008667 215.3124542236328 -4.339999198913574 138.92201232910156 17.366168975830078 72.67720031738281" stroke-width="3.0" fill="none" stroke="rgb(0, 0, 0)" stroke-opacity="1" stroke-linecap="round" stroke-linejoin="round"/>
    <path d="M 202.64698791503906 -8.130603790283203 C 206.77427673339844 4.406205177307129 237.55975341796875 5.718651294708252 221.47154235839844 -20.9554500579834" stroke-width="3.0" fill="none" stroke="rgb(0, 0, 0)" stroke-opacity="1" stroke-linecap="round" stroke-linejoin="round"/>
    <path d="M 159.5601348876953 198.696533203125 C 187.02565002441406 199.1627655029297 193.14772033691406 198.00669860839844 164.35023498535156 199.2314453125" stroke-width="3.0" fill="none" stroke="rgb(0, 0, 0)" stroke-opacity="1" stroke-linecap="round" stroke-linejoin="round"/>
    <path d="M 146.00218200683594 197.14065551757812 C 195.3307342529297 201.12924194335938 184.50755310058594 200.25840759277344 156.20013427734375 198.46530151367188" stroke-width="3.0" fill="none" stroke="rgb(0, 0, 0)" stroke-opacity="1" stroke-linecap="round" stroke-linejoin="round"/>
    <path d="M 42.19337844848633 -6.110337257385254 C 42.53821563720703 -1.2953541278839111 57.086395263671875 -7.2776947021484375 60.60358428955078 -5.867608547210693" stroke-width="3.0" fill="none" stroke="rgb(0, 0, 0)" stroke-opacity="1" stroke-linecap="round" stroke-linejoin="round"/>
    <path d="M 167.48670959472656 166.5904998779297 C 166.47531127929688 145.3417510986328 165.5643310546875 161.08404541015625 180.81834411621094 154.7137451171875" stroke-width="3.0" fill="none" stroke="rgb(0, 0, 0)" stroke-opacity="1" stroke-linecap="round" stroke-linejoin="round"/>
    <path d="M 52.526119232177734 163.76194763183594 C 83.4967269897461 160.6747589111328 65.91622161865234 198.2989959716797 78.49453735351562 71.0758056640625" stroke-width="3.0" fill="none" stroke="rgb(0, 0, 0)" stroke-opacity="1" stroke-linecap="round" stroke-linejoin="round"/>
    <path d="M 70.98907470703125 54.63236999511719 C 234.6353759765625 63.700809478759766 219.1549835205078 70.87049102783203 20.253747940063477 61.99289321899414" stroke-width="3.0" fill="none" stroke="rgb(0, 0, 0)" stroke-opacity="1" stroke-linecap="round" stroke-linejoin="round"/>
    <path d="M 23.002931594848633 239.7742156982422 C 45.75999069213867 230.47438049316406 26.012283325195312 229.2528839111328 33.578582763671875 230.7752227783203" stroke-width="3.0" fill="none" stroke="rgb(0, 0, 0)" stroke-opacity="1" stroke-linecap="round" stroke-linejoin="round"/>
    <path d="M 127.56487274169922 160.65281677246094 C 130.47108459472656 156.1999969482422 124.02799987792969 177.35536193847656 126.9695053100586 147.11094665527344" stroke-width="3.0" fill="none" stroke="rgb(0, 0, 0)" stroke-opacity="1" stroke-linecap="round" stroke-linejoin="round"/>
    <path d="M 56.73735809326172 228.93653869628906 C 46.05547332763672 233.63233947753906 44.61417007446289 231.05702209472656 52.491355895996094 226.34471130371094" stroke-width="3.0" fill="none" stroke="rgb(0, 0, 0)" stroke-opacity="1" stroke-linecap="round" stroke-linejoin="round"/>
    <path d="M 24.881832122802734 163.2070770263672 C -27.190717697143555 172.9861297607422 28.197040557861328 165.42520141601562 38.11504364013672 167.76461791992188" stroke-width="3.0" fill="none" stroke="rgb(0, 0, 0)" stroke-opacity="1" stroke-linecap="round" stroke-linejoin="round"/>
    <path d="M 184.15074157714844 168.3160858154297 C 193.1600341796875 177.83482360839844 182.26278686523438 162.92901611328125 180.94412231445312 84.48126983642578" stroke-width="3.0" fill="none" stroke="rgb(0, 0, 0)" stroke-opacity="1" stroke-linecap="round" stroke-linejoin="round"/>
    <path d="M 12.534270286560059 147.12205505371094 C -27.59299087524414 136.41746520996094 23.209035873413086 161.2431640625 -26.74880599975586 137.16954040527344" stroke-width="3.0" fill="none" stroke="rgb(0, 0, 0)" stroke-opacity="1" stroke-linecap="round" stroke-linejoin="round"/>
    <path d="M 128.10443115234375 150.2441864013672 C 132.9410400390625 181.55873107910156 127.3975830078125 186.23255920410156 130.77590942382812 83.33792114257812" stroke-width="3.0" fill="none" stroke="rgb(0, 0, 0)" stroke-opacity="1" stroke-linecap="round" stroke-linejoin="round"/>
    <path d="M 205.9591827392578 166.79495239257812 C 198.6246337890625 81.74346160888672 205.77139282226562 97.16410827636719 211.77490234375 168.97836303710938" stroke-width="3.0" fill="none" stroke="rgb(0, 0, 0)" stroke-opacity="1" stroke-linecap="round" stroke-linejoin="round"/>
    <path d="M 13.38403606414795 166.93202209472656 C 16.880828857421875 157.16510009765625 5.216790676116943 171.67274475097656 7.466336250305176 157.25350952148438" stroke-width="3.0" fill="none" stroke="rgb(0, 0, 0)" stroke-opacity="1" stroke-linecap="round" stroke-linejoin="round"/>
    <path d="M 8.382060050964355 0.04712248221039772 C 96.09829711914062 85.56625366210938 199.8689422607422 30.836408615112305 216.49722290039062 -11.586183547973633" stroke-width="3.0" fill="none" stroke="rgb(0, 0, 0)" stroke-opacity="1" stroke-linecap="round" stroke-linejoin="round"/>
    <path d="M 22.87598419189453 227.31536865234375 C 5.904742240905762 228.9645233154297 10.0867338180542 227.8833770751953 9.337357521057129 232.6894073486328" stroke-width="3.0" fill="none" stroke="rgb(0, 0, 0)" stroke-opacity="1" stroke-linecap="round" stroke-linejoin="round"/>
    <path d="M 230.57591247558594 207.01995849609375 C 119.64817810058594 211.47482299804688 139.406494140625 211.1185760498047 243.54196166992188 204.48980712890625" stroke-width="3.0" fill="none" stroke="rgb(0, 0, 0)" stroke-opacity="1" stroke-linecap="round" stroke-linejoin="round"/>
    <path d="M 192.51829528808594 70.33772277832031 C 195.9828643798828 31.635950088500977 200.7827911376953 150.08755493164062 202.01295471191406 167.8367156982422" stroke-width="3.0" fill="none" stroke="rgb(0, 0, 0)" stroke-opacity="1" stroke-linecap="round" stroke-linejoin="round"/>
    <path d="M 183.46397399902344 170.77346801757812 C 180.56027221679688 151.64195251464844 188.28073120117188 154.28726196289062 164.43060302734375 153.76539611816406" stroke-width="3.0" fill="none" stroke="rgb(0, 0, 0)" stroke-opacity="1" stroke-linecap="round" stroke-linejoin="round"/>
  </g>
</svg>
