<?xml version="1.0" ?>
<svg xmlns="http://www.w3.org/2000/svg" version="1.1" width="224" height="224">
  <defs/>
  <g>
    <path d="M 110.56058502197266 210.0331268310547 C 124.55171203613281 178.75582885742188 115.80751037597656 212.1556396484375 106.63578796386719 140.8227081298828" stroke-width="3.0" fill="none" stroke="rgb(0, 0, 0)" stroke-opacity="1" stroke-linecap="round" stroke-linejoin="round"/>
    <path d="M 104.33213806152344 127.2283935546875 C 107.5775146484375 116.90142059326172 117.41537475585938 114.83363342285156 120.36553192138672 108.65955352783203" stroke-width="3.0" fill="none" stroke="rgb(0, 0, 0)" stroke-opacity="1" stroke-linecap="round" stroke-linejoin="round"/>
    <path d="M 121.98808288574219 109.67298889160156 C 122.19148254394531 125.12347412109375 110.48806762695312 123.03287506103516 96.4983901977539 120.12178039550781" stroke-width="3.0" fill="none" stroke="rgb(0, 0, 0)" stroke-opacity="1" stroke-linecap="round" stroke-linejoin="round"/>
    <path d="M 134.37344360351562 62.04960632324219 C 165.81668090820312 34.71539306640625 153.92718505859375 23.980443954467773 157.0461883544922 33.11945724487305" stroke-width="3.0" fill="none" stroke="rgb(0, 0, 0)" stroke-opacity="1" stroke-linecap="round" stroke-linejoin="round"/>
    <path d="M 79.7362289428711 66.66668701171875 C 135.37860107421875 39.2021369934082 117.24516296386719 50.965484619140625 111.77371978759766 79.20030212402344" stroke-width="3.0" fill="none" stroke="rgb(0, 0, 0)" stroke-opacity="1" stroke-linecap="round" stroke-linejoin="round"/>
    <path d="M 120.75103759765625 43.18680953979492 C 130.53570556640625 31.207670211791992 137.8829803466797 11.342550277709961 124.867919921875 48.78924560546875" stroke-width="3.0" fill="none" stroke="rgb(0, 0, 0)" stroke-opacity="1" stroke-linecap="round" stroke-linejoin="round"/>
    <path d="M 114.16935729980469 76.57112121582031 C 140.24647521972656 22.0283203125 86.07581329345703 64.32758331298828 139.9972686767578 52.22688293457031" stroke-width="3.0" fill="none" stroke="rgb(0, 0, 0)" stroke-opacity="1" stroke-linecap="round" stroke-linejoin="round"/>
    <path d="M 120.9776840209961 110.58979034423828 C 124.98051452636719 124.8581771850586 117.05168151855469 119.4106216430664 117.33076477050781 149.49118041992188" stroke-width="3.0" fill="none" stroke="rgb(0, 0, 0)" stroke-opacity="1" stroke-linecap="round" stroke-linejoin="round"/>
    <path d="M 115.5221176147461 44.1481819152832 C 133.19622802734375 23.761764526367188 139.9763946533203 12.882024765014648 111.76290893554688 42.997501373291016" stroke-width="3.0" fill="none" stroke="rgb(0, 0, 0)" stroke-opacity="1" stroke-linecap="round" stroke-linejoin="round"/>
    <path d="M 91.02051544189453 70.53662872314453 C 113.82001495361328 106.72388458251953 92.67855834960938 96.57796478271484 100.37039184570312 93.48796081542969" stroke-width="3.0" fill="none" stroke="rgb(0, 0, 0)" stroke-opacity="1" stroke-linecap="round" stroke-linejoin="round"/>
    <path d="M 123.55313110351562 89.81517791748047 C 186.56324768066406 110.21492004394531 149.6956024169922 117.5794677734375 135.4129638671875 94.54530334472656" stroke-width="3.0" fill="none" stroke="rgb(0, 0, 0)" stroke-opacity="1" stroke-linecap="round" stroke-linejoin="round"/>
    <path d="M 99.31190490722656 113.80147552490234 C 90.98939514160156 101.74195861816406 74.10211944580078 112.74282836914062 77.83715057373047 108.25955963134766" stroke-width="3.0" fill="none" stroke="rgb(0, 0, 0)" stroke-opacity="1" stroke-linecap="round" stroke-linejoin="round"/>
    <path d="M 61.90073776245117 104.1554946899414 C 102.04621124267578 75.33292388916016 78.44588470458984 94.73221588134766 96.28144836425781 83.85215759277344" stroke-width="3.0" fill="none" stroke="rgb(0, 0, 0)" stroke-opacity="1" stroke-linecap="round" stroke-linejoin="round"/>
    <path d="M 156.27401733398438 35.260009765625 C 133.9694061279297 55.48760986328125 137.78280639648438 65.1966552734375 111.3070297241211 53.100040435791016" stroke-width="3.0" fill="none" stroke="rgb(0, 0, 0)" stroke-opacity="1" stroke-linecap="round" stroke-linejoin="round"/>
    <path d="M 118.4058837890625 107.51467895507812 C 97.2095718383789 129.22154235839844 87.73966217041016 121.94137573242188 116.28329467773438 106.08697509765625" stroke-width="3.0" fill="none" stroke="rgb(0, 0, 0)" stroke-opacity="1" stroke-linecap="round" stroke-linejoin="round"/>
    <path d="M 108.91815185546875 87.23601531982422 C 72.78327941894531 77.28544616699219 73.10025787353516 49.859683990478516 94.04016876220703 80.27535247802734" stroke-width="3.0" fill="none" stroke="rgb(0, 0, 0)" stroke-opacity="1" stroke-linecap="round" stroke-linejoin="round"/>
    <path d="M 112.51688385009766 187.69178771972656 C 116.28244018554688 209.56349182128906 112.75617218017578 216.9619598388672 109.01626586914062 216.8912811279297" stroke-width="3.0" fill="none" stroke="rgb(0, 0, 0)" stroke-opacity="1" stroke-linecap="round" stroke-linejoin="round"/>
    <path d="M 115.21160888671875 112.43514251708984 C 84.5582275390625 105.73616027832031 96.4544906616211 122.19171905517578 101.56761169433594 111.44500732421875" stroke-width="3.0" fill="none" stroke="rgb(0, 0, 0)" stroke-opacity="1" stroke-linecap="round" stroke-linejoin="round"/>
    <path d="M 97.01679992675781 55.796356201171875 C 138.19093322753906 101.62586212158203 125.52348327636719 98.85884857177734 101.37886047363281 65.23262786865234" stroke-width="3.0" fill="none" stroke="rgb(0, 0, 0)" stroke-opacity="1" stroke-linecap="round" stroke-linejoin="round"/>
    <path d="M 124.64289093017578 27.312763214111328 C 102.31280517578125 43.51017379760742 116.2114028930664 41.29393005371094 109.79695892333984 40.40431213378906" stroke-width="3.0" fill="none" stroke="rgb(0, 0, 0)" stroke-opacity="1" stroke-linecap="round" stroke-linejoin="round"/>
    <path d="M 102.16293334960938 119.5380859375 C 103.20946502685547 139.19479370117188 114.0326919555664 137.2911376953125 113.70941162109375 177.43539428710938" stroke-width="3.0" fill="none" stroke="rgb(0, 0, 0)" stroke-opacity="1" stroke-linecap="round" stroke-linejoin="round"/>
    <path d="M 104.69477081298828 89.73636627197266 C 87.92545318603516 92.7041015625 103.5491943359375 102.66400146484375 96.7850341796875 101.76443481445312" stroke-width="3.0" fill="none" stroke="rgb(0, 0, 0)" stroke-opacity="1" stroke-linecap="round" stroke-linejoin="round"/>
    <path d="M 112.50498962402344 41.565338134765625 C 105.44378662109375 19.44319725036621 148.80813598632812 23.570837020874023 127.55970764160156 45.311561584472656" stroke-width="3.0" fill="none" stroke="rgb(0, 0, 0)" stroke-opacity="1" stroke-linecap="round" stroke-linejoin="round"/>
    <path d="M 116.22686767578125 108.66519927978516 C 83.75602722167969 132.84510803222656 105.51480102539062 113.9474868774414 112.83135986328125 133.3383026123047" stroke-width="3.0" fill="none" stroke="rgb(0, 0, 0)" stroke-opacity="1" stroke-linecap="round" stroke-linejoin="round"/>
    <path d="M 95.09982299804688 117.10527801513672 C 124.37479400634766 102.94658660888672 55.41716384887695 111.13326263427734 57.92131042480469 104.53914642333984" stroke-width="3.0" fill="none" stroke="rgb(0, 0, 0)" stroke-opacity="1" stroke-linecap="round" stroke-linejoin="round"/>
    <path d="M 115.20065307617188 81.35743713378906 C 132.79315185546875 38.712432861328125 137.08546447753906 48.26523971557617 114.57486724853516 85.38568878173828" stroke-width="3.0" fill="none" stroke="rgb(0, 0, 0)" stroke-opacity="1" stroke-linecap="round" stroke-linejoin="round"/>
    <path d="M 113.94490051269531 184.675048828125 C 124.4530258178711 119.6257095336914 115.60221862792969 169.83042907714844 123.9202880859375 113.64820098876953" stroke-width="3.0" fill="none" stroke="rgb(0, 0, 0)" stroke-opacity="1" stroke-linecap="round" stroke-linejoin="round"/>
    <path d="M 97.50066375732422 117.02981567382812 C 101.7391128540039 142.59107971191406 107.17936706542969 110.37760925292969 109.55506134033203 146.43740844726562" stroke-width="3.0" fill="none" stroke="rgb(0, 0, 0)" stroke-opacity="1" stroke-linecap="round" stroke-linejoin="round"/>
    <path d="M 115.39900207519531 135.5000457763672 C 123.13389587402344 100.1957015991211 120.65402221679688 119.00849151611328 104.59546661376953 122.89144897460938" stroke-width="3.0" fill="none" stroke="rgb(0, 0, 0)" stroke-opacity="1" stroke-linecap="round" stroke-linejoin="round"/>
    <path d="M 115.9688491821289 143.8153533935547 C 112.053466796875 100.09735107421875 106.37602996826172 142.12379455566406 120.83177185058594 155.8074493408203" stroke-width="3.0" fill="none" stroke="rgb(0, 0, 0)" stroke-opacity="1" stroke-linecap="round" stroke-linejoin="round"/>
    <path d="M 104.57640075683594 112.44383239746094 C 105.25909423828125 117.72852325439453 132.99839782714844 135.865478515625 104.28638458251953 122.1279296875" stroke-width="3.0" fill="none" stroke="rgb(0, 0, 0)" stroke-opacity="1" stroke-linecap="round" stroke-linejoin="round"/>
    <path d="M 152.10247802734375 111.04734802246094 C 120.5069351196289 103.14366149902344 112.3704833984375 115.80696105957031 116.09750366210938 129.52125549316406" stroke-width="3.0" fill="none" stroke="rgb(0, 0, 0)" stroke-opacity="1" stroke-linecap="round" stroke-linejoin="round"/>
  </g>
</svg>
