<?xml version="1.0" ?>
<svg xmlns="http://www.w3.org/2000/svg" version="1.1" width="224" height="224">
  <defs/>
  <g>
    <path d="M 105.90726470947266 138.74652099609375 C 107.90859985351562 87.4839859008789 106.50749969482422 116.72500610351562 108.56645202636719 150.97216796875" stroke-width="3.0" fill="none" stroke="rgb(0, 0, 0)" stroke-opacity="1" stroke-linecap="round" stroke-linejoin="round"/>
    <path d="M 111.90913391113281 119.61597442626953 C 110.64895629882812 134.64389038085938 110.43162536621094 137.939208984375 113.43571472167969 172.47445678710938" stroke-width="3.0" fill="none" stroke="rgb(0, 0, 0)" stroke-opacity="1" stroke-linecap="round" stroke-linejoin="round"/>
    <path d="M 153.26507568359375 36.538475036621094 C 130.41738891601562 68.7746810913086 134.85594177246094 39.831050872802734 128.93692016601562 63.18478012084961" stroke-width="3.0" fill="none" stroke="rgb(0, 0, 0)" stroke-opacity="1" stroke-linecap="round" stroke-linejoin="round"/>
    <path d="M 119.22802734375 86.3487548828125 C 117.93931579589844 73.6821060180664 132.7681427001953 65.07304382324219 118.47376251220703 68.01493072509766" stroke-width="3.0" fill="none" stroke="rgb(0, 0, 0)" stroke-opacity="1" stroke-linecap="round" stroke-linejoin="round"/>
    <path d="M 139.17654418945312 95.99616241455078 C 149.84002685546875 106.41752624511719 161.71917724609375 104.65406036376953 158.44387817382812 107.88035583496094" stroke-width="3.0" fill="none" stroke="rgb(0, 0, 0)" stroke-opacity="1" stroke-linecap="round" stroke-linejoin="round"/>
    <path d="M 154.57369995117188 29.11631965637207 C 150.9921112060547 -0.23527629673480988 126.77609252929688 6.87636137008667 147.57167053222656 17.73467254638672" stroke-width="3.0" fill="none" stroke="rgb(0, 0, 0)" stroke-opacity="1" stroke-linecap="round" stroke-linejoin="round"/>
    <path d="M 115.30461883544922 106.71873474121094 C 108.82167053222656 109.25006866455078 110.32286071777344 101.58023071289062 109.36227416992188 145.57127380371094" stroke-width="3.0" fill="none" stroke="rgb(0, 0, 0)" stroke-opacity="1" stroke-linecap="round" stroke-linejoin="round"/>
    <path d="M 78.03997039794922 63.75971603393555 C 97.35858917236328 54.65087127685547 99.64408874511719 47.56584548950195 97.26241302490234 53.22494125366211" stroke-width="3.0" fill="none" stroke="rgb(0, 0, 0)" stroke-opacity="1" stroke-linecap="round" stroke-linejoin="round"/>
    <path d="M 114.85794830322266 64.065185546875 C 114.17388916015625 52.65096664428711 109.34767150878906 51.324562072753906 122.71585083007812 57.515785217285156" stroke-width="3.0" fill="none" stroke="rgb(0, 0, 0)" stroke-opacity="1" stroke-linecap="round" stroke-linejoin="round"/>
    <path d="M 106.35911560058594 135.00497436523438 C 102.2432861328125 103.64793395996094 103.49729919433594 137.4794158935547 108.75955200195312 147.16244506835938" stroke-width="3.0" fill="none" stroke="rgb(0, 0, 0)" stroke-opacity="1" stroke-linecap="round" stroke-linejoin="round"/>
    <path d="M 78.22933197021484 67.07471466064453 C 77.01433563232422 67.45531463623047 101.04083251953125 87.15631103515625 83.33820343017578 76.7781753540039" stroke-width="3.0" fill="none" stroke="rgb(0, 0, 0)" stroke-opacity="1" stroke-linecap="round" stroke-linejoin="round"/>
    <path d="M 120.02145385742188 78.66914367675781 C 131.61390686035156 62.07541275024414 135.16200256347656 59.25950241088867 114.46161651611328 71.43729400634766" stroke-width="3.0" fill="none" stroke="rgb(0, 0, 0)" stroke-opacity="1" stroke-linecap="round" stroke-linejoin="round"/>
    <path d="M 128.24098205566406 25.130857467651367 C 131.70404052734375 51.63230514526367 103.91492462158203 44.81660461425781 138.600341796875 55.607025146484375" stroke-width="3.0" fill="none" stroke="rgb(0, 0, 0)" stroke-opacity="1" stroke-linecap="round" stroke-linejoin="round"/>
    <path d="M 98.70014953613281 57.75048828125 C 98.24173736572266 50.43117904663086 106.76348114013672 49.16582107543945 98.23480224609375 54.599605560302734" stroke-width="3.0" fill="none" stroke="rgb(0, 0, 0)" stroke-opacity="1" stroke-linecap="round" stroke-linejoin="round"/>
    <path d="M 112.81488037109375 108.95419311523438 C 112.54138946533203 126.84928131103516 115.83179473876953 144.65098571777344 109.10108184814453 126.64883422851562" stroke-width="3.0" fill="none" stroke="rgb(0, 0, 0)" stroke-opacity="1" stroke-linecap="round" stroke-linejoin="round"/>
    <path d="M 111.96256256103516 67.54497528076172 C 128.2191619873047 53.49139404296875 113.85639953613281 47.226768493652344 124.29484558105469 54.140567779541016" stroke-width="3.0" fill="none" stroke="rgb(0, 0, 0)" stroke-opacity="1" stroke-linecap="round" stroke-linejoin="round"/>
    <path d="M 76.57159423828125 108.7538833618164 C 113.33732604980469 105.6589584350586 112.24298858642578 126.66413879394531 94.8458023071289 109.61079406738281" stroke-width="3.0" fill="none" stroke="rgb(0, 0, 0)" stroke-opacity="1" stroke-linecap="round" stroke-linejoin="round"/>
    <path d="M 99.06336975097656 65.10514831542969 C 105.15057373046875 80.43841552734375 97.55899810791016 81.033447265625 113.95320892333984 87.13809967041016" stroke-width="3.0" fill="none" stroke="rgb(0, 0, 0)" stroke-opacity="1" stroke-linecap="round" stroke-linejoin="round"/>
    <path d="M 95.48092651367188 79.08372497558594 C 89.45338439941406 66.78557586669922 78.58543395996094 63.18769073486328 93.55101013183594 79.69917297363281" stroke-width="3.0" fill="none" stroke="rgb(0, 0, 0)" stroke-opacity="1" stroke-linecap="round" stroke-linejoin="round"/>
    <path d="M 115.63987731933594 51.844337463378906 C 110.6791763305664 76.27421569824219 105.89688110351562 68.96270751953125 113.97614288330078 51.57321548461914" stroke-width="3.0" fill="none" stroke="rgb(0, 0, 0)" stroke-opacity="1" stroke-linecap="round" stroke-linejoin="round"/>
    <path d="M 115.68588256835938 38.17402267456055 C 138.75576782226562 25.87167739868164 111.3946533203125 19.568374633789062 111.40095520019531 34.984439849853516" stroke-width="3.0" fill="none" stroke="rgb(0, 0, 0)" stroke-opacity="1" stroke-linecap="round" stroke-linejoin="round"/>
    <path d="M 78.74239349365234 65.96715545654297 C 98.31243896484375 57.524940490722656 99.76394653320312 53.291744232177734 106.4537124633789 80.95796966552734" stroke-width="3.0" fill="none" stroke="rgb(0, 0, 0)" stroke-opacity="1" stroke-linecap="round" stroke-linejoin="round"/>
    <path d="M 115.89527130126953 197.7989044189453 C 113.43121337890625 182.5729217529297 117.3560791015625 175.85240173339844 115.26185607910156 149.46743774414062" stroke-width="3.0" fill="none" stroke="rgb(0, 0, 0)" stroke-opacity="1" stroke-linecap="round" stroke-linejoin="round"/>
    <path d="M 121.57484436035156 108.45293426513672 C 121.3980941772461 136.91897583007812 119.88754272460938 139.84715270996094 118.93460845947266 127.2811050415039" stroke-width="3.0" fill="none" stroke="rgb(0, 0, 0)" stroke-opacity="1" stroke-linecap="round" stroke-linejoin="round"/>
    <path d="M 137.42884826660156 8.616838455200195 C 166.94032287597656 24.115468978881836 160.55397033691406 35.65416717529297 135.6699981689453 60.42854309082031" stroke-width="3.0" fill="none" stroke="rgb(0, 0, 0)" stroke-opacity="1" stroke-linecap="round" stroke-linejoin="round"/>
    <path d="M 119.707275390625 84.6915054321289 C 113.03681945800781 72.94620513916016 115.51018524169922 69.45621490478516 117.26984405517578 54.513729095458984" stroke-width="3.0" fill="none" stroke="rgb(0, 0, 0)" stroke-opacity="1" stroke-linecap="round" stroke-linejoin="round"/>
    <path d="M 107.5752182006836 60.967613220214844 C 99.62338256835938 80.00057983398438 123.87992858886719 72.64506530761719 125.36258697509766 52.68816375732422" stroke-width="3.0" fill="none" stroke="rgb(0, 0, 0)" stroke-opacity="1" stroke-linecap="round" stroke-linejoin="round"/>
    <path d="M 99.67534637451172 52.93718719482422 C 92.25191497802734 69.56227111816406 93.67713928222656 55.81048583984375 80.22428894042969 68.95571899414062" stroke-width="3.0" fill="none" stroke="rgb(0, 0, 0)" stroke-opacity="1" stroke-linecap="round" stroke-linejoin="round"/>
    <path d="M 106.16995239257812 150.15243530273438 C 99.99124908447266 115.893310546875 97.82598876953125 113.41119384765625 91.88941192626953 106.61844635009766" stroke-width="3.0" fill="none" stroke="rgb(0, 0, 0)" stroke-opacity="1" stroke-linecap="round" stroke-linejoin="round"/>
    <path d="M 104.15735626220703 62.34813690185547 C 109.07743072509766 50.109798431396484 112.0278549194336 47.781349182128906 92.79937744140625 57.313053131103516" stroke-width="3.0" fill="none" stroke="rgb(0, 0, 0)" stroke-opacity="1" stroke-linecap="round" stroke-linejoin="round"/>
    <path d="M 112.98944091796875 204.801513671875 C 103.55023193359375 228.36436462402344 121.62139892578125 208.46788024902344 112.81956481933594 197.12001037597656" stroke-width="3.0" fill="none" stroke="rgb(0, 0, 0)" stroke-opacity="1" stroke-linecap="round" stroke-linejoin="round"/>
    <path d="M 112.08735656738281 80.07083129882812 C 100.40409851074219 85.83631896972656 115.85929870605469 86.38795471191406 118.43942260742188 91.13298034667969" stroke-width="3.0" fill="none" stroke="rgb(0, 0, 0)" stroke-opacity="1" stroke-linecap="round" stroke-linejoin="round"/>
    <path d="M 106.14165496826172 72.97756958007812 C 113.77560424804688 79.10079956054688 114.66289520263672 91.38001251220703 107.01568603515625 77.60447692871094" stroke-width="3.0" fill="none" stroke="rgb(0, 0, 0)" stroke-opacity="1" stroke-linecap="round" stroke-linejoin="round"/>
    <path d="M 113.48934173583984 86.81775665283203 C 113.14271545410156 85.73851013183594 114.6852798461914 80.16529083251953 120.14973449707031 59.73031997680664" stroke-width="3.0" fill="none" stroke="rgb(0, 0, 0)" stroke-opacity="1" stroke-linecap="round" stroke-linejoin="round"/>
    <path d="M 156.6953125 103.37944793701172 C 133.40399169921875 87.9017333984375 98.12642669677734 86.15463256835938 135.03536987304688 95.23612213134766" stroke-width="3.0" fill="none" stroke="rgb(0, 0, 0)" stroke-opacity="1" stroke-linecap="round" stroke-linejoin="round"/>
    <path d="M 98.59186553955078 110.81407165527344 C 136.94151306152344 106.99516296386719 121.59532165527344 119.67359161376953 96.29844665527344 117.00764465332031" stroke-width="3.0" fill="none" stroke="rgb(0, 0, 0)" stroke-opacity="1" stroke-linecap="round" stroke-linejoin="round"/>
    <path d="M 120.2252426147461 141.61581420898438 C 119.99352264404297 142.66017150878906 121.73810577392578 134.0366668701172 118.32537078857422 136.2022705078125" stroke-width="3.0" fill="none" stroke="rgb(0, 0, 0)" stroke-opacity="1" stroke-linecap="round" stroke-linejoin="round"/>
    <path d="M 146.69430541992188 -3.913271188735962 C 135.8299102783203 -5.259181499481201 155.99874877929688 -5.736403465270996 152.014404296875 -8.596207618713379" stroke-width="3.0" fill="none" stroke="rgb(0, 0, 0)" stroke-opacity="1" stroke-linecap="round" stroke-linejoin="round"/>
    <path d="M 112.94163513183594 59.938663482666016 C 125.857421875 41.509681701660156 116.6390380859375 52.69124984741211 102.14588928222656 50.58122634887695" stroke-width="3.0" fill="none" stroke="rgb(0, 0, 0)" stroke-opacity="1" stroke-linecap="round" stroke-linejoin="round"/>
    <path d="M 121.52523040771484 82.74388122558594 C 115.41411590576172 62.986331939697266 131.43959045410156 72.27616119384766 112.44017791748047 73.445556640625" stroke-width="3.0" fill="none" stroke="rgb(0, 0, 0)" stroke-opacity="1" stroke-linecap="round" stroke-linejoin="round"/>
    <path d="M 118.60480499267578 82.53744506835938 C 97.02098083496094 94.46245574951172 87.19489288330078 85.29861450195312 116.3282241821289 86.54340362548828" stroke-width="3.0" fill="none" stroke="rgb(0, 0, 0)" stroke-opacity="1" stroke-linecap="round" stroke-linejoin="round"/>
    <path d="M 113.24852752685547 176.7183837890625 C 106.98604583740234 151.1228790283203 117.98091125488281 156.20474243164062 112.43765258789062 130.74571228027344" stroke-width="3.0" fill="none" stroke="rgb(0, 0, 0)" stroke-opacity="1" stroke-linecap="round" stroke-linejoin="round"/>
    <path d="M 115.84443664550781 79.24443054199219 C 113.51451873779297 67.03207397460938 104.50382232666016 61.69696044921875 110.39688873291016 52.48546600341797" stroke-width="3.0" fill="none" stroke="rgb(0, 0, 0)" stroke-opacity="1" stroke-linecap="round" stroke-linejoin="round"/>
    <path d="M 122.02962493896484 94.9113540649414 C 105.40802764892578 90.92550659179688 116.95414733886719 81.09563446044922 130.51522827148438 90.5411376953125" stroke-width="3.0" fill="none" stroke="rgb(0, 0, 0)" stroke-opacity="1" stroke-linecap="round" stroke-linejoin="round"/>
    <path d="M 125.2534408569336 66.74903869628906 C 138.05213928222656 38.54127502441406 95.5482406616211 55.607791900634766 124.31146240234375 35.63113784790039" stroke-width="3.0" fill="none" stroke="rgb(0, 0, 0)" stroke-opacity="1" stroke-linecap="round" stroke-linejoin="round"/>
    <path d="M 118.24369812011719 43.37779235839844 C 132.20118713378906 33.51399230957031 127.53984832763672 16.929607391357422 112.08396911621094 43.75844192504883" stroke-width="3.0" fill="none" stroke="rgb(0, 0, 0)" stroke-opacity="1" stroke-linecap="round" stroke-linejoin="round"/>
    <path d="M 120.06104278564453 172.87509155273438 C 124.98430633544922 129.44871520996094 119.63423156738281 172.5955047607422 115.0027847290039 111.5527572631836" stroke-width="3.0" fill="none" stroke="rgb(0, 0, 0)" stroke-opacity="1" stroke-linecap="round" stroke-linejoin="round"/>
    <path d="M 119.45821380615234 193.26145935058594 C 105.16741943359375 163.22140502929688 108.49913024902344 152.75738525390625 107.56887817382812 146.17483520507812" stroke-width="3.0" fill="none" stroke="rgb(0, 0, 0)" stroke-opacity="1" stroke-linecap="round" stroke-linejoin="round"/>
    <path d="M 152.9685821533203 109.12701416015625 C 145.75360107421875 110.7381591796875 146.91128540039062 111.34822845458984 127.12252044677734 96.09443664550781" stroke-width="3.0" fill="none" stroke="rgb(0, 0, 0)" stroke-opacity="1" stroke-linecap="round" stroke-linejoin="round"/>
    <path d="M 126.57467651367188 100.55858612060547 C 148.85719299316406 113.91527557373047 129.67689514160156 99.34140014648438 117.20642852783203 112.18470764160156" stroke-width="3.0" fill="none" stroke="rgb(0, 0, 0)" stroke-opacity="1" stroke-linecap="round" stroke-linejoin="round"/>
    <path d="M 120.96956634521484 65.05152893066406 C 101.7043228149414 81.7070083618164 107.25852966308594 75.31219482421875 119.50507354736328 76.10940551757812" stroke-width="3.0" fill="none" stroke="rgb(0, 0, 0)" stroke-opacity="1" stroke-linecap="round" stroke-linejoin="round"/>
    <path d="M 130.63851928710938 26.347463607788086 C 135.40359497070312 40.908023834228516 139.16404724121094 34.41900634765625 124.84752655029297 49.37999725341797" stroke-width="3.0" fill="none" stroke="rgb(0, 0, 0)" stroke-opacity="1" stroke-linecap="round" stroke-linejoin="round"/>
    <path d="M 96.55520629882812 95.11514282226562 C 96.66876983642578 96.09654998779297 105.45662689208984 86.787353515625 90.56248474121094 100.03299713134766" stroke-width="3.0" fill="none" stroke="rgb(0, 0, 0)" stroke-opacity="1" stroke-linecap="round" stroke-linejoin="round"/>
    <path d="M 123.8602066040039 111.8941879272461 C 121.36813354492188 152.6249542236328 118.8348617553711 160.5135498046875 118.06031036376953 113.95111846923828" stroke-width="3.0" fill="none" stroke="rgb(0, 0, 0)" stroke-opacity="1" stroke-linecap="round" stroke-linejoin="round"/>
    <path d="M 97.69245910644531 107.74903106689453 C 80.39366912841797 102.62459564208984 65.6272201538086 111.31515502929688 59.09282684326172 107.08917999267578" stroke-width="3.0" fill="none" stroke="rgb(0, 0, 0)" stroke-opacity="1" stroke-linecap="round" stroke-linejoin="round"/>
    <path d="M 109.08953094482422 69.51263427734375 C 115.637451171875 83.13111114501953 121.47669219970703 87.50214385986328 110.6664047241211 87.89737701416016" stroke-width="3.0" fill="none" stroke="rgb(0, 0, 0)" stroke-opacity="1" stroke-linecap="round" stroke-linejoin="round"/>
    <path d="M 110.03951263427734 41.61695098876953 C 119.73815155029297 18.784849166870117 140.51536560058594 21.295686721801758 125.58097076416016 46.8494758605957" stroke-width="3.0" fill="none" stroke="rgb(0, 0, 0)" stroke-opacity="1" stroke-linecap="round" stroke-linejoin="round"/>
    <path d="M 118.15863800048828 195.542236328125 C 114.88919067382812 207.13011169433594 101.95724487304688 206.86119079589844 117.5859146118164 192.7639617919922" stroke-width="3.0" fill="none" stroke="rgb(0, 0, 0)" stroke-opacity="1" stroke-linecap="round" stroke-linejoin="round"/>
    <path d="M 95.00003814697266 114.0898666381836 C 103.33720397949219 146.9100799560547 106.41503143310547 110.17485046386719 101.34306335449219 121.97259521484375" stroke-width="3.0" fill="none" stroke="rgb(0, 0, 0)" stroke-opacity="1" stroke-linecap="round" stroke-linejoin="round"/>
    <path d="M 135.7698211669922 57.37950134277344 C 114.93472290039062 46.26110076904297 116.38888549804688 77.10653686523438 121.20619201660156 60.57839584350586" stroke-width="3.0" fill="none" stroke="rgb(0, 0, 0)" stroke-opacity="1" stroke-linecap="round" stroke-linejoin="round"/>
    <path d="M 155.38467407226562 109.0771713256836 C 128.4462890625 100.40271759033203 123.06716918945312 78.4108657836914 125.32801818847656 98.22634887695312" stroke-width="3.0" fill="none" stroke="rgb(0, 0, 0)" stroke-opacity="1" stroke-linecap="round" stroke-linejoin="round"/>
    <path d="M 114.07528686523438 200.73023986816406 C 105.34971618652344 196.48464965820312 112.16332244873047 205.6683349609375 110.46900939941406 186.84283447265625" stroke-width="3.0" fill="none" stroke="rgb(0, 0, 0)" stroke-opacity="1" stroke-linecap="round" stroke-linejoin="round"/>
    <path d="M 129.68771362304688 104.52482604980469 C 119.19286346435547 108.04638671875 132.9796600341797 109.0049819946289 114.00294494628906 107.11758422851562" stroke-width="3.0" fill="none" stroke="rgb(0, 0, 0)" stroke-opacity="1" stroke-linecap="round" stroke-linejoin="round"/>
    <path d="M 110.76587677001953 141.79978942871094 C 104.40699768066406 171.07362365722656 125.16050720214844 166.50253295898438 113.63509368896484 144.20477294921875" stroke-width="3.0" fill="none" stroke="rgb(0, 0, 0)" stroke-opacity="1" stroke-linecap="round" stroke-linejoin="round"/>
  </g>
</svg>
