<?xml version="1.0" ?>
<svg xmlns="http://www.w3.org/2000/svg" version="1.1" width="224" height="224">
  <defs/>
  <g>
    <path d="M 18.009244918823242 132.28797912597656 C 17.787548065185547 123.04765319824219 18.047304153442383 131.2605438232422 18.244281768798828 129.9134521484375" stroke-width="3.0" fill="none" stroke="rgb(0, 0, 0)" stroke-opacity="1" stroke-linecap="round" stroke-linejoin="round"/>
    <path d="M 178.31253051757812 226.32058715820312 C 183.8158721923828 231.35098266601562 179.57073974609375 230.46963500976562 172.33143615722656 227.65457153320312" stroke-width="3.0" fill="none" stroke="rgb(0, 0, 0)" stroke-opacity="1" stroke-linecap="round" stroke-linejoin="round"/>
    <path d="M 186.64361572265625 226.22216796875 C 173.64398193359375 227.1770477294922 181.90829467773438 227.81185913085938 181.419677734375 229.45703125" stroke-width="3.0" fill="none" stroke="rgb(0, 0, 0)" stroke-opacity="1" stroke-linecap="round" stroke-linejoin="round"/>
    <path d="M 179.94549560546875 82.45203399658203 C 183.90785217285156 177.26686096191406 196.1374969482422 209.39456176757812 187.01597595214844 116.69703674316406" stroke-width="3.0" fill="none" stroke="rgb(0, 0, 0)" stroke-opacity="1" stroke-linecap="round" stroke-linejoin="round"/>
    <path d="M 129.5713653564453 162.29269409179688 C 125.8575210571289 83.22605895996094 134.193115234375 70.09495544433594 135.39227294921875 164.14048767089844" stroke-width="3.0" fill="none" stroke="rgb(0, 0, 0)" stroke-opacity="1" stroke-linecap="round" stroke-linejoin="round"/>
    <path d="M 17.568689346313477 -0.3488231897354126 C 53.34502410888672 43.099220275878906 83.66529846191406 38.46587371826172 50.67340850830078 29.187620162963867" stroke-width="3.0" fill="none" stroke="rgb(0, 0, 0)" stroke-opacity="1" stroke-linecap="round" stroke-linejoin="round"/>
    <path d="M -1.3793771266937256 61.65342712402344 C 19.223169326782227 76.22593688964844 12.39079475402832 59.037872314453125 2.113755464553833 148.83982849121094" stroke-width="3.0" fill="none" stroke="rgb(0, 0, 0)" stroke-opacity="1" stroke-linecap="round" stroke-linejoin="round"/>
    <path d="M 29.178258895874023 145.9593048095703 C 30.704118728637695 148.64537048339844 17.40419578552246 147.1865234375 51.14207458496094 147.46307373046875" stroke-width="3.0" fill="none" stroke="rgb(0, 0, 0)" stroke-opacity="1" stroke-linecap="round" stroke-linejoin="round"/>
    <path d="M 163.51840209960938 25.911054611206055 C 126.88329315185547 57.65761947631836 69.0536117553711 36.7099609375 54.737037658691406 31.250995635986328" stroke-width="3.0" fill="none" stroke="rgb(0, 0, 0)" stroke-opacity="1" stroke-linecap="round" stroke-linejoin="round"/>
    <path d="M 18.0100154876709 73.10517120361328 C 3.2764339447021484 100.3276596069336 23.548681259155273 103.67101287841797 -6.0853590965271 89.160400390625" stroke-width="3.0" fill="none" stroke="rgb(0, 0, 0)" stroke-opacity="1" stroke-linecap="round" stroke-linejoin="round"/>
    <path d="M 3.8650121688842773 152.40391540527344 C 11.903250694274902 121.14384460449219 10.367280006408691 115.81610870361328 16.540935516357422 75.93992614746094" stroke-width="3.0" fill="none" stroke="rgb(0, 0, 0)" stroke-opacity="1" stroke-linecap="round" stroke-linejoin="round"/>
    <path d="M 212.40933227539062 -0.31357666850090027 C 241.98031616210938 -3.5416457653045654 197.62551879882812 23.433534622192383 227.26513671875 0.199935182929039" stroke-width="3.0" fill="none" stroke="rgb(0, 0, 0)" stroke-opacity="1" stroke-linecap="round" stroke-linejoin="round"/>
    <path d="M 130.98049926757812 198.333251953125 C 167.88621520996094 198.57896423339844 161.29110717773438 199.66152954101562 188.6519012451172 197.10165405273438" stroke-width="3.0" fill="none" stroke="rgb(0, 0, 0)" stroke-opacity="1" stroke-linecap="round" stroke-linejoin="round"/>
    <path d="M 211.85604858398438 197.23817443847656 C 159.0389404296875 198.59288024902344 142.8604736328125 199.9195098876953 186.67669677734375 196.07144165039062" stroke-width="3.0" fill="none" stroke="rgb(0, 0, 0)" stroke-opacity="1" stroke-linecap="round" stroke-linejoin="round"/>
    <path d="M 55.82844543457031 -4.442809104919434 C 49.82699966430664 -5.989752292633057 57.15420913696289 -4.765799045562744 55.648677825927734 -3.6981468200683594" stroke-width="3.0" fill="none" stroke="rgb(0, 0, 0)" stroke-opacity="1" stroke-linecap="round" stroke-linejoin="round"/>
    <path d="M 175.47206115722656 154.3209686279297 C 188.5216827392578 161.57872009277344 143.34083557128906 151.96664428710938 183.0498809814453 153.5400390625" stroke-width="3.0" fill="none" stroke="rgb(0, 0, 0)" stroke-opacity="1" stroke-linecap="round" stroke-linejoin="round"/>
    <path d="M 66.20606231689453 166.14401245117188 C 75.1833724975586 174.7223663330078 65.39130401611328 203.7193145751953 77.30084228515625 72.15756225585938" stroke-width="3.0" fill="none" stroke="rgb(0, 0, 0)" stroke-opacity="1" stroke-linecap="round" stroke-linejoin="round"/>
    <path d="M 228.45375061035156 43.565673828125 C 223.87454223632812 33.04268264770508 230.73092651367188 36.480506896972656 229.44366455078125 41.86138153076172" stroke-width="3.0" fill="none" stroke="rgb(0, 0, 0)" stroke-opacity="1" stroke-linecap="round" stroke-linejoin="round"/>
    <path d="M 30.008758544921875 229.5657196044922 C 31.211355209350586 224.19534301757812 34.78984069824219 227.27651977539062 30.999399185180664 229.17276000976562" stroke-width="3.0" fill="none" stroke="rgb(0, 0, 0)" stroke-opacity="1" stroke-linecap="round" stroke-linejoin="round"/>
    <path d="M 124.40225219726562 197.93116760253906 C 148.37826538085938 197.46633911132812 149.23223876953125 200.01885986328125 105.36046600341797 197.03543090820312" stroke-width="3.0" fill="none" stroke="rgb(0, 0, 0)" stroke-opacity="1" stroke-linecap="round" stroke-linejoin="round"/>
    <path d="M 45.38582229614258 228.38954162597656 C 70.56354522705078 233.57896423339844 66.28905487060547 231.73602294921875 54.066200256347656 229.5648193359375" stroke-width="3.0" fill="none" stroke="rgb(0, 0, 0)" stroke-opacity="1" stroke-linecap="round" stroke-linejoin="round"/>
    <path d="M 7.3412370681762695 158.82054138183594 C 3.773984670639038 175.7593536376953 -5.348644256591797 168.10818481445312 22.904407501220703 164.06735229492188" stroke-width="3.0" fill="none" stroke="rgb(0, 0, 0)" stroke-opacity="1" stroke-linecap="round" stroke-linejoin="round"/>
    <path d="M 186.47943115234375 171.99343872070312 C 192.20574951171875 169.09579467773438 181.7283935546875 167.52706909179688 188.02415466308594 168.6748046875" stroke-width="3.0" fill="none" stroke="rgb(0, 0, 0)" stroke-opacity="1" stroke-linecap="round" stroke-linejoin="round"/>
    <path d="M 6.583624362945557 168.61717224121094 C 19.820859909057617 143.63218688964844 13.02992057800293 155.05645751953125 -17.67608642578125 150.5346221923828" stroke-width="3.0" fill="none" stroke="rgb(0, 0, 0)" stroke-opacity="1" stroke-linecap="round" stroke-linejoin="round"/>
    <path d="M 114.48983001708984 140.24574279785156 C 114.79864501953125 133.9520721435547 115.05768585205078 133.75790405273438 114.85401153564453 133.45750427246094" stroke-width="3.0" fill="none" stroke="rgb(0, 0, 0)" stroke-opacity="1" stroke-linecap="round" stroke-linejoin="round"/>
    <path d="M 211.71836853027344 165.20982360839844 C 202.10513305664062 86.96757507324219 204.8782501220703 106.80524444580078 211.91357421875 167.88778686523438" stroke-width="3.0" fill="none" stroke="rgb(0, 0, 0)" stroke-opacity="1" stroke-linecap="round" stroke-linejoin="round"/>
    <path d="M 26.52066421508789 168.01705932617188 C -10.082491874694824 168.22381591796875 17.74264907836914 171.6729278564453 7.680556774139404 156.3182373046875" stroke-width="3.0" fill="none" stroke="rgb(0, 0, 0)" stroke-opacity="1" stroke-linecap="round" stroke-linejoin="round"/>
    <path d="M 105.05595397949219 55.07892990112305 C 151.88035583496094 62.231964111328125 184.7204132080078 27.218769073486328 213.30921936035156 -4.8117899894714355" stroke-width="3.0" fill="none" stroke="rgb(0, 0, 0)" stroke-opacity="1" stroke-linecap="round" stroke-linejoin="round"/>
    <path d="M 16.815216064453125 231.78733825683594 C 14.336088180541992 239.74913024902344 7.496615409851074 223.87994384765625 16.061635971069336 230.43275451660156" stroke-width="3.0" fill="none" stroke="rgb(0, 0, 0)" stroke-opacity="1" stroke-linecap="round" stroke-linejoin="round"/>
    <path d="M 229.96990966796875 197.01516723632812 C 187.64114379882812 197.01576232910156 195.95619201660156 195.95452880859375 149.30252075195312 197.51084899902344" stroke-width="3.0" fill="none" stroke="rgb(0, 0, 0)" stroke-opacity="1" stroke-linecap="round" stroke-linejoin="round"/>
    <path d="M 195.3116455078125 66.80577087402344 C 191.40286254882812 88.96739959716797 205.7880859375 147.53701782226562 206.00921630859375 175.06851196289062" stroke-width="3.0" fill="none" stroke="rgb(0, 0, 0)" stroke-opacity="1" stroke-linecap="round" stroke-linejoin="round"/>
    <path d="M 182.9777069091797 163.36602783203125 C 196.21551513671875 161.4286346435547 187.8446044921875 192.83154296875 185.2860870361328 155.177978515625" stroke-width="3.0" fill="none" stroke="rgb(0, 0, 0)" stroke-opacity="1" stroke-linecap="round" stroke-linejoin="round"/>
    <path d="M 24.787616729736328 230.94358825683594 C 22.740707397460938 230.2296905517578 24.180805206298828 226.79660034179688 23.89725685119629 231.15765380859375" stroke-width="3.0" fill="none" stroke="rgb(0, 0, 0)" stroke-opacity="1" stroke-linecap="round" stroke-linejoin="round"/>
    <path d="M 162.229736328125 152.3946075439453 C 188.2987518310547 150.72882080078125 180.67849731445312 152.52658081054688 181.71337890625 171.37095642089844" stroke-width="3.0" fill="none" stroke="rgb(0, 0, 0)" stroke-opacity="1" stroke-linecap="round" stroke-linejoin="round"/>
    <path d="M -6.326629161834717 155.7596893310547 C -1.5469862222671509 153.45285034179688 -8.241125106811523 156.0444793701172 -15.92663860321045 148.7713623046875" stroke-width="3.0" fill="none" stroke="rgb(0, 0, 0)" stroke-opacity="1" stroke-linecap="round" stroke-linejoin="round"/>
    <path d="M 193.8075714111328 39.64531707763672 C 211.2689971923828 18.372228622436523 218.39219665527344 12.22895622253418 225.53614807128906 -0.6567733883857727" stroke-width="3.0" fill="none" stroke="rgb(0, 0, 0)" stroke-opacity="1" stroke-linecap="round" stroke-linejoin="round"/>
    <path d="M 16.703372955322266 68.23617553710938 C 96.36009216308594 72.20515441894531 35.672340393066406 72.80853271484375 70.09778594970703 75.61522674560547" stroke-width="3.0" fill="none" stroke="rgb(0, 0, 0)" stroke-opacity="1" stroke-linecap="round" stroke-linejoin="round"/>
    <path d="M 168.12643432617188 45.96287536621094 C 215.8105926513672 18.389537811279297 217.15362548828125 1.7988719940185547 235.0621795654297 -0.4232792556285858" stroke-width="3.0" fill="none" stroke="rgb(0, 0, 0)" stroke-opacity="1" stroke-linecap="round" stroke-linejoin="round"/>
    <path d="M 172.8570556640625 56.87067794799805 C 49.913612365722656 60.41679000854492 48.583885192871094 34.20919418334961 50.734066009521484 41.42913818359375" stroke-width="3.0" fill="none" stroke="rgb(0, 0, 0)" stroke-opacity="1" stroke-linecap="round" stroke-linejoin="round"/>
    <path d="M 35.38053512573242 168.0262908935547 C 22.606914520263672 165.8592987060547 24.94040870666504 175.4111785888672 27.09557342529297 153.15980529785156" stroke-width="3.0" fill="none" stroke="rgb(0, 0, 0)" stroke-opacity="1" stroke-linecap="round" stroke-linejoin="round"/>
    <path d="M 56.270938873291016 43.753841400146484 C 5.879475116729736 19.542705535888672 5.730988025665283 -8.815793991088867 -8.691551208496094 -3.210880756378174" stroke-width="3.0" fill="none" stroke="rgb(0, 0, 0)" stroke-opacity="1" stroke-linecap="round" stroke-linejoin="round"/>
    <path d="M 129.23863220214844 81.78620910644531 C 121.31222534179688 181.729736328125 136.84600830078125 201.46981811523438 132.853759765625 84.6797866821289" stroke-width="3.0" fill="none" stroke="rgb(0, 0, 0)" stroke-opacity="1" stroke-linecap="round" stroke-linejoin="round"/>
    <path d="M 18.62075424194336 124.2960433959961 C 18.637287139892578 121.56672668457031 17.403043746948242 133.189453125 18.54115104675293 120.02071380615234" stroke-width="3.0" fill="none" stroke="rgb(0, 0, 0)" stroke-opacity="1" stroke-linecap="round" stroke-linejoin="round"/>
    <path d="M 19.691408157348633 140.32749938964844 C 24.97500991821289 134.99838256835938 20.770977020263672 151.6778106689453 21.88248634338379 145.55078125" stroke-width="3.0" fill="none" stroke="rgb(0, 0, 0)" stroke-opacity="1" stroke-linecap="round" stroke-linejoin="round"/>
    <path d="M 4.712461948394775 143.1565704345703 C 13.290770530700684 92.31885528564453 10.570130348205566 96.65534973144531 12.320952415466309 104.60518646240234" stroke-width="3.0" fill="none" stroke="rgb(0, 0, 0)" stroke-opacity="1" stroke-linecap="round" stroke-linejoin="round"/>
    <path d="M -1.649491786956787 21.137592315673828 C 42.75749206542969 66.20455932617188 -16.31340789794922 49.10065841674805 132.49700927734375 58.04726791381836" stroke-width="3.0" fill="none" stroke="rgb(0, 0, 0)" stroke-opacity="1" stroke-linecap="round" stroke-linejoin="round"/>
    <path d="M 114.9990234375 133.7505340576172 C 115.03411865234375 142.99049377441406 114.36821746826172 139.79588317871094 114.94832611083984 129.32691955566406" stroke-width="3.0" fill="none" stroke="rgb(0, 0, 0)" stroke-opacity="1" stroke-linecap="round" stroke-linejoin="round"/>
    <path d="M 130.9532928466797 81.21073913574219 C 142.83294677734375 111.11395263671875 127.21782684326172 28.06689453125 131.9504852294922 149.75636291503906" stroke-width="3.0" fill="none" stroke="rgb(0, 0, 0)" stroke-opacity="1" stroke-linecap="round" stroke-linejoin="round"/>
    <path d="M 28.984975814819336 227.1949920654297 C 49.009246826171875 230.71571350097656 43.15919494628906 231.86727905273438 33.57429504394531 228.95785522460938" stroke-width="3.0" fill="none" stroke="rgb(0, 0, 0)" stroke-opacity="1" stroke-linecap="round" stroke-linejoin="round"/>
    <path d="M 3.820396661758423 143.2426300048828 C 19.821029663085938 151.4310760498047 11.394094467163086 135.12855529785156 13.294262886047363 168.7395477294922" stroke-width="3.0" fill="none" stroke="rgb(0, 0, 0)" stroke-opacity="1" stroke-linecap="round" stroke-linejoin="round"/>
    <path d="M 3.8004982471466064 72.15167236328125 C 4.507547378540039 50.839149475097656 34.76498031616211 92.70915985107422 -1.0127488374710083 63.815277099609375" stroke-width="3.0" fill="none" stroke="rgb(0, 0, 0)" stroke-opacity="1" stroke-linecap="round" stroke-linejoin="round"/>
    <path d="M 92.49320220947266 42.87114715576172 C 59.71406173706055 31.757774353027344 62.29636001586914 39.0528564453125 93.5663070678711 42.729896545410156" stroke-width="3.0" fill="none" stroke="rgb(0, 0, 0)" stroke-opacity="1" stroke-linecap="round" stroke-linejoin="round"/>
    <path d="M 189.9612579345703 170.00025939941406 C 176.0687255859375 171.89736938476562 174.46881103515625 174.07569885253906 237.9716339111328 177.85133361816406" stroke-width="3.0" fill="none" stroke="rgb(0, 0, 0)" stroke-opacity="1" stroke-linecap="round" stroke-linejoin="round"/>
    <path d="M 139.19789123535156 75.29843139648438 C 131.92425537109375 92.33425903320312 139.01312255859375 162.71194458007812 139.87510681152344 170.20652770996094" stroke-width="3.0" fill="none" stroke="rgb(0, 0, 0)" stroke-opacity="1" stroke-linecap="round" stroke-linejoin="round"/>
    <path d="M 93.12894439697266 -4.09628963470459 C 78.89582824707031 -9.68830680847168 75.35910034179688 2.9518065452575684 90.75186920166016 -7.867740631103516" stroke-width="3.0" fill="none" stroke="rgb(0, 0, 0)" stroke-opacity="1" stroke-linecap="round" stroke-linejoin="round"/>
    <path d="M 114.68879699707031 167.8521270751953 C 171.70526123046875 152.11448669433594 106.76496887207031 183.22312927246094 129.56265258789062 143.15187072753906" stroke-width="3.0" fill="none" stroke="rgb(0, 0, 0)" stroke-opacity="1" stroke-linecap="round" stroke-linejoin="round"/>
    <path d="M 126.23503112792969 81.97520446777344 C 124.48595428466797 129.938720703125 118.86708068847656 196.22850036621094 124.02914428710938 148.07240295410156" stroke-width="3.0" fill="none" stroke="rgb(0, 0, 0)" stroke-opacity="1" stroke-linecap="round" stroke-linejoin="round"/>
    <path d="M 203.40115356445312 166.26300048828125 C 200.04464721679688 33.455589294433594 185.70957946777344 88.27446746826172 218.78564453125 55.58475875854492" stroke-width="3.0" fill="none" stroke="rgb(0, 0, 0)" stroke-opacity="1" stroke-linecap="round" stroke-linejoin="round"/>
    <path d="M 116.14578247070312 197.43235778808594 C 179.6505584716797 196.8401336669922 176.38693237304688 199.14620971679688 110.05950927734375 197.92518615722656" stroke-width="3.0" fill="none" stroke="rgb(0, 0, 0)" stroke-opacity="1" stroke-linecap="round" stroke-linejoin="round"/>
    <path d="M 126.23052215576172 158.58767700195312 C 163.04415893554688 177.36949157714844 130.6377716064453 169.7913360595703 113.54646301269531 168.8516845703125" stroke-width="3.0" fill="none" stroke="rgb(0, 0, 0)" stroke-opacity="1" stroke-linecap="round" stroke-linejoin="round"/>
    <path d="M 162.4395751953125 171.78773498535156 C 111.55247497558594 174.92356872558594 145.45419311523438 128.08392333984375 127.30921173095703 161.45248413085938" stroke-width="3.0" fill="none" stroke="rgb(0, 0, 0)" stroke-opacity="1" stroke-linecap="round" stroke-linejoin="round"/>
    <path d="M 165.05934143066406 156.71530151367188 C 170.5497283935547 184.2826385498047 152.05050659179688 166.3825225830078 189.92201232910156 175.48175048828125" stroke-width="3.0" fill="none" stroke="rgb(0, 0, 0)" stroke-opacity="1" stroke-linecap="round" stroke-linejoin="round"/>
    <path d="M 114.69856262207031 133.51461791992188 C 112.55024719238281 175.23724365234375 116.04141998291016 168.4169158935547 102.43766784667969 168.50375366210938" stroke-width="3.0" fill="none" stroke="rgb(0, 0, 0)" stroke-opacity="1" stroke-linecap="round" stroke-linejoin="round"/>
    <path d="M 124.98136138916016 162.61123657226562 C 139.2998809814453 140.42333984375 119.42987823486328 156.33303833007812 125.0106201171875 127.63301086425781" stroke-width="3.0" fill="none" stroke="rgb(0, 0, 0)" stroke-opacity="1" stroke-linecap="round" stroke-linejoin="round"/>
  </g>
</svg>
