<?xml version="1.0" ?>
<svg xmlns="http://www.w3.org/2000/svg" version="1.1" width="224" height="224">
  <defs/>
  <g>
    <path d="M 136.97386169433594 115.62727355957031 C 103.56197357177734 121.37232971191406 84.31103515625 122.82698059082031 96.7211685180664 93.4078598022461" stroke-width="3.0" fill="none" stroke="rgb(0, 0, 0)" stroke-opacity="1.0" stroke-linecap="round" stroke-linejoin="round"/>
    <path d="M 79.75155639648438 120.41407012939453 C 106.87647247314453 109.3847885131836 95.14295959472656 153.01963806152344 106.93229675292969 109.47671508789062" stroke-width="3.0" fill="none" stroke="rgb(0, 0, 0)" stroke-opacity="1.0" stroke-linecap="round" stroke-linejoin="round"/>
    <path d="M 96.3299331665039 165.3865203857422 C 95.60322570800781 88.68423461914062 161.94239807128906 116.95069122314453 116.74852752685547 91.37928009033203" stroke-width="3.0" fill="none" stroke="rgb(0, 0, 0)" stroke-opacity="1.0" stroke-linecap="round" stroke-linejoin="round"/>
    <path d="M 120.31775665283203 129.27745056152344 C 160.9495849609375 98.48712921142578 171.55853271484375 92.6739501953125 106.9769515991211 119.64996337890625" stroke-width="3.0" fill="none" stroke="rgb(0, 0, 0)" stroke-opacity="1.0" stroke-linecap="round" stroke-linejoin="round"/>
    <path d="M 129.74868774414062 74.99992370605469 C 167.2876739501953 117.04788970947266 133.08355712890625 122.44181823730469 143.92913818359375 95.6393814086914" stroke-width="3.0" fill="none" stroke="rgb(0, 0, 0)" stroke-opacity="1.0" stroke-linecap="round" stroke-linejoin="round"/>
    <path d="M 115.096923828125 78.4557113647461 C 132.1689453125 109.1739273071289 166.5620574951172 89.41625213623047 114.9913330078125 71.49944305419922" stroke-width="3.0" fill="none" stroke="rgb(0, 0, 0)" stroke-opacity="1.0" stroke-linecap="round" stroke-linejoin="round"/>
    <path d="M 122.1846694946289 81.45770263671875 C 137.3655242919922 89.00965118408203 164.406005859375 67.8123779296875 119.50811767578125 127.61709594726562" stroke-width="3.0" fill="none" stroke="rgb(0, 0, 0)" stroke-opacity="1.0" stroke-linecap="round" stroke-linejoin="round"/>
    <path d="M 100.52840423583984 80.08171081542969 C 124.00701141357422 127.14469909667969 157.76065063476562 101.73542785644531 144.94972229003906 104.46967315673828" stroke-width="3.0" fill="none" stroke="rgb(0, 0, 0)" stroke-opacity="1.0" stroke-linecap="round" stroke-linejoin="round"/>
    <path d="M 115.92833709716797 132.38876342773438 C 68.58478546142578 59.38320541381836 114.40428161621094 92.19866180419922 105.6251220703125 75.76092529296875" stroke-width="3.0" fill="none" stroke="rgb(0, 0, 0)" stroke-opacity="1.0" stroke-linecap="round" stroke-linejoin="round"/>
    <path d="M 108.27549743652344 83.42353820800781 C 114.7894515991211 46.12698745727539 164.44126892089844 122.96868133544922 118.02076721191406 86.66781616210938" stroke-width="3.0" fill="none" stroke="rgb(0, 0, 0)" stroke-opacity="1.0" stroke-linecap="round" stroke-linejoin="round"/>
    <path d="M 134.24937438964844 86.10697937011719 C 143.8811798095703 113.12350463867188 98.0052490234375 95.53455352783203 119.34515380859375 78.46703338623047" stroke-width="3.0" fill="none" stroke="rgb(0, 0, 0)" stroke-opacity="1.0" stroke-linecap="round" stroke-linejoin="round"/>
    <path d="M 139.94590759277344 90.11705017089844 C 144.6073455810547 103.6601791381836 170.66160583496094 109.10773468017578 133.4830780029297 81.39774322509766" stroke-width="3.0" fill="none" stroke="rgb(0, 0, 0)" stroke-opacity="1.0" stroke-linecap="round" stroke-linejoin="round"/>
    <path d="M 117.18608856201172 121.12405395507812 C 106.84587097167969 112.74372100830078 161.9273223876953 135.1617431640625 103.99781036376953 128.32928466796875" stroke-width="3.0" fill="none" stroke="rgb(0, 0, 0)" stroke-opacity="1.0" stroke-linecap="round" stroke-linejoin="round"/>
    <path d="M 148.92071533203125 100.04159545898438 C 113.3963623046875 114.2926025390625 149.89944458007812 140.32275390625 78.79440307617188 114.01986694335938" stroke-width="3.0" fill="none" stroke="rgb(0, 0, 0)" stroke-opacity="1.0" stroke-linecap="round" stroke-linejoin="round"/>
    <path d="M 127.83663940429688 123.43167114257812 C 98.46603393554688 101.45858764648438 108.68445587158203 31.2614803314209 103.9504165649414 107.18701171875" stroke-width="3.0" fill="none" stroke="rgb(0, 0, 0)" stroke-opacity="1.0" stroke-linecap="round" stroke-linejoin="round"/>
    <path d="M 115.37854766845703 103.21873474121094 C 124.0909423828125 124.53961944580078 102.44428253173828 121.20439147949219 95.48873901367188 105.80400085449219" stroke-width="3.0" fill="none" stroke="rgb(0, 0, 0)" stroke-opacity="1.0" stroke-linecap="round" stroke-linejoin="round"/>
  </g>
</svg>
