<?xml version="1.0" ?>
<svg xmlns="http://www.w3.org/2000/svg" version="1.1" width="600" height="600">
  <defs/>
  <g>
    <path d="M 188.80819702148438 278.173583984375 C 188.80819702148438 282.5628662109375 187.60726928710938 286.4664306640625 185.2054443359375 289.88427734375 C 182.84002685546875 293.3021240234375 179.60122680664062 296.14434814453125 175.489013671875 298.410888671875 C 178.14556884765625 300.1378173828125 180.25625610351562 302.260498046875 181.82107543945312 304.7789306640625 C 183.38589477539062 307.2613525390625 184.16830444335938 309.99566650390625 184.16830444335938 312.9818115234375 C 184.16830444335938 316.57952880859375 183.04019165039062 320.123291015625 180.783935546875 323.6131591796875 C 178.52767944335938 327.1029052734375 175.5072021484375 330.197021484375 171.7225341796875 332.89532470703125 C 167.93783569335938 335.5936279296875 163.62548828125 337.770263671875 158.78546142578125 339.42523193359375 C 153.9818115234375 341.0802001953125 149.06900024414062 341.90771484375 144.0469970703125 341.90771484375 C 138.58831787109375 341.90771484375 133.82107543945312 340.86431884765625 129.74526977539062 338.777587890625 C 125.66943359375 336.69091796875 122.46701049804688 333.74078369140625 120.13796997070312 329.92718505859375 C 120.82940673828125 327.9124755859375 121.75738525390625 325.4119873046875 122.92190551757812 322.4259033203125 C 124.08642578125 319.40380859375 125.360107421875 316.2197265625 126.74298095703125 312.8739013671875 C 128.1622314453125 309.5279541015625 129.58151245117188 306.2000732421875 131.00076293945312 302.89013671875 C 132.42001342773438 299.5802001953125 133.7664794921875 296.612060546875 135.04019165039062 293.9857177734375 C 137.69674682617188 288.22930908203125 140.06216430664062 283.4622802734375 142.136474609375 279.6846923828125 C 144.24716186523438 275.906982421875 146.1759033203125 272.90289306640625 147.92266845703125 270.67230224609375 C 144.065185546875 271.8955078125 140.5716552734375 273.2626953125 137.4420166015625 274.77374267578125 C 134.31234741210938 276.2847900390625 132.00152587890625 277.7598876953125 130.50949096679688 279.198974609375 C 129.89083862304688 278.7672119140625 129.25396728515625 278.13763427734375 128.59893798828125 277.3101806640625 C 127.94390869140625 276.4466552734375 127.30706787109375 275.51123046875 126.68841552734375 274.50390625 C 126.10614013671875 273.4605712890625 125.6148681640625 272.417236328125 125.21456909179688 271.3739013671875 C 124.85064697265625 270.2945556640625 124.63229370117188 269.3231201171875 124.55950927734375 268.459716796875 C 126.37908935546875 267.200439453125 128.726318359375 265.9952392578125 131.60122680664062 264.84393310546875 C 134.51251220703125 263.65667724609375 137.67852783203125 262.6492919921875 141.09930419921875 261.82183837890625 C 144.52008056640625 260.9583740234375 148.03182983398438 260.2747802734375 151.63458251953125 259.7711181640625 C 155.2373046875 259.2674560546875 158.67626953125 259.015625 161.95147705078125 259.015625 C 170.35784912109375 259.015625 176.92645263671875 260.70654296875 181.65731811523438 264.08843994140625 C 186.424560546875 267.4703369140625 188.80819702148438 272.1654052734375 188.80819702148438 278.173583984375M 148.85064697265625 303.32183837890625 C 147.54055786132812 302.710205078125 146.32147216796875 301.7928466796875 145.19332885742188 300.569580078125 C 143.59210205078125 303.8795166015625 142.06369018554688 307.117431640625 140.6080322265625 310.283447265625 C 139.18878173828125 313.449462890625 137.91510009765625 316.38165283203125 136.78695678710938 319.0799560546875 C 135.69522094726562 321.7783203125 134.78543090820312 324.134765625 134.0576171875 326.1495361328125 C 133.36618041992188 328.164306640625 132.98406982421875 329.621337890625 132.91128540039062 330.52081298828125 C 133.89385986328125 331.0245361328125 135.05838012695312 331.4202880859375 136.40484619140625 331.70806884765625 C 137.7877197265625 331.95989990234375 139.49810791015625 332.0858154296875 141.5360107421875 332.0858154296875 C 146.26687622070312 332.0858154296875 150.79757690429688 331.4742431640625 155.12811279296875 330.2509765625 C 159.49505615234375 329.0277099609375 163.316162109375 327.372802734375 166.59136962890625 325.28607177734375 C 169.8665771484375 323.1634521484375 172.48672485351562 320.7529296875 174.45184326171875 318.05462646484375 C 176.4169921875 315.3203125 177.3995361328125 312.4600830078125 177.3995361328125 309.4739990234375 C 177.3995361328125 305.19268798828125 175.39804077148438 302.1165771484375 171.39498901367188 300.24578857421875 C 165.93630981445312 302.4404296875 159.78619384765625 303.5377197265625 152.94464111328125 303.5377197265625 C 151.96209716796875 303.5377197265625 151.1978759765625 303.5377197265625 150.65200805664062 303.5377197265625 C 150.14251708984375 303.5377197265625 149.54208374023438 303.46575927734375 148.85064697265625 303.32183837890625M 169.21151733398438 266.46295166015625 C 167.719482421875 266.46295166015625 166.1546630859375 266.57086181640625 164.51705932617188 266.7867431640625 C 162.87945556640625 267.0025634765625 161.15087890625 267.3443603515625 159.331298828125 267.8121337890625 C 159.6224365234375 268.09991455078125 159.85897827148438 268.40576171875 160.04095458984375 268.7294921875 C 160.222900390625 269.017333984375 160.36846923828125 269.3231201171875 160.47763061523438 269.64697265625 C 159.85897827148438 270.5103759765625 159.09478759765625 271.7696533203125 158.18499755859375 273.424560546875 C 157.27520751953125 275.0435791015625 156.25625610351562 276.932373046875 155.12811279296875 279.091064453125 C 154.036376953125 281.2496337890625 152.87188720703125 283.66015625 151.63458251953125 286.322509765625 C 150.43365478515625 288.9488525390625 149.19635009765625 291.64715576171875 147.92266845703125 294.41741943359375 C 149.12359619140625 294.16558837890625 150.5792236328125 293.96771240234375 152.28961181640625 293.82379150390625 C 154.0 293.6439208984375 155.69219970703125 293.553955078125 157.36618041992188 293.553955078125 C 158.27597045898438 293.553955078125 159.16754150390625 293.5899658203125 160.04095458984375 293.661865234375 C 160.91433715820312 293.6978759765625 161.76953125 293.76983642578125 162.60650634765625 293.87774658203125 C 165.95452880859375 293.3021240234375 168.9749755859375 292.4566650390625 171.66793823242188 291.34130859375 C 174.36090087890625 290.22607421875 176.67172241210938 288.9488525390625 178.6004638671875 287.509765625 C 180.56558227539062 286.03466796875 182.0758056640625 284.397705078125 183.13116455078125 282.59881591796875 C 184.1865234375 280.7999267578125 184.71417236328125 278.8931884765625 184.71417236328125 276.87841796875 C 184.71417236328125 273.4605712890625 183.38589477539062 270.87017822265625 180.72933959960938 269.1072998046875 C 178.07278442382812 267.3443603515625 174.2335205078125 266.46295166015625 169.21151733398438 266.46295166015625" stroke-width="1.0" fill="rgb(0, 0, 0)" opacity="1.0"/>
    <path d="M 233.67852783203125 264.6280517578125 C 230.6217041015625 268.6575927734375 227.819580078125 273.082763671875 225.27218627929688 277.90380859375 C 222.76116943359375 282.7247314453125 220.61410522460938 287.671630859375 218.8309326171875 292.7445068359375 C 217.08416748046875 297.8172607421875 215.7376708984375 302.836181640625 214.79150390625 307.801025390625 C 213.8453369140625 312.72998046875 213.37225341796875 317.3350830078125 213.37225341796875 321.61639404296875 C 213.37225341796875 326.9410400390625 214.1728515625 330.7906494140625 215.77407836914062 333.1651611328125 C 217.37530517578125 335.5396728515625 220.14102172851562 336.7269287109375 224.07125854492188 336.7269287109375 C 228.58377075195312 336.7269287109375 232.5504150390625 335.179931640625 235.97119140625 332.0858154296875 C 239.4283447265625 328.955810546875 242.64898681640625 324.656494140625 245.633056640625 319.1878662109375 C 247.59820556640625 315.6260986328125 249.27218627929688 311.7406005859375 250.655029296875 307.53125 C 252.07427978515625 303.285888671875 253.22064208984375 298.9326171875 254.093994140625 294.47137451171875 C 254.9674072265625 289.9742431640625 255.604248046875 285.45904541015625 256.0045471191406 280.9259033203125 C 256.44122314453125 276.35675048828125 256.65960693359375 271.9854736328125 256.65960693359375 267.8121337890625 C 256.65960693359375 265.1497802734375 256.6231994628906 263.20697021484375 256.5504150390625 261.9837646484375 C 256.4776611328125 260.760498046875 256.36846923828125 259.7711181640625 256.222900390625 259.015625 C 256.44122314453125 259.015625 256.96893310546875 259.0875244140625 257.805908203125 259.2314453125 C 258.6429138183594 259.3753662109375 259.589111328125 259.5732421875 260.6444091796875 259.8250732421875 C 261.73614501953125 260.04095458984375 262.827880859375 260.3468017578125 263.91961669921875 260.7425537109375 C 265.0113525390625 261.102294921875 265.9393310546875 261.51605224609375 266.70355224609375 261.9837646484375 C 266.33966064453125 267.16448974609375 265.6846008300781 272.50714111328125 264.7384338378906 278.01171875 C 263.82867431640625 283.5162353515625 262.59136962890625 288.966796875 261.02655029296875 294.36346435546875 C 259.49810791015625 299.72412109375 257.7149353027344 304.8868408203125 255.67703247070312 309.85174560546875 C 253.67550659179688 314.816650390625 251.41925048828125 319.27783203125 248.90826416015625 323.2353515625 C 245.19635009765625 329.0997314453125 241.02957153320312 333.6688232421875 236.40789794921875 336.9427490234375 C 231.78619384765625 340.252685546875 226.34573364257812 341.90771484375 220.08642578125 341.90771484375 C 213.64520263671875 341.90771484375 208.64138793945312 340.1087646484375 205.0750732421875 336.51104736328125 C 201.50872802734375 332.913330078125 199.72555541992188 327.4447021484375 199.72555541992188 320.1053466796875 C 199.72555541992188 315.89599609375 200.21682739257812 311.12896728515625 201.19940185546875 305.8043212890625 C 202.18194580078125 300.44366455078125 203.49203491210938 294.9930419921875 205.129638671875 289.4525146484375 C 206.76724243164062 283.87603759765625 208.65960693359375 278.46142578125 210.80667114257812 273.208740234375 C 212.99014282226562 267.9200439453125 215.26458740234375 263.18896484375 217.63003540039062 259.015625 C 218.8309326171875 259.015625 220.23199462890625 259.19549560546875 221.83319091796875 259.5552978515625 C 223.43441772460938 259.8790283203125 224.99923706054688 260.32879638671875 226.52767944335938 260.9044189453125 C 228.09249877929688 261.444091796875 229.51174926757812 262.0556640625 230.78546142578125 262.7392578125 C 232.09552001953125 263.4228515625 233.05990600585938 264.052490234375 233.67852783203125 264.6280517578125" stroke-width="1.0" fill="rgb(0, 0, 0)" opacity="1.0"/>
    <path d="M 276.1470947265625 342.015625 C 272.14404296875 340.86431884765625 269.45111083984375 339.7490234375 268.0682373046875 338.669677734375 C 266.68536376953125 337.6263427734375 265.99395751953125 336.187255859375 265.99395751953125 334.3524169921875 C 265.99395751953125 332.30169677734375 266.467041015625 329.4234619140625 267.4132080078125 325.7177734375 C 268.395751953125 322.01214599609375 269.66943359375 317.8927001953125 271.2342529296875 313.35955810546875 C 272.8354797363281 308.7904052734375 274.6368408203125 304.0234375 276.63836669921875 299.05853271484375 C 278.67626953125 294.0936279296875 280.73236083984375 289.3446044921875 282.8066711425781 284.8114013671875 C 284.9173583984375 280.2423095703125 286.97344970703125 276.06890869140625 288.9749755859375 272.291259765625 C 290.97650146484375 268.513671875 292.741455078125 265.5634765625 294.2698974609375 263.4407958984375 C 294.03338623046875 261.96575927734375 293.79681396484375 260.49072265625 293.5602722167969 259.015625 C 294.5064392089844 259.015625 295.8529052734375 259.2674560546875 297.5997009277344 259.7711181640625 C 299.34649658203125 260.23883056640625 301.1114501953125 260.814453125 302.8946228027344 261.498046875 C 304.67779541015625 262.181640625 306.24261474609375 262.90118408203125 307.5890808105469 263.65667724609375 C 308.9719543457031 264.376220703125 309.73614501953125 264.9698486328125 309.8817138671875 265.4376220703125 C 309.517822265625 267.05657958984375 309.2266845703125 269.52099609375 309.00836181640625 272.8309326171875 C 308.8263854980469 276.140869140625 308.73541259765625 279.6666259765625 308.73541259765625 283.4083251953125 C 308.73541259765625 290.8197021484375 309.02655029296875 298.087158203125 309.6087951660156 305.210693359375 C 310.2274475097656 312.334228515625 311.6103210449219 319.565673828125 313.75738525390625 326.905029296875 C 314.8855285644531 321.47247314453125 316.08642578125 316.057861328125 317.360107421875 310.6612548828125 C 318.67022705078125 305.2286376953125 320.0167236328125 300.04791259765625 321.3995361328125 295.1190185546875 C 322.81878662109375 290.1900634765625 324.2198486328125 285.6209716796875 325.60272216796875 281.41156005859375 C 326.985595703125 277.166259765625 328.31390380859375 273.4605712890625 329.58758544921875 270.2945556640625 C 330.89764404296875 267.1285400390625 332.11676025390625 264.6461181640625 333.244873046875 262.84716796875 C 334.37298583984375 261.04833984375 335.3919677734375 260.076904296875 336.3017578125 259.93304443359375 C 337.06597900390625 260.076904296875 337.9029541015625 260.36474609375 338.812744140625 260.7965087890625 C 339.7225341796875 261.22821044921875 340.59588623046875 261.76788330078125 341.43292236328125 262.41546630859375 C 342.2698974609375 263.027099609375 343.03411865234375 263.710693359375 343.7255859375 264.4661865234375 C 344.4169921875 265.18572998046875 344.9810791015625 265.92327880859375 345.417724609375 266.6788330078125 C 343.1614990234375 267.5782470703125 340.941650390625 269.6649169921875 338.7581787109375 272.9388427734375 C 336.57470703125 276.1768798828125 334.482177734375 280.1343994140625 332.48065185546875 284.8114013671875 C 330.4791259765625 289.4525146484375 328.6231689453125 294.50738525390625 326.912841796875 299.9759521484375 C 325.20245361328125 305.4085693359375 323.69219970703125 310.7691650390625 322.382080078125 316.057861328125 C 321.1083984375 321.310546875 320.107666015625 326.185546875 319.37982177734375 330.6827392578125 C 318.65203857421875 335.179931640625 318.251708984375 338.777587890625 318.178955078125 341.4759521484375 C 318.178955078125 341.619873046875 318.21533203125 341.727783203125 318.2880859375 341.79974365234375 C 318.06976318359375 341.8717041015625 317.8332214355469 341.90771484375 317.5784912109375 341.90771484375 C 317.32373046875 341.90771484375 317.1053771972656 341.90771484375 316.9234313964844 341.90771484375 C 313.68463134765625 341.90771484375 310.827880859375 341.511962890625 308.3533020019531 340.720458984375 C 305.87872314453125 339.96490478515625 304.25927734375 338.8675537109375 303.49505615234375 337.428466796875 C 302.0394287109375 331.70806884765625 300.8203125 326.2034912109375 299.8377685546875 320.914794921875 C 298.8551940917969 315.59014892578125 298.0181884765625 310.283447265625 297.3267822265625 304.99481201171875 C 296.6717224121094 299.670166015625 296.14404296875 294.30950927734375 295.7437438964844 288.912841796875 C 295.37982177734375 283.48028564453125 295.08868408203125 277.8138427734375 294.870361328125 271.91351318359375 C 293.5602722167969 273.9642333984375 292.1592102050781 276.64453125 290.66717529296875 279.9544677734375 C 289.2115173339844 283.2283935546875 287.7922668457031 286.84417724609375 286.409423828125 290.80169677734375 C 285.02655029296875 294.7232666015625 283.6800537109375 298.86065673828125 282.3699951171875 303.21392822265625 C 281.0963134765625 307.56719970703125 279.9681396484375 311.83050537109375 278.985595703125 316.00390625 C 278.0030517578125 320.14129638671875 277.22064208984375 324.0628662109375 276.63836669921875 327.7685546875 C 276.0924987792969 331.4742431640625 275.819580078125 334.6942138671875 275.819580078125 337.428466796875 C 275.819580078125 338.8675537109375 275.8377685546875 339.8929443359375 275.8741455078125 340.5045166015625 C 275.9105529785156 341.1162109375 276.00152587890625 341.619873046875 276.1470947265625 342.015625" stroke-width="1.0" fill="rgb(0, 0, 0)" opacity="1.0"/>
    <path d="M 346.0181884765625 342.015625 C 342.01513671875 340.86431884765625 339.32220458984375 339.7490234375 337.9393310546875 338.669677734375 C 336.55645751953125 337.6263427734375 335.86505126953125 336.187255859375 335.86505126953125 334.3524169921875 C 335.86505126953125 332.30169677734375 336.338134765625 329.4234619140625 337.2843017578125 325.7177734375 C 338.266845703125 322.01214599609375 339.54058837890625 317.8927001953125 341.10540771484375 313.35955810546875 C 342.70660400390625 308.7904052734375 344.50799560546875 304.0234375 346.50946044921875 299.05853271484375 C 348.54736328125 294.0936279296875 350.603515625 289.3446044921875 352.67779541015625 284.8114013671875 C 354.7884521484375 280.2423095703125 356.8446044921875 276.06890869140625 358.8460693359375 272.291259765625 C 360.84759521484375 268.513671875 362.612548828125 265.5634765625 364.1409912109375 263.4407958984375 C 363.90447998046875 261.96575927734375 363.66796875 260.49072265625 363.431396484375 259.015625 C 364.3775634765625 259.015625 365.7239990234375 259.2674560546875 367.4708251953125 259.7711181640625 C 369.21759033203125 260.23883056640625 370.9825439453125 260.814453125 372.7657470703125 261.498046875 C 374.54888916015625 262.181640625 376.11376953125 262.90118408203125 377.460205078125 263.65667724609375 C 378.84307861328125 264.376220703125 379.6072998046875 264.9698486328125 379.7528076171875 265.4376220703125 C 379.388916015625 267.05657958984375 379.0977783203125 269.52099609375 378.87945556640625 272.8309326171875 C 378.697509765625 276.140869140625 378.6065673828125 279.6666259765625 378.6065673828125 283.4083251953125 C 378.6065673828125 290.8197021484375 378.897705078125 298.087158203125 379.47991943359375 305.210693359375 C 380.09857177734375 312.334228515625 381.4814453125 319.565673828125 383.6285400390625 326.905029296875 C 384.756591796875 321.47247314453125 385.95751953125 316.057861328125 387.231201171875 310.6612548828125 C 388.54132080078125 305.2286376953125 389.8878173828125 300.04791259765625 391.2706298828125 295.1190185546875 C 392.68994140625 290.1900634765625 394.0909423828125 285.6209716796875 395.473876953125 281.41156005859375 C 396.856689453125 277.166259765625 398.18499755859375 273.4605712890625 399.45867919921875 270.2945556640625 C 400.768798828125 267.1285400390625 401.9879150390625 264.6461181640625 403.115966796875 262.84716796875 C 404.244140625 261.04833984375 405.2630615234375 260.076904296875 406.1728515625 259.93304443359375 C 406.93707275390625 260.076904296875 407.7740478515625 260.36474609375 408.683837890625 260.7965087890625 C 409.5936279296875 261.22821044921875 410.467041015625 261.76788330078125 411.30401611328125 262.41546630859375 C 412.1409912109375 263.027099609375 412.9052734375 263.710693359375 413.5966796875 264.4661865234375 C 414.2880859375 265.18572998046875 414.8521728515625 265.92327880859375 415.288818359375 266.6788330078125 C 413.0325927734375 267.5782470703125 410.812744140625 269.6649169921875 408.6292724609375 272.9388427734375 C 406.44580078125 276.1768798828125 404.353271484375 280.1343994140625 402.351806640625 284.8114013671875 C 400.35028076171875 289.4525146484375 398.49432373046875 294.50738525390625 396.783935546875 299.9759521484375 C 395.07354736328125 305.4085693359375 393.5633544921875 310.7691650390625 392.25323486328125 316.057861328125 C 390.9794921875 321.310546875 389.978759765625 326.185546875 389.2509765625 330.6827392578125 C 388.52313232421875 335.179931640625 388.122802734375 338.777587890625 388.050048828125 341.4759521484375 C 388.050048828125 341.619873046875 388.08642578125 341.727783203125 388.1591796875 341.79974365234375 C 387.94085693359375 341.8717041015625 387.704345703125 341.90771484375 387.4495849609375 341.90771484375 C 387.19482421875 341.90771484375 386.97650146484375 341.90771484375 386.7945556640625 341.90771484375 C 383.55572509765625 341.90771484375 380.69903564453125 341.511962890625 378.22442626953125 340.720458984375 C 375.74981689453125 339.96490478515625 374.13037109375 338.8675537109375 373.3662109375 337.428466796875 C 371.9105224609375 331.70806884765625 370.69140625 326.2034912109375 369.7088623046875 320.914794921875 C 368.726318359375 315.59014892578125 367.8892822265625 310.283447265625 367.1978759765625 304.99481201171875 C 366.5428466796875 299.670166015625 366.01513671875 294.30950927734375 365.6148681640625 288.912841796875 C 365.2509765625 283.48028564453125 364.9598388671875 277.8138427734375 364.741455078125 271.91351318359375 C 363.431396484375 273.9642333984375 362.03033447265625 276.64453125 360.53826904296875 279.9544677734375 C 359.0826416015625 283.2283935546875 357.66339111328125 286.84417724609375 356.280517578125 290.80169677734375 C 354.89764404296875 294.7232666015625 353.5511474609375 298.86065673828125 352.2410888671875 303.21392822265625 C 350.9674072265625 307.56719970703125 349.83929443359375 311.83050537109375 348.856689453125 316.00390625 C 347.8741455078125 320.14129638671875 347.09173583984375 324.0628662109375 346.50946044921875 327.7685546875 C 345.963623046875 331.4742431640625 345.690673828125 334.6942138671875 345.690673828125 337.428466796875 C 345.690673828125 338.8675537109375 345.7088623046875 339.8929443359375 345.7452392578125 340.5045166015625 C 345.7816162109375 341.1162109375 345.8726806640625 341.619873046875 346.0181884765625 342.015625" stroke-width="1.0" fill="rgb(0, 0, 0)" opacity="1.0"/>
    <path d="M 444.26751708984375 292.0354919433594 C 453.9046630859375 292.7125244140625 452.834716796875 295.3221435546875 452.2509460449219 286.2867126464844 C 453.5404968261719 278.5075988769531 454.4940185546875 272.3893127441406 457.12750244140625 268.1060485839844 C 459.1088562011719 264.3514709472656 461.84783935546875 260.36492919921875 464.892333984375 257.0044860839844 C 466.88360595703125 255.303955078125 468.2095031738281 253.61782836914062 469.88677978515625 252.76077270507812 C 472.214599609375 250.57293701171875 474.6604309082031 248.3089599609375 477.1126403808594 248.39251708984375 C 479.1091613769531 248.8231201171875 480.13800048828125 250.9971923828125 477.406494140625 252.95352172851562 C 477.49371337890625 249.81991577148438 478.83306884765625 250.92303466796875 478.2088928222656 250.43634033203125 C 479.434814453125 249.35476684570312 479.1759338378906 252.76834106445312 478.0315856933594 256.2340087890625 C 476.59967041015625 260.7322998046875 475.0090637207031 264.3572082519531 473.8623046875 267.4609680175781 C 472.7540283203125 269.5982971191406 471.5378112792969 272.9074401855469 470.08770751953125 275.09149169921875 C 468.95013427734375 277.9617614746094 466.9830627441406 279.9158020019531 465.50933837890625 283.6333312988281 C 460.5125732421875 289.0291748046875 458.77130126953125 297.3811950683594 455.14984130859375 300.7719421386719 C 447.292724609375 292.859619140625 447.0328674316406 295.5448303222656 456.4886169433594 292.80194091796875 C 468.9337463378906 304.0257873535156 475.1223449707031 314.764892578125 463.7598876953125 324.42120361328125 C 445.875732421875 318.38079833984375 439.0965270996094 321.3080749511719 426.91900634765625 325.94256591796875 C 429.70806884765625 336.7888488769531 436.7784729003906 342.91851806640625 458.3222961425781 341.2796630859375 C 456.31170654296875 356.461669921875 449.38543701171875 351.1324157714844 442.8452453613281 349.43768310546875 C 438.9588317871094 352.57232666015625 431.22735595703125 350.83087158203125 428.5746765136719 349.997802734375 C 424.91851806640625 348.746826171875 430.2166442871094 349.0914306640625 425.8304443359375 349.7762756347656 C 419.6219482421875 347.03570556640625 419.5974426269531 342.9525146484375 422.25823974609375 342.4700927734375 C 421.6614990234375 343.8504638671875 425.2999267578125 342.48583984375 424.57110595703125 347.11749267578125 C 422.2395324707031 346.64068603515625 420.7901306152344 348.7459716796875 417.85443115234375 339.82696533203125 C 418.712646484375 331.6756591796875 422.7960510253906 327.6456298828125 432.3596496582031 323.75885009765625 C 428.2606201171875 320.42181396484375 424.6853942871094 319.2940673828125 424.5213623046875 312.1652526855469 C 424.62152099609375 310.2579345703125 425.42926025390625 306.1486511230469 430.1510009765625 299.96221923828125 C 435.2331237792969 294.1368713378906 435.22930908203125 297.06976318359375 432.7149658203125 288.2279968261719 C 431.54302978515625 286.5658874511719 429.76995849609375 284.67059326171875 429.7272033691406 282.46282958984375 C 428.6286315917969 280.0185546875 427.07830810546875 278.2411804199219 426.2364807128906 275.51739501953125 C 425.447509765625 271.4437255859375 424.6783447265625 269.64190673828125 423.9309387207031 268.763427734375 C 422.2939147949219 262.734375 421.57611083984375 259.065185546875 421.64617919921875 250.12991333007812 C 422.935302734375 244.461669921875 423.530029296875 247.61822509765625 422.5166320800781 250.12432861328125 C 421.3681945800781 248.5384521484375 422.5397033691406 247.83413696289062 422.39019775390625 248.72686767578125 C 422.6999206542969 247.09854125976562 424.6768798828125 247.72482299804688 421.9715881347656 249.5916748046875 C 422.25390625 247.0159912109375 422.07574462890625 245.47232055664062 425.462646484375 244.99627685546875 C 429.99285888671875 245.53631591796875 429.7480163574219 249.03231811523438 429.8565368652344 247.93408203125 C 430.18914794921875 249.48721313476562 431.02880859375 249.48184204101562 432.69012451171875 252.81069946289062 C 434.64208984375 256.11114501953125 436.14654541015625 259.1259460449219 436.4505920410156 261.6596984863281 C 437.78680419921875 264.7870788574219 438.4308166503906 267.4593200683594 439.0085754394531 272.38824462890625 C 440.94647216796875 276.3907775878906 440.2204284667969 280.9241027832031 440.1705627441406 283.3157653808594 C 439.84564208984375 283.97137451171875 441.38812255859375 287.52593994140625 440.8860778808594 290.499267578125 C 441.1643981933594 293.3686218261719 440.1822204589844 292.27325439453125 444.26751708984375 292.0354919433594" stroke-width="1.0" fill="rgb(0, 0, 0)" opacity="1.0"/>
  </g>
</svg>
