<?xml version="1.0" ?>
<svg xmlns="http://www.w3.org/2000/svg" version="1.1" width="600" height="600">
  <defs/>
  <g>
    <path d="M 176.22918701171875 289.315673828125 C 179.17922973632812 289.315673828125 181.48690795898438 290.1463623046875 183.15225219726562 291.80780029296875 C 184.86517333984375 293.4217529296875 185.72164916992188 295.7003173828125 185.72164916992188 298.643310546875 C 185.72164916992188 299.40283203125 185.674072265625 300.162353515625 185.57891845703125 300.921875 C 185.48373413085938 301.681396484375 185.29342651367188 302.345947265625 185.0079345703125 302.91552734375 C 183.81842041015625 302.7257080078125 182.48611450195312 302.583251953125 181.0111083984375 302.48834228515625 C 179.58367919921875 302.345947265625 177.8707275390625 302.27471923828125 175.872314453125 302.27471923828125 C 171.73275756835938 302.27471923828125 167.59317016601562 302.6307373046875 163.45361328125 303.3427734375 C 159.36163330078125 304.0548095703125 155.4599609375 304.648193359375 151.74859619140625 305.12286376953125 C 147.60903930664062 314.61669921875 144.20697021484375 323.5645751953125 141.54241943359375 331.96661376953125 C 138.92544555664062 340.3211669921875 136.87945556640625 348.58074951171875 135.40444946289062 356.74542236328125 C 132.3116455078125 356.03338623046875 129.57574462890625 354.72802734375 127.1966552734375 352.8292236328125 C 124.81759643554688 350.93048095703125 122.581298828125 348.272216796875 120.48770141601562 344.85443115234375 C 121.10626220703125 343.43035888671875 121.8675537109375 341.72149658203125 122.7716064453125 339.727783203125 C 123.72323608398438 337.6866455078125 124.84140014648438 335.123291015625 126.1260986328125 332.037841796875 C 127.41079711914062 328.90484619140625 128.93338012695312 325.131103515625 130.69390869140625 320.7164306640625 C 132.45440673828125 316.25439453125 134.57177734375 310.9140625 137.04598999023438 304.6956787109375 C 133.239501953125 303.41400146484375 130.74148559570312 301.1829833984375 129.55194091796875 298.0025634765625 C 129.98016357421875 297.52783203125 131.2410888671875 297.00567626953125 133.33465576171875 296.43603515625 C 135.47579956054688 295.8189697265625 138.04519653320312 295.1544189453125 141.04281616210938 294.4423828125 C 142.42266845703125 290.8822021484375 143.61221313476562 287.7254638671875 144.61141967773438 284.9722900390625 C 145.61062622070312 282.171630859375 146.51467895507812 279.5133056640625 147.32354736328125 276.9974365234375 C 148.18002319335938 274.48162841796875 148.94131469726562 272.0369873046875 149.60745239257812 269.66351318359375 C 150.27359008789062 267.2425537109375 150.89215087890625 264.655517578125 151.463134765625 261.90234375 C 151.2252197265625 261.90234375 150.9873046875 261.90234375 150.7493896484375 261.90234375 C 147.27597045898438 261.90234375 144.46868896484375 261.0953369140625 142.3275146484375 259.4814453125 C 140.18637084960938 257.82000732421875 139.11578369140625 255.68389892578125 139.11578369140625 253.0731201171875 C 139.11578369140625 252.361083984375 139.2347412109375 251.506591796875 139.47265625 250.509765625 C 139.71054077148438 249.512939453125 139.99603271484375 248.658447265625 140.3291015625 247.9464111328125 C 142.089599609375 248.18377685546875 143.80255126953125 248.302490234375 145.4678955078125 248.302490234375 C 147.18081665039062 248.302490234375 149.39334106445312 248.302490234375 152.10546875 248.302490234375 C 157.86279296875 248.302490234375 163.26327514648438 248.302490234375 168.306884765625 248.302490234375 C 173.35052490234375 248.302490234375 177.89453125 247.89898681640625 181.93893432617188 247.09197998046875 C 186.03094482421875 246.2850341796875 189.52813720703125 245.5255126953125 192.43060302734375 244.8134765625 C 195.33306884765625 244.1014404296875 197.56939697265625 243.74542236328125 199.13958740234375 243.74542236328125 C 201.233154296875 243.74542236328125 203.08880615234375 244.93212890625 204.70657348632812 247.30560302734375 C 206.3719482421875 249.6790771484375 207.680419921875 253.04931640625 208.63204956054688 257.41650390625 C 205.6820068359375 256.94183349609375 203.30294799804688 256.7044677734375 201.49484252929688 256.7044677734375 C 199.73434448242188 256.7044677734375 198.16415405273438 256.7044677734375 196.7843017578125 256.7044677734375 C 192.121337890625 256.7044677734375 187.83901977539062 256.9180908203125 183.93734741210938 257.3453369140625 C 180.083251953125 257.77252197265625 176.41949462890625 258.2471923828125 172.94607543945312 258.7694091796875 C 172.42266845703125 259.623779296875 171.80413818359375 260.715576171875 171.09039306640625 262.04473876953125 C 170.42425537109375 263.326416015625 169.54400634765625 265.1539306640625 168.44964599609375 267.52740478515625 C 167.35528564453125 269.90087890625 165.95162963867188 273.01007080078125 164.23870849609375 276.8551025390625 C 162.5733642578125 280.652587890625 160.45599365234375 285.470703125 157.8865966796875 291.30938720703125 C 161.4552001953125 290.73974609375 164.85726928710938 290.26507568359375 168.0927734375 289.88531494140625 C 171.32830810546875 289.50555419921875 174.04043579101562 289.315673828125 176.22918701171875 289.315673828125" stroke-width="1.0" fill="rgb(0, 0, 0)" opacity="1.0"/>
    <path d="M 289.7105712890625 268.5242919921875 C 289.7105712890625 272.7965087890625 288.71136474609375 276.831298828125 286.7129211425781 280.62884521484375 C 284.7620849609375 284.4263916015625 282.04998779296875 287.8204345703125 278.5765380859375 290.81097412109375 C 275.10308837890625 293.801513671875 271.0348815917969 296.3173828125 266.3719482421875 298.3585205078125 C 261.708984375 300.39971923828125 256.64154052734375 301.77630615234375 251.16970825195312 302.48834228515625 C 252.549560546875 306.4757080078125 254.21490478515625 310.55810546875 256.1657409667969 314.7353515625 C 258.1165771484375 318.91259765625 260.23394775390625 322.947509765625 262.517822265625 326.8399658203125 C 264.8017578125 330.6849365234375 267.1807861328125 334.2451171875 269.655029296875 337.5205078125 C 272.1292724609375 340.7484130859375 274.555908203125 343.43035888671875 276.9349670410156 345.56646728515625 C 276.45916748046875 346.4208984375 275.79302978515625 347.275390625 274.9365539550781 348.1297607421875 C 274.080078125 349.03173828125 273.08087158203125 349.83868408203125 271.9389343261719 350.55072021484375 C 270.7969970703125 351.31024169921875 269.6074523925781 351.9273681640625 268.370361328125 352.4019775390625 C 267.13323974609375 352.876708984375 265.96746826171875 353.114013671875 264.87310791015625 353.114013671875 C 262.87469482421875 353.114013671875 260.9476623535156 352.18841552734375 259.09197998046875 350.337158203125 C 257.2839050292969 348.48583984375 255.42822265625 345.56646728515625 253.52496337890625 341.5791015625 C 251.6693115234375 337.5916748046875 249.71847534179688 332.4176025390625 247.6724853515625 326.05670166015625 C 245.62649536132812 319.6484375 243.36639404296875 311.9583740234375 240.89215087890625 302.98675537109375 C 239.8929443359375 302.98675537109375 238.89373779296875 302.98675537109375 237.89453125 302.98675537109375 C 236.89532470703125 302.98675537109375 236.1102294921875 302.891845703125 235.53924560546875 302.70196533203125 C 234.92071533203125 302.36962890625 234.23077392578125 301.77630615234375 233.469482421875 300.921875 C 230.9952392578125 306.00103759765625 228.8065185546875 310.79541015625 226.90325927734375 315.30499267578125 C 225.0 319.76708984375 223.28707885742188 324.08673095703125 221.76446533203125 328.2640380859375 C 220.24188232421875 332.4412841796875 218.90960693359375 336.4998779296875 217.76763916015625 340.4398193359375 C 216.62570190429688 344.332275390625 215.6502685546875 348.29595947265625 214.84140014648438 352.330810546875 C 211.74859619140625 351.6187744140625 209.06027221679688 350.36083984375 206.7763671875 348.5570068359375 C 204.49246215820312 346.753173828125 202.351318359375 344.18988037109375 200.3529052734375 340.8670654296875 C 200.68597412109375 340.06005859375 201.06661987304688 339.27685546875 201.49484252929688 338.517333984375 C 201.923095703125 337.7578125 202.44647216796875 336.68975830078125 203.06503295898438 335.31317138671875 C 203.73117065429688 333.9365234375 204.5400390625 332.18017578125 205.49166870117188 330.0440673828125 C 206.44329833984375 327.907958984375 207.70419311523438 325.05987548828125 209.27438354492188 321.49969482421875 C 210.89215087890625 317.93951416015625 212.81918334960938 313.5960693359375 215.05551147460938 308.469482421875 C 217.29183959960938 303.2952880859375 220.00396728515625 297.00567626953125 223.19189453125 289.6004638671875 C 224.66693115234375 286.32513427734375 225.9278564453125 283.4532470703125 226.974609375 280.98486328125 C 228.02142333984375 278.468994140625 228.94924926757812 276.07183837890625 229.75811767578125 273.7933349609375 C 230.61459350585938 271.5147705078125 231.37588500976562 269.260009765625 232.04202270507812 267.02899169921875 C 232.7557373046875 264.75048828125 233.469482421875 262.1396484375 234.18319702148438 259.19659423828125 C 229.99603271484375 260.62066650390625 226.0943603515625 262.21087646484375 222.47821044921875 263.96722412109375 C 218.86199951171875 265.72357177734375 215.8643798828125 267.57489013671875 213.48532104492188 269.5211181640625 C 212.67645263671875 268.99896240234375 211.81997680664062 268.2156982421875 210.91595458984375 267.17138671875 C 210.05947875976562 266.07958984375 209.27438354492188 264.89288330078125 208.5606689453125 263.6112060546875 C 207.84695434570312 262.32958984375 207.20458984375 261.024169921875 206.63363647460938 259.69500732421875 C 206.06265258789062 258.36590576171875 205.75335693359375 257.17919921875 205.70578002929688 256.13482666015625 C 208.41790771484375 254.3310546875 211.74859619140625 252.693359375 215.6978759765625 251.2218017578125 C 219.6947021484375 249.7027587890625 223.929443359375 248.39739990234375 228.40206909179688 247.30560302734375 C 232.87469482421875 246.1663818359375 237.4425048828125 245.2882080078125 242.10546875 244.67108154296875 C 246.7684326171875 244.053955078125 251.12213134765625 243.74542236328125 255.16653442382812 243.74542236328125 C 266.1102294921875 243.74542236328125 274.6034851074219 245.9527587890625 280.64630126953125 250.36737060546875 C 286.68914794921875 254.781982421875 289.7105712890625 260.83428955078125 289.7105712890625 268.5242919921875M 256.23712158203125 256.9892578125 C 255.6185302734375 257.7962646484375 254.61932373046875 259.41021728515625 253.239501953125 261.83111572265625 C 251.85964965820312 264.2520751953125 250.26568603515625 267.14764404296875 248.45758056640625 270.5179443359375 C 246.69708251953125 273.88824462890625 244.84140014648438 277.5433349609375 242.89056396484375 281.4832763671875 C 240.93972778320312 285.4232177734375 239.0364990234375 289.315673828125 237.18081665039062 293.16064453125 C 244.03253173828125 293.16064453125 250.3370361328125 292.5435791015625 256.0943603515625 291.30938720703125 C 261.8517150878906 290.0277099609375 266.8239440917969 288.24761962890625 271.0111083984375 285.9691162109375 C 275.245849609375 283.64312744140625 278.5289306640625 280.9373779296875 280.86041259765625 277.8519287109375 C 283.1919250488281 274.718994140625 284.357666015625 271.25372314453125 284.357666015625 267.4561767578125 C 284.357666015625 262.994140625 282.69232177734375 259.57635498046875 279.36163330078125 257.202880859375 C 276.0784912109375 254.781982421875 271.0111083984375 253.571533203125 264.1593933105469 253.571533203125 C 262.6368103027344 253.571533203125 261.09039306640625 253.66644287109375 259.52020263671875 253.8563232421875 C 257.9500427246094 253.998779296875 256.3084716796875 254.1885986328125 254.5955810546875 254.42596435546875 C 255.14276123046875 255.2803955078125 255.68994140625 256.13482666015625 256.23712158203125 256.9892578125" stroke-width="1.0" fill="rgb(0, 0, 0)" opacity="1.0"/>
    <path d="M 355.58685302734375 245.3118896484375 C 357.34735107421875 246.02392578125 359.13165283203125 246.92584228515625 360.939697265625 248.01763916015625 C 362.747802734375 249.10943603515625 364.43695068359375 250.2249755859375 366.00714111328125 251.36419677734375 C 367.57733154296875 252.50347900390625 368.88580322265625 253.6190185546875 369.9326171875 254.7108154296875 C 370.9793701171875 255.80255126953125 371.55035400390625 256.7044677734375 371.6455078125 257.41650390625 C 370.0753173828125 256.9892578125 368.505126953125 256.7044677734375 366.9349365234375 256.56207275390625 C 365.412353515625 256.419677734375 364.00872802734375 256.34844970703125 362.7239990234375 256.34844970703125 C 358.58447265625 256.34844970703125 354.49249267578125 257.321533203125 350.44805908203125 259.267822265625 C 346.40362548828125 261.16656494140625 342.549560546875 263.77734375 338.88580322265625 267.1002197265625 C 335.2220458984375 270.37554931640625 331.82000732421875 274.2442626953125 328.67962646484375 278.70635986328125 C 325.58685302734375 283.16845703125 322.92230224609375 287.91534423828125 320.68597412109375 292.94708251953125 C 318.44964599609375 297.978759765625 316.68914794921875 303.20037841796875 315.4044494628906 308.61181640625 C 314.1673583984375 314.0233154296875 313.54876708984375 319.33984375 313.54876708984375 324.5614013671875 C 313.54876708984375 331.3494873046875 314.7145080566406 336.40496826171875 317.0460205078125 339.727783203125 C 319.425048828125 343.0506591796875 322.89849853515625 344.7120361328125 327.46630859375 344.7120361328125 C 329.70263671875 344.7120361328125 332.0816650390625 344.30859375 334.603515625 343.5015869140625 C 337.1728515625 342.6470947265625 339.76605224609375 341.484130859375 342.383056640625 340.0125732421875 C 345.047607421875 338.54107666015625 347.66455078125 336.760986328125 350.23394775390625 334.67236328125 C 352.8033447265625 332.583740234375 355.182373046875 330.281494140625 357.37115478515625 327.765625 C 360.55908203125 324.1104736328125 363.437744140625 319.9569091796875 366.00714111328125 315.30499267578125 C 368.5765380859375 310.60552978515625 370.741455078125 305.64501953125 372.501953125 300.4234619140625 C 374.31005859375 295.20184326171875 375.68994140625 289.837890625 376.6416015625 284.3314208984375 C 377.5931396484375 278.777587890625 378.0689697265625 273.3660888671875 378.0689697265625 268.0970458984375 C 378.0689697265625 266.0084228515625 378.02142333984375 264.2520751953125 377.92626953125 262.8280029296875 C 377.8310546875 261.3564453125 377.712158203125 260.12225341796875 377.56939697265625 259.1253662109375 C 377.4266357421875 258.1285400390625 377.30767822265625 257.321533203125 377.2125244140625 256.7044677734375 C 377.11737060546875 256.08740234375 377.0460205078125 255.565185546875 376.9984130859375 255.13800048828125 C 378.0927734375 255.66015625 379.2823486328125 256.301025390625 380.5670166015625 257.06048583984375 C 381.8992919921875 257.82000732421875 383.13641357421875 258.935546875 384.2783203125 260.40704345703125 C 385.4202880859375 261.87860107421875 386.3719482421875 263.80108642578125 387.13323974609375 266.174560546875 C 387.942138671875 268.5479736328125 388.3465576171875 271.6572265625 388.3465576171875 275.502197265625 C 388.3465576171875 281.6732177734375 387.585205078125 287.74920654296875 386.0626220703125 293.7303466796875 C 384.587646484375 299.71142578125 382.4940185546875 305.40771484375 379.78192138671875 310.81915283203125 C 377.06982421875 316.2305908203125 373.8818359375 321.28607177734375 370.21807861328125 325.9854736328125 C 366.6019287109375 330.6849365234375 362.67645263671875 334.81475830078125 358.44171142578125 338.3748779296875 C 352.9698486328125 343.0743408203125 347.11737060546875 346.70574951171875 340.88421630859375 349.26904296875 C 334.69866943359375 351.8323974609375 328.7271728515625 353.114013671875 322.9698486328125 353.114013671875 C 314.5479736328125 353.114013671875 308.12451171875 350.5269775390625 303.699462890625 345.3529052734375 C 299.2743835449219 340.1787109375 297.0618591308594 332.5362548828125 297.0618591308594 322.42529296875 C 297.0618591308594 317.06134033203125 297.680419921875 311.36505126953125 298.91754150390625 305.33648681640625 C 300.1546325683594 299.30792236328125 301.891357421875 293.374267578125 304.127685546875 287.53564453125 C 306.364013671875 281.6968994140625 309.028564453125 276.14306640625 312.121337890625 270.87396240234375 C 315.26171875 265.60491943359375 318.66375732421875 260.9766845703125 322.3275146484375 256.9892578125 C 326.03887939453125 252.95440673828125 330.01190185546875 249.750244140625 334.24664306640625 247.3768310546875 C 338.5289306640625 244.95587158203125 342.90643310546875 243.74542236328125 347.37908935546875 243.74542236328125 C 348.8541259765625 243.74542236328125 350.21014404296875 243.8641357421875 351.447265625 244.1014404296875 C 352.73193359375 244.29132080078125 354.11181640625 244.69482421875 355.58685302734375 245.3118896484375" stroke-width="1.0" fill="rgb(0, 0, 0)" opacity="1.0"/>
    <path d="M 467.02178955078125 298.52764892578125 C 464.3831787109375 313.0321960449219 469.6460876464844 313.4981689453125 478.0541076660156 308.7503356933594 C 479.98345947265625 304.283935546875 485.24493408203125 300.6364440917969 486.1202697753906 310.3838806152344 C 476.1195068359375 311.7422790527344 476.1727294921875 315.6242370605469 484.26763916015625 317.1695556640625 C 494.9488525390625 317.8826599121094 494.4223327636719 324.560302734375 488.85845947265625 325.9566650390625 C 482.41241455078125 320.33990478515625 478.8905944824219 317.3856201171875 472.048583984375 321.015869140625 C 471.0552978515625 320.7314147949219 471.91656494140625 322.9459228515625 467.5303649902344 334.408447265625 C 447.4220886230469 343.3420104980469 467.31298828125 337.29925537109375 469.6292724609375 350.32525634765625 C 448.1280517578125 341.6465759277344 450.4393310546875 342.8635559082031 441.1555480957031 345.1304626464844 C 436.6678161621094 349.2373046875 431.7928161621094 350.6776123046875 431.5221252441406 349.90167236328125 C 424.1812438964844 353.114013671875 420.3308410644531 346.16461181640625 423.0721740722656 337.9620666503906 C 408.3812255859375 338.59307861328125 390.8680419921875 332.6422424316406 383.9488525390625 318.6658630371094 C 391.2340087890625 307.8577880859375 413.8899841308594 320.55413818359375 407.7179870605469 307.2590026855469 C 413.068359375 289.70196533203125 420.7298889160156 283.1259460449219 429.5997619628906 275.75177001953125 C 440.92486572265625 265.85723876953125 443.9884033203125 269.3338623046875 439.51617431640625 259.3558044433594 C 443.05987548828125 248.454345703125 455.05615234375 248.56565856933594 456.84918212890625 256.8084411621094 C 468.9427490234375 256.8592224121094 470.268310546875 252.0750274658203 475.244140625 252.82098388671875 C 479.57342529296875 255.93084716796875 485.927001953125 256.8265380859375 483.5596923828125 260.7977294921875 C 490.6995849609375 268.263427734375 489.09857177734375 270.767333984375 485.89544677734375 274.2949523925781 C 482.5893249511719 271.3300476074219 472.566162109375 271.2611999511719 459.2845458984375 278.0911865234375 C 472.6964111328125 276.8375549316406 475.3123779296875 276.1656799316406 488.36322021484375 269.408203125 C 478.733154296875 265.1546325683594 475.03533935546875 270.3429260253906 469.26678466796875 269.7981872558594 C 466.55621337890625 271.44390869140625 465.85333251953125 266.64093017578125 466.32659912109375 258.2260437011719 C 469.09930419921875 253.46240234375 471.9495544433594 249.12554931640625 484.80438232421875 258.6719665527344 C 487.158203125 246.80332946777344 476.5347595214844 243.74542236328125 471.7340087890625 249.29318237304688 C 469.46624755859375 252.365478515625 470.9712219238281 261.1183166503906 470.2316589355469 270.02783203125 C 461.92889404296875 271.85223388671875 453.97869873046875 273.14178466796875 448.70880126953125 279.53717041015625 C 439.5954895019531 285.45159912109375 428.78961181640625 288.7050476074219 420.53021240234375 296.3590087890625 C 411.9088134765625 300.5348205566406 416.3846435546875 306.762451171875 423.59368896484375 321.8130187988281 C 422.337646484375 327.3717041015625 426.13934326171875 325.36260986328125 426.4125061035156 331.24029541015625 C 423.22198486328125 337.7373046875 424.07977294921875 342.03082275390625 422.8345947265625 342.1325988769531 C 421.57965087890625 347.4533996582031 424.0032653808594 349.89764404296875 426.7359924316406 349.70001220703125 C 427.2828063964844 350.4502868652344 431.672607421875 349.73443603515625 432.4443664550781 349.41632080078125 C 432.20660400390625 348.4446105957031 438.93048095703125 349.1302185058594 440.3523254394531 346.38214111328125 C 434.1081848144531 337.3210144042969 435.5091857910156 334.9054870605469 452.0005798339844 336.170166015625 C 460.55755615234375 332.4909362792969 458.77459716796875 327.255126953125 476.8763732910156 331.2516174316406 C 478.19036865234375 323.97430419921875 473.67926025390625 323.04681396484375 464.636474609375 317.5528259277344 C 456.2725830078125 311.87158203125 455.79058837890625 318.6068115234375 447.92205810546875 316.9406433105469 C 446.8571472167969 316.8841552734375 447.0740661621094 319.1810607910156 446.4319152832031 322.1543273925781 C 444.7069091796875 324.40313720703125 447.9722900390625 335.1335754394531 437.6414794921875 344.8316650390625 C 434.9997253417969 329.5282897949219 439.093994140625 320.87579345703125 437.5987548828125 312.98028564453125 C 428.8929443359375 304.3726806640625 434.104736328125 299.53277587890625 444.9735107421875 305.48431396484375 C 448.2483825683594 318.7768859863281 449.9952392578125 322.14312744140625 457.39654541015625 316.52703857421875 C 461.81512451171875 311.1961364746094 462.4701843261719 307.0499267578125 468.6055908203125 303.94415283203125 C 473.1221008300781 289.4603576660156 478.0838623046875 281.83392333984375 467.02178955078125 298.52764892578125" stroke-width="1.0" fill="rgb(0, 0, 0)" opacity="1.0"/>
  </g>
</svg>
