<?xml version="1.0" ?>
<svg xmlns="http://www.w3.org/2000/svg" version="1.1" width="600" height="600">
  <defs/>
  <g>
    <path d="M 169.2413787841797 306.2014465332031 C 174.31712341308594 289.3862609863281 179.0000762939453 277.3359375 184.12742614746094 261.49395751953125 C 166.12437438964844 257.9931945800781 165.9467315673828 249.14889526367188 184.6781768798828 257.7784423828125 C 200.58995056152344 255.8004913330078 195.45848083496094 251.24179077148438 195.9107208251953 253.98330688476562 C 193.98329162597656 263.22406005859375 191.49766540527344 269.1980895996094 186.01783752441406 285.42523193359375 C 205.91200256347656 271.489013671875 203.6216583251953 309.49371337890625 186.4541778564453 298.50445556640625 C 185.55796813964844 279.3884582519531 182.9124298095703 295.2591247558594 179.8386993408203 303.82568359375 C 179.0547637939453 312.1841735839844 174.39137268066406 318.53961181640625 173.40342712402344 326.5999755859375 C 169.76075744628906 334.1918029785156 181.9319305419922 317.2210998535156 184.68003845214844 343.1924743652344 C 157.7677764892578 351.275390625 163.13172912597656 339.5027770996094 181.1977081298828 353.6016845703125 C 172.2743682861328 374.33984375 162.6741180419922 361.1810607910156 162.32032775878906 359.42877197265625 C 158.96092224121094 373.015869140625 156.41209411621094 378.3675231933594 156.11708068847656 381.5310363769531 C 155.7627410888672 384.898681640625 154.2949676513672 389.9417419433594 153.05845642089844 392.7641906738281 C 151.08827209472656 396.16265869140625 149.11524963378906 396.9278564453125 148.1200714111328 398.47833251953125 C 142.30661010742188 403.1109619140625 128.43275451660156 404.66668701171875 121.09452819824219 398.550048828125 C 115.15416717529297 394.3827209472656 113.01327514648438 389.60205078125 114.18563842773438 385.0490417480469 C 126.1094970703125 391.71063232421875 136.10415649414062 389.61077880859375 115.15412902832031 392.15264892578125 C 109.64924621582031 383.82818603515625 113.62191009521484 371.45196533203125 122.19828796386719 368.2068176269531 C 126.07762145996094 368.16387939453125 127.3826904296875 370.9414978027344 129.26708984375 374.9925842285156 C 121.65640258789062 374.3853454589844 121.10282897949219 373.2978210449219 119.09210205078125 372.495361328125 C 121.94950866699219 364.3439025878906 132.63768005371094 368.5382995605469 127.78941345214844 381.0962219238281 C 116.82280731201172 377.9284362792969 114.33561706542969 370.8336486816406 127.41664123535156 365.9624938964844 C 142.7378692626953 366.6035461425781 145.12513732910156 379.8909606933594 135.97549438476562 386.9150085449219 C 145.1959228515625 388.80926513671875 148.1807098388672 376.1759948730469 150.1299591064453 364.5943298339844 C 150.5479278564453 361.2801208496094 155.11695861816406 351.89984130859375 158.20372009277344 340.8546142578125 C 159.6331329345703 337.6723937988281 164.69273376464844 322.9013977050781 169.2413787841797 306.2014465332031M 190.85411071777344 241.6685333251953 C 192.2067413330078 238.21673583984375 196.08705139160156 241.54046630859375 189.83253479003906 244.0565185546875 C 190.1043243408203 238.31919860839844 192.0397186279297 239.60800170898438 191.0923309326172 241.51683044433594 C 193.5640411376953 234.5657958984375 193.02687072753906 229.98016357421875 197.6058807373047 225.72000122070312 C 203.1466522216797 229.41720581054688 191.4880828857422 241.02432250976562 193.8708953857422 228.1973876953125 C 204.6620635986328 213.00390625 208.40281677246094 219.31643676757812 194.99147033691406 210.0693359375 C 186.75233459472656 195.6666259765625 181.76524353027344 203.33323669433594 190.8353729248047 207.1362762451172 C 199.60890197753906 208.4173583984375 202.72337341308594 215.4466552734375 206.4126434326172 215.96226501464844 C 208.1674346923828 215.07264709472656 208.96522521972656 214.1509552001953 214.1291046142578 213.27783203125 C 212.7992706298828 212.51268005371094 215.09825134277344 213.02041625976562 220.50267028808594 212.63082885742188 C 225.4215850830078 214.2864227294922 226.6739959716797 210.8589324951172 251.6492462158203 233.27389526367188 C 231.37525939941406 243.79962158203125 227.0199737548828 222.0699462890625 216.37962341308594 225.4978485107422 C 205.55335998535156 228.2293701171875 202.60008239746094 235.03436279296875 201.05384826660156 236.6404571533203 C 201.30555725097656 235.34298706054688 200.2267608642578 243.80621337890625 199.0338592529297 247.43646240234375 C 198.64109802246094 243.14779663085938 198.27769470214844 250.75408935546875 195.1795196533203 257.5195007324219 C 191.40370178222656 263.82867431640625 186.82655334472656 262.12982177734375 184.1294403076172 258.95263671875 C 185.5806427001953 254.0303192138672 189.20570373535156 249.61557006835938 190.85411071777344 241.6685333251953" stroke-width="1.0" fill="rgb(0, 0, 0)" opacity="1.0"/>
    <path d="M 288.451171875 262.36456298828125 C 289.70562744140625 262.36456298828125 291.1911926269531 262.62847900390625 292.9078369140625 263.15625 C 294.62451171875 263.6180419921875 296.17608642578125 264.2447509765625 297.5625915527344 265.03643798828125 C 298.9490966796875 265.76214599609375 300.10455322265625 266.5538330078125 301.02886962890625 267.41143798828125 C 302.0192565917969 268.203125 302.51446533203125 268.9288330078125 302.51446533203125 269.5885009765625 C 301.2269592285156 272.1614990234375 299.989013671875 274.7508544921875 298.800537109375 277.3568115234375 C 297.61212158203125 279.962646484375 296.4731750488281 282.5850830078125 295.3837890625 285.2239990234375 C 294.327392578125 287.829833984375 293.3452453613281 290.38629150390625 292.43743896484375 292.8931884765625 C 291.52960205078125 295.400146484375 290.6960144042969 297.857666015625 289.93670654296875 300.265625 C 288.41815185546875 305.015625 287.2297058105469 309.501708984375 286.37139892578125 313.7239990234375 C 285.5791015625 317.8802490234375 285.1829528808594 321.5086669921875 285.1829528808594 324.609375 C 285.1829528808594 328.0399169921875 285.54608154296875 330.90972900390625 286.2723388671875 333.21875 C 287.06463623046875 335.4617919921875 288.35211181640625 337.078125 290.1347961425781 338.0677490234375 C 288.6162109375 339.0572509765625 286.635498046875 339.8489990234375 284.19256591796875 340.4427490234375 C 281.815673828125 341.0364990234375 279.6698913574219 341.3333740234375 277.7551574707031 341.3333740234375 C 274.3218688964844 341.3333740234375 271.7469177246094 340.1953125 270.0302734375 337.9193115234375 C 268.3135986328125 335.6431884765625 267.4552917480469 332.2291259765625 267.4552917480469 327.6771240234375 C 267.4552917480469 324.1805419921875 268.0577697753906 320.040771484375 269.2627258300781 315.2578125 C 269.8652038574219 312.8663330078125 270.6182861328125 310.31402587890625 271.5220031738281 307.6009521484375 C 272.42572021484375 304.8878173828125 273.4800720214844 302.013916015625 274.68499755859375 298.9791259765625 C 273.4305419921875 301.782958984375 272.0770263671875 304.50433349609375 270.6244812011719 307.1431884765625 C 269.17193603515625 309.7821044921875 267.620361328125 312.3385009765625 265.9697265625 314.8125 C 264.3191223144531 317.25347900390625 262.6519775390625 319.5625 260.9683837890625 321.7396240234375 C 259.28472900390625 323.9166259765625 257.5845947265625 325.9617919921875 255.86795043945312 327.875 C 252.43466186523438 331.6353759765625 248.96835327148438 334.703125 245.46905517578125 337.078125 C 242.0357666015625 339.453125 238.8665771484375 340.87152099609375 235.96148681640625 341.3333740234375 C 231.27374267578125 341.3333740234375 227.44427490234375 339.2552490234375 224.47317504882812 335.0989990234375 C 223.0206298828125 333.0208740234375 221.93121337890625 330.654052734375 221.2049560546875 327.9986572265625 C 220.47869873046875 325.34332275390625 220.11553955078125 322.3992919921875 220.11553955078125 319.1666259765625 C 220.11553955078125 315.703125 220.49517822265625 312.140625 221.25445556640625 308.4791259765625 C 222.01376342773438 304.8177490234375 223.15267944335938 301.0572509765625 224.6712646484375 297.1978759765625 C 226.22283935546875 293.3385009765625 227.98074340820312 289.6275634765625 229.94497680664062 286.0650634765625 C 231.90921020507812 282.5025634765625 234.07977294921875 279.0885009765625 236.4566650390625 275.8228759765625 C 238.83355712890625 272.5242919921875 241.30950927734375 269.497802734375 243.88446044921875 266.74346923828125 C 246.45941162109375 263.9891357421875 249.1334228515625 261.5069580078125 251.90646362304688 259.296875 C 254.67950439453125 257.0867919921875 257.4112854003906 255.42926025390625 260.101806640625 254.32421875 C 262.79229736328125 253.21917724609375 265.4415283203125 252.6666259765625 268.0495300292969 252.6666259765625 C 269.3039855957031 253.0625 270.7235107421875 253.8211669921875 272.30810546875 254.94268798828125 C 273.8927001953125 255.998291015625 275.4112854003906 257.28472900390625 276.86383056640625 258.80206298828125 C 278.38238525390625 260.25347900390625 279.6368713378906 261.77081298828125 280.6272277832031 263.3541259765625 C 281.61761474609375 264.87152099609375 282.1788330078125 266.19097900390625 282.31085205078125 267.3125 C 279.7689208984375 267.67535400390625 277.1856994628906 268.458740234375 274.56121826171875 269.6627197265625 C 271.9367370605469 270.86676025390625 269.27099609375 272.4913330078125 266.56396484375 274.5364990234375 C 263.88995361328125 276.58160400390625 261.3397521972656 278.8411865234375 258.913330078125 281.3150634765625 C 256.4869384765625 283.7890625 254.184326171875 286.4774169921875 252.0054931640625 289.3802490234375 C 249.82669067382812 292.25 247.83770751953125 295.22698974609375 246.03851318359375 298.3111572265625 C 244.23934936523438 301.3953857421875 242.62997436523438 304.5867919921875 241.21044921875 307.8853759765625 C 239.82394409179688 311.1510009765625 238.7840576171875 314.3094482421875 238.09078979492188 317.3607177734375 C 237.39752197265625 320.411865234375 237.0509033203125 323.35589599609375 237.0509033203125 326.1927490234375 C 237.0509033203125 328.5677490234375 237.94223022460938 330.0521240234375 239.72491455078125 330.6458740234375 C 241.5736083984375 330.282958984375 243.56259155273438 329.3345947265625 245.69189453125 327.80078125 C 247.8211669921875 326.2669677734375 250.09078979492188 324.1475830078125 252.50067138671875 321.4427490234375 C 254.91058349609375 318.73785400390625 257.5680847167969 315.290771484375 260.4731750488281 311.1015625 C 261.92572021484375 309.0069580078125 263.440185546875 306.726806640625 265.0165100097656 304.2611083984375 C 266.59283447265625 301.79534912109375 268.2310791015625 299.14410400390625 269.93121337890625 296.3072509765625 C 271.251708984375 294.064208984375 272.70428466796875 291.59027099609375 274.2888488769531 288.8853759765625 C 275.8734436035156 286.1146240234375 277.4910583496094 283.2447509765625 279.14166259765625 280.2760009765625 C 280.79229736328125 277.3072509765625 282.409912109375 274.3055419921875 283.9945068359375 271.2708740234375 C 285.5791015625 268.170166015625 287.06463623046875 265.201416015625 288.451171875 262.36456298828125" stroke-width="1.0" fill="rgb(0, 0, 0)" opacity="1.0"/>
    <path d="M 304.6932678222656 334.109375 C 304.6932678222656 331.998291015625 306.4759521484375 328.6007080078125 310.041259765625 323.9166259765625 C 313.6065979003906 319.1666259765625 318.327392578125 313.7899169921875 324.2035827636719 307.7864990234375 C 330.07977294921875 301.717041015625 336.8473205566406 295.3507080078125 344.5061950683594 288.6875 C 352.2310791015625 281.9583740234375 360.18707275390625 275.4930419921875 368.3741455078125 269.2916259765625 C 363.0921630859375 267.90625 358.89959716796875 266.9166259765625 355.79644775390625 266.3228759765625 C 352.6932373046875 265.6632080078125 350.184326171875 265.33331298828125 348.26959228515625 265.33331298828125 C 344.57220458984375 265.33331298828125 341.27099609375 265.92706298828125 338.36590576171875 267.11456298828125 C 335.4608154296875 268.236083984375 332.6217346191406 270.08331298828125 329.84869384765625 272.65625 C 323.97247314453125 267.84027099609375 321.0343933105469 262.298583984375 321.0343933105469 256.03125 C 321.0343933105469 254.1180419921875 321.10040283203125 252.99652099609375 321.23248291015625 252.6666259765625 C 323.4112854003906 250.62152099609375 325.98626708984375 249.0711669921875 328.9573669433594 248.015625 C 331.928466796875 246.89410400390625 335.06463623046875 246.33331298828125 338.36590576171875 246.33331298828125 C 341.93121337890625 246.33331298828125 345.52960205078125 246.861083984375 349.16094970703125 247.9166259765625 C 352.85833740234375 248.90625 356.48968505859375 249.9947509765625 360.0550231933594 251.1822509765625 C 363.620361328125 252.3038330078125 366.9546203613281 253.392333984375 370.0577697753906 254.4478759765625 C 373.16094970703125 255.4375 375.9010009765625 255.9322509765625 378.27783203125 255.9322509765625 C 379.66436767578125 255.9322509765625 381.2159423828125 255.767333984375 382.9326171875 255.4375 C 384.64923095703125 255.107666015625 386.06878662109375 254.64581298828125 387.19122314453125 254.05206298828125 C 388.379638671875 254.90972900390625 389.43603515625 256.592041015625 390.3603515625 259.09893798828125 C 391.28472900390625 261.60589599609375 391.74688720703125 264.046875 391.74688720703125 266.421875 C 387.8514404296875 268.00518798828125 383.13067626953125 270.80902099609375 377.5845947265625 274.8333740234375 C 372.10455322265625 278.7916259765625 366.492431640625 283.376708984375 360.748291015625 288.5885009765625 C 355.07012939453125 293.734375 349.5240478515625 299.2430419921875 344.11004638671875 305.1146240234375 C 338.76202392578125 310.920166015625 334.30535888671875 316.3958740234375 330.74005126953125 321.5416259765625 C 333.3810119628906 322.7291259765625 337.01239013671875 323.3228759765625 341.63409423828125 323.3228759765625 C 344.5392150878906 323.3228759765625 347.51031494140625 323.05902099609375 350.5474548339844 322.53125 C 353.5845947265625 322.00347900390625 356.522705078125 321.27777099609375 359.36175537109375 320.3541259765625 C 362.2008056640625 319.4305419921875 364.8088073730469 318.342041015625 367.1856994628906 317.0885009765625 C 369.62860107421875 315.8350830078125 371.67535400390625 314.482666015625 373.32598876953125 313.03125 C 379.26824951171875 316.9896240234375 382.2393798828125 322.828125 382.2393798828125 330.546875 C 382.2393798828125 331.6024169921875 382.20635986328125 332.4600830078125 382.14031982421875 333.1197509765625 C 382.14031982421875 333.779541015625 382.07427978515625 334.6041259765625 381.9422607421875 335.59375 C 376.0660400390625 339.420166015625 369.7276611328125 341.3333740234375 362.9270935058594 341.3333740234375 C 359.49383544921875 341.3333740234375 356.0605163574219 340.970458984375 352.62725830078125 340.2447509765625 C 349.1939697265625 339.51910400390625 345.85968017578125 338.7274169921875 342.6244812011719 337.8697509765625 C 339.3892822265625 337.078125 336.35211181640625 336.3194580078125 333.5130615234375 335.59375 C 330.67401123046875 334.8680419921875 328.03302001953125 334.5052490234375 325.590087890625 334.5052490234375 C 319.51580810546875 334.5052490234375 314.59698486328125 337.4739990234375 310.83355712890625 343.4114990234375 C 309.1829528808594 342.751708984375 307.79644775390625 341.564208984375 306.67401123046875 339.8489990234375 C 305.61761474609375 338.1336669921875 304.95733642578125 336.220458984375 304.6932678222656 334.109375" stroke-width="1.0" fill="rgb(0, 0, 0)" opacity="1.0"/>
    <path d="M 393.4305419921875 334.109375 C 393.4305419921875 331.998291015625 395.21319580078125 328.6007080078125 398.778564453125 323.9166259765625 C 402.3438720703125 319.1666259765625 407.064697265625 313.7899169921875 412.94085693359375 307.7864990234375 C 418.8170166015625 301.717041015625 425.5845947265625 295.3507080078125 433.24346923828125 288.6875 C 440.9683837890625 281.9583740234375 448.92431640625 275.4930419921875 457.1114501953125 269.2916259765625 C 451.8294677734375 267.90625 447.6368408203125 266.9166259765625 444.53369140625 266.3228759765625 C 441.4305419921875 265.6632080078125 438.921630859375 265.33331298828125 437.00689697265625 265.33331298828125 C 433.30950927734375 265.33331298828125 430.00823974609375 265.92706298828125 427.1031494140625 267.11456298828125 C 424.1981201171875 268.236083984375 421.3590087890625 270.08331298828125 418.5859375 272.65625 C 412.70977783203125 267.84027099609375 409.77166748046875 262.298583984375 409.77166748046875 256.03125 C 409.77166748046875 254.1180419921875 409.83770751953125 252.99652099609375 409.9697265625 252.6666259765625 C 412.1485595703125 250.62152099609375 414.7235107421875 249.0711669921875 417.69464111328125 248.015625 C 420.665771484375 246.89410400390625 423.80194091796875 246.33331298828125 427.1031494140625 246.33331298828125 C 430.66851806640625 246.33331298828125 434.266845703125 246.861083984375 437.898193359375 247.9166259765625 C 441.5955810546875 248.90625 445.2269287109375 249.9947509765625 448.79229736328125 251.1822509765625 C 452.357666015625 252.3038330078125 455.69189453125 253.392333984375 458.7950439453125 254.4478759765625 C 461.898193359375 255.4375 464.63824462890625 255.9322509765625 467.01513671875 255.9322509765625 C 468.401611328125 255.9322509765625 469.9532470703125 255.767333984375 471.669921875 255.4375 C 473.386474609375 255.107666015625 474.8060302734375 254.64581298828125 475.928466796875 254.05206298828125 C 477.116943359375 254.90972900390625 478.17333984375 256.592041015625 479.09765625 259.09893798828125 C 480.02197265625 261.60589599609375 480.48419189453125 264.046875 480.48419189453125 266.421875 C 476.5887451171875 268.00518798828125 471.867919921875 270.80902099609375 466.3218994140625 274.8333740234375 C 460.841796875 278.7916259765625 455.229736328125 283.376708984375 449.485595703125 288.5885009765625 C 443.80743408203125 293.734375 438.2613525390625 299.2430419921875 432.8472900390625 305.1146240234375 C 427.49932861328125 310.920166015625 423.0426025390625 316.3958740234375 419.477294921875 321.5416259765625 C 422.1182861328125 322.7291259765625 425.7496337890625 323.3228759765625 430.37139892578125 323.3228759765625 C 433.2764892578125 323.3228759765625 436.24755859375 323.05902099609375 439.28472900390625 322.53125 C 442.3218994140625 322.00347900390625 445.260009765625 321.27777099609375 448.0989990234375 320.3541259765625 C 450.9381103515625 319.4305419921875 453.54608154296875 318.342041015625 455.9229736328125 317.0885009765625 C 458.36590576171875 315.8350830078125 460.41265869140625 314.482666015625 462.06329345703125 313.03125 C 468.0054931640625 316.9896240234375 470.97662353515625 322.828125 470.97662353515625 330.546875 C 470.97662353515625 331.6024169921875 470.943603515625 332.4600830078125 470.8775634765625 333.1197509765625 C 470.8775634765625 333.779541015625 470.8115234375 334.6041259765625 470.67950439453125 335.59375 C 464.8033447265625 339.420166015625 458.4649658203125 341.3333740234375 451.66436767578125 341.3333740234375 C 448.2310791015625 341.3333740234375 444.7978515625 340.970458984375 441.364501953125 340.2447509765625 C 437.93121337890625 339.51910400390625 434.59698486328125 338.7274169921875 431.36175537109375 337.8697509765625 C 428.1265869140625 337.078125 425.08941650390625 336.3194580078125 422.2503662109375 335.59375 C 419.4112548828125 334.8680419921875 416.770263671875 334.5052490234375 414.327392578125 334.5052490234375 C 408.25311279296875 334.5052490234375 403.334228515625 337.4739990234375 399.57086181640625 343.4114990234375 C 397.92022705078125 342.751708984375 396.53369140625 341.564208984375 395.4112548828125 339.8489990234375 C 394.3548583984375 338.1336669921875 393.69464111328125 336.220458984375 393.4305419921875 334.109375" stroke-width="1.0" fill="rgb(0, 0, 0)" opacity="1.0"/>
  </g>
</svg>
